<?xml version="1.0" encoding="UTF-8" standalone="no"?>
<!DOCTYPE svg PUBLIC "-//W3C//DTD SVG 1.1//EN" "http://www.w3.org/Graphics/SVG/1.1/DTD/svg11.dtd">
<svg width="100%" height="100%" viewBox="0 0 814 93" version="1.1" xmlns="http://www.w3.org/2000/svg" xmlns:xlink="http://www.w3.org/1999/xlink" xml:space="preserve" xmlns:serif="http://www.serif.com/" style="fill-rule:evenodd;clip-rule:evenodd;stroke-linecap:round;stroke-linejoin:round;stroke-miterlimit:1.5;">
    <g transform="matrix(1,0,0,1,-3380.6,892.217)">
        <g transform="matrix(2.51372,0,0,0.241047,2011.52,-1054.9)">
            <rect x="544.646" y="801.886" width="323.556" height="246.296" style="fill:rgb(235,240,246);"/>
        </g>
        <g id="g28358">
        </g>
        <g id="g283581" serif:id="g28358">
        </g>
        <g transform="matrix(1.25465,0,0,1.25465,-1639.36,-662.209)">
            <g transform="matrix(0.395521,0,0,0.369645,2971.64,18.13)">
                <path d="M4015.58,-409.535C4015.58,-386.208 3989.89,-367.27 3958.25,-367.27C3953.23,-367.27 3948.24,-367.755 3943.39,-368.713L3918.12,-346.137L3925.35,-374.92C3910.03,-382.83 3900.92,-395.749 3900.92,-409.535C3900.92,-432.861 3926.61,-451.8 3958.25,-451.8C3989.89,-451.8 4015.58,-432.861 4015.58,-409.535Z" style="fill:rgb(159,182,146);fill-opacity:0.89;"/>
            </g>
            <g transform="matrix(0.395521,0,0,0.369645,2961.24,-14.5453)">
                <path d="M4015.58,-409.535C4015.58,-386.208 3989.89,-367.27 3958.25,-367.27C3953.23,-367.27 3948.24,-367.755 3943.39,-368.713L3918.12,-346.137L3925.35,-374.92C3910.03,-382.83 3900.92,-395.749 3900.92,-409.535C3900.92,-432.861 3926.61,-451.8 3958.25,-451.8C3989.89,-451.8 4015.58,-432.861 4015.58,-409.535Z" style="fill:rgb(66,76,35);fill-opacity:0.89;"/>
            </g>
            <g transform="matrix(0.499643,0,0,0.442036,2574.01,26.0592)">
                <path d="M4015.58,-409.535C4015.58,-386.208 3989.89,-367.27 3958.25,-367.27C3953.23,-367.27 3948.24,-367.755 3943.39,-368.713L3918.12,-346.137L3925.35,-374.92C3910.03,-382.83 3900.92,-395.749 3900.92,-409.535C3900.92,-432.861 3926.61,-451.8 3958.25,-451.8C3989.89,-451.8 4015.58,-432.861 4015.58,-409.535Z" style="fill:rgb(81,94,43);fill-opacity:0.89;"/>
            </g>
        </g>
        <g transform="matrix(0.460603,0,0,-0.430981,1889.88,-1138.6)">
            <path d="M3547.4,-740.527L3524.95,-740.527L3530.57,-757.803L3541.79,-757.803L3547.4,-740.527Z" style="fill:rgb(36,47,32);"/>
        </g>
        <g transform="matrix(0.242863,0,0,0.399095,2673.41,-490.803)">
            <ellipse cx="3479.3" cy="-833.087" rx="13.435" ry="14.106" style="fill:none;stroke:rgb(36,47,32);stroke-width:2.27px;"/>
        </g>
        <g transform="matrix(0.460633,-0.00659633,-0.00599249,1.75969,1911.77,647.887)">
            <path d="M3477.18,-826.018L3477.16,-820.345" style="fill:none;stroke:rgb(36,47,32);stroke-width:0.59px;"/>
        </g>
        <g transform="matrix(-0.555014,7.12317e-17,-5.95537e-17,-0.508259,5545.82,-1323.96)">
            <path d="M3652.35,-978.432C3652.35,-978.432 3687.22,-935.436 3687.22,-917.009C3687.22,-895.999 3671.59,-878.941 3652.35,-878.941C3633.11,-878.941 3617.49,-895.999 3617.49,-917.009C3617.49,-935.436 3652.35,-978.432 3652.35,-978.432Z" style="fill:rgb(81,94,43);"/>
        </g>
        <g transform="matrix(-0.555014,7.12317e-17,-5.95537e-17,-0.508259,5545.87,-1324.05)">
            <path d="M3647.9,-879.255C3630.76,-881.683 3617.49,-897.926 3617.49,-917.575C3617.49,-935.832 3652.35,-978.432 3652.35,-978.432C3652.35,-978.432 3652.99,-977.649 3654.1,-976.25C3645.33,-962.001 3639.95,-942.766 3639.95,-921.612C3639.95,-906.047 3642.86,-891.52 3647.9,-879.255Z" style="fill:rgb(168,189,157);"/>
        </g>
        <g transform="matrix(0.647922,0,0,-0.597366,1186.2,-1254.49)">
            <path d="M3547.4,-740.527L3524.95,-740.527L3530.57,-757.803L3541.79,-757.803L3547.4,-740.527Z" style="fill:rgb(36,47,32);"/>
        </g>
        <g transform="matrix(0.341631,0,0,0.55317,2288.38,-356.611)">
            <ellipse cx="3479.3" cy="-833.087" rx="13.435" ry="14.106" style="fill:none;stroke:rgb(36,47,32);stroke-width:1.63px;"/>
        </g>
        <g transform="matrix(0.647964,-0.00914293,-0.00842953,2.43904,1217,1221.68)">
            <path d="M3477.18,-826.018L3477.16,-820.345" style="fill:none;stroke:rgb(36,47,32);stroke-width:0.42px;"/>
        </g>
        <g transform="matrix(-0.780728,9.87316e-17,-8.37731e-17,-0.704479,6328.95,-1511.41)">
            <path d="M3652.35,-978.432C3652.35,-978.432 3687.22,-935.832 3687.22,-917.575C3687.22,-896.253 3671.59,-878.941 3652.35,-878.941C3633.11,-878.941 3617.49,-896.253 3617.49,-917.575C3617.49,-935.832 3652.35,-978.432 3652.35,-978.432Z" style="fill:rgb(81,94,43);"/>
        </g>
        <g transform="matrix(-0.780728,9.87316e-17,-8.37731e-17,-0.704479,6329.02,-1511.55)">
            <path d="M3647.9,-879.255C3630.76,-881.683 3617.49,-897.926 3617.49,-917.575C3617.49,-935.832 3652.35,-978.432 3652.35,-978.432C3652.35,-978.432 3652.99,-977.649 3654.1,-976.25C3645.33,-962.001 3639.95,-942.766 3639.95,-921.612C3639.95,-906.047 3642.86,-891.52 3647.9,-879.255Z" style="fill:rgb(168,189,157);"/>
        </g>
    </g>
</svg>
