<?xml version="1.0" encoding="UTF-8" standalone="no"?>
<!DOCTYPE svg PUBLIC "-//W3C//DTD SVG 1.1//EN" "http://www.w3.org/Graphics/SVG/1.1/DTD/svg11.dtd">
<svg width="100%" height="100%" viewBox="0 0 814 96" version="1.1" xmlns="http://www.w3.org/2000/svg" xmlns:xlink="http://www.w3.org/1999/xlink" xml:space="preserve" xmlns:serif="http://www.serif.com/" style="fill-rule:evenodd;clip-rule:evenodd;stroke-linejoin:round;stroke-miterlimit:2;">
    <g transform="matrix(1,0,0,1,-3384.31,601.702)">
        <g transform="matrix(2.51372,0,0,0.241047,2015.61,-762.367)">
            <rect x="544.646" y="801.886" width="323.556" height="246.296" style="fill:rgb(235,240,246);"/>
        </g>
        <g id="g28358">
        </g>
        <g id="g283581" serif:id="g28358">
        </g>
        <g transform="matrix(0.858942,0,0,0.993978,-64.2983,-415.282)">
            <path d="M4826.55,-181.211L4826.55,-117.484C4826.55,-113.985 4823.26,-111.145 4819.21,-111.145L4737.9,-111.145C4733.86,-111.145 4730.57,-113.985 4730.57,-117.484L4730.57,-181.211C4730.57,-184.71 4733.86,-187.55 4737.9,-187.55L4819.21,-187.55C4823.26,-187.55 4826.55,-184.71 4826.55,-181.211Z" style="fill:rgb(81,94,43);fill-opacity:0.89;"/>
        </g>
        <g transform="matrix(0.993978,0,0,0.993978,-723.999,-417.019)">
            <path d="M4830.36,-166.464C4830.83,-166.593 4831.33,-166.662 4831.84,-166.662L4850.76,-166.662C4852.59,-166.662 4854.31,-165.755 4855.34,-164.239L4872.3,-139.389C4872.93,-138.467 4873.26,-137.376 4873.26,-136.259L4873.26,-115.174C4873.26,-112.107 4870.78,-109.621 4867.71,-109.621L4831.84,-109.621C4831.33,-109.621 4830.83,-109.69 4830.36,-109.819L4830.36,-166.464Z" style="fill:rgb(168,189,157);fill-opacity:0.89;"/>
            <clipPath id="_clip1">
                <path d="M4830.36,-166.464C4830.83,-166.593 4831.33,-166.662 4831.84,-166.662L4850.76,-166.662C4852.59,-166.662 4854.31,-165.755 4855.34,-164.239L4872.3,-139.389C4872.93,-138.467 4873.26,-137.376 4873.26,-136.259L4873.26,-115.174C4873.26,-112.107 4870.78,-109.621 4867.71,-109.621L4831.84,-109.621C4831.33,-109.621 4830.83,-109.69 4830.36,-109.819L4830.36,-166.464Z"/>
            </clipPath>
            <g clip-path="url(#_clip1)">
                <g transform="matrix(0.4065,0,0,0.757824,2872.54,-26.107)">
                    <rect x="4816.23" y="-185.926" width="9.809" height="76.6" style="fill:rgb(11,22,5);fill-opacity:0.89;"/>
                </g>
            </g>
        </g>
        <g transform="matrix(0.993978,0,0,0.993978,-723.999,-417.019)">
            <path d="M4862.16,-139.824L4862.16,-139.54C4862.16,-139.373 4862.03,-139.238 4861.86,-139.238C4859.7,-139.238 4846.49,-139.238 4839.58,-139.238C4837.26,-139.238 4835.38,-141.121 4835.38,-143.444C4835.38,-146.641 4835.38,-151.019 4835.38,-154.216C4835.38,-156.539 4837.26,-158.422 4839.58,-158.422C4841.62,-158.422 4843.98,-158.422 4845.62,-158.422C4846.92,-158.422 4848.14,-157.824 4848.94,-156.8C4852.47,-152.273 4862.16,-139.824 4862.16,-139.824Z" style="fill:rgb(81,94,43);fill-opacity:0.89;"/>
        </g>
        <g transform="matrix(0.993978,0,0,0.993978,-705.265,-415.65)">
            <ellipse cx="4756.03" cy="-109.237" rx="12.377" ry="12.599" style="fill:rgb(21,32,12);fill-opacity:0.89;"/>
        </g>
        <g transform="matrix(0.993978,0,0,0.993978,-693.163,-350.965)">
            <circle cx="4743.86" cy="-174.314" r="7.181" style="fill:rgb(177,185,146);fill-opacity:0.89;"/>
        </g>
        <g transform="matrix(0.993978,0,0,0.993978,-631.161,-416.406)">
            <ellipse cx="4756.03" cy="-109.237" rx="12.377" ry="12.599" style="fill:rgb(21,32,12);fill-opacity:0.89;"/>
        </g>
        <g transform="matrix(0.993978,0,0,0.993978,-619.059,-351.72)">
            <circle cx="4743.86" cy="-174.314" r="7.181" style="fill:rgb(177,185,146);fill-opacity:0.89;"/>
        </g>
        <g transform="matrix(0.366647,0,0,0.429275,2591.8,-390.261)">
            <path d="M4015.58,-409.535C4015.58,-386.208 3989.89,-367.27 3958.25,-367.27C3953.23,-367.27 3948.24,-367.755 3943.39,-368.713L3918.12,-346.137L3925.35,-374.92C3910.03,-382.83 3900.92,-395.749 3900.92,-409.535C3900.92,-432.861 3926.61,-451.8 3958.25,-451.8C3989.89,-451.8 4015.58,-432.861 4015.58,-409.535Z" style="fill:rgb(164,185,152);fill-opacity:0.89;"/>
        </g>
        <path d="M3385.11,-524.953C3384.37,-525.339 3384.09,-526.247 3384.48,-526.979C3384.87,-527.712 3385.77,-527.993 3386.51,-527.606C3388.25,-526.688 3390.31,-525.598 3393.27,-524.581C3394.05,-524.313 3394.47,-523.459 3394.2,-522.676C3393.93,-521.893 3393.08,-521.475 3392.3,-521.744C3389.15,-522.824 3386.95,-523.977 3385.11,-524.953ZM3404.53,-519.069C3403.71,-519.172 3403.13,-519.923 3403.23,-520.745C3403.33,-521.566 3404.09,-522.149 3404.91,-522.046C3408.98,-521.532 3413.92,-521.199 3419.99,-521.153C3420.82,-521.146 3421.49,-520.469 3421.48,-519.641C3421.48,-518.813 3420.8,-518.146 3419.97,-518.153C3413.76,-518.201 3408.7,-518.544 3404.53,-519.069ZM3432.29,-518.402C3431.46,-518.365 3430.76,-519.007 3430.72,-519.834C3430.68,-520.661 3431.33,-521.362 3432.15,-521.399C3436.73,-521.602 3441.77,-521.935 3447.35,-522.422C3448.18,-522.494 3448.91,-521.883 3448.98,-521.058C3449.05,-520.233 3448.44,-519.505 3447.61,-519.433C3441.99,-518.943 3436.9,-518.607 3432.29,-518.402ZM3459.83,-520.655C3459.01,-520.563 3458.26,-521.156 3458.17,-521.979C3458.08,-522.802 3458.67,-523.544 3459.49,-523.636C3464.22,-524.164 3469.26,-524.786 3474.64,-525.512C3475.46,-525.623 3476.22,-525.047 3476.33,-524.226C3476.44,-523.406 3475.87,-522.65 3475.05,-522.539C3469.64,-521.809 3464.57,-521.184 3459.83,-520.655ZM3487.18,-524.27C3486.37,-524.148 3485.6,-524.713 3485.48,-525.532C3485.36,-526.35 3485.92,-527.115 3486.74,-527.237C3491.53,-527.954 3496.55,-528.745 3501.83,-529.616C3502.65,-529.75 3503.42,-529.197 3503.56,-528.38C3503.69,-527.563 3503.14,-526.79 3502.32,-526.656C3497.03,-525.783 3491.99,-524.989 3487.18,-524.27ZM3514.4,-528.711C3513.58,-528.568 3512.81,-529.114 3512.66,-529.93C3512.52,-530.745 3513.07,-531.523 3513.88,-531.666C3518.7,-532.51 3523.71,-533.415 3528.92,-534.384C3529.74,-534.535 3530.52,-533.997 3530.67,-533.183C3530.82,-532.369 3530.28,-531.586 3529.47,-531.434C3524.25,-530.464 3519.23,-529.557 3514.4,-528.711ZM3541.48,-533.699C3540.67,-533.557 3539.89,-534.103 3539.75,-534.919C3539.6,-535.734 3540.15,-536.512 3540.97,-536.655C3546.1,-537.552 3551.24,-538.032 3556.39,-538.175C3557.22,-538.198 3557.91,-537.545 3557.93,-536.717C3557.96,-535.89 3557.31,-535.199 3556.48,-535.176C3551.47,-535.037 3546.47,-534.572 3541.48,-533.699ZM3568.57,-534.921C3567.74,-534.976 3567.12,-535.691 3567.17,-536.517C3567.23,-537.343 3567.94,-537.97 3568.77,-537.915C3573.87,-537.577 3578.98,-536.974 3584.1,-536.188C3584.91,-536.062 3585.47,-535.295 3585.35,-534.477C3585.22,-533.659 3584.46,-533.097 3583.64,-533.222C3578.61,-533.996 3573.59,-534.589 3568.57,-534.921ZM3595.62,-531.082C3594.81,-531.244 3594.28,-532.035 3594.44,-532.847C3594.61,-533.659 3595.4,-534.186 3596.21,-534.023C3601.2,-533.024 3606.2,-531.91 3611.2,-530.758C3612.01,-530.572 3612.51,-529.766 3612.33,-528.96C3612.14,-528.153 3611.33,-527.649 3610.53,-527.835C3605.55,-528.98 3600.58,-530.088 3595.62,-531.082ZM3622.44,-525.057C3621.64,-525.245 3621.14,-526.052 3621.32,-526.858C3621.51,-527.664 3622.32,-528.167 3623.12,-527.979C3628.09,-526.825 3633.05,-525.692 3638.02,-524.655C3638.83,-524.486 3639.35,-523.691 3639.18,-522.881C3639.01,-522.07 3638.22,-521.55 3637.41,-521.719C3632.42,-522.76 3627.43,-523.898 3622.44,-525.057ZM3649.49,-519.426C3648.68,-519.563 3648.12,-520.337 3648.26,-521.153C3648.4,-521.97 3649.17,-522.521 3649.99,-522.384C3655,-521.543 3660.02,-520.861 3665.04,-520.415C3665.86,-520.341 3666.47,-519.612 3666.4,-518.788C3666.33,-517.963 3665.6,-517.353 3664.77,-517.426C3659.68,-517.88 3654.58,-518.572 3649.49,-519.426ZM3677.12,-516.837C3676.3,-516.84 3675.62,-517.514 3675.63,-518.342C3675.63,-519.17 3676.31,-519.84 3677.13,-519.837C3682.16,-519.819 3687.24,-519.921 3692.36,-520.123C3693.19,-520.155 3693.89,-519.51 3693.92,-518.683C3693.95,-517.856 3693.31,-517.158 3692.48,-517.125C3687.32,-516.921 3682.19,-516.819 3677.12,-516.837ZM3704.75,-517.785C3703.92,-517.73 3703.2,-518.355 3703.15,-519.181C3703.09,-520.007 3703.72,-520.723 3704.54,-520.779C3709.59,-521.119 3714.66,-521.541 3719.75,-522.028C3720.57,-522.107 3721.31,-521.502 3721.39,-520.678C3721.46,-519.853 3720.86,-519.12 3720.03,-519.041C3714.92,-518.552 3709.82,-518.128 3704.75,-517.785ZM3732.23,-520.323C3731.41,-520.229 3730.67,-520.821 3730.57,-521.644C3730.48,-522.466 3731.07,-523.21 3731.89,-523.303C3736.95,-523.878 3742.01,-524.503 3747.06,-525.163C3747.88,-525.27 3748.63,-524.691 3748.74,-523.87C3748.85,-523.049 3748.27,-522.295 3747.45,-522.188C3742.38,-521.527 3737.31,-520.899 3732.23,-520.323ZM3759.59,-523.836C3758.77,-523.722 3758.01,-524.294 3757.89,-525.114C3757.78,-525.933 3758.35,-526.692 3759.17,-526.807C3764.24,-527.519 3769.29,-528.252 3774.3,-528.989C3775.12,-529.109 3775.89,-528.542 3776.01,-527.723C3776.13,-526.904 3775.56,-526.141 3774.74,-526.021C3769.72,-525.283 3764.67,-524.549 3759.59,-523.836ZM3786.85,-527.814C3786.03,-527.692 3785.27,-528.259 3785.14,-529.077C3785.02,-529.896 3785.59,-530.66 3786.41,-530.781C3791.52,-531.539 3796.57,-532.287 3801.55,-533.006C3802.37,-533.124 3803.13,-532.554 3803.25,-531.735C3803.37,-530.916 3802.8,-530.154 3801.98,-530.036C3797,-529.318 3791.95,-528.571 3786.85,-527.814ZM3814.09,-531.735C3813.27,-531.624 3812.51,-532.2 3812.4,-533.02C3812.29,-533.84 3812.87,-534.597 3813.69,-534.708C3815.34,-534.933 3816.99,-535.152 3818.63,-535.366C3821.95,-535.798 3825.4,-536.155 3828.97,-536.444C3829.79,-536.511 3830.51,-535.895 3830.58,-535.07C3830.65,-534.245 3830.03,-533.52 3829.21,-533.454C3825.69,-533.169 3822.29,-532.817 3819.02,-532.391C3817.39,-532.178 3815.74,-531.959 3814.09,-531.735ZM3841.36,-534.16C3840.53,-534.129 3839.84,-534.775 3839.81,-535.602C3839.78,-536.43 3840.42,-537.127 3841.25,-537.158C3846.21,-537.344 3851.35,-537.424 3856.61,-537.411C3857.43,-537.409 3858.1,-536.735 3858.1,-535.907C3858.1,-535.079 3857.43,-534.409 3856.6,-534.411C3851.38,-534.424 3846.29,-534.345 3841.36,-534.16ZM3868.8,-534.224C3867.97,-534.247 3867.32,-534.937 3867.34,-535.764C3867.36,-536.592 3868.05,-537.246 3868.88,-537.223C3873.92,-537.086 3879.03,-536.877 3884.2,-536.607C3885.03,-536.564 3885.67,-535.858 3885.62,-535.031C3885.58,-534.204 3884.87,-533.568 3884.05,-533.611C3878.9,-533.88 3873.81,-534.088 3868.8,-534.224ZM3896.24,-532.872C3895.41,-532.929 3894.79,-533.645 3894.85,-534.471C3894.9,-535.297 3895.62,-535.922 3896.45,-535.865C3901.53,-535.516 3906.63,-535.118 3911.72,-534.68C3912.55,-534.609 3913.16,-533.882 3913.09,-533.057C3913.02,-532.232 3912.29,-531.62 3911.47,-531.691C3906.39,-532.128 3901.3,-532.525 3896.24,-532.872ZM3923.64,-530.57C3922.81,-530.651 3922.21,-531.385 3922.29,-532.209C3922.37,-533.033 3923.11,-533.637 3923.93,-533.556C3929.05,-533.055 3934.14,-532.521 3939.16,-531.964C3939.99,-531.873 3940.58,-531.131 3940.49,-530.308C3940.4,-529.485 3939.66,-528.891 3938.84,-528.982C3933.82,-529.538 3928.74,-530.07 3923.64,-530.57ZM3950.98,-527.582C3950.16,-527.68 3949.57,-528.427 3949.67,-529.249C3949.77,-530.071 3950.51,-530.659 3951.34,-530.56C3956.51,-529.941 3961.59,-529.305 3966.53,-528.666C3967.36,-528.559 3967.93,-527.807 3967.83,-526.986C3967.72,-526.165 3966.97,-525.584 3966.15,-525.691C3961.21,-526.329 3956.14,-526.963 3950.98,-527.582ZM3978.27,-524.081C3977.45,-524.192 3976.88,-524.949 3976.99,-525.769C3977.1,-526.59 3977.86,-527.165 3978.68,-527.053C3983.95,-526.336 3989.02,-525.625 3993.84,-524.939C3994.66,-524.822 3995.23,-524.062 3995.11,-523.242C3994.99,-522.422 3994.24,-521.852 3993.41,-521.969C3988.61,-522.655 3983.54,-523.364 3978.27,-524.081ZM4005.52,-520.219C4004.7,-520.338 4004.14,-521.1 4004.26,-521.92C4004.38,-522.739 4005.14,-523.307 4005.96,-523.187C4008.6,-522.801 4011.12,-522.43 4013.53,-522.077C4014.35,-521.957 4014.91,-521.194 4014.79,-520.375C4014.67,-519.556 4013.91,-518.988 4013.09,-519.109C4010.69,-519.462 4008.16,-519.833 4005.52,-520.219Z" style="fill:rgb(11,22,5);"/>
        <g transform="matrix(1.25894,0,0,2.56315,3066.35,-1505.8)">
            <g transform="matrix(-0.483356,-1.72244e-17,-1.04417e-16,0.39246,780.888,-365.72)">
                <path d="M632.854,1925.63C633.081,1920.88 634.116,1917.24 635.305,1914.56L643.765,1914.56C644.954,1917.24 645.989,1920.88 646.216,1925.63L632.854,1925.63Z" style="fill:rgb(11,22,5);"/>
            </g>
            <g transform="matrix(-0.625719,-1.82908e-17,-1.41336e-16,0.39246,885.926,-365.64)">
                <path d="M632.854,1925.63C633.081,1920.88 634.116,1917.24 635.305,1914.56L643.765,1914.56C644.954,1917.24 645.989,1920.88 646.216,1925.63L632.854,1925.63Z" style="fill:rgb(11,22,5);"/>
            </g>
            <g transform="matrix(-0.388423,-2.90957e-18,7.68617e-18,0.144111,2539.27,-754.952)">
                <path d="M5320.61,7728.34C5320.61,7728.34 5348.19,7842.1 5348.19,7890.86C5348.19,7911.01 5335.83,7927.38 5320.61,7927.38C5305.38,7927.38 5293.02,7911.01 5293.02,7890.86C5293.02,7842.1 5320.61,7728.34 5320.61,7728.34Z" style="fill:rgb(159,182,146);"/>
            </g>
            <g transform="matrix(-0.462795,-3.46667e-18,9.15785e-18,0.171705,2948.6,-973.694)">
                <path d="M5320.61,7728.34C5320.61,7728.34 5348.19,7842.1 5348.19,7890.86C5348.19,7911.01 5335.83,7927.38 5320.61,7927.38C5305.38,7927.38 5293.02,7911.01 5293.02,7890.86C5293.02,7842.1 5320.61,7728.34 5320.61,7728.34Z" style="fill:rgb(81,94,43);"/>
            </g>
            <g transform="matrix(-0.0864777,-6.4778e-19,3.32628e-18,0.0623659,555.715,345.638)">
                <path d="M885.847,658.844C925.061,646.3 950.855,625.085 950.855,601.047C950.855,543.156 926.817,454.119 898.141,368.496C867.418,453.335 836.943,552.539 836.943,612.256C836.943,631.251 856.134,648.146 885.847,658.844Z" style="fill-opacity:0.19;"/>
            </g>
        </g>
    </g>
</svg>
