<?xml version="1.0" encoding="UTF-8" standalone="no"?>
<!DOCTYPE svg PUBLIC "-//W3C//DTD SVG 1.1//EN" "http://www.w3.org/Graphics/SVG/1.1/DTD/svg11.dtd">
<svg width="100%" height="100%" viewBox="0 0 814 102" version="1.1" xmlns="http://www.w3.org/2000/svg" xmlns:xlink="http://www.w3.org/1999/xlink" xml:space="preserve" xmlns:serif="http://www.serif.com/" style="fill-rule:evenodd;clip-rule:evenodd;stroke-linejoin:round;stroke-miterlimit:2;">
    <g transform="matrix(1,0,0,1,-3379.9,1055.09)">
        <g transform="matrix(2.51372,0,0,0.241047,2010.81,-1220.92)">
            <rect x="544.646" y="801.886" width="323.556" height="246.296" style="fill:rgb(235,240,246);"/>
        </g>
        <g id="g28358">
        </g>
        <g id="g283581" serif:id="g28358">
        </g>
        <g transform="matrix(1,0,0,1,-1251.65,-860.086)">
            <g transform="matrix(1.26587,0,0,2.44597,4722.82,-1059.6)">
                <path d="M489.285,387.336C489.615,388.123 489.857,389.038 489.937,390.093L481.576,390.093C481.662,388.967 481.932,388 482.296,387.178C483.563,387.396 484.917,387.515 486.325,387.515C487.344,387.515 488.335,387.453 489.285,387.336Z" style="fill:rgb(11,22,5);"/>
            </g>
            <g transform="matrix(-0.58584,-8.47937e-18,1.15927e-17,0.419985,8455.06,-3440.79)">
                <path d="M5320.61,7728.34C5320.61,7728.34 5348.19,7840.73 5348.19,7888.9C5348.19,7910.14 5335.83,7927.38 5320.61,7927.38C5305.38,7927.38 5293.02,7910.14 5293.02,7888.9C5293.02,7840.73 5320.61,7728.34 5320.61,7728.34Z" style="fill:rgb(81,94,43);"/>
            </g>
        </g>
        <g transform="matrix(1,0,0,-1,-1281.61,-1160.53)">
            <g transform="matrix(1.26587,0,0,2.44597,4722.82,-1059.6)">
                <path d="M489.285,387.336C489.615,388.123 489.857,389.038 489.937,390.093L481.576,390.093C481.662,388.967 481.932,388 482.296,387.178C483.563,387.396 484.917,387.515 486.325,387.515C487.344,387.515 488.335,387.453 489.285,387.336Z" style="fill:rgb(11,22,5);"/>
            </g>
            <g transform="matrix(-0.58584,-8.47937e-18,1.15927e-17,0.419985,8455.06,-3440.79)">
                <path d="M5320.61,7728.34C5320.61,7728.34 5348.19,7840.73 5348.19,7888.9C5348.19,7910.14 5335.83,7927.38 5320.61,7927.38C5305.38,7927.38 5293.02,7910.14 5293.02,7888.9C5293.02,7840.73 5320.61,7728.34 5320.61,7728.34Z" style="fill:rgb(81,94,43);"/>
            </g>
        </g>
        <g transform="matrix(1,0,0,1,-1753.44,-848.306)">
            <g transform="matrix(1.26587,0,0,2.44597,4722.82,-1059.6)">
                <path d="M489.285,387.336C489.615,388.123 489.857,389.038 489.937,390.093L481.576,390.093C481.662,388.967 481.932,388 482.296,387.178C483.563,387.396 484.917,387.515 486.325,387.515C487.344,387.515 488.335,387.453 489.285,387.336Z" style="fill:rgb(11,22,5);"/>
            </g>
            <g transform="matrix(-0.58584,-8.47937e-18,1.15927e-17,0.419985,8455.06,-3440.79)">
                <path d="M5320.61,7728.34C5320.61,7728.34 5348.19,7840.73 5348.19,7888.9C5348.19,7910.14 5335.83,7927.38 5320.61,7927.38C5305.38,7927.38 5293.02,7910.14 5293.02,7888.9C5293.02,7840.73 5320.61,7728.34 5320.61,7728.34Z" style="fill:rgb(168,189,157);"/>
            </g>
        </g>
        <g transform="matrix(1,0,0,-1,-1783.39,-1148.75)">
            <g transform="matrix(1.26587,0,0,2.44597,4722.82,-1059.6)">
                <path d="M489.285,387.336C489.615,388.123 489.857,389.038 489.937,390.093L481.576,390.093C481.662,388.967 481.932,388 482.296,387.178C483.563,387.396 484.917,387.515 486.325,387.515C487.344,387.515 488.335,387.453 489.285,387.336Z" style="fill:rgb(11,22,5);"/>
            </g>
            <g transform="matrix(-0.58584,-8.47937e-18,1.15927e-17,0.419985,8455.06,-3440.79)">
                <path d="M5320.61,7728.34C5320.61,7728.34 5348.19,7840.73 5348.19,7888.9C5348.19,7910.14 5335.83,7927.38 5320.61,7927.38C5305.38,7927.38 5293.02,7910.14 5293.02,7888.9C5293.02,7840.73 5320.61,7728.34 5320.61,7728.34Z" style="fill:rgb(168,189,157);"/>
            </g>
        </g>
        <g transform="matrix(1,0,0,-1,-1579.14,-1151.44)">
            <g transform="matrix(1.26587,0,0,2.44597,4722.82,-1059.6)">
                <path d="M489.285,387.336C489.615,388.123 489.857,389.038 489.937,390.093L481.576,390.093C481.662,388.967 481.932,388 482.296,387.178C483.563,387.396 484.917,387.515 486.325,387.515C487.344,387.515 488.335,387.453 489.285,387.336Z" style="fill:rgb(11,22,5);"/>
            </g>
            <g transform="matrix(-0.58584,-8.47937e-18,1.15927e-17,0.419985,8455.06,-3440.79)">
                <path d="M5320.61,7728.34C5320.61,7728.34 5348.19,7840.73 5348.19,7888.9C5348.19,7910.14 5335.83,7927.38 5320.61,7927.38C5305.38,7927.38 5293.02,7910.14 5293.02,7888.9C5293.02,7840.73 5320.61,7728.34 5320.61,7728.34Z" style="fill:rgb(168,189,157);"/>
            </g>
        </g>
        <g transform="matrix(1,0,0,1,-1609.09,-850.997)">
            <g transform="matrix(1.26587,0,0,2.44597,4722.82,-1059.6)">
                <path d="M489.285,387.336C489.615,388.123 489.857,389.038 489.937,390.093L481.576,390.093C481.662,388.967 481.932,388 482.296,387.178C483.563,387.396 484.917,387.515 486.325,387.515C487.344,387.515 488.335,387.453 489.285,387.336Z" style="fill:rgb(11,22,5);"/>
            </g>
            <g transform="matrix(-0.58584,-8.47937e-18,1.15927e-17,0.419985,8455.06,-3440.79)">
                <path d="M5320.61,7728.34C5320.61,7728.34 5348.19,7840.73 5348.19,7888.9C5348.19,7910.14 5335.83,7927.38 5320.61,7927.38C5305.38,7927.38 5293.02,7910.14 5293.02,7888.9C5293.02,7840.73 5320.61,7728.34 5320.61,7728.34Z" style="fill:rgb(168,189,157);"/>
            </g>
        </g>
        <g>
            <g transform="matrix(6.12323e-17,1,-1,6.12323e-17,3329.67,-6323.58)">
                <g transform="matrix(1.26587,0,0,2.44597,4722.82,-1059.6)">
                    <path d="M489.285,387.336C489.615,388.123 489.857,389.038 489.937,390.093L481.576,390.093C481.662,388.967 481.932,388 482.296,387.178C483.563,387.396 484.917,387.515 486.325,387.515C487.344,387.515 488.335,387.453 489.285,387.336Z" style="fill:rgb(11,22,5);"/>
                </g>
                <g transform="matrix(-0.58584,-8.47937e-18,1.15927e-17,0.419985,8455.06,-3440.79)">
                    <path d="M5320.61,7728.34C5320.61,7728.34 5348.19,7840.73 5348.19,7888.9C5348.19,7910.14 5335.83,7927.38 5320.61,7927.38C5305.38,7927.38 5293.02,7910.14 5293.02,7888.9C5293.02,7840.73 5320.61,7728.34 5320.61,7728.34Z" style="fill:rgb(81,94,43);"/>
                </g>
            </g>
            <g transform="matrix(6.12323e-17,1,1,-6.12323e-17,3630.12,-6353.54)">
                <g transform="matrix(1.26587,0,0,2.44597,4722.82,-1059.6)">
                    <path d="M489.285,387.336C489.615,388.123 489.857,389.038 489.937,390.093L481.576,390.093C481.662,388.967 481.932,388 482.296,387.178C483.563,387.396 484.917,387.515 486.325,387.515C487.344,387.515 488.335,387.453 489.285,387.336Z" style="fill:rgb(11,22,5);"/>
                </g>
                <g transform="matrix(-0.58584,-8.47937e-18,1.15927e-17,0.419985,8455.06,-3440.79)">
                    <path d="M5320.61,7728.34C5320.61,7728.34 5348.19,7840.73 5348.19,7888.9C5348.19,7910.14 5335.83,7927.38 5320.61,7927.38C5305.38,7927.38 5293.02,7910.14 5293.02,7888.9C5293.02,7840.73 5320.61,7728.34 5320.61,7728.34Z" style="fill:rgb(81,94,43);"/>
                </g>
            </g>
        </g>
        <g transform="matrix(-6.12323e-17,1,1,6.12323e-17,3806.52,-6324.39)">
            <g transform="matrix(1.26587,0,0,2.44597,4722.82,-1059.6)">
                <path d="M489.285,387.336C489.615,388.123 489.857,389.038 489.937,390.093L481.576,390.093C481.662,388.967 481.932,388 482.296,387.178C483.563,387.396 484.917,387.515 486.325,387.515C487.344,387.515 488.335,387.453 489.285,387.336Z" style="fill:rgb(11,22,5);"/>
            </g>
            <g transform="matrix(-0.58584,-8.47937e-18,1.15927e-17,0.419985,8455.06,-3440.79)">
                <path d="M5320.61,7728.34C5320.61,7728.34 5348.19,7840.73 5348.19,7888.9C5348.19,7910.14 5335.83,7927.38 5320.61,7927.38C5305.38,7927.38 5293.02,7910.14 5293.02,7888.9C5293.02,7840.73 5320.61,7728.34 5320.61,7728.34Z" style="fill:rgb(81,94,43);"/>
            </g>
        </g>
        <g transform="matrix(-6.12323e-17,1,-1,-6.12323e-17,3506.07,-6354.35)">
            <g transform="matrix(1.26587,0,0,2.44597,4722.82,-1059.6)">
                <path d="M489.285,387.336C489.615,388.123 489.857,389.038 489.937,390.093L481.576,390.093C481.662,388.967 481.932,388 482.296,387.178C483.563,387.396 484.917,387.515 486.325,387.515C487.344,387.515 488.335,387.453 489.285,387.336Z" style="fill:rgb(11,22,5);"/>
            </g>
            <g transform="matrix(-0.58584,-8.47937e-18,1.15927e-17,0.419985,8455.06,-3440.79)">
                <path d="M5320.61,7728.34C5320.61,7728.34 5348.19,7840.73 5348.19,7888.9C5348.19,7910.14 5335.83,7927.38 5320.61,7927.38C5305.38,7927.38 5293.02,7910.14 5293.02,7888.9C5293.02,7840.73 5320.61,7728.34 5320.61,7728.34Z" style="fill:rgb(81,94,43);"/>
            </g>
        </g>
    </g>
</svg>
