<?xml version="1.0" encoding="UTF-8" standalone="no"?>
<!DOCTYPE svg PUBLIC "-//W3C//DTD SVG 1.1//EN" "http://www.w3.org/Graphics/SVG/1.1/DTD/svg11.dtd">
<svg width="100%" height="100%" viewBox="0 0 387 90" version="1.1" xmlns="http://www.w3.org/2000/svg" xmlns:xlink="http://www.w3.org/1999/xlink" xml:space="preserve" xmlns:serif="http://www.serif.com/" style="fill-rule:evenodd;clip-rule:evenodd;stroke-linecap:round;stroke-linejoin:round;stroke-miterlimit:1.5;">
    <g transform="matrix(1,0,0,1,-3844.26,196.942)">
        <g transform="matrix(1.19608,0,0,0.241047,3192.82,-362.73)">
            <rect x="544.646" y="801.886" width="323.556" height="246.296" style="fill:rgb(235,240,246);"/>
        </g>
        <g transform="matrix(-0.611868,-4.21305e-17,-1.32179e-16,0.959947,4491.21,-1958.26)">
            <path d="M632.854,1925.63C633.081,1920.88 634.116,1917.24 635.305,1914.56L643.765,1914.56C644.954,1917.24 645.989,1920.88 646.216,1925.63L632.854,1925.63Z" style="fill:rgb(11,22,5);"/>
        </g>
        <g transform="matrix(-0.79208,-4.56576e-17,-1.78913e-16,0.97966,4646.54,-1993.41)">
            <path d="M632.854,1925.63C633.081,1920.88 634.116,1917.24 635.305,1914.56L643.765,1914.56C644.954,1917.24 645.989,1920.88 646.216,1925.63L632.854,1925.63Z" style="fill:rgb(11,22,5);"/>
        </g>
        <g transform="matrix(-0.491694,-7.11672e-18,9.72971e-18,0.352493,6717.09,-2910.31)">
            <path d="M5304.88,7728.34C5324.16,7782.68 5348.19,7881.97 5348.19,7888.9C5348.19,7910.14 5335.83,7927.38 5320.61,7927.38C5305.38,7927.38 5293.02,7910.14 5293.02,7888.9C5293.02,7881.97 5316.79,7799.81 5304.88,7728.34Z" style="fill:rgb(159,182,146);"/>
        </g>
        <g transform="matrix(-0.58584,-8.6535e-18,1.15927e-17,0.42861,7257.21,-3509.38)">
            <path d="M5320.61,7728.34C5320.61,7728.34 5348.19,7841.27 5348.19,7889.67C5348.19,7910.48 5335.83,7927.38 5320.61,7927.38C5305.38,7927.38 5293.02,7910.48 5293.02,7889.67C5293.02,7841.27 5320.61,7728.34 5320.61,7728.34Z" style="fill:rgb(81,94,43);"/>
        </g>
        <g id="g28358">
        </g>
        <g id="g283581" serif:id="g28358">
        </g>
        <g transform="matrix(1,0,0,1,14.0996,-0.856327)">
            <rect x="4055.18" y="-154.695" width="7.816" height="45.671" style="fill:rgb(11,22,5);fill-opacity:0.89;"/>
        </g>
        <g transform="matrix(0.906192,0,0,0.939873,395.038,-4.84454)">
            <ellipse cx="4059.11" cy="-172.527" rx="22.07" ry="21.493" style="fill:rgb(81,94,43);"/>
        </g>
        <g transform="matrix(1,0,0,1,5.21602,0.094696)">
            <g transform="matrix(1.15045,0,0,1,-610.288,0)">
                <path d="M4036,-113.079C4036,-113.079 4030.25,-120.432 4030.25,-125.673C4030.25,-134.051 4036.09,-140.853 4043.27,-140.853" style="fill:none;stroke:rgb(11,22,5);stroke-width:0.79px;"/>
            </g>
            <g transform="matrix(-7.0445e-17,1.15045,-1,-6.12323e-17,3907.56,-4779.77)">
                <path d="M4042.56,-140.831C4042.8,-140.845 4043.03,-140.853 4043.27,-140.853C4050.45,-140.853 4056.29,-134.051 4056.29,-125.673" style="fill:none;stroke:rgb(11,22,5);stroke-width:0.79px;"/>
            </g>
            <g transform="matrix(1,0,0,1,3.91442,2.97945)">
                <ellipse cx="4032.92" cy="-142.833" rx="7.251" ry="7.179" style="fill:rgb(81,94,43);"/>
            </g>
            <g transform="matrix(1.11019,0,0,1.14415,-448.908,40.7)">
                <ellipse cx="4032.92" cy="-142.833" rx="7.251" ry="7.179" style="fill:rgb(81,94,43);"/>
            </g>
            <g transform="matrix(0.793151,0,0,0.796662,849.852,-13.8184)">
                <ellipse cx="4032.92" cy="-142.833" rx="7.251" ry="7.179" style="fill:rgb(159,182,146);"/>
            </g>
            <g transform="matrix(1,0,0,0.858323,80.9368,13.1506)">
                <path d="M3952.3,-143.054C3951.25,-143.054 3950.4,-144.019 3950.4,-145.208C3950.4,-146.397 3951.25,-147.362 3952.3,-147.362" style="fill:none;stroke:rgb(11,22,5);stroke-width:0.91px;"/>
            </g>
        </g>
    </g>
</svg>
