<?xml version="1.0" encoding="UTF-8" standalone="no"?>
<!DOCTYPE svg PUBLIC "-//W3C//DTD SVG 1.1//EN" "http://www.w3.org/Graphics/SVG/1.1/DTD/svg11.dtd">
<svg width="100%" height="100%" viewBox="0 0 814 90" version="1.1" xmlns="http://www.w3.org/2000/svg" xmlns:xlink="http://www.w3.org/1999/xlink" xml:space="preserve" xmlns:serif="http://www.serif.com/" style="fill-rule:evenodd;clip-rule:evenodd;stroke-linejoin:round;stroke-miterlimit:2;">
    <g transform="matrix(1,0,0,1,-3386.41,741.9)">
        <g transform="matrix(2.51372,0,0,0.241047,2017.32,-905.485)">
            <rect x="544.646" y="801.886" width="323.556" height="246.296" style="fill:rgb(235,240,246);"/>
        </g>
        <g id="g28358">
        </g>
        <g id="g283581" serif:id="g28358">
        </g>
        <g transform="matrix(0.0991988,0,0,0.119905,3779.68,-625.89)">
            <path d="M4015.58,-409.535C4015.58,-386.208 3989.89,-367.27 3958.25,-367.27C3953.23,-367.27 3948.24,-367.755 3943.39,-368.713L3918.12,-346.137L3925.35,-374.92C3910.03,-382.83 3900.92,-395.749 3900.92,-409.535C3900.92,-432.861 3926.61,-451.8 3958.25,-451.8C3989.89,-451.8 4015.58,-432.861 4015.58,-409.535Z" style="fill:rgb(159,182,146);fill-opacity:0.89;"/>
        </g>
        <g transform="matrix(0.236381,0,0,0.260714,3127.55,-569.075)">
            <path d="M4015.58,-409.535C4015.58,-386.208 3989.89,-367.27 3958.25,-367.27C3953.23,-367.27 3948.24,-367.755 3943.39,-368.713L3918.12,-346.137L3925.35,-374.92C3910.03,-382.83 3900.92,-395.749 3900.92,-409.535C3900.92,-432.861 3926.61,-451.8 3958.25,-451.8C3989.89,-451.8 4015.58,-432.861 4015.58,-409.535Z" style="fill:rgb(159,182,146);fill-opacity:0.89;"/>
        </g>
        <g transform="matrix(0.124024,0,0,0.145874,3326.21,-617.386)">
            <path d="M4015.58,-409.535C4015.58,-386.208 3989.89,-367.27 3958.25,-367.27C3953.23,-367.27 3948.24,-367.755 3943.39,-368.713L3918.12,-346.137L3925.35,-374.92C3910.03,-382.83 3900.92,-395.749 3900.92,-409.535C3900.92,-432.861 3926.61,-451.8 3958.25,-451.8C3989.89,-451.8 4015.58,-432.861 4015.58,-409.535Z" style="fill:rgb(66,76,35);fill-opacity:0.89;"/>
        </g>
        <g transform="matrix(0.179802,0,0,0.211734,3133.5,-624.058)">
            <path d="M4015.58,-409.535C4015.58,-386.208 3989.89,-367.27 3958.25,-367.27C3953.23,-367.27 3948.24,-367.755 3943.39,-368.713L3918.12,-346.137L3925.35,-374.92C3910.03,-382.83 3900.92,-395.749 3900.92,-409.535C3900.92,-432.861 3926.61,-451.8 3958.25,-451.8C3989.89,-451.8 4015.58,-432.861 4015.58,-409.535Z" style="fill:rgb(66,76,35);fill-opacity:0.89;"/>
        </g>
        <g transform="matrix(0.0975344,0,0,0.116817,3631.19,-642.47)">
            <path d="M4015.58,-409.535C4015.58,-386.208 3989.89,-367.27 3958.25,-367.27C3953.23,-367.27 3948.24,-367.755 3943.39,-368.713L3918.12,-346.137L3925.35,-374.92C3910.03,-382.83 3900.92,-395.749 3900.92,-409.535C3900.92,-432.861 3926.61,-451.8 3958.25,-451.8C3989.89,-451.8 4015.58,-432.861 4015.58,-409.535Z" style="fill:rgb(66,76,35);fill-opacity:0.89;"/>
        </g>
        <g transform="matrix(0.0975344,0,0,0.116817,3755.95,-660.091)">
            <path d="M4015.58,-409.535C4015.58,-386.208 3989.89,-367.27 3958.25,-367.27C3953.23,-367.27 3948.24,-367.755 3943.39,-368.713L3918.12,-346.137L3925.35,-374.92C3910.03,-382.83 3900.92,-395.749 3900.92,-409.535C3900.92,-432.861 3926.61,-451.8 3958.25,-451.8C3989.89,-451.8 4015.58,-432.861 4015.58,-409.535Z" style="fill:rgb(66,76,35);fill-opacity:0.89;"/>
        </g>
        <g transform="matrix(0.0685853,0,0,0.0867641,3677.49,-639.763)">
            <path d="M4015.58,-409.535C4015.58,-386.208 3989.89,-367.27 3958.25,-367.27C3953.23,-367.27 3948.24,-367.755 3943.39,-368.713L3918.12,-346.137L3925.35,-374.92C3910.03,-382.83 3900.92,-395.749 3900.92,-409.535C3900.92,-432.861 3926.61,-451.8 3958.25,-451.8C3989.89,-451.8 4015.58,-432.861 4015.58,-409.535Z" style="fill:rgb(255,76,0);"/>
        </g>
        <g transform="matrix(0.372923,0,0,0.385807,2520.77,-567.592)">
            <path d="M4015.58,-409.535C4015.58,-386.208 3989.89,-367.27 3958.25,-367.27C3953.23,-367.27 3948.24,-367.755 3943.39,-368.713L3918.12,-346.137L3925.35,-374.92C3910.03,-382.83 3900.92,-395.749 3900.92,-409.535C3900.92,-432.861 3926.61,-451.8 3958.25,-451.8C3989.89,-451.8 4015.58,-432.861 4015.58,-409.535Z" style="fill:rgb(81,94,43);fill-opacity:0.89;"/>
        </g>
        <g transform="matrix(0.0991988,0,0,0.119905,3393.12,-626.258)">
            <path d="M4015.58,-409.535C4015.58,-386.208 3989.89,-367.27 3958.25,-367.27C3953.23,-367.27 3948.24,-367.755 3943.39,-368.713L3918.12,-346.137L3925.35,-374.92C3910.03,-382.83 3900.92,-395.749 3900.92,-409.535C3900.92,-432.861 3926.61,-451.8 3958.25,-451.8C3989.89,-451.8 4015.58,-432.861 4015.58,-409.535Z" style="fill:rgb(159,182,146);fill-opacity:0.89;"/>
        </g>
        <g transform="matrix(0.236381,0,0,0.260714,2701.3,-562.296)">
            <path d="M4015.58,-409.535C4015.58,-386.208 3989.89,-367.27 3958.25,-367.27C3953.23,-367.27 3948.24,-367.755 3943.39,-368.713L3918.12,-346.137L3925.35,-374.92C3910.03,-382.83 3900.92,-395.749 3900.92,-409.535C3900.92,-432.861 3926.61,-451.8 3958.25,-451.8C3989.89,-451.8 4015.58,-432.861 4015.58,-409.535Z" style="fill:rgb(159,182,146);fill-opacity:0.89;"/>
        </g>
        <g transform="matrix(0.124024,0,0,0.145874,2939.64,-617.755)">
            <path d="M4015.58,-409.535C4015.58,-386.208 3989.89,-367.27 3958.25,-367.27C3953.23,-367.27 3948.24,-367.755 3943.39,-368.713L3918.12,-346.137L3925.35,-374.92C3910.03,-382.83 3900.92,-395.749 3900.92,-409.535C3900.92,-432.861 3926.61,-451.8 3958.25,-451.8C3989.89,-451.8 4015.58,-432.861 4015.58,-409.535Z" style="fill:rgb(66,76,35);fill-opacity:0.89;"/>
        </g>
        <g transform="matrix(0.179802,0,0,0.211734,2705.95,-609.664)">
            <path d="M4015.58,-409.535C4015.58,-386.208 3989.89,-367.27 3958.25,-367.27C3953.23,-367.27 3948.24,-367.755 3943.39,-368.713L3918.12,-346.137L3925.35,-374.92C3910.03,-382.83 3900.92,-395.749 3900.92,-409.535C3900.92,-432.861 3926.61,-451.8 3958.25,-451.8C3989.89,-451.8 4015.58,-432.861 4015.58,-409.535Z" style="fill:rgb(66,76,35);fill-opacity:0.89;"/>
        </g>
        <g transform="matrix(0.0975344,0,0,0.116817,3244.62,-642.839)">
            <path d="M4015.58,-409.535C4015.58,-386.208 3989.89,-367.27 3958.25,-367.27C3953.23,-367.27 3948.24,-367.755 3943.39,-368.713L3918.12,-346.137L3925.35,-374.92C3910.03,-382.83 3900.92,-395.749 3900.92,-409.535C3900.92,-432.861 3926.61,-451.8 3958.25,-451.8C3989.89,-451.8 4015.58,-432.861 4015.58,-409.535Z" style="fill:rgb(66,76,35);fill-opacity:0.89;"/>
        </g>
        <g transform="matrix(0.0975344,0,0,0.116817,3416.93,-644.447)">
            <path d="M4015.58,-409.535C4015.58,-386.208 3989.89,-367.27 3958.25,-367.27C3953.23,-367.27 3948.24,-367.755 3943.39,-368.713L3918.12,-346.137L3925.35,-374.92C3910.03,-382.83 3900.92,-395.749 3900.92,-409.535C3900.92,-432.861 3926.61,-451.8 3958.25,-451.8C3989.89,-451.8 4015.58,-432.861 4015.58,-409.535Z" style="fill:rgb(66,76,35);fill-opacity:0.89;"/>
        </g>
        <g transform="matrix(0.372923,0,0,0.385807,2104.6,-528.461)">
            <path d="M4015.58,-409.535C4015.58,-386.208 3989.89,-367.27 3958.25,-367.27C3953.23,-367.27 3948.24,-367.755 3943.39,-368.713L3918.12,-346.137L3925.35,-374.92C3910.03,-382.83 3900.92,-395.749 3900.92,-409.535C3900.92,-432.861 3926.61,-451.8 3958.25,-451.8C3989.89,-451.8 4015.58,-432.861 4015.58,-409.535Z" style="fill:rgb(81,94,43);fill-opacity:0.89;"/>
        </g>
    </g>
</svg>
