<?xml version="1.0" encoding="UTF-8" standalone="no"?>
<!DOCTYPE svg PUBLIC "-//W3C//DTD SVG 1.1//EN" "http://www.w3.org/Graphics/SVG/1.1/DTD/svg11.dtd">
<svg width="100%" height="100%" viewBox="0 0 387 90" version="1.1" xmlns="http://www.w3.org/2000/svg" xmlns:xlink="http://www.w3.org/1999/xlink" xml:space="preserve" xmlns:serif="http://www.serif.com/" style="fill-rule:evenodd;clip-rule:evenodd;stroke-linejoin:round;stroke-miterlimit:2;">
    <g transform="matrix(1,0,0,1,-4240.38,194.417)">
        <g transform="matrix(1.19608,0,0,0.241047,3588.94,-361.597)">
            <rect x="544.646" y="801.886" width="323.556" height="246.296" style="fill:rgb(235,240,246);"/>
        </g>
        <g id="g28358">
        </g>
        <g id="g283581" serif:id="g28358">
        </g>
        <g transform="matrix(0.858942,0,0,0.993978,405.412,-7.99647)">
            <path d="M4826.55,-181.211L4826.55,-117.484C4826.55,-113.985 4823.26,-111.145 4819.21,-111.145L4737.9,-111.145C4733.86,-111.145 4730.57,-113.985 4730.57,-117.484L4730.57,-181.211C4730.57,-184.71 4733.86,-187.55 4737.9,-187.55L4819.21,-187.55C4823.26,-187.55 4826.55,-184.71 4826.55,-181.211Z" style="fill:rgb(81,94,43);fill-opacity:0.89;"/>
        </g>
        <g transform="matrix(0.993978,0,0,0.993978,-254.289,-9.73365)">
            <path d="M4830.36,-166.464C4830.83,-166.593 4831.33,-166.662 4831.84,-166.662L4850.76,-166.662C4852.59,-166.662 4854.31,-165.755 4855.34,-164.239L4872.3,-139.389C4872.93,-138.467 4873.26,-137.376 4873.26,-136.259L4873.26,-115.174C4873.26,-112.107 4870.78,-109.621 4867.71,-109.621L4831.84,-109.621C4831.33,-109.621 4830.83,-109.69 4830.36,-109.819L4830.36,-166.464Z" style="fill:rgb(168,189,157);fill-opacity:0.89;"/>
            <clipPath id="_clip1">
                <path d="M4830.36,-166.464C4830.83,-166.593 4831.33,-166.662 4831.84,-166.662L4850.76,-166.662C4852.59,-166.662 4854.31,-165.755 4855.34,-164.239L4872.3,-139.389C4872.93,-138.467 4873.26,-137.376 4873.26,-136.259L4873.26,-115.174C4873.26,-112.107 4870.78,-109.621 4867.71,-109.621L4831.84,-109.621C4831.33,-109.621 4830.83,-109.69 4830.36,-109.819L4830.36,-166.464Z"/>
            </clipPath>
            <g clip-path="url(#_clip1)">
                <g transform="matrix(0.4065,0,0,0.757824,2872.54,-26.107)">
                    <rect x="4816.23" y="-185.926" width="9.809" height="76.6" style="fill:rgb(11,22,5);fill-opacity:0.89;"/>
                </g>
            </g>
        </g>
        <g transform="matrix(0.993978,0,0,0.993978,-254.289,-9.73365)">
            <path d="M4862.16,-139.824L4862.16,-139.54C4862.16,-139.373 4862.03,-139.238 4861.86,-139.238C4859.7,-139.238 4846.49,-139.238 4839.58,-139.238C4837.26,-139.238 4835.38,-141.121 4835.38,-143.444C4835.38,-146.641 4835.38,-151.019 4835.38,-154.216C4835.38,-156.539 4837.26,-158.422 4839.58,-158.422C4841.62,-158.422 4843.98,-158.422 4845.62,-158.422C4846.92,-158.422 4848.14,-157.824 4848.94,-156.8C4852.47,-152.273 4862.16,-139.824 4862.16,-139.824Z" style="fill:rgb(81,94,43);fill-opacity:0.89;"/>
        </g>
        <g transform="matrix(0.993978,0,0,0.993978,-235.555,-8.36527)">
            <ellipse cx="4756.03" cy="-109.237" rx="12.377" ry="12.599" style="fill:rgb(21,32,12);fill-opacity:0.89;"/>
        </g>
        <g transform="matrix(0.993978,0,0,0.993978,-223.452,56.3199)">
            <circle cx="4743.86" cy="-174.314" r="7.181" style="fill:rgb(177,185,146);fill-opacity:0.89;"/>
        </g>
        <g transform="matrix(0.993978,0,0,0.993978,-161.451,-9.12043)">
            <ellipse cx="4756.03" cy="-109.237" rx="12.377" ry="12.599" style="fill:rgb(21,32,12);fill-opacity:0.89;"/>
        </g>
        <g transform="matrix(0.993978,0,0,0.993978,-149.348,55.5647)">
            <circle cx="4743.86" cy="-174.314" r="7.181" style="fill:rgb(177,185,146);fill-opacity:0.89;"/>
        </g>
        <g transform="matrix(0.366647,0,0,0.429275,3061.51,17.0242)">
            <path d="M4015.58,-409.535C4015.58,-386.208 3989.89,-367.27 3958.25,-367.27C3953.23,-367.27 3948.24,-367.755 3943.39,-368.713L3918.12,-346.137L3925.35,-374.92C3910.03,-382.83 3900.92,-395.749 3900.92,-409.535C3900.92,-432.861 3926.61,-451.8 3958.25,-451.8C3989.89,-451.8 4015.58,-432.861 4015.58,-409.535Z" style="fill:rgb(164,185,152);fill-opacity:0.89;"/>
        </g>
    </g>
</svg>
