<?xml version="1.0" encoding="UTF-8" standalone="no"?>
<!DOCTYPE svg PUBLIC "-//W3C//DTD SVG 1.1//EN" "http://www.w3.org/Graphics/SVG/1.1/DTD/svg11.dtd">
<svg width="100%" height="100%" viewBox="0 0 814 90" version="1.1" xmlns="http://www.w3.org/2000/svg" xmlns:xlink="http://www.w3.org/1999/xlink" xml:space="preserve" xmlns:serif="http://www.serif.com/" style="fill-rule:evenodd;clip-rule:evenodd;stroke-linejoin:round;stroke-miterlimit:2;">
    <g transform="matrix(1,0,0,1,-3377.66,375.175)">
        <g transform="matrix(2.51372,0,0,0.241047,2008.57,-545.04)">
            <rect x="544.646" y="801.886" width="323.556" height="246.296" style="fill:rgb(235,240,246);"/>
        </g>
        <g id="g28358">
        </g>
        <g id="g283581" serif:id="g28358">
        </g>
        <g transform="matrix(1.01453,0,0,0.937532,-509.239,81.8243)">
            <g>
                <g transform="matrix(0.64912,-0.696113,2.16837,2.02198,2537.59,3630.93)">
                    <rect x="4555.7" y="-439.041" width="6.001" height="6.261" style="fill:rgb(159,182,146);"/>
                </g>
                <g transform="matrix(0.685778,0.660028,-2.05596,2.13617,542.199,-2505.93)">
                    <rect x="4555.7" y="-439.041" width="6.001" height="6.261" style="fill:rgb(159,182,146);"/>
                </g>
                <g transform="matrix(1,0,0,1,-2.23824,2.10258)">
                    <rect x="4557.43" y="-459.695" width="5.522" height="58.119" style="fill:rgb(31,53,19);"/>
                </g>
                <g transform="matrix(0.397292,0.917692,-0.917692,0.397292,2346.38,-4474.27)">
                    <rect x="4555.7" y="-439.041" width="6.001" height="6.261" style="fill:rgb(159,182,146);"/>
                </g>
                <g transform="matrix(0.378144,0.873463,-2.7208,1.1779,1661.27,-3938.1)">
                    <rect x="4555.7" y="-439.041" width="6.001" height="6.261" style="fill:rgb(159,182,146);"/>
                </g>
                <g transform="matrix(0.378144,0.873463,-2.7208,1.1779,1633.13,-3926.09)">
                    <rect x="4555.7" y="-439.041" width="6.001" height="6.261" style="fill:rgb(159,182,146);"/>
                </g>
                <g transform="matrix(0.873463,-0.378144,1.1779,2.7208,1094.78,2459.44)">
                    <rect x="4555.7" y="-439.041" width="6.001" height="6.261" style="fill:rgb(159,182,146);"/>
                </g>
                <g transform="matrix(0.873463,-0.378144,1.1779,2.7208,1083.17,2433.13)">
                    <rect x="4555.7" y="-439.041" width="6.001" height="6.261" style="fill:rgb(159,182,146);"/>
                </g>
                <g transform="matrix(-0.350244,0.885019,-2.7568,-1.091,4967.31,-4969.07)">
                    <rect x="4555.7" y="-439.041" width="6.001" height="6.261" style="fill:rgb(159,182,146);"/>
                </g>
                <g transform="matrix(-0.350244,0.885019,-2.7568,-1.091,4938.92,-4980.47)">
                    <rect x="4555.7" y="-439.041" width="6.001" height="6.261" style="fill:rgb(159,182,146);"/>
                </g>
                <g transform="matrix(0.885019,0.350244,-1.091,2.7568,42.9941,-845.9)">
                    <rect x="4555.7" y="-439.041" width="6.001" height="6.261" style="fill:rgb(159,182,146);"/>
                </g>
                <g transform="matrix(0.885019,0.350244,-1.091,2.7568,53.3886,-872.705)">
                    <rect x="4555.7" y="-439.041" width="6.001" height="6.261" style="fill:rgb(159,182,146);"/>
                </g>
                <g transform="matrix(0.397292,0.917692,-0.917692,0.397292,2320.04,-4459.86)">
                    <rect x="4549.88" y="-472.172" width="13.994" height="14.121" style="fill:rgb(31,53,19);"/>
                </g>
            </g>
            <g transform="matrix(0.67092,0,0,0.67092,1466.12,-130.723)">
                <g transform="matrix(0.64912,-0.696113,2.16837,2.02198,2537.59,3630.93)">
                    <rect x="4555.7" y="-439.041" width="6.001" height="6.261" style="fill:rgb(159,182,146);"/>
                </g>
                <g transform="matrix(0.685778,0.660028,-2.05596,2.13617,542.199,-2505.93)">
                    <rect x="4555.7" y="-439.041" width="6.001" height="6.261" style="fill:rgb(159,182,146);"/>
                </g>
                <g transform="matrix(1,0,0,1,-2.23824,2.10258)">
                    <rect x="4557.43" y="-459.695" width="5.522" height="58.119" style="fill:rgb(31,53,19);"/>
                </g>
                <g transform="matrix(0.397292,0.917692,-0.917692,0.397292,2346.38,-4474.27)">
                    <rect x="4555.7" y="-439.041" width="6.001" height="6.261" style="fill:rgb(159,182,146);"/>
                </g>
                <g transform="matrix(0.378144,0.873463,-2.7208,1.1779,1661.27,-3938.1)">
                    <rect x="4555.7" y="-439.041" width="6.001" height="6.261" style="fill:rgb(159,182,146);"/>
                </g>
                <g transform="matrix(0.378144,0.873463,-2.7208,1.1779,1633.13,-3926.09)">
                    <rect x="4555.7" y="-439.041" width="6.001" height="6.261" style="fill:rgb(159,182,146);"/>
                </g>
                <g transform="matrix(0.873463,-0.378144,1.1779,2.7208,1094.78,2459.44)">
                    <rect x="4555.7" y="-439.041" width="6.001" height="6.261" style="fill:rgb(159,182,146);"/>
                </g>
                <g transform="matrix(0.873463,-0.378144,1.1779,2.7208,1083.17,2433.13)">
                    <rect x="4555.7" y="-439.041" width="6.001" height="6.261" style="fill:rgb(159,182,146);"/>
                </g>
                <g transform="matrix(-0.350244,0.885019,-2.7568,-1.091,4967.31,-4969.07)">
                    <rect x="4555.7" y="-439.041" width="6.001" height="6.261" style="fill:rgb(159,182,146);"/>
                </g>
                <g transform="matrix(-0.350244,0.885019,-2.7568,-1.091,4938.92,-4980.47)">
                    <rect x="4555.7" y="-439.041" width="6.001" height="6.261" style="fill:rgb(159,182,146);"/>
                </g>
                <g transform="matrix(0.885019,0.350244,-1.091,2.7568,42.9941,-845.9)">
                    <rect x="4555.7" y="-439.041" width="6.001" height="6.261" style="fill:rgb(159,182,146);"/>
                </g>
                <g transform="matrix(0.885019,0.350244,-1.091,2.7568,53.3886,-872.705)">
                    <rect x="4555.7" y="-439.041" width="6.001" height="6.261" style="fill:rgb(159,182,146);"/>
                </g>
                <g transform="matrix(0.397292,0.917692,-0.917692,0.397292,2320.04,-4459.86)">
                    <rect x="4549.88" y="-472.172" width="13.994" height="14.121" style="fill:rgb(31,53,19);"/>
                </g>
            </g>
        </g>
        <g transform="matrix(0.624424,0,0,0.586122,1515.48,-120.408)">
            <g transform="matrix(1,0,0,1,-2.74072,9.44309)">
                <rect x="3983.18" y="-340.322" width="17.393" height="18.178" style="fill:rgb(31,53,19);"/>
            </g>
            <g transform="matrix(0.469698,0,0,1.63127,2114.16,192.81)">
                <rect x="3983.18" y="-340.322" width="17.393" height="18.178" style="fill:rgb(31,53,19);"/>
            </g>
            <g transform="matrix(2.87607e-17,0.469698,-1.63127,9.98867e-17,3474.5,-2197.04)">
                <rect x="3983.18" y="-340.322" width="17.393" height="18.178" style="fill:rgb(31,53,19);"/>
            </g>
            <g transform="matrix(0.469698,0,0,1.63127,2114.16,244.389)">
                <rect x="3983.18" y="-340.322" width="17.393" height="18.178" style="fill:rgb(31,53,19);"/>
            </g>
            <g transform="matrix(2.87607e-17,0.469698,-1.63127,9.98867e-17,3423.02,-2196.18)">
                <rect x="3983.18" y="-340.322" width="17.393" height="18.178" style="fill:rgb(31,53,19);"/>
            </g>
        </g>
        <g transform="matrix(0.805051,0,0,0.794849,686.818,-64.5335)">
            <g transform="matrix(1,0,0,1,-2.74072,9.44309)">
                <rect x="3983.18" y="-340.322" width="17.393" height="18.178" style="fill:rgb(31,53,19);"/>
            </g>
            <g transform="matrix(0.469698,0,0,1.63127,2114.16,192.81)">
                <rect x="3983.18" y="-340.322" width="17.393" height="18.178" style="fill:rgb(31,53,19);"/>
            </g>
            <g transform="matrix(2.87607e-17,0.469698,-1.63127,9.98867e-17,3474.5,-2197.04)">
                <rect x="3983.18" y="-340.322" width="17.393" height="18.178" style="fill:rgb(31,53,19);"/>
            </g>
            <g transform="matrix(0.469698,0,0,1.63127,2114.16,244.389)">
                <rect x="3983.18" y="-340.322" width="17.393" height="18.178" style="fill:rgb(31,53,19);"/>
            </g>
            <g transform="matrix(2.87607e-17,0.469698,-1.63127,9.98867e-17,3423.02,-2196.18)">
                <rect x="3983.18" y="-340.322" width="17.393" height="18.178" style="fill:rgb(31,53,19);"/>
            </g>
        </g>
        <g transform="matrix(0.435265,0,0,0.408566,2221.84,-204.284)">
            <g transform="matrix(1,0,0,1,-2.74072,9.44309)">
                <rect x="3983.18" y="-340.322" width="17.393" height="18.178" style="fill:rgb(31,53,19);"/>
            </g>
            <g transform="matrix(0.469698,0,0,1.63127,2114.16,192.81)">
                <rect x="3983.18" y="-340.322" width="17.393" height="18.178" style="fill:rgb(31,53,19);"/>
            </g>
            <g transform="matrix(2.87607e-17,0.469698,-1.63127,9.98867e-17,3474.5,-2197.04)">
                <rect x="3983.18" y="-340.322" width="17.393" height="18.178" style="fill:rgb(31,53,19);"/>
            </g>
            <g transform="matrix(0.469698,0,0,1.63127,2114.16,244.389)">
                <rect x="3983.18" y="-340.322" width="17.393" height="18.178" style="fill:rgb(31,53,19);"/>
            </g>
            <g transform="matrix(2.87607e-17,0.469698,-1.63127,9.98867e-17,3423.02,-2196.18)">
                <rect x="3983.18" y="-340.322" width="17.393" height="18.178" style="fill:rgb(31,53,19);"/>
            </g>
        </g>
        <g transform="matrix(0.480188,0.374671,-0.399156,0.450733,1962.43,-1658.56)">
            <g transform="matrix(1,0,0,1,-2.74072,9.44309)">
                <rect x="3983.18" y="-340.322" width="17.393" height="18.178" style="fill:rgb(159,182,146);"/>
            </g>
            <g transform="matrix(0.469698,0,0,1.63127,2114.16,192.81)">
                <rect x="3983.18" y="-340.322" width="17.393" height="18.178" style="fill:rgb(159,182,146);"/>
            </g>
            <g transform="matrix(2.87607e-17,0.469698,-1.63127,9.98867e-17,3474.5,-2197.04)">
                <rect x="3983.18" y="-340.322" width="17.393" height="18.178" style="fill:rgb(159,182,146);"/>
            </g>
            <g transform="matrix(0.469698,0,0,1.63127,2114.16,244.389)">
                <rect x="3983.18" y="-340.322" width="17.393" height="18.178" style="fill:rgb(159,182,146);"/>
            </g>
            <g transform="matrix(2.87607e-17,0.469698,-1.63127,9.98867e-17,3423.02,-2196.18)">
                <rect x="3983.18" y="-340.322" width="17.393" height="18.178" style="fill:rgb(159,182,146);"/>
            </g>
        </g>
        <g transform="matrix(0.619091,0.508098,-0.514619,0.611246,1263.06,-2150.45)">
            <g transform="matrix(1,0,0,1,-2.74072,9.44309)">
                <rect x="3983.18" y="-340.322" width="17.393" height="18.178" style="fill:rgb(159,182,146);"/>
            </g>
            <g transform="matrix(0.469698,0,0,1.63127,2114.16,192.81)">
                <rect x="3983.18" y="-340.322" width="17.393" height="18.178" style="fill:rgb(159,182,146);"/>
            </g>
            <g transform="matrix(2.87607e-17,0.469698,-1.63127,9.98867e-17,3474.5,-2197.04)">
                <rect x="3983.18" y="-340.322" width="17.393" height="18.178" style="fill:rgb(159,182,146);"/>
            </g>
            <g transform="matrix(0.469698,0,0,1.63127,2114.16,244.389)">
                <rect x="3983.18" y="-340.322" width="17.393" height="18.178" style="fill:rgb(159,182,146);"/>
            </g>
            <g transform="matrix(2.87607e-17,0.469698,-1.63127,9.98867e-17,3423.02,-2196.18)">
                <rect x="3983.18" y="-340.322" width="17.393" height="18.178" style="fill:rgb(159,182,146);"/>
            </g>
        </g>
        <g transform="matrix(0.334723,0.261171,-0.278238,0.314191,2533.4,-1276.48)">
            <g transform="matrix(1,0,0,1,-2.74072,9.44309)">
                <rect x="3983.18" y="-340.322" width="17.393" height="18.178" style="fill:rgb(159,182,146);"/>
            </g>
            <g transform="matrix(0.469698,0,0,1.63127,2114.16,192.81)">
                <rect x="3983.18" y="-340.322" width="17.393" height="18.178" style="fill:rgb(159,182,146);"/>
            </g>
            <g transform="matrix(2.87607e-17,0.469698,-1.63127,9.98867e-17,3474.5,-2197.04)">
                <rect x="3983.18" y="-340.322" width="17.393" height="18.178" style="fill:rgb(159,182,146);"/>
            </g>
            <g transform="matrix(0.469698,0,0,1.63127,2114.16,244.389)">
                <rect x="3983.18" y="-340.322" width="17.393" height="18.178" style="fill:rgb(159,182,146);"/>
            </g>
            <g transform="matrix(2.87607e-17,0.469698,-1.63127,9.98867e-17,3423.02,-2196.18)">
                <rect x="3983.18" y="-340.322" width="17.393" height="18.178" style="fill:rgb(159,182,146);"/>
            </g>
        </g>
        <g transform="matrix(0.237874,0.541925,-0.57734,0.223283,2871.71,-2398.93)">
            <g transform="matrix(1,0,0,1,-2.74072,9.44309)">
                <rect x="3983.18" y="-340.322" width="17.393" height="18.178" style="fill:rgb(81,94,43);"/>
            </g>
            <g transform="matrix(0.469698,0,0,1.63127,2114.16,192.81)">
                <rect x="3983.18" y="-340.322" width="17.393" height="18.178" style="fill:rgb(81,94,43);"/>
            </g>
            <g transform="matrix(2.87607e-17,0.469698,-1.63127,9.98867e-17,3474.5,-2197.04)">
                <rect x="3983.18" y="-340.322" width="17.393" height="18.178" style="fill:rgb(81,94,43);"/>
            </g>
            <g transform="matrix(0.469698,0,0,1.63127,2114.16,244.389)">
                <rect x="3983.18" y="-340.322" width="17.393" height="18.178" style="fill:rgb(81,94,43);"/>
            </g>
            <g transform="matrix(2.87607e-17,0.469698,-1.63127,9.98867e-17,3423.02,-2196.18)">
                <rect x="3983.18" y="-340.322" width="17.393" height="18.178" style="fill:rgb(81,94,43);"/>
            </g>
        </g>
        <g transform="matrix(0.306684,0.734914,-0.744346,0.302798,2435.37,-3154.48)">
            <g transform="matrix(1,0,0,1,-2.74072,9.44309)">
                <rect x="3983.18" y="-340.322" width="17.393" height="18.178" style="fill:rgb(81,94,43);"/>
            </g>
            <g transform="matrix(0.469698,0,0,1.63127,2114.16,192.81)">
                <rect x="3983.18" y="-340.322" width="17.393" height="18.178" style="fill:rgb(81,94,43);"/>
            </g>
            <g transform="matrix(2.87607e-17,0.469698,-1.63127,9.98867e-17,3474.5,-2197.04)">
                <rect x="3983.18" y="-340.322" width="17.393" height="18.178" style="fill:rgb(81,94,43);"/>
            </g>
            <g transform="matrix(0.469698,0,0,1.63127,2114.16,244.389)">
                <rect x="3983.18" y="-340.322" width="17.393" height="18.178" style="fill:rgb(81,94,43);"/>
            </g>
            <g transform="matrix(2.87607e-17,0.469698,-1.63127,9.98867e-17,3423.02,-2196.18)">
                <rect x="3983.18" y="-340.322" width="17.393" height="18.178" style="fill:rgb(81,94,43);"/>
            </g>
        </g>
        <g transform="matrix(0.165814,0.377758,-0.402445,0.155643,3167.23,-1792.57)">
            <g transform="matrix(1,0,0,1,-2.74072,9.44309)">
                <rect x="3983.18" y="-340.322" width="17.393" height="18.178" style="fill:rgb(81,94,43);"/>
            </g>
            <g transform="matrix(0.469698,0,0,1.63127,2114.16,192.81)">
                <rect x="3983.18" y="-340.322" width="17.393" height="18.178" style="fill:rgb(81,94,43);"/>
            </g>
            <g transform="matrix(2.87607e-17,0.469698,-1.63127,9.98867e-17,3474.5,-2197.04)">
                <rect x="3983.18" y="-340.322" width="17.393" height="18.178" style="fill:rgb(81,94,43);"/>
            </g>
            <g transform="matrix(0.469698,0,0,1.63127,2114.16,244.389)">
                <rect x="3983.18" y="-340.322" width="17.393" height="18.178" style="fill:rgb(81,94,43);"/>
            </g>
            <g transform="matrix(2.87607e-17,0.469698,-1.63127,9.98867e-17,3423.02,-2196.18)">
                <rect x="3983.18" y="-340.322" width="17.393" height="18.178" style="fill:rgb(81,94,43);"/>
            </g>
        </g>
    </g>
</svg>
