<?xml version="1.0" encoding="UTF-8" standalone="no"?>
<!DOCTYPE svg PUBLIC "-//W3C//DTD SVG 1.1//EN" "http://www.w3.org/Graphics/SVG/1.1/DTD/svg11.dtd">
<svg width="100%" height="100%" viewBox="0 0 387 90" version="1.1" xmlns="http://www.w3.org/2000/svg" xmlns:xlink="http://www.w3.org/1999/xlink" xml:space="preserve" xmlns:serif="http://www.serif.com/" style="fill-rule:evenodd;clip-rule:evenodd;stroke-linejoin:round;stroke-miterlimit:2;">
    <g transform="matrix(1,0,0,1,-4240.38,196.359)">
        <g transform="matrix(1.19608,0,0,0.241047,3588.94,-361.597)">
            <rect x="544.646" y="801.886" width="323.556" height="246.296" style="fill:rgb(235,240,246);"/>
        </g>
        <g id="g28358">
        </g>
        <g id="g283581" serif:id="g28358">
        </g>
        <g transform="matrix(1.25465,0,0,1.25465,-1154.74,31.4243)">
            <g transform="matrix(0.395521,0,0,0.369645,2971.64,18.13)">
                <path d="M4015.58,-409.535C4015.58,-386.208 3989.89,-367.27 3958.25,-367.27C3953.23,-367.27 3948.24,-367.755 3943.39,-368.713L3918.12,-346.137L3925.35,-374.92C3910.03,-382.83 3900.92,-395.749 3900.92,-409.535C3900.92,-432.861 3926.61,-451.8 3958.25,-451.8C3989.89,-451.8 4015.58,-432.861 4015.58,-409.535Z" style="fill:rgb(159,182,146);fill-opacity:0.89;"/>
            </g>
            <g transform="matrix(0.395521,0,0,0.369645,2961.24,-14.5453)">
                <path d="M4015.58,-409.535C4015.58,-386.208 3989.89,-367.27 3958.25,-367.27C3953.23,-367.27 3948.24,-367.755 3943.39,-368.713L3918.12,-346.137L3925.35,-374.92C3910.03,-382.83 3900.92,-395.749 3900.92,-409.535C3900.92,-432.861 3926.61,-451.8 3958.25,-451.8C3989.89,-451.8 4015.58,-432.861 4015.58,-409.535Z" style="fill:rgb(66,76,35);fill-opacity:0.89;"/>
            </g>
            <g transform="matrix(0.499643,0,0,0.442036,2574.01,26.0592)">
                <path d="M4015.58,-409.535C4015.58,-386.208 3989.89,-367.27 3958.25,-367.27C3953.23,-367.27 3948.24,-367.755 3943.39,-368.713L3918.12,-346.137L3925.35,-374.92C3910.03,-382.83 3900.92,-395.749 3900.92,-409.535C3900.92,-432.861 3926.61,-451.8 3958.25,-451.8C3989.89,-451.8 4015.58,-432.861 4015.58,-409.535Z" style="fill:rgb(81,94,43);fill-opacity:0.89;"/>
            </g>
        </g>
    </g>
</svg>
