<?xml version="1.0" encoding="UTF-8" standalone="no"?>
<!DOCTYPE svg PUBLIC "-//W3C//DTD SVG 1.1//EN" "http://www.w3.org/Graphics/SVG/1.1/DTD/svg11.dtd">
<svg width="100%" height="100%" viewBox="0 0 387 87" version="1.1" xmlns="http://www.w3.org/2000/svg" xmlns:xlink="http://www.w3.org/1999/xlink" xml:space="preserve" xmlns:serif="http://www.serif.com/" style="fill-rule:evenodd;clip-rule:evenodd;stroke-linecap:round;stroke-linejoin:round;stroke-miterlimit:1.5;">
    <g transform="matrix(1,0,0,1,-4819.48,21.4026)">
        <g id="g28358">
        </g>
        <g id="g283581" serif:id="g28358">
        </g>
        <g transform="matrix(1.19608,0,0,0.241047,4168.04,-191.648)">
            <rect x="544.646" y="801.886" width="323.556" height="246.296" style="fill:rgb(235,240,246);"/>
        </g>
        <g transform="matrix(1.26587,0,0,7.03655,4531.62,-2679.88)">
            <path d="M489.906,389.764C489.918,389.872 489.929,389.982 489.937,390.093L481.576,390.093C481.662,388.967 481.932,388 482.296,387.178C483.563,387.396 484.917,387.515 486.325,387.515C487.344,387.515 488.335,387.453 489.285,387.336C489.346,387.481 489.403,387.631 489.458,387.785L484.711,389.2L489.906,389.764Z" style="fill:rgb(11,22,5);"/>
        </g>
        <g transform="matrix(-0.13043,-1.59367e-18,5.01686e-18,0.153433,5185.21,-64.5529)">
            <path d="M207.763,483.744C187.165,540.687 171.061,597.473 171.061,635.823C171.061,693.958 226.583,741.156 294.97,741.156C363.357,741.156 418.879,693.958 418.879,635.823C418.879,629.318 418.416,622.282 417.546,614.805L331.174,584.64L381.217,481.097C344.76,380.972 294.97,281.233 294.97,281.233C294.97,281.233 273.036,325.17 247.625,383.995L283.098,457.456L207.763,483.744Z" style="fill:rgb(81,94,43);"/>
        </g>
        <g transform="matrix(-0.975473,0,0,5.35169,5603.16,-2022.82)">
            <path d="M489.446,387.75C488.328,387.807 487.149,387.838 485.929,387.838C484.586,387.838 483.291,387.801 482.074,387.732C481.824,388.425 481.643,389.21 481.576,390.093L489.937,390.093C489.929,389.982 489.918,389.872 489.906,389.764L484.711,389.2L489.458,387.785C489.454,387.773 489.45,387.762 489.446,387.75Z" style="fill:rgb(11,22,5);"/>
        </g>
        <g transform="matrix(0.100509,-1.21207e-18,-3.86596e-18,0.116694,5099.5,-33.7159)">
            <path d="M207.763,483.744C187.165,540.687 171.061,597.473 171.061,635.823C171.061,693.958 226.583,741.156 294.97,741.156C363.357,741.156 418.879,693.958 418.879,635.823C418.879,629.318 418.416,622.282 417.546,614.805L331.174,584.64L381.217,481.097C344.76,380.972 294.97,281.233 294.97,281.233C294.97,281.233 273.036,325.17 247.625,383.995L283.098,457.456L207.763,483.744Z" style="fill:rgb(159,182,146);fill-opacity:0.85;stroke:white;stroke-width:0.8px;"/>
        </g>
    </g>
</svg>
