<?xml version="1.0" encoding="UTF-8" standalone="no"?>
<!DOCTYPE svg PUBLIC "-//W3C//DTD SVG 1.1//EN" "http://www.w3.org/Graphics/SVG/1.1/DTD/svg11.dtd">
<svg width="100%" height="100%" viewBox="0 0 99 81" version="1.1" xmlns="http://www.w3.org/2000/svg" xmlns:xlink="http://www.w3.org/1999/xlink" xml:space="preserve" xmlns:serif="http://www.serif.com/" style="fill-rule:evenodd;clip-rule:evenodd;stroke-linejoin:round;stroke-miterlimit:2;">
    <path d="M3.253,61.83l1.26,-0c0.905,-0 1.634,-0.231 2.165,-0.689c0.529,-0.453 0.797,-1.077 0.797,-1.852c0,-0.815 -0.262,-1.458 -0.781,-1.907c-0.521,-0.454 -1.269,-0.684 -2.224,-0.684l-1.217,0l0,5.132Zm0,0.595l0,3.573c0,0.789 0.088,1.331 0.263,1.612c0.17,0.271 0.505,0.41 0.997,0.41l1.058,-0c0.722,-0 1.318,-0.237 1.773,-0.706c0.455,-0.468 0.686,-1.106 0.686,-1.898c-0,-0.898 -0.331,-1.629 -0.986,-2.172c-0.659,-0.545 -1.547,-0.819 -2.639,-0.819l-1.152,0Zm2.689,6.189l-5.942,0l-0,-0.478l0.061,-0c0.521,-0 0.885,-0.136 1.083,-0.404c0.202,-0.273 0.304,-0.78 0.304,-1.503l0,-7.729c0,-0.739 -0.098,-1.249 -0.288,-1.52c-0.188,-0.264 -0.557,-0.398 -1.099,-0.398l-0.061,0l-0,-0.478l4.876,0c1.385,0 2.492,0.283 3.29,0.84c0.805,0.561 1.213,1.315 1.213,2.238c0,1.323 -0.839,2.273 -2.496,2.828c0.927,0.201 1.695,0.62 2.289,1.244c0.621,0.654 0.936,1.416 0.936,2.266c0,0.932 -0.388,1.69 -1.151,2.253c-0.759,0.558 -1.773,0.841 -3.015,0.841" style="fill:#fff;fill-rule:nonzero;"/>
    <path d="M18.355,62.717l3.433,0l-1.726,-5.008l-1.707,5.008Zm8.517,5.898l-4.612,-0l-0,-0.479l0.059,0c0.699,0 1.038,-0.223 1.038,-0.682c-0,-0.133 -0.031,-0.286 -0.094,-0.456l-1.171,-3.402l-4.015,-0l-0.856,2.449c-0.215,0.62 -0.324,1.073 -0.324,1.345c0,0.489 0.312,0.733 0.952,0.746l0.058,0.002l-0,0.477l-3.416,-0l-0,-0.472l0.051,-0.007c0.458,-0.06 0.817,-0.21 1.068,-0.439c0.253,-0.233 0.515,-0.726 0.78,-1.47l3.53,-10.22l0.012,-0.04l1.399,0l0.013,0.04l3.707,10.676c0.212,0.614 0.435,1.015 0.66,1.19c0.225,0.174 0.595,0.263 1.102,0.263l0.059,0l0,0.479Z" style="fill:#fff;fill-rule:nonzero;"/>
    <path d="M42.87,68.523l-0.478,-0l-0.019,-0.021l-8.937,-10.651l0,8.539c0,0.596 0.124,1.024 0.37,1.277c0.244,0.249 0.663,0.378 1.246,0.378l0.06,-0l-0,0.478l-3.994,-0l0,-0.478l0.061,-0c0.593,-0 0.997,-0.15 1.202,-0.445c0.21,-0.303 0.315,-0.848 0.315,-1.621l0,-7.253c0,-0.764 -0.142,-1.318 -0.425,-1.648c-0.283,-0.328 -0.757,-0.527 -1.413,-0.588l-0.055,-0.005l0,-0.472l3.364,-0l0.017,0.021l7.914,9.518l-0,-7.082c-0,-0.744 -0.108,-1.266 -0.32,-1.554c-0.209,-0.282 -0.606,-0.425 -1.177,-0.425l-0.059,-0l0,-0.478l3.971,-0l0,0.478l-0.06,-0c-0.596,-0 -1.012,0.135 -1.238,0.401c-0.229,0.269 -0.345,0.773 -0.345,1.493l-0,10.138Z" style="fill:#fff;fill-rule:nonzero;"/>
    <path d="M57.084,68.92c-2.36,0 -4.228,-0.573 -5.549,-1.705c-1.325,-1.131 -1.996,-2.647 -1.996,-4.502c0,-1.292 0.293,-2.476 0.873,-3.515c0.579,-1.039 1.399,-1.876 2.437,-2.484c1.037,-0.608 2.155,-0.915 3.322,-0.915c0.698,-0 1.467,0.121 2.29,0.361c0.514,0.145 0.912,0.218 1.18,0.218c0.339,0 0.556,-0.122 0.664,-0.375l0.016,-0.036l0.5,-0l0,3.773l-0.469,0l-0.009,-0.05c-0.142,-0.994 -0.612,-1.799 -1.396,-2.396c-0.788,-0.598 -1.721,-0.902 -2.776,-0.902c-1.326,-0 -2.427,0.52 -3.273,1.547c-0.852,1.03 -1.282,2.381 -1.282,4.014c0,1.794 0.499,3.302 1.483,4.483c0.98,1.177 2.23,1.774 3.714,1.774c1.401,0 2.083,-0.414 2.083,-1.264l0,-1.345c0,-0.746 -0.1,-1.272 -0.3,-1.565c-0.194,-0.285 -0.545,-0.428 -1.044,-0.428l-0.549,-0l0,-0.479l5.287,0l0,0.479l-0.059,-0c-0.546,-0 -0.94,0.119 -1.17,0.357c-0.232,0.237 -0.349,0.659 -0.349,1.255l0,3.38l-0.044,0.012c-0.3,0.077 -0.866,0.149 -1.682,0.213c-0.813,0.063 -1.453,0.095 -1.902,0.095" style="fill:#fff;fill-rule:nonzero;"/>
    <path d="M74.477,56.392c-1.469,0 -2.66,0.544 -3.54,1.615c-0.882,1.076 -1.33,2.528 -1.33,4.315c0,1.788 0.442,3.253 1.314,4.353c0.87,1.096 2.025,1.652 3.435,1.652c1.426,-0 2.597,-0.569 3.485,-1.689c0.89,-1.125 1.341,-2.548 1.341,-4.231c-0,-1.808 -0.441,-3.28 -1.315,-4.374c-0.868,-1.088 -2.009,-1.641 -3.39,-1.641m-0.098,12.529c-1.907,-0 -3.543,-0.646 -4.862,-1.919c-1.319,-1.274 -1.988,-2.855 -1.988,-4.7c0,-1.847 0.665,-3.409 1.978,-4.646c1.311,-1.233 2.968,-1.858 4.925,-1.858c1.901,-0 3.53,0.635 4.846,1.885c1.315,1.253 1.982,2.806 1.982,4.619c0,1.845 -0.672,3.426 -1.999,4.7c-1.325,1.273 -2.967,1.919 -4.882,1.919" style="fill:#fff;fill-rule:nonzero;"/>
    <path d="M89.49,62.242l1.507,0c0.916,0 1.643,-0.257 2.161,-0.765c0.519,-0.506 0.783,-1.19 0.783,-2.029c-0,-0.815 -0.292,-1.485 -0.868,-1.988c-0.576,-0.505 -1.351,-0.762 -2.305,-0.762l-1.278,0l0,5.544Zm9.03,6.372l-2.698,-0l-0.017,-0.021c-0.536,-0.624 -1.192,-1.556 -1.953,-2.768c-0.805,-1.265 -1.442,-2.083 -1.896,-2.429c-0.447,-0.343 -0.951,-0.518 -1.492,-0.518l-0.974,0l0,3.349c0,0.716 0.103,1.222 0.309,1.5c0.201,0.27 0.568,0.409 1.09,0.409l0.059,-0l0,0.478l-4.711,-0l-0,-0.478l0.059,-0c0.543,-0 0.912,-0.136 1.1,-0.408c0.191,-0.278 0.289,-0.782 0.289,-1.499l-0,-7.771c-0,-0.717 -0.096,-1.216 -0.284,-1.483c-0.184,-0.261 -0.555,-0.393 -1.105,-0.393l-0.059,-0l-0,-0.478l5.293,-0c1.299,-0 2.351,0.311 3.132,0.926c0.785,0.619 1.181,1.419 1.181,2.376c0,1.509 -0.857,2.538 -2.552,3.063c0.353,0.235 0.7,0.546 1.034,0.928c0.368,0.42 0.855,1.126 1.452,2.097c0.659,1.069 1.182,1.779 1.553,2.112c0.363,0.325 0.746,0.504 1.135,0.53l0.055,0.005l-0,0.473Z" style="fill:#fff;fill-rule:nonzero;"/>
    <path d="M20.281,48.322c0.17,0.05 0.377,0.076 0.621,0.076c0.391,0 0.704,-0.098 0.929,-0.292c0.223,-0.193 0.337,-0.46 0.337,-0.796c0,-0.365 -0.114,-0.669 -0.337,-0.905c-0.224,-0.234 -0.536,-0.354 -0.929,-0.354l-0.621,-0l0,2.271Zm0.613,2.776l-2.04,0l0,-0.247l0.047,0c0.217,0 0.366,-0.057 0.444,-0.169c0.081,-0.116 0.122,-0.318 0.122,-0.598l0,-3.293c0,-0.301 -0.041,-0.512 -0.122,-0.625c-0.078,-0.109 -0.227,-0.165 -0.444,-0.165l-0.047,0l0,-0.247l2.021,0c0.652,0 1.176,0.144 1.559,0.427c0.388,0.285 0.584,0.659 0.584,1.11c0,0.451 -0.173,0.802 -0.513,1.044c-0.336,0.239 -0.82,0.36 -1.441,0.36c-0.225,-0 -0.487,-0.016 -0.783,-0.048l0,1.417c0,0.305 0.041,0.516 0.123,0.626c0.076,0.107 0.226,0.161 0.442,0.161l0.048,0l0,0.247Z" style="fill:#fff;fill-rule:nonzero;"/>
    <path d="M27.082,48.354l0.615,-0c0.382,-0 0.685,-0.107 0.901,-0.317c0.215,-0.211 0.325,-0.495 0.325,-0.843c0,-0.339 -0.121,-0.617 -0.359,-0.826c-0.241,-0.21 -0.565,-0.317 -0.963,-0.317l-0.519,-0l0,2.303Zm3.825,2.744l-1.176,-0l-0.013,-0.016c-0.229,-0.267 -0.508,-0.664 -0.83,-1.176c-0.339,-0.534 -0.607,-0.878 -0.798,-1.023c-0.185,-0.144 -0.394,-0.214 -0.617,-0.214l-0.391,-0l0,1.395c0,0.3 0.042,0.509 0.126,0.622c0.082,0.109 0.23,0.165 0.444,0.165l0.048,-0l-0,0.247l-2.04,-0l-0,-0.247l0.047,-0c0.222,-0 0.373,-0.056 0.447,-0.163c0.079,-0.114 0.119,-0.324 0.119,-0.623l-0,-3.292c-0,-0.299 -0.04,-0.506 -0.116,-0.615c-0.073,-0.104 -0.225,-0.157 -0.45,-0.157l-0.047,0l-0,-0.247l2.264,0c0.554,0 1.007,0.135 1.34,0.398c0.337,0.266 0.509,0.61 0.509,1.024c0,0.635 -0.353,1.074 -1.053,1.304c0.138,0.097 0.274,0.222 0.404,0.372c0.157,0.178 0.365,0.478 0.617,0.89c0.278,0.451 0.498,0.75 0.654,0.889c0.15,0.135 0.307,0.209 0.468,0.22l0.044,0.002l0,0.245Z" style="fill:#fff;fill-rule:nonzero;"/>
    <path d="M35.551,51.098l-2.04,-0l0,-0.248l0.048,0c0.219,0 0.368,-0.053 0.445,-0.159c0.079,-0.111 0.12,-0.321 0.12,-0.625l-0,-3.274c-0,-0.312 -0.04,-0.524 -0.119,-0.633c-0.074,-0.104 -0.225,-0.158 -0.446,-0.158l-0.048,-0l0,-0.247l2.04,-0l0,0.247l-0.048,-0c-0.213,-0 -0.361,0.055 -0.44,0.165c-0.083,0.114 -0.125,0.324 -0.125,0.626l0,3.274c0,0.301 0.042,0.51 0.125,0.623c0.078,0.107 0.226,0.161 0.44,0.161l0.048,0l0,0.248Z" style="fill:#fff;fill-rule:nonzero;"/>
    <path d="M40.77,51.098l-2.04,-0l0,-0.248l0.049,0c0.216,0 0.365,-0.054 0.443,-0.161c0.08,-0.113 0.121,-0.322 0.121,-0.623l0,-3.274c0,-0.306 -0.039,-0.517 -0.12,-0.629c-0.076,-0.107 -0.226,-0.162 -0.444,-0.162l-0.049,-0l0,-0.247l3.806,-0l-0,1.026l-0.211,0l-0.008,-0.038c-0.057,-0.267 -0.13,-0.441 -0.216,-0.52c-0.059,-0.053 -0.214,-0.117 -0.618,-0.117l-1.331,-0l0,2.101l1.363,0c0.177,0 0.308,-0.042 0.391,-0.126c0.084,-0.086 0.139,-0.239 0.167,-0.453l0.004,-0.043l0.238,-0l-0,1.572l-0.241,0l-0.003,-0.045c-0.016,-0.37 -0.192,-0.55 -0.537,-0.55l-1.382,-0l0,1.504c0,0.302 0.042,0.511 0.125,0.622c0.079,0.109 0.229,0.163 0.445,0.163l0.048,0l0,0.248Z" style="fill:#fff;fill-rule:nonzero;"/>
    <path d="M48.723,51.098l-2.067,-0l0,-0.248l0.047,0c0.25,0 0.416,-0.056 0.493,-0.168c0.082,-0.116 0.124,-0.325 0.124,-0.617l-0,-1.64l-1.145,-1.73c-0.187,-0.283 -0.339,-0.469 -0.454,-0.555c-0.111,-0.084 -0.271,-0.131 -0.471,-0.139l-0.046,-0.001l0,-0.246l2.211,-0l-0,0.247l-0.048,-0c-0.339,-0 -0.51,0.068 -0.51,0.199c0,0.065 0.034,0.149 0.102,0.251l1.029,1.53l0.817,-1.257c0.12,-0.188 0.181,-0.35 0.181,-0.48c0,-0.104 -0.032,-0.243 -0.311,-0.243l-0.047,-0l0,-0.247l1.579,-0l0,0.244l-0.044,0.003c-0.191,0.012 -0.339,0.052 -0.44,0.12c-0.104,0.069 -0.234,0.222 -0.386,0.454l-1.208,1.85l-0,1.64c-0,0.307 0.039,0.519 0.117,0.628c0.076,0.104 0.219,0.157 0.429,0.157l0.048,0l0,0.248Z" style="fill:#fff;fill-rule:nonzero;"/>
    <path d="M54.07,51.227c-0.251,0 -0.572,-0.066 -0.954,-0.199c-0.189,-0.065 -0.26,-0.079 -0.284,-0.079c-0.067,0 -0.121,0.058 -0.162,0.172l-0.013,0.031l-0.24,-0l-0,-1.514l0.255,0l0,0.047c0.003,0.376 0.13,0.68 0.377,0.905c0.25,0.226 0.545,0.341 0.877,0.341c0.314,-0 0.569,-0.082 0.758,-0.244c0.188,-0.162 0.279,-0.373 0.279,-0.645c0,-0.199 -0.077,-0.393 -0.231,-0.577c-0.158,-0.19 -0.498,-0.438 -1.007,-0.741c-0.429,-0.257 -0.709,-0.455 -0.854,-0.605c-0.146,-0.151 -0.253,-0.318 -0.324,-0.498c-0.069,-0.178 -0.103,-0.377 -0.103,-0.592c-0,-0.415 0.142,-0.756 0.423,-1.015c0.278,-0.258 0.647,-0.389 1.094,-0.389c0.243,0 0.511,0.047 0.798,0.141c0.158,0.05 0.229,0.059 0.262,0.059c0.041,0 0.051,-0.009 0.051,-0.009c0.003,-0.004 0.018,-0.025 0.041,-0.103l0.011,-0.035l0.234,0l0,1.326l-0.25,0l-0.005,-0.043c-0.036,-0.325 -0.159,-0.583 -0.365,-0.765c-0.207,-0.183 -0.471,-0.275 -0.786,-0.275c-0.281,-0 -0.507,0.069 -0.676,0.205c-0.168,0.134 -0.249,0.31 -0.249,0.536c-0,0.207 0.07,0.401 0.21,0.573c0.143,0.177 0.462,0.409 0.946,0.691c0.575,0.333 0.967,0.629 1.165,0.88c0.202,0.255 0.306,0.552 0.306,0.879c-0,0.424 -0.157,0.79 -0.466,1.091c-0.308,0.299 -0.685,0.451 -1.118,0.451" style="fill:#fff;fill-rule:nonzero;"/>
    <path d="M61.739,51.227c-1.006,0 -1.802,-0.244 -2.366,-0.727c-0.565,-0.484 -0.851,-1.131 -0.851,-1.924c-0,-0.551 0.124,-1.055 0.371,-1.499c0.248,-0.444 0.597,-0.801 1.041,-1.061c0.443,-0.26 0.92,-0.391 1.418,-0.391c0.298,0 0.627,0.052 0.976,0.153c0.215,0.062 0.382,0.093 0.493,0.093c0.134,0 0.219,-0.048 0.261,-0.146l0.012,-0.028l0.25,-0l-0,1.643l-0.241,0l-0.006,-0.042c-0.059,-0.414 -0.255,-0.75 -0.583,-0.999c-0.33,-0.251 -0.721,-0.378 -1.162,-0.378c-0.555,-0 -1.014,0.218 -1.369,0.647c-0.357,0.432 -0.537,1 -0.537,1.685c-0,0.755 0.209,1.389 0.622,1.886c0.411,0.493 0.935,0.744 1.556,0.744c0.578,-0 0.86,-0.168 0.86,-0.514l-0,-0.57c-0,-0.311 -0.042,-0.53 -0.124,-0.65c-0.077,-0.114 -0.22,-0.172 -0.423,-0.172l-0.255,0l0,-0.248l2.283,-0l0,0.248l-0.047,0c-0.224,0 -0.386,0.048 -0.48,0.145c-0.093,0.096 -0.14,0.27 -0.14,0.516l0,1.448l-0.036,0.01c-0.129,0.034 -0.363,0.063 -0.715,0.092c-0.346,0.027 -0.617,0.039 -0.808,0.039" style="fill:#fff;fill-rule:nonzero;"/>
    <path d="M69.609,45.921c-0.615,-0 -1.113,0.227 -1.482,0.677c-0.37,0.451 -0.558,1.06 -0.558,1.813c-0,0.751 0.185,1.367 0.551,1.828c0.364,0.46 0.849,0.692 1.438,0.692c0.597,0 1.087,-0.238 1.458,-0.707c0.375,-0.472 0.564,-1.07 0.564,-1.778c-0,-0.761 -0.187,-1.38 -0.552,-1.838c-0.364,-0.456 -0.842,-0.687 -1.419,-0.687m-0.041,5.307c-0.814,-0 -1.514,-0.276 -2.076,-0.82c-0.562,-0.543 -0.847,-1.218 -0.847,-2.006c-0,-0.79 0.283,-1.457 0.844,-1.983c0.558,-0.527 1.266,-0.795 2.101,-0.795c0.812,0 1.508,0.272 2.067,0.806c0.563,0.535 0.848,1.198 0.848,1.972c-0,0.788 -0.288,1.463 -0.854,2.006c-0.566,0.544 -1.266,0.82 -2.083,0.82" style="fill:#fff;fill-rule:nonzero;"/>
    <path d="M79.307,51.098l-4.001,0l0,-0.247l0.048,-0c0.207,-0 0.349,-0.059 0.434,-0.182c0.087,-0.125 0.131,-0.343 0.131,-0.648l0,-3.306c0,-0.271 -0.041,-0.46 -0.121,-0.564c-0.077,-0.099 -0.226,-0.15 -0.444,-0.15l-0.048,0l0,-0.247l2.032,0l-0,0.247l-0.047,0c-0.202,0 -0.341,0.057 -0.427,0.175c-0.086,0.118 -0.129,0.323 -0.129,0.606l-0,3.508c-0,0.178 0.037,0.3 0.11,0.362c0.074,0.063 0.227,0.095 0.454,0.095l1.074,0c0.319,0 0.542,-0.052 0.665,-0.157c0.124,-0.104 0.246,-0.34 0.359,-0.699l0.011,-0.033l0.259,-0l-0.018,0.06l-0.332,1.145l-0.01,0.035Z" style="fill:#fff;fill-rule:nonzero;"/>
    <path d="M49.261,39.605c3.629,0 7.786,-1.711 11.124,-4.577c3.563,-3.061 5.606,-6.963 5.606,-10.705l0,-23.823l-33.461,-0l0,23.823c0,3.742 2.044,7.644 5.607,10.705c3.336,2.866 7.495,4.577 11.124,4.577" style="fill:#fff;fill-rule:nonzero;stroke:#000;stroke-width:1px;"/>
    <rect x="55.108" y="1.127" width="10.246" height="16.528" style="fill:#fff;stroke:#000;stroke-width:1px;"/>
    <path d="M33.149,18.2l10.255,-0l-0,19.433c-5.394,-2.378 -10.255,-7.613 -10.255,-13.31l-0,-6.123Z" style="fill:#fff;fill-rule:nonzero;stroke:#000;stroke-width:1px;"/>
    <rect x="33.158" y="1.127" width="10.246" height="16.528" style="fill:#fff;stroke:#000;stroke-width:1px;"/>
    <path d="M55.108,18.2l0,19.433c5.395,-2.378 10.255,-7.613 10.255,-13.31l0,-6.123l-10.255,-0Z" style="fill:#fff;fill-rule:nonzero;stroke:#000;stroke-width:1px;"/>
    <path d="M50.078,35.984c-0.121,-0.058 -0.261,-0.111 -0.287,-0.112c-0.032,0.002 -0.321,0.123 -0.321,0.467c0,0.378 0.188,0.577 0.544,0.577c0.32,-0 0.388,-0.237 0.388,-0.437c-0,-0.311 -0.141,-0.405 -0.324,-0.495m2.885,0.247l-0.136,0.188l-0.012,0.017l-0.247,0c-0.027,0 -0.035,0.004 -0.036,0.005c-0,0.003 -0.003,0.019 -0.003,0.045l0,0.256c0,0.131 0,0.131 0.107,0.16l0.169,0.048l0.031,0.009l-0,0.148l-0.969,0l0,-0.147l0.029,-0.01l0.2,-0.059c0.062,-0.016 0.062,-0.016 0.062,-0.142l-0,-0.248c-0,-0.026 -0,-0.055 -0.004,-0.062l-0.001,-0c-0.002,-0 -0.013,-0.003 -0.041,-0.003l-0.973,0l-0.012,-0.009l-0.028,-0.026l-0.02,-0.018l0.006,-0.024l0.064,-0.256c0.057,-0.095 0.112,-0.189 0.17,-0.29c0.079,-0.136 0.168,-0.292 0.273,-0.454c0.233,-0.359 0.437,-0.646 0.509,-0.744l0.008,-0.01l0.013,-0.005l0.321,-0.097l0.02,-0.006l0.017,0.013l0.035,0.026l0.014,0.013l0,1.523c0,0.014 0,0.053 0.005,0.062l0.002,-0c-0,-0 0.013,0.002 0.039,0.002l0.351,0l0.014,0.016l0.023,0.03l0.017,0.025l-0.017,0.024Zm-3.074,0.926c-0.472,-0 -0.754,-0.284 -0.754,-0.761c0,-0.376 0.244,-0.516 0.374,-0.591c0.032,-0.017 0.07,-0.041 0.076,-0.051l-0.001,0c-0,0 -0.031,-0.016 -0.048,-0.027c-0.1,-0.06 -0.287,-0.174 -0.287,-0.545c0,-0.447 0.386,-0.68 0.769,-0.68c0.422,-0 0.654,0.224 0.654,0.635c0,0.31 -0.207,0.447 -0.32,0.521c-0.013,0.009 -0.028,0.019 -0.039,0.027c0.015,0.009 0.041,0.021 0.063,0.031c0.141,0.066 0.405,0.187 0.405,0.604c0,0.516 -0.341,0.837 -0.892,0.837m-1.951,-0c-0.472,-0 -0.754,-0.284 -0.754,-0.761c0,-0.376 0.244,-0.516 0.375,-0.591c0.031,-0.018 0.069,-0.041 0.075,-0.051l-0.001,0c-0.006,0 -0.03,-0.016 -0.049,-0.027c-0.101,-0.06 -0.286,-0.174 -0.286,-0.545c0,-0.447 0.386,-0.682 0.767,-0.682c0.424,0 0.656,0.226 0.656,0.638c0,0.309 -0.207,0.446 -0.32,0.52c-0.013,0.009 -0.028,0.019 -0.039,0.027c0.015,0.009 0.041,0.021 0.063,0.031c0.142,0.066 0.406,0.187 0.406,0.604c0,0.516 -0.342,0.837 -0.893,0.837m-1.124,-0.05l-1.184,0l0,-0.148l0.031,-0.009l0.261,-0.067c0.107,-0.029 0.107,-0.034 0.107,-0.136l0,-1.73c0,-0.131 0,-0.136 -0.114,-0.14l-0.308,-0.003l-0.034,-0l-0.006,-0.034l-0.015,-0.075l-0.007,-0.036l0.036,-0.011l0.722,-0.215l0.021,-0.006l0.017,0.012l0.044,0.033l0.017,0.013l0,2.205c0,0.078 0.005,0.1 0.119,0.126l0.261,0.064l0.032,0.009l-0,0.148Zm7.749,-35.956l0,-0.023l-10.615,-0l0,0.023l-0.027,0l0,36.694c1.371,0.556 2.767,0.924 4.117,1.066c1.496,0.189 2.827,0.068 4.252,-0.316c0.757,-0.184 1.519,-0.43 2.273,-0.733l0,-0.045c0.013,-0.005 0.025,-0.01 0.037,-0.015l0,-36.651l-0.037,0Zm-3.081,34.947c-0,0.032 -0,0.038 0.095,0.038l0.542,0c0.027,0 0.034,-0.006 0.034,-0.006c0.005,-0.005 0.005,-0.036 0.005,-0.058l-0,-1.148c-0.07,0.089 -0.234,0.344 -0.429,0.682c-0.194,0.334 -0.247,0.466 -0.247,0.492m-3.329,-0.505c0.041,-0 0.234,-0.112 0.234,-0.429c-0,-0.257 -0.159,-0.421 -0.403,-0.421c-0.253,-0 -0.305,0.187 -0.305,0.346c-0,0.416 0.469,0.504 0.474,0.504m-0.026,0.391c-0.123,-0.059 -0.261,-0.111 -0.287,-0.112c-0.032,0.002 -0.32,0.123 -0.32,0.467c0,0.378 0.188,0.577 0.543,0.577c0.32,-0 0.387,-0.239 0.387,-0.437c-0,-0.312 -0.14,-0.405 -0.323,-0.495m1.977,-0.391c0.041,-0 0.234,-0.112 0.234,-0.429c-0,-0.257 -0.159,-0.423 -0.404,-0.423c-0.253,0 -0.306,0.189 -0.306,0.348c0,0.416 0.471,0.504 0.476,0.504" style="fill:#fff;fill-rule:nonzero;stroke:#000;stroke-width:0.25px;"/>
    <path d="M57.692,7.866c-0.016,0.257 -0.173,0.032 -0.173,0.032c0,0 -0.4,-0.388 -0.4,-0.945c0.116,-0.07 0.17,-0.317 0.217,-0.341c0.046,-0.023 0.371,-0.178 0.371,-0.341c0,-0.162 -0.456,-1.169 -0.456,-1.548l-0.388,0.542l-0.301,-0.527l-0.241,0.628l-0.249,-0.295c0,0 -0.119,0.909 -0.075,1.073c0.119,0.443 0.316,0.39 0.316,0.546c0,0.24 -0.421,0.416 -0.421,0.416c0.048,0.129 0.288,1.28 0.462,1.836c0.199,0.636 0.339,0.691 0.471,0.962c0.107,0.221 0.154,0.713 0.417,0.713c0.264,-0 0.984,-0.264 0.984,-0.264c-0.24,0.233 -0.348,2.579 -0.735,2.579c-0.263,0 -0.929,0.019 -0.929,0.019c-0,-0 -0.292,0.462 -0.528,1.382l0.573,-0.332l-0.17,0.906l0.698,-0.519l0.287,0.89l0.254,-0.417c0,-0 -0.063,-0.2 0.148,-0.481c0.185,-0.248 0.471,-0.658 0.471,-0.658l0.357,0.092c0,0 0.194,-0.27 0.14,-0.541l0.101,-0.026l0.111,-0.242l0.16,-0.432c0.057,-0.135 0.661,-1.701 0.842,-2.175c0.034,-0.085 0.143,-0.367 0.112,-0.508c-0.016,-0.08 -0.037,-0.178 -0.037,-0.327c-0,-0.146 0.124,-0.419 0.367,-0.653l-0,0.014c-0,0.165 0.121,0.21 0.185,0.21c0.064,-0 0.11,-0.032 0.149,-0.061c0.066,-0.047 0.191,-0.134 0.446,-0.134c0.033,-0 0.062,0.001 0.091,0.003c-0.254,0.098 -0.56,0.403 -0.56,0.979c-0,0.405 0.168,0.859 0.293,1.189c0.034,0.095 0.076,0.207 0.096,0.274c-0.02,0.016 -0.042,0.033 -0.063,0.049c-0.254,0.196 -0.51,0.404 -0.598,0.613c-0.002,0.004 -0.004,0.008 -0.006,0.011c-0.389,0.063 -0.783,0.108 -0.783,0.108l-0.591,1.06l0.374,-0.122l-0.357,0.789l0.713,-0.294c0,0 -0.162,0.542 0,0.744c0.022,-0.019 0.255,-0.179 0.255,-0.179c-0,-0 0.12,-0.288 0.196,-0.364c0.076,-0.075 0.517,-0.526 0.517,-0.526l0.108,0.271c0.535,-0.267 1.521,-1.527 1.55,-1.751c-0,-0.216 -0.387,-0.557 -0.387,-1.06c-0,-0.296 0.116,-0.412 0.116,-0.412c0,0.357 0.851,1.163 0.928,1.387c-0.193,0.108 -0.565,1.224 -0.61,1.379c-0.156,-0.004 -0.967,0.182 -0.967,0.182c0,0 -0.469,0.5 -0.599,1.096l0.651,-0.132l-0.112,0.761l0.288,-0.06c-0,-0 0.272,-0.454 0.723,-0.476l0.402,0.666l0.272,-0.302c0,0 0.03,-0.861 0.177,-0.961l0.317,0.124c0.878,-0.639 0.998,-2.943 0.878,-3.015c-0.077,-0.046 -0.107,0.046 -0.333,-0.242c-0.372,-0.471 -0.315,-1.532 -0.666,-1.907c0,0 0.036,-0.033 0.199,-0.033c0.163,0 0.785,-0.224 0.791,-0.96c0.006,-0.918 -0.751,-1.245 -0.751,-1.245c-0,-0 0.084,-0.15 0.084,-0.366c-0,-0.681 -0.751,-0.682 -0.766,-0.782c0.363,-0.078 0.745,-0.497 0.775,-0.806c0.085,-0.875 -0.894,-1.368 -1.309,-0.952c0.131,0.116 0.449,0.248 0.449,0.573c-0,0.558 -0.612,0.844 -0.612,0.844c-0,-0 0.109,-0.217 0.109,-0.487c-0,-0.272 -0.156,-0.737 -0.744,-0.737c-0.737,0 -0.913,0.643 -0.913,0.643c0.184,-0 0.766,-0.062 0.766,0.287c-0,0.441 -0.744,0.705 -0.744,1.433c0,0.728 0.636,1.26 1.355,1.308c0.192,0.013 0.225,0.026 0.364,0.026c0.139,0 0.227,0.168 0.527,0.168c0.372,0 0.457,-0.17 0.581,-0.17c0.124,-0 0.124,0.125 0.124,0.194c-0,0.069 0.023,0.256 -0.434,0.256c-0.488,-0 -1.363,-0.249 -2.154,-0.249c-0.62,0 -0.704,0.011 -0.739,0.057c0.039,-0.073 0.135,-0.268 0.135,-0.426c-0.147,-0.074 -0.269,-0.483 -0.347,-0.483c0.666,-0.605 0.569,-1.135 0.576,-1.254c-0.046,-0.152 -0.144,-0.178 -0.306,-0.178c-0.161,-0 -0.255,0.069 -0.255,0.069c-0,-0 -0.042,-0.576 -0.136,-0.77c-0.215,-0.325 -1.27,-0.545 -1.678,0.075c-0,0 -0.153,0.377 -0.215,0.493c-0.33,-0.129 -0.512,0.038 -0.512,0.038c0,-0 0.013,0.166 0.016,0.289c0.003,0.1 -0.024,0.263 -0.024,0.402c-0,0.139 0.286,0.65 0.286,0.65c-0.161,0.24 -0.717,0.503 -0.717,0.503c0.205,0.205 0.37,0.635 0.37,0.635" style="fill:#fff;fill-rule:nonzero;stroke:#000;stroke-width:1px;"/>
    <path d="M62.452,13.265c-0.372,0.068 -0.868,0.182 -0.868,0.182l-0.422,0.698l0.503,-0.106c0.045,-0.24 0.073,-0.375 0.181,-0.471c0.209,-0.187 0.539,-0.197 0.606,-0.303m-5.286,-6.698c0.08,-0.141 0.393,-0.203 0.383,-0.334c-0.01,-0.13 -0.373,-0.947 -0.383,-1.149l-0.232,0.423c-0,-0 0.342,0.484 0.342,0.646c-0,0.162 -0.131,0.202 -0.11,0.414m-0.943,1.216c-0.006,0.315 0.403,0.453 0.428,0.608c0.026,0.157 -0.318,-0.098 -0.31,-0.051c0.058,0.434 0.416,0.478 0.543,0.713c0.079,0.142 -0.331,-0.056 -0.323,-0.014c0.087,0.508 0.619,0.317 0.713,0.649c0.053,0.185 -0.332,-0.105 -0.344,0.058c-0.007,0.109 0.201,0.681 0.318,0.707c0.117,0.026 0.493,-0.116 0.661,-0.182c0.169,-0.064 0.493,-0.129 0.532,-0.285c-0.182,-0.284 -0.662,-0.947 -0.726,-1.556c-0.377,-0.401 -0.752,-0.986 -0.752,-1.465c0,-0.479 0.142,-0.869 0.142,-0.869l-0.531,-0.998l-0.104,0.453c0,0 0.492,0.468 0.48,0.623c-0.014,0.156 -0.142,0.635 -0.142,0.635c-0.092,0.13 -0.066,-0.621 -0.066,-0.621l-0.571,-0.727c0,0 -0.026,0.48 0.007,0.627c0.06,0.279 0.317,0.411 0.317,0.579c0,0.168 -0.22,0.454 -0.336,0.519c-0.026,0.208 0.376,0.415 0.389,0.597c-0.104,0.116 -0.322,-0.083 -0.325,-0m0.614,5.548c0,-0 0.349,-0.084 0.621,-0.228c-0.287,0.031 -0.766,0.031 -0.766,0.031l-0.421,0.881l0.414,-0.235c0,0 -0.002,-0.398 0.152,-0.449m3.011,-0.812c0.118,-0.104 0.369,-0.147 0.512,-0.289c-0.309,0.076 -0.602,0.147 -0.602,0.147l-0.363,0.559l0.288,-0.121c-0,0 0.049,-0.194 0.165,-0.296m1.237,0.216c0.09,-0.117 0.234,0.285 0.234,0.285c0.363,-0.325 -0.039,-0.5 0.078,-0.596c0.155,-0.13 0.415,0.077 0.415,0.077c0.194,-0.169 -0.11,-0.344 -0.026,-0.453c0.168,-0.221 0.22,-0.014 0.337,-0.065c0.117,-0.052 0.246,-0.156 0.117,-0.324c-0.131,-0.168 -0.544,-0.907 -0.181,-1.452c-0,0 -0.235,0.078 -0.287,0.272c-0.052,0.194 0.143,1.18 0.143,1.323l-1.062,0.907c-0,0 -0.078,-0.078 0.064,-0.259c0.142,-0.182 0.817,-0.739 0.817,-0.739c-0.169,-0.22 0.078,-0.779 -0.26,-0.986c-0.091,-0.039 -0.344,-0.115 -0.129,-0.272c0.143,-0.104 0.375,-0.052 0.375,-0.519c0,-0.467 -0.427,-0.505 -0.427,-0.505c0.052,-0.142 0.427,-0.104 0.531,-0.246c-0.194,-0.092 -0.194,-0.104 -0.336,-0.104c-0.143,-0 -0.558,0.208 -0.558,0.843c-0,0.635 0.473,1.458 0.389,1.542c-0.084,0.085 -0.57,0.402 -0.674,0.648c-0.105,0.247 -0.676,0.613 -0.676,0.613l-0.543,0.892l0.363,-0.207c0,-0 0.134,-0.435 0.347,-0.564c0.303,-0.181 0.583,-0.505 0.63,-0.456c0.046,0.048 -0.238,0.435 -0.536,0.591c-0.09,0.182 -0.311,0.844 -0.285,0.986c-0,-0 0.648,-0.779 0.83,-0.856c0.182,-0.078 0.246,0.155 0.246,0.155c0.246,-0.181 -0.027,-0.414 0.064,-0.531m0.676,-5.941c0.093,0.168 0.86,0.122 0.86,-0.593c0,-0.374 -0.316,-0.454 -0.316,-0.558c-0,-0.26 1.4,-0.363 1.4,-1.037c-0,-0.351 -0.104,-0.519 -0.104,-0.519c-0,0 0.026,0.532 -0.144,0.532c-0.258,-0 -0.024,-0.312 -0.024,-0.467c-0,-0.57 -0.611,-0.442 -0.611,-0.442c0,0 0.364,0.014 0.364,0.584c-0,0.726 -1.063,1.167 -1.141,1.089c-0.078,-0.077 0.286,-0.323 0.286,-0.726c-0,-0.194 -0.078,-0.609 -0.493,-0.609c-0.493,-0 -0.817,0.337 -0.622,0.311c0.193,-0.026 0.582,0.104 0.582,0.441c0,0.571 -0.751,0.713 -0.751,1.44c-0,0.907 0.92,1.128 1.206,1.128c0.285,-0 0.349,-0.04 0.349,-0.04c-0.064,-0.09 -0.051,-0.285 -0.051,-0.285c-0,-0 -0.156,0.052 -0.338,0.052c-0.699,-0 -0.777,-0.532 -0.777,-0.713c0,-0.182 0.183,-0.536 0.466,-0.506c0.597,0.065 0.238,0.718 -0.141,0.918m0.925,0.266c0,0.208 0.103,0.508 0.424,0.508c0.371,-0 0.385,-0.174 0.592,-0.174c0.208,-0 0.303,0.169 0.303,0.363c-0,0.194 -0.101,0.424 -0.606,0.424c-0.894,-0 -1.129,-0.244 -2.198,-0.244c-1.009,0 -0.925,0.402 -1.574,1.051c-0.648,0.648 -1.16,1.128 -1.16,1.128l0.038,0.103c-0.31,0.325 -0.465,1.919 -0.622,2.476c-0.156,0.559 -1.011,0.792 -1.011,0.792l-0.195,1.077l0.415,-0.364c-0,0 -0.026,-0.077 -0.038,-0.311c-0.014,-0.234 0.635,-0.714 0.946,-0.908c-0.052,0.299 -0.778,0.882 -0.778,0.882c-0,0 0.065,0.194 0.077,0.415c0.014,0.22 0.17,0.622 0.17,0.622l0.039,-0.065c0,0 0.026,-0.248 0.072,-0.339c0.102,-0.208 0.64,-0.932 0.64,-0.932l0.35,0.053c0.182,-0.285 -0.065,-0.558 -0.129,-0.726c0.142,-0.144 0.22,-0.066 0.388,0.09c0.13,-0.311 0.014,-0.336 -0.09,-0.583c-0.104,-0.246 0.09,-0.194 0.362,-0.052c0.105,-0.168 0.079,-0.312 -0.077,-0.661c-0.155,-0.35 0.182,-0.182 0.338,-0.064c0.117,-0.183 0.064,-0.222 -0.078,-0.585c-0.144,-0.363 0.078,-0.311 0.323,-0.13c0.156,-0.415 0.026,-0.336 -0.077,-0.609c-0.104,-0.272 0.155,-0.246 0.351,-0.078c0.18,-0.168 0.029,-0.228 0.029,-0.657c0,-0.313 0.365,-0.908 1.001,-1.142c0.22,0.222 -0.292,0.256 -0.292,0.503c0,0.142 0.103,-0.155 0.61,-0.155c0.505,-0 0.531,0.245 0.661,0.245c0.129,0 0.012,-0.362 0.012,-0.362c0.597,0 0.389,0.584 0.389,1.309c0,0.726 0.998,1.413 1.024,1.815c-0.359,0.216 -0.456,1.132 -0.783,1.631c-0.18,0.201 -0.403,0.222 -0.63,0.315l-0.22,0.919c0.182,-0.194 0.649,-0.323 0.649,-0.323c-0.222,-0.442 0.064,-0.558 0.181,-0.662c0.116,-0.103 0.609,-0.738 0.609,-0.738l0.078,0.077c0,0 -0.246,0.7 -0.635,0.881c-0.104,0.222 0.258,0.805 0.35,0.947c0.037,-0.053 0.084,-0.095 0.084,-0.095c-0,-0 0.039,-0.782 0.162,-0.916c0.142,-0.156 0.181,-0.143 0.454,-0.039c0.117,-0.117 0.051,-0.428 -0.052,-0.622c0.117,-0.221 0.298,0.215 0.356,0.137c0.207,-0.278 -0.187,-0.5 -0.058,-0.773c0,-0 0.219,0.205 0.272,0.169c0.054,-0.037 0.027,-0.194 -0.026,-0.337c-0.27,-0.646 0.139,-0.219 0.182,-0.246c0.09,-0.056 -0.013,-0.473 -0.129,-0.576c-0.065,0.182 -0.454,0.886 -0.662,1.379c-0.036,0.087 -0.234,0.117 0.04,-0.725c0.323,-1.004 0.687,-0.843 0.842,-0.792c-0.013,-0.466 -0.48,-0.506 -0.519,-0.816c-0.467,-0.195 -0.078,-1.79 -1.038,-2.179l1.206,-0.09c-0.232,0.233 -0.687,0.155 -0.687,0.155c0,0 0,0.142 0.364,0.142c0.363,0 0.652,-0.337 0.652,-0.79c-0,-0.335 -0.404,-1.062 -0.791,-1.062c-0.321,0 -0.454,0.492 -0.531,0.455c-0.19,-0.096 -0.057,-0.182 0.014,-0.303c0.244,-0.424 0.652,-0.328 0.653,-0.674c0.003,-0.652 -0.835,-0.675 -0.955,-0.555c-0.1,0.1 0.384,0.006 0.374,0.414c-0.001,0.076 0.243,-0.214 0.243,-0.192c-0,0.302 -0.678,0.53 -0.678,1.169m-4.54,-1.074c-0,-0.233 0.172,-0.253 0.222,-0.253c0.132,0 0.123,0.395 0.183,0.487c0.062,0.091 0.234,0.051 0.263,0.111c-0.05,0.082 -0.222,0.183 -0.222,0.304c-0,0.122 0.111,0.163 0.163,0.163c0.07,0 0.374,-0.081 0.374,-0.264c0,-0.092 -0.069,-0.141 -0.101,-0.203c-0.032,-0.062 -0.026,-0.137 -0.051,-0.152c0.121,-0.01 0.244,-0.051 0.335,-0.051c0.092,0 0.101,0.061 0.101,0.143c0,0.081 -0.172,0.142 -0.172,0.222c-0,0.082 0.223,0.295 0.294,0.295c0.071,0 0.233,-0.062 0.233,-0.173c0,-0.111 -0.065,-0.248 0,-0.315c0.041,-0.041 0.132,0.041 0.132,0.041c0.137,-0.137 0.223,-0.415 0.498,-0.446c0.273,0.477 -0.295,0.66 -0.295,0.66l-0.222,-0.092c0.086,0.276 -0.15,0.37 -0.143,0.476c0.021,0.308 -0.04,0.405 -0.152,0.508c-0.071,-0.02 -0.223,-0.031 -0.233,0.031c0.142,0.253 -0.284,0.527 -0.234,0.638c-0.06,-0.04 -0.202,-0.344 -0.254,-0.406c-0.051,-0.061 0.044,-0.148 -0.009,-0.294c-0.031,-0.08 -0.213,0.011 -0.235,-0.131c-0.019,-0.142 0.028,-0.439 -0.144,-0.541c-0,-0.294 -0.331,-0.485 -0.331,-0.758m1.003,-0.558l0.031,0.072c-0.07,0.019 -0.082,0.405 -0.263,0.405c-0.224,-0 -0.052,-0.274 -0.224,-0.325c0,-0 0.325,-0.03 0.456,-0.152m0.253,0.031c0.082,0.111 0.276,0.253 0.417,0.132c0.062,0.02 0.081,0.04 0.011,0.121c-0.072,0.082 -0.073,0.285 -0.214,0.274c-0.243,-0.021 -0.142,-0.375 -0.233,-0.457l0.019,-0.07Zm-1.522,2.286c0.072,-0.058 0.266,-0.359 0.452,-0.359c-0.014,0.109 -0.295,0.343 -0.389,0.53c-0.094,0.187 0.062,0.373 0.141,0.513c-0.016,-0.123 0.279,-0.326 0.373,-0.435c0.093,-0.109 0.169,-0.073 0.109,0.062c-0.078,0.172 -0.323,0.35 -0.326,0.608c-0.003,0.137 0.103,0.235 0.233,0.311c0,0 0.046,-0.452 0.234,-0.327c0.075,0.05 -0.297,0.747 -0,1.012c0.047,-0.203 0.498,-0.545 0.498,-0.639c-0,-0.093 -0.156,-0.404 -0,-0.404c0.094,-0 0.171,0.28 0.234,0.28c0.062,0 0.187,-0.063 0.187,-0.171c0,-0.109 -0.28,-0.576 -0.11,-0.576c0.079,-0 0.266,0.311 0.311,0.311c0.047,0 0.094,-0.032 0.141,-0.28c0.047,-0.25 -0.218,-0.344 -0.125,-0.592c0,-0 0.25,0.123 0.328,0.264c0.078,0.141 0.233,-0.249 0.248,-0.373c-0.048,-0.057 -0.102,-0.256 -0.186,-0.374c-0.078,-0.11 -0.187,-0.141 -0.187,-0.172c0,-0.062 0.094,-0.078 0.405,-0.42c0.312,-0.342 0.265,-0.735 0.265,-0.795c-0.187,-0.17 -0.344,0.078 -0.499,0c-0.156,-0.077 -0.077,-0.56 -0.124,-0.731c0,0 -0.203,0.326 -0.25,0.279c-0.046,-0.045 0.015,-0.186 0.062,-0.342c0.047,-0.156 -0.217,-0.233 -0.217,-0.233c-0,-0 -0.062,0.327 -0.172,0.311c-0.109,-0.015 -0.077,-0.328 -0.077,-0.328c0,0 -0.218,-0.124 -0.265,0.141c-0.056,0.313 -0.203,0.047 -0.281,-0.094c-0.108,0.047 -0.061,0.406 -0.061,0.53c-0,0.125 -0.219,-0.108 -0.328,-0.155c0.031,0.109 -0.093,0.272 -0.093,0.395c0,0.125 -0.406,-0.068 -0.499,0.026c-0.001,0.048 -0.058,0.442 0.02,0.665c0.101,0.288 0.263,0.415 0.263,0.585c0,0.16 -0.249,0.239 -0.698,0.522c0.205,0.03 0.213,0.595 0.383,0.455" style="fill:#fff;fill-rule:nonzero;"/>
    <path d="M35.932,22.932c-0.016,0.257 -0.173,0.032 -0.173,0.032c-0,-0 -0.4,-0.388 -0.4,-0.945c0.116,-0.071 0.17,-0.318 0.216,-0.341c0.047,-0.024 0.372,-0.178 0.372,-0.341c-0,-0.163 -0.457,-1.169 -0.457,-1.55l-0.387,0.543l-0.302,-0.527l-0.241,0.628l-0.248,-0.295c0,-0 -0.12,0.909 -0.076,1.072c0.118,0.445 0.317,0.392 0.317,0.548c0,0.239 -0.421,0.416 -0.421,0.416c0.048,0.128 0.288,1.28 0.462,1.836c0.199,0.635 0.338,0.691 0.471,0.961c0.106,0.221 0.154,0.713 0.417,0.713c0.263,0 0.984,-0.264 0.984,-0.264c-0.24,0.233 -0.349,2.58 -0.735,2.58c-0.264,-0 -0.93,0.018 -0.93,0.018c0,0 -0.291,0.462 -0.527,1.383l0.573,-0.333l-0.17,0.906l0.696,-0.519l0.287,0.891l0.256,-0.418c-0,0 -0.064,-0.2 0.147,-0.48c0.186,-0.249 0.472,-0.659 0.472,-0.659l0.357,0.093c-0,-0 0.193,-0.271 0.14,-0.541l0.101,-0.026l0.11,-0.242l0.16,-0.433c0.057,-0.135 0.662,-1.7 0.843,-2.175c0.033,-0.085 0.141,-0.366 0.111,-0.509c-0.016,-0.077 -0.037,-0.176 -0.037,-0.326c0,-0.146 0.125,-0.419 0.367,-0.651l0,0.011c0,0.167 0.121,0.21 0.186,0.21c0.064,0 0.108,-0.031 0.148,-0.059c0.067,-0.047 0.191,-0.135 0.447,-0.135c0.032,0 0.062,0.002 0.089,0.004c-0.252,0.098 -0.558,0.403 -0.558,0.979c-0,0.405 0.168,0.858 0.291,1.188c0.036,0.095 0.078,0.208 0.097,0.274c-0.019,0.017 -0.042,0.034 -0.062,0.049c-0.255,0.196 -0.512,0.405 -0.598,0.614c-0.003,0.003 -0.004,0.007 -0.006,0.011c-0.391,0.063 -0.784,0.107 -0.784,0.107l-0.59,1.059l0.373,-0.121l-0.356,0.79l0.713,-0.294c-0,-0 -0.163,0.542 -0,0.743c0.022,-0.018 0.253,-0.179 0.253,-0.179c0,0 0.121,-0.288 0.198,-0.363c0.075,-0.077 0.516,-0.526 0.516,-0.526l0.109,0.27c0.536,-0.267 1.521,-1.527 1.549,-1.751c0,-0.216 -0.388,-0.557 -0.388,-1.061c0,-0.294 0.117,-0.41 0.117,-0.41c-0,0.357 0.852,1.163 0.929,1.386c-0.193,0.109 -0.565,1.225 -0.612,1.379c-0.154,-0.004 -0.965,0.183 -0.965,0.183c0,-0 -0.469,0.499 -0.599,1.096l0.651,-0.132l-0.112,0.761l0.288,-0.061c-0,0 0.271,-0.453 0.722,-0.475l0.403,0.666l0.271,-0.303c-0,-0 0.031,-0.86 0.178,-0.96l0.317,0.123c0.877,-0.638 0.996,-2.943 0.877,-3.014c-0.076,-0.046 -0.106,0.045 -0.333,-0.243c-0.372,-0.47 -0.314,-1.532 -0.666,-1.906c-0,-0 0.037,-0.033 0.2,-0.033c0.163,-0 0.785,-0.225 0.79,-0.96c0.007,-0.918 -0.75,-1.246 -0.75,-1.246c-0,0 0.084,-0.149 0.084,-0.366c-0,-0.68 -0.753,-0.682 -0.767,-0.782c0.364,-0.078 0.746,-0.496 0.775,-0.805c0.084,-0.875 -0.894,-1.368 -1.309,-0.953c0.132,0.116 0.449,0.248 0.449,0.573c0,0.559 -0.611,0.844 -0.611,0.844c-0,0 0.107,-0.216 0.107,-0.488c0,-0.27 -0.154,-0.735 -0.742,-0.735c-0.737,0 -0.915,0.643 -0.915,0.643c0.186,-0 0.768,-0.062 0.768,0.286c-0,0.441 -0.744,0.706 -0.744,1.433c-0,0.728 0.636,1.261 1.355,1.309c0.192,0.012 0.225,0.026 0.363,0.026c0.14,-0 0.228,0.168 0.528,0.168c0.371,-0 0.456,-0.171 0.581,-0.171c0.123,0 0.123,0.124 0.123,0.194c0,0.07 0.024,0.256 -0.433,0.256c-0.488,0 -1.363,-0.248 -2.154,-0.248c-0.62,-0 -0.704,0.011 -0.739,0.055c0.038,-0.071 0.135,-0.267 0.135,-0.425c-0.147,-0.074 -0.271,-0.483 -0.349,-0.483c0.669,-0.604 0.571,-1.135 0.577,-1.255c-0.045,-0.151 -0.143,-0.177 -0.305,-0.177c-0.163,0 -0.256,0.069 -0.256,0.069c0,0 -0.042,-0.575 -0.134,-0.769c-0.216,-0.325 -1.272,-0.545 -1.681,0.075c0,0 -0.152,0.377 -0.213,0.493c-0.331,-0.13 -0.513,0.037 -0.513,0.037c-0,0 0.013,0.167 0.017,0.289c0.003,0.1 -0.023,0.263 -0.023,0.402c-0,0.139 0.285,0.651 0.285,0.651c-0.162,0.24 -0.719,0.503 -0.719,0.503c0.205,0.205 0.372,0.635 0.372,0.635" style="fill:#fff;fill-rule:nonzero;stroke:#000;stroke-width:1px;"/>
    <path d="M40.691,28.33c-0.372,0.068 -0.867,0.182 -0.867,0.182l-0.423,0.699l0.504,-0.106c0.046,-0.241 0.072,-0.376 0.181,-0.472c0.208,-0.187 0.538,-0.197 0.605,-0.303m-5.286,-6.698c0.081,-0.141 0.393,-0.201 0.383,-0.332c-0.01,-0.131 -0.373,-0.949 -0.383,-1.151l-0.232,0.424c0,0 0.344,0.485 0.344,0.645c-0,0.162 -0.131,0.203 -0.112,0.414m-0.941,1.216c-0.008,0.315 0.401,0.453 0.427,0.609c0.026,0.156 -0.317,-0.099 -0.311,-0.052c0.058,0.434 0.416,0.478 0.545,0.713c0.078,0.142 -0.333,-0.056 -0.325,-0.012c0.088,0.506 0.619,0.315 0.714,0.647c0.052,0.186 -0.332,-0.105 -0.343,0.058c-0.009,0.109 0.2,0.681 0.316,0.708c0.117,0.025 0.493,-0.117 0.662,-0.181c0.168,-0.066 0.492,-0.13 0.531,-0.286c-0.181,-0.285 -0.661,-0.946 -0.726,-1.555c-0.376,-0.403 -0.751,-0.986 -0.751,-1.466c-0,-0.48 0.142,-0.87 0.142,-0.87l-0.532,-0.997l-0.103,0.454c-0,-0 0.491,0.467 0.479,0.622c-0.012,0.155 -0.142,0.636 -0.142,0.636c-0.091,0.128 -0.065,-0.623 -0.065,-0.623l-0.571,-0.727c-0,0 -0.026,0.48 0.006,0.627c0.06,0.28 0.319,0.411 0.319,0.579c-0,0.169 -0.222,0.455 -0.338,0.519c-0.026,0.208 0.376,0.415 0.39,0.597c-0.104,0.116 -0.323,-0.083 -0.324,-0m0.614,5.548c-0,-0 0.347,-0.084 0.62,-0.228c-0.288,0.031 -0.767,0.031 -0.767,0.031l-0.42,0.881l0.415,-0.233c-0,-0 -0.004,-0.4 0.152,-0.451m3.01,-0.812c0.117,-0.104 0.369,-0.146 0.511,-0.289c-0.309,0.076 -0.601,0.148 -0.601,0.148l-0.364,0.56l0.288,-0.121c0,-0 0.05,-0.194 0.166,-0.298m1.238,0.216c0.09,-0.116 0.232,0.285 0.232,0.285c0.363,-0.323 -0.038,-0.499 0.078,-0.596c0.156,-0.13 0.415,0.078 0.415,0.078c0.194,-0.168 -0.11,-0.344 -0.026,-0.454c0.169,-0.22 0.22,-0.012 0.337,-0.064c0.118,-0.053 0.246,-0.156 0.118,-0.325c-0.131,-0.168 -0.545,-0.907 -0.182,-1.452c0,0 -0.235,0.078 -0.285,0.272c-0.052,0.195 0.142,1.18 0.142,1.323l-1.064,0.907c0,0 -0.077,-0.078 0.065,-0.259c0.143,-0.181 0.817,-0.739 0.817,-0.739c-0.168,-0.22 0.078,-0.777 -0.258,-0.985c-0.091,-0.039 -0.346,-0.116 -0.131,-0.272c0.143,-0.104 0.377,-0.053 0.377,-0.519c-0,-0.467 -0.428,-0.505 -0.428,-0.505c0.051,-0.143 0.428,-0.104 0.532,-0.247c-0.196,-0.09 -0.196,-0.104 -0.338,-0.104c-0.143,0 -0.558,0.208 -0.558,0.843c-0,0.635 0.474,1.459 0.389,1.543c-0.084,0.084 -0.57,0.401 -0.673,0.649c-0.104,0.245 -0.675,0.611 -0.675,0.611l-0.545,0.892l0.363,-0.207c0,-0 0.134,-0.435 0.348,-0.564c0.302,-0.181 0.584,-0.504 0.63,-0.456c0.045,0.05 -0.239,0.436 -0.536,0.591c-0.091,0.182 -0.312,0.844 -0.286,0.986c0,-0 0.649,-0.778 0.83,-0.855c0.182,-0.078 0.246,0.154 0.246,0.154c0.246,-0.181 -0.026,-0.414 0.066,-0.531m0.674,-5.939c0.094,0.168 0.86,0.12 0.86,-0.595c0,-0.374 -0.316,-0.454 -0.316,-0.558c0,-0.258 1.4,-0.362 1.4,-1.037c-0,-0.351 -0.104,-0.519 -0.104,-0.519c0,0 0.026,0.532 -0.142,0.532c-0.259,-0 -0.026,-0.31 -0.026,-0.466c0,-0.571 -0.609,-0.441 -0.609,-0.441c-0,-0 0.363,0.012 0.363,0.583c0,0.726 -1.064,1.166 -1.141,1.09c-0.078,-0.078 0.285,-0.325 0.285,-0.727c-0,-0.195 -0.078,-0.609 -0.493,-0.609c-0.493,0 -0.817,0.336 -0.623,0.31c0.195,-0.025 0.585,0.104 0.585,0.441c-0,0.571 -0.753,0.713 -0.753,1.44c0,0.908 0.921,1.128 1.206,1.128c0.286,-0 0.35,-0.04 0.35,-0.04c-0.064,-0.09 -0.052,-0.284 -0.052,-0.284c-0,0 -0.156,0.052 -0.337,0.052c-0.7,-0 -0.778,-0.533 -0.778,-0.714c0,-0.182 0.183,-0.535 0.466,-0.506c0.597,0.065 0.239,0.72 -0.141,0.92m0.926,0.265c-0,0.208 0.104,0.508 0.424,0.508c0.37,0 0.384,-0.174 0.591,-0.174c0.208,-0 0.303,0.168 0.303,0.362c0,0.195 -0.1,0.424 -0.605,0.424c-0.894,-0 -1.13,-0.242 -2.197,-0.242c-1.011,-0 -0.927,0.401 -1.575,1.049c-0.649,0.648 -1.161,1.128 -1.161,1.128l0.04,0.103c-0.311,0.325 -0.467,1.919 -0.623,2.478c-0.155,0.557 -1.012,0.791 -1.012,0.791l-0.194,1.076l0.415,-0.364c0,0 -0.026,-0.077 -0.039,-0.311c-0.012,-0.233 0.635,-0.713 0.946,-0.908c-0.052,0.299 -0.778,0.882 -0.778,0.882c-0,0 0.065,0.195 0.078,0.415c0.013,0.22 0.169,0.623 0.169,0.623l0.04,-0.065c-0,-0 0.026,-0.249 0.071,-0.34c0.104,-0.208 0.641,-0.931 0.641,-0.931l0.35,0.052c0.182,-0.285 -0.064,-0.558 -0.13,-0.726c0.143,-0.142 0.22,-0.065 0.39,0.09c0.129,-0.31 0.012,-0.336 -0.092,-0.583c-0.104,-0.246 0.092,-0.194 0.363,-0.052c0.104,-0.168 0.078,-0.312 -0.077,-0.661c-0.156,-0.35 0.181,-0.181 0.337,-0.064c0.117,-0.182 0.064,-0.22 -0.078,-0.584c-0.142,-0.363 0.078,-0.311 0.324,-0.129c0.155,-0.415 0.026,-0.338 -0.078,-0.611c-0.104,-0.272 0.156,-0.246 0.351,-0.078c0.181,-0.168 0.03,-0.228 0.03,-0.656c-0,-0.313 0.365,-0.909 1,-1.143c0.22,0.222 -0.291,0.257 -0.291,0.503c-0,0.142 0.104,-0.155 0.609,-0.155c0.505,-0 0.531,0.247 0.661,0.247c0.13,-0 0.012,-0.363 0.012,-0.363c0.597,-0 0.389,0.583 0.389,1.309c0,0.726 0.999,1.412 1.026,1.815c-0.361,0.216 -0.457,1.131 -0.785,1.63c-0.181,0.203 -0.402,0.222 -0.63,0.315l-0.22,0.921c0.182,-0.196 0.649,-0.325 0.649,-0.325c-0.221,-0.44 0.064,-0.558 0.182,-0.661c0.116,-0.104 0.609,-0.739 0.609,-0.739l0.078,0.078c-0,-0 -0.248,0.7 -0.636,0.882c-0.103,0.22 0.26,0.803 0.35,0.946c0.037,-0.054 0.084,-0.096 0.084,-0.096c0,-0 0.04,-0.782 0.162,-0.916c0.143,-0.155 0.182,-0.142 0.455,-0.038c0.116,-0.117 0.052,-0.429 -0.052,-0.623c0.116,-0.22 0.298,0.216 0.356,0.137c0.206,-0.278 -0.188,-0.5 -0.058,-0.772c-0,0 0.218,0.205 0.273,0.168c0.053,-0.036 0.026,-0.194 -0.028,-0.337c-0.27,-0.646 0.139,-0.219 0.182,-0.246c0.09,-0.056 -0.012,-0.472 -0.128,-0.576c-0.065,0.182 -0.455,0.887 -0.663,1.38c-0.035,0.086 -0.233,0.116 0.04,-0.726c0.324,-1.003 0.687,-0.843 0.843,-0.791c-0.014,-0.467 -0.48,-0.505 -0.519,-0.817c-0.467,-0.195 -0.078,-1.789 -1.037,-2.178l1.206,-0.091c-0.234,0.233 -0.688,0.157 -0.688,0.157c-0,-0 -0,0.142 0.363,0.142c0.363,-0 0.654,-0.338 0.654,-0.792c-0,-0.335 -0.406,-1.062 -0.792,-1.062c-0.322,0 -0.455,0.493 -0.531,0.455c-0.191,-0.095 -0.058,-0.182 0.013,-0.303c0.246,-0.424 0.652,-0.328 0.653,-0.673c0.003,-0.652 -0.835,-0.676 -0.955,-0.555c-0.098,0.099 0.386,0.006 0.375,0.413c-0.002,0.078 0.242,-0.213 0.242,-0.19c-0,0.3 -0.677,0.528 -0.677,1.168m-4.541,-1.075c0,-0.233 0.173,-0.253 0.223,-0.253c0.132,0 0.122,0.396 0.184,0.487c0.06,0.091 0.232,0.051 0.263,0.111c-0.051,0.082 -0.224,0.183 -0.224,0.305c0,0.121 0.111,0.162 0.163,0.162c0.071,0 0.375,-0.081 0.375,-0.264c-0,-0.09 -0.07,-0.14 -0.102,-0.203c-0.032,-0.062 -0.024,-0.136 -0.05,-0.152c0.122,-0.01 0.243,-0.05 0.334,-0.05c0.092,-0 0.102,0.06 0.102,0.142c-0,0.081 -0.172,0.142 -0.172,0.223c0,0.082 0.222,0.294 0.294,0.294c0.071,0 0.232,-0.061 0.232,-0.173c0,-0.111 -0.065,-0.248 0,-0.313c0.041,-0.041 0.133,0.04 0.133,0.04c0.137,-0.137 0.223,-0.416 0.498,-0.447c0.273,0.477 -0.296,0.66 -0.296,0.66l-0.222,-0.092c0.086,0.276 -0.15,0.37 -0.142,0.477c0.021,0.308 -0.041,0.404 -0.152,0.508c-0.072,-0.021 -0.224,-0.031 -0.234,0.03c0.142,0.253 -0.284,0.527 -0.233,0.639c-0.061,-0.04 -0.203,-0.345 -0.254,-0.406c-0.05,-0.06 0.044,-0.149 -0.009,-0.294c-0.031,-0.081 -0.214,0.01 -0.234,-0.132c-0.021,-0.142 0.026,-0.439 -0.146,-0.54c0,-0.295 -0.331,-0.484 -0.331,-0.759m1.003,-0.558l0.031,0.072c-0.07,0.019 -0.08,0.405 -0.263,0.405c-0.224,-0 -0.051,-0.273 -0.224,-0.324c0,0 0.325,-0.031 0.456,-0.153m0.255,0.031c0.08,0.111 0.274,0.253 0.415,0.132c0.062,0.02 0.082,0.041 0.011,0.122c-0.071,0.081 -0.071,0.286 -0.214,0.273c-0.243,-0.019 -0.142,-0.375 -0.233,-0.455l0.021,-0.072Zm-1.522,2.286c0.07,-0.057 0.264,-0.359 0.452,-0.359c-0.016,0.11 -0.297,0.343 -0.391,0.53c-0.092,0.187 0.064,0.374 0.141,0.514c-0.016,-0.124 0.281,-0.327 0.373,-0.436c0.094,-0.109 0.171,-0.073 0.109,0.063c-0.078,0.171 -0.322,0.349 -0.326,0.607c-0.002,0.138 0.104,0.236 0.234,0.311c-0,0 0.047,-0.452 0.233,-0.327c0.075,0.05 -0.296,0.749 0,1.013c0.047,-0.203 0.498,-0.546 0.498,-0.639c0,-0.094 -0.156,-0.405 0,-0.405c0.094,-0 0.172,0.28 0.234,0.28c0.063,0 0.187,-0.061 0.187,-0.171c0,-0.109 -0.28,-0.576 -0.108,-0.576c0.079,-0 0.264,0.311 0.31,0.311c0.047,0 0.094,-0.031 0.141,-0.28c0.047,-0.25 -0.219,-0.342 -0.125,-0.592c-0,-0 0.249,0.125 0.327,0.264c0.078,0.141 0.234,-0.248 0.25,-0.373c-0.048,-0.057 -0.104,-0.256 -0.188,-0.374c-0.078,-0.11 -0.187,-0.141 -0.187,-0.171c0,-0.063 0.094,-0.077 0.406,-0.421c0.311,-0.342 0.264,-0.735 0.264,-0.794c-0.186,-0.171 -0.342,0.077 -0.498,-0c-0.156,-0.078 -0.078,-0.56 -0.125,-0.732c0,0 -0.202,0.326 -0.249,0.281c-0.047,-0.047 0.016,-0.188 0.062,-0.343c0.047,-0.157 -0.218,-0.234 -0.218,-0.234c0,-0 -0.062,0.327 -0.17,0.312c-0.11,-0.016 -0.079,-0.327 -0.079,-0.327c-0,-0 -0.218,-0.125 -0.265,0.139c-0.054,0.313 -0.203,0.047 -0.28,-0.094c-0.109,0.047 -0.062,0.406 -0.062,0.531c-0,0.124 -0.219,-0.109 -0.328,-0.156c0.031,0.109 -0.092,0.272 -0.092,0.396c-0,0.124 -0.405,-0.069 -0.499,0.025c-0,0.048 -0.058,0.442 0.021,0.666c0.1,0.287 0.262,0.414 0.262,0.585c-0,0.159 -0.249,0.238 -0.699,0.521c0.206,0.03 0.213,0.595 0.385,0.455" style="fill:#fff;fill-rule:nonzero;"/>
    <path d="M35.775,7.839c-0.016,0.256 -0.173,0.032 -0.173,0.032c0,0 -0.399,-0.386 -0.399,-0.942c0.116,-0.07 0.171,-0.317 0.216,-0.339c0.047,-0.023 0.371,-0.178 0.371,-0.34c0,-0.162 -0.455,-1.165 -0.455,-1.543l-0.386,0.54l-0.301,-0.525l-0.239,0.625l-0.247,-0.293c-0,0 -0.12,0.905 -0.077,1.069c0.119,0.442 0.316,0.389 0.316,0.544c0,0.239 -0.42,0.415 -0.42,0.415c0.048,0.127 0.287,1.275 0.46,1.83c0.199,0.632 0.338,0.687 0.469,0.957c0.108,0.22 0.155,0.711 0.417,0.711c0.263,-0 0.981,-0.263 0.981,-0.263c-0.24,0.232 -0.349,2.569 -0.734,2.569c-0.262,0 -0.926,0.02 -0.926,0.02c0,0 -0.29,0.46 -0.525,1.378l0.571,-0.332l-0.169,0.903l0.694,-0.517l0.286,0.887l0.254,-0.417c0,-0 -0.063,-0.198 0.147,-0.478c0.186,-0.247 0.471,-0.656 0.471,-0.656l0.355,0.092c-0,0 0.192,-0.27 0.139,-0.54l0.102,-0.024l0.109,-0.243l0.16,-0.431c0.055,-0.133 0.658,-1.694 0.839,-2.166c0.033,-0.085 0.141,-0.365 0.111,-0.508c-0.016,-0.077 -0.037,-0.175 -0.037,-0.325c-0,-0.145 0.125,-0.417 0.366,-0.649l-0,0.012c-0,0.165 0.12,0.21 0.184,0.21c0.064,-0 0.108,-0.032 0.148,-0.059c0.067,-0.047 0.19,-0.135 0.445,-0.135c0.033,-0 0.063,0.001 0.09,0.004c-0.252,0.096 -0.557,0.4 -0.557,0.975c-0,0.404 0.168,0.855 0.29,1.184c0.036,0.096 0.078,0.207 0.097,0.274c-0.019,0.016 -0.042,0.033 -0.062,0.048c-0.255,0.195 -0.509,0.404 -0.596,0.611c-0.002,0.004 -0.005,0.008 -0.006,0.011c-0.388,0.062 -0.781,0.108 -0.781,0.108l-0.588,1.055l0.372,-0.121l-0.355,0.787l0.711,-0.294c-0,-0 -0.162,0.541 -0,0.741c0.022,-0.017 0.253,-0.179 0.253,-0.179c0,0 0.12,-0.285 0.195,-0.361c0.076,-0.075 0.516,-0.525 0.516,-0.525l0.108,0.27c0.534,-0.265 1.515,-1.523 1.543,-1.744c0,-0.216 -0.385,-0.556 -0.385,-1.057c-0,-0.293 0.116,-0.409 0.116,-0.409c0,0.354 0.848,1.157 0.926,1.381c-0.193,0.109 -0.564,1.219 -0.61,1.374c-0.155,-0.005 -0.962,0.183 -0.962,0.183c-0,-0 -0.467,0.496 -0.597,1.091l0.648,-0.131l-0.112,0.758l0.287,-0.06c0,-0 0.271,-0.452 0.72,-0.475l0.402,0.664l0.269,-0.302c0,0 0.031,-0.856 0.178,-0.956l0.316,0.124c0.874,-0.638 0.993,-2.934 0.874,-3.005c-0.075,-0.046 -0.106,0.046 -0.331,-0.241c-0.371,-0.47 -0.314,-1.527 -0.665,-1.9c0,-0 0.037,-0.033 0.2,-0.033c0.162,0 0.781,-0.223 0.787,-0.957c0.007,-0.914 -0.747,-1.242 -0.747,-1.242c-0,0 0.084,-0.148 0.084,-0.363c-0,-0.68 -0.751,-0.68 -0.765,-0.78c0.363,-0.076 0.743,-0.495 0.772,-0.802c0.084,-0.871 -0.891,-1.364 -1.304,-0.95c0.131,0.116 0.448,0.247 0.448,0.572c0,0.555 -0.61,0.841 -0.61,0.841c-0,-0 0.108,-0.217 0.108,-0.486c0,-0.271 -0.154,-0.734 -0.741,-0.734c-0.733,0 -0.911,0.641 -0.911,0.641c0.186,0 0.764,-0.062 0.764,0.286c0,0.44 -0.74,0.701 -0.74,1.428c-0,0.725 0.634,1.255 1.35,1.304c0.191,0.013 0.224,0.024 0.362,0.024c0.139,0 0.227,0.168 0.526,0.168c0.37,0 0.455,-0.169 0.578,-0.169c0.123,-0 0.123,0.124 0.123,0.193c0,0.069 0.024,0.254 -0.431,0.254c-0.487,0 -1.359,-0.247 -2.146,-0.247c-0.618,0 -0.702,0.011 -0.736,0.057c0.038,-0.072 0.133,-0.267 0.133,-0.424c-0.146,-0.075 -0.268,-0.482 -0.346,-0.482c0.665,-0.601 0.568,-1.13 0.575,-1.25c-0.046,-0.151 -0.143,-0.177 -0.304,-0.177c-0.163,0 -0.256,0.069 -0.256,0.069c-0,0 -0.042,-0.574 -0.135,-0.767c-0.214,-0.324 -1.265,-0.542 -1.673,0.076c0,-0 -0.152,0.375 -0.214,0.49c-0.328,-0.128 -0.51,0.037 -0.51,0.037c0,0 0.013,0.166 0.016,0.288c0.004,0.1 -0.023,0.262 -0.023,0.4c-0,0.14 0.286,0.649 0.286,0.649c-0.161,0.238 -0.717,0.502 -0.717,0.502c0.205,0.203 0.37,0.632 0.37,0.632" style="fill:#fff;fill-rule:nonzero;stroke:#000;stroke-width:1px;"/>
    <path d="M40.517,13.218c-0.37,0.068 -0.863,0.182 -0.863,0.182l-0.423,0.695l0.503,-0.105c0.046,-0.239 0.072,-0.374 0.18,-0.47c0.209,-0.186 0.536,-0.196 0.603,-0.302m-5.267,-6.674c0.082,-0.14 0.392,-0.2 0.382,-0.331c-0.01,-0.131 -0.372,-0.946 -0.382,-1.146l-0.231,0.422c-0,-0 0.342,0.483 0.342,0.643c0,0.161 -0.131,0.202 -0.111,0.412m-0.938,1.212c-0.007,0.314 0.401,0.451 0.426,0.606c0.026,0.156 -0.316,-0.098 -0.31,-0.051c0.057,0.432 0.416,0.477 0.543,0.71c0.078,0.142 -0.331,-0.056 -0.324,-0.012c0.088,0.505 0.617,0.314 0.712,0.646c0.052,0.184 -0.331,-0.105 -0.342,0.057c-0.009,0.108 0.2,0.679 0.316,0.704c0.116,0.026 0.49,-0.116 0.658,-0.18c0.168,-0.065 0.491,-0.129 0.529,-0.285c-0.18,-0.284 -0.657,-0.942 -0.723,-1.549c-0.374,-0.402 -0.748,-0.982 -0.748,-1.46c-0,-0.479 0.142,-0.867 0.142,-0.867l-0.53,-0.994l-0.103,0.452c0,0 0.491,0.466 0.477,0.62c-0.012,0.155 -0.142,0.633 -0.142,0.633c-0.09,0.13 -0.064,-0.62 -0.064,-0.62l-0.569,-0.723c0,-0 -0.026,0.477 0.007,0.624c0.06,0.279 0.316,0.41 0.316,0.577c-0,0.168 -0.219,0.452 -0.336,0.518c-0.026,0.206 0.374,0.412 0.388,0.594c-0.104,0.116 -0.322,-0.083 -0.323,-0m0.612,5.528c-0,-0 0.347,-0.084 0.618,-0.226c-0.286,0.029 -0.764,0.029 -0.764,0.029l-0.419,0.878l0.414,-0.233c0,0 -0.004,-0.396 0.151,-0.448m3,-0.81c0.116,-0.103 0.367,-0.145 0.509,-0.287c-0.308,0.076 -0.599,0.147 -0.599,0.147l-0.362,0.558l0.286,-0.121c0,-0 0.05,-0.193 0.166,-0.297m1.233,0.217c0.09,-0.118 0.232,0.284 0.232,0.284c0.362,-0.324 -0.038,-0.498 0.078,-0.594c0.154,-0.13 0.413,0.076 0.413,0.076c0.194,-0.167 -0.109,-0.342 -0.026,-0.451c0.168,-0.22 0.22,-0.013 0.336,-0.065c0.116,-0.051 0.246,-0.155 0.116,-0.323c-0.129,-0.168 -0.542,-0.904 -0.18,-1.447c-0,0 -0.233,0.078 -0.285,0.271c-0.052,0.194 0.142,1.176 0.142,1.318l-1.06,0.905c0,-0 -0.076,-0.078 0.066,-0.259c0.142,-0.181 0.813,-0.736 0.813,-0.736c-0.167,-0.22 0.078,-0.775 -0.258,-0.982c-0.091,-0.038 -0.344,-0.115 -0.129,-0.272c0.142,-0.103 0.374,-0.051 0.374,-0.516c0,-0.465 -0.426,-0.505 -0.426,-0.505c0.052,-0.14 0.426,-0.102 0.53,-0.244c-0.194,-0.092 -0.194,-0.104 -0.336,-0.104c-0.142,-0 -0.556,0.208 -0.556,0.84c0,0.633 0.472,1.453 0.388,1.537c-0.084,0.084 -0.568,0.401 -0.672,0.646c-0.103,0.245 -0.672,0.611 -0.672,0.611l-0.543,0.888l0.362,-0.207c0,-0 0.134,-0.433 0.346,-0.561c0.302,-0.181 0.582,-0.503 0.628,-0.454c0.046,0.048 -0.237,0.434 -0.534,0.588c-0.09,0.182 -0.31,0.84 -0.285,0.983c-0,-0 0.646,-0.775 0.828,-0.853c0.18,-0.078 0.244,0.154 0.244,0.154c0.246,-0.18 -0.026,-0.412 0.066,-0.528m0.672,-5.92c0.094,0.168 0.856,0.121 0.856,-0.591c0,-0.373 -0.314,-0.453 -0.314,-0.556c0,-0.259 1.395,-0.362 1.395,-1.034c0,-0.348 -0.103,-0.516 -0.103,-0.516c-0,-0 0.026,0.529 -0.143,0.529c-0.258,-0 -0.025,-0.31 -0.025,-0.465c-0,-0.568 -0.607,-0.439 -0.607,-0.439c-0,0 0.362,0.013 0.362,0.581c-0,0.724 -1.06,1.163 -1.138,1.085c-0.077,-0.078 0.284,-0.322 0.284,-0.723c0,-0.194 -0.076,-0.608 -0.49,-0.608c-0.491,0 -0.815,0.336 -0.621,0.31c0.194,-0.026 0.582,0.104 0.582,0.44c0,0.569 -0.75,0.711 -0.75,1.434c0,0.904 0.918,1.124 1.203,1.124c0.284,-0 0.348,-0.04 0.348,-0.04c-0.064,-0.09 -0.052,-0.283 -0.052,-0.283c0,0 -0.154,0.051 -0.336,0.051c-0.697,0 -0.775,-0.529 -0.775,-0.71c0,-0.181 0.183,-0.534 0.465,-0.503c0.594,0.063 0.237,0.715 -0.141,0.914m0.923,0.266c-0,0.206 0.103,0.505 0.421,0.505c0.37,0 0.385,-0.173 0.591,-0.173c0.206,0 0.301,0.168 0.301,0.361c0,0.194 -0.1,0.422 -0.603,0.422c-0.892,0 -1.125,-0.242 -2.189,-0.242c-1.007,0 -0.924,0.401 -1.57,1.047c-0.645,0.646 -1.157,1.124 -1.157,1.124l0.04,0.103c-0.31,0.323 -0.466,1.912 -0.621,2.467c-0.154,0.556 -1.007,0.788 -1.007,0.788l-0.194,1.073l0.413,-0.362c0,-0 -0.026,-0.078 -0.038,-0.31c-0.014,-0.233 0.632,-0.711 0.943,-0.905c-0.052,0.298 -0.775,0.879 -0.775,0.879c-0,-0 0.064,0.194 0.076,0.414c0.014,0.22 0.17,0.62 0.17,0.62l0.039,-0.064c0,-0 0.025,-0.249 0.071,-0.34c0.102,-0.206 0.638,-0.927 0.638,-0.927l0.349,0.052c0.182,-0.284 -0.064,-0.556 -0.13,-0.724c0.144,-0.142 0.22,-0.064 0.388,0.09c0.13,-0.31 0.014,-0.335 -0.09,-0.58c-0.103,-0.246 0.09,-0.194 0.362,-0.052c0.103,-0.168 0.078,-0.31 -0.078,-0.659c-0.154,-0.35 0.181,-0.181 0.336,-0.065c0.116,-0.181 0.064,-0.219 -0.078,-0.581c-0.14,-0.362 0.078,-0.31 0.324,-0.13c0.155,-0.412 0.026,-0.335 -0.078,-0.606c-0.104,-0.271 0.155,-0.246 0.349,-0.078c0.181,-0.168 0.029,-0.228 0.029,-0.654c0,-0.313 0.365,-0.906 0.997,-1.139c0.22,0.22 -0.29,0.256 -0.29,0.502c0,0.142 0.104,-0.156 0.608,-0.156c0.504,-0 0.529,0.246 0.659,0.246c0.128,-0 0.012,-0.362 0.012,-0.362c0.594,-0 0.388,0.582 0.388,1.304c-0,0.725 0.994,1.409 1.02,1.809c-0.359,0.215 -0.454,1.127 -0.78,1.625c-0.181,0.201 -0.402,0.221 -0.628,0.313l-0.219,0.918c0.181,-0.194 0.645,-0.324 0.645,-0.324c-0.219,-0.439 0.066,-0.555 0.182,-0.659c0.116,-0.103 0.606,-0.736 0.606,-0.736l0.078,0.078c0,-0 -0.246,0.698 -0.632,0.878c-0.104,0.22 0.258,0.801 0.348,0.943c0.037,-0.053 0.084,-0.095 0.084,-0.095c0,-0 0.04,-0.78 0.162,-0.912c0.142,-0.156 0.18,-0.143 0.451,-0.039c0.116,-0.117 0.052,-0.427 -0.051,-0.621c0.116,-0.218 0.297,0.215 0.355,0.137c0.206,-0.276 -0.188,-0.497 -0.058,-0.769c-0,-0 0.217,0.204 0.272,0.168c0.053,-0.037 0.026,-0.194 -0.026,-0.336c-0.27,-0.645 0.137,-0.219 0.18,-0.246c0.09,-0.055 -0.012,-0.47 -0.128,-0.573c-0.065,0.18 -0.453,0.883 -0.66,1.375c-0.036,0.085 -0.232,0.116 0.039,-0.724c0.323,-0.999 0.685,-0.841 0.839,-0.789c-0.012,-0.464 -0.477,-0.504 -0.516,-0.813c-0.465,-0.194 -0.078,-1.783 -1.033,-2.171l1.201,-0.09c-0.232,0.233 -0.685,0.155 -0.685,0.155c0,-0 0,0.142 0.362,0.142c0.362,-0 0.652,-0.336 0.652,-0.788c-0,-0.334 -0.405,-1.058 -0.79,-1.058c-0.32,-0 -0.453,0.49 -0.529,0.453c-0.19,-0.096 -0.057,-0.18 0.014,-0.302c0.243,-0.423 0.65,-0.327 0.651,-0.671c0.002,-0.649 -0.833,-0.672 -0.953,-0.554c-0.099,0.1 0.385,0.008 0.375,0.413c-0.003,0.076 0.241,-0.213 0.241,-0.19c-0,0.299 -0.675,0.527 -0.675,1.165m-4.525,-1.072c0,-0.232 0.172,-0.252 0.222,-0.252c0.132,0 0.122,0.395 0.182,0.486c0.061,0.09 0.233,0.049 0.264,0.11c-0.051,0.082 -0.224,0.183 -0.224,0.304c-0,0.121 0.111,0.162 0.162,0.162c0.071,-0 0.374,-0.082 0.374,-0.263c0,-0.092 -0.069,-0.14 -0.101,-0.203c-0.031,-0.062 -0.025,-0.136 -0.051,-0.152c0.122,-0.01 0.244,-0.049 0.334,-0.049c0.091,-0 0.101,0.06 0.101,0.14c0,0.082 -0.172,0.143 -0.172,0.223c0,0.081 0.223,0.294 0.293,0.294c0.071,-0 0.232,-0.061 0.232,-0.173c0,-0.111 -0.065,-0.247 0,-0.313c0.041,-0.04 0.133,0.04 0.133,0.04c0.136,-0.136 0.222,-0.414 0.495,-0.444c0.272,0.475 -0.294,0.656 -0.294,0.656l-0.221,-0.09c0.086,0.274 -0.15,0.368 -0.142,0.475c0.021,0.306 -0.041,0.402 -0.152,0.505c-0.071,-0.02 -0.223,-0.03 -0.232,0.031c0.14,0.252 -0.283,0.525 -0.233,0.636c-0.06,-0.041 -0.202,-0.343 -0.253,-0.404c-0.049,-0.06 0.044,-0.148 -0.01,-0.293c-0.03,-0.081 -0.212,0.01 -0.232,-0.132c-0.021,-0.141 0.026,-0.437 -0.146,-0.539c0,-0.292 -0.329,-0.481 -0.329,-0.755m1,-0.556l0.031,0.071c-0.072,0.021 -0.082,0.405 -0.263,0.405c-0.223,0 -0.051,-0.273 -0.223,-0.324c0,0 0.324,-0.029 0.455,-0.152m0.253,0.031c0.081,0.112 0.273,0.252 0.414,0.131c0.061,0.02 0.082,0.041 0.01,0.121c-0.07,0.082 -0.07,0.286 -0.211,0.273c-0.244,-0.019 -0.142,-0.374 -0.233,-0.454l0.02,-0.071Zm-1.517,2.278c0.07,-0.057 0.264,-0.358 0.45,-0.358c-0.015,0.109 -0.294,0.343 -0.387,0.528c-0.094,0.187 0.062,0.373 0.138,0.513c-0.014,-0.125 0.28,-0.326 0.373,-0.435c0.093,-0.109 0.17,-0.072 0.109,0.062c-0.078,0.17 -0.321,0.349 -0.326,0.605c-0.002,0.137 0.103,0.235 0.234,0.31c-0,0 0.045,-0.45 0.232,-0.325c0.075,0.05 -0.295,0.745 -0,1.008c0.047,-0.201 0.497,-0.542 0.497,-0.636c-0,-0.093 -0.156,-0.403 -0,-0.403c0.092,0 0.17,0.28 0.232,0.28c0.062,-0 0.186,-0.062 0.186,-0.172c0,-0.108 -0.279,-0.573 -0.108,-0.573c0.079,-0 0.264,0.31 0.31,0.31c0.047,-0 0.094,-0.031 0.141,-0.28c0.045,-0.248 -0.218,-0.341 -0.125,-0.589c-0,0 0.248,0.124 0.326,0.263c0.077,0.14 0.232,-0.248 0.248,-0.372c-0.048,-0.056 -0.103,-0.254 -0.186,-0.373c-0.078,-0.11 -0.187,-0.141 -0.187,-0.17c0,-0.062 0.094,-0.078 0.404,-0.419c0.31,-0.341 0.263,-0.733 0.263,-0.792c-0.186,-0.171 -0.341,0.078 -0.495,-0c-0.156,-0.078 -0.078,-0.559 -0.125,-0.729c0,-0 -0.201,0.326 -0.248,0.279c-0.047,-0.047 0.015,-0.186 0.062,-0.341c0.047,-0.156 -0.217,-0.233 -0.217,-0.233c0,-0 -0.063,0.326 -0.171,0.311c-0.109,-0.016 -0.078,-0.327 -0.078,-0.327c-0,-0 -0.218,-0.124 -0.263,0.14c-0.056,0.312 -0.202,0.046 -0.28,-0.092c-0.108,0.045 -0.063,0.402 -0.063,0.527c0,0.124 -0.216,-0.11 -0.325,-0.155c0.031,0.108 -0.092,0.27 -0.092,0.394c-0,0.125 -0.404,-0.068 -0.498,0.026c-0,0.048 -0.057,0.441 0.021,0.662c0.1,0.287 0.261,0.413 0.261,0.583c-0,0.158 -0.248,0.237 -0.695,0.52c0.204,0.029 0.211,0.592 0.382,0.453" style="fill:#fff;fill-rule:nonzero;"/>
    <path d="M57.618,22.961c-0.016,0.256 -0.174,0.032 -0.174,0.032c-0,0 -0.398,-0.386 -0.398,-0.942c0.116,-0.07 0.171,-0.317 0.216,-0.34c0.046,-0.023 0.371,-0.177 0.371,-0.339c-0,-0.162 -0.456,-1.165 -0.456,-1.544l-0.385,0.541l-0.302,-0.525l-0.238,0.625l-0.248,-0.294c0,-0 -0.119,0.906 -0.076,1.069c0.118,0.443 0.315,0.39 0.315,0.545c-0,0.238 -0.419,0.415 -0.419,0.415c0.048,0.127 0.287,1.275 0.46,1.83c0.197,0.632 0.337,0.687 0.469,0.957c0.106,0.22 0.155,0.709 0.417,0.709c0.263,0 0.981,-0.262 0.981,-0.262c-0.241,0.233 -0.349,2.57 -0.734,2.57c-0.262,0 -0.926,0.02 -0.926,0.02c0,0 -0.29,0.46 -0.526,1.378l0.572,-0.333l-0.169,0.904l0.693,-0.518l0.287,0.887l0.254,-0.416c0,-0 -0.064,-0.199 0.146,-0.478c0.185,-0.248 0.471,-0.657 0.471,-0.657l0.354,0.093c0,0 0.194,-0.27 0.14,-0.54l0.101,-0.026l0.111,-0.241l0.16,-0.431c0.055,-0.133 0.658,-1.694 0.839,-2.166c0.033,-0.085 0.141,-0.367 0.111,-0.508c-0.016,-0.078 -0.037,-0.175 -0.037,-0.325c-0,-0.145 0.123,-0.417 0.366,-0.65c-0.002,0.005 -0.002,0.009 -0.002,0.013c0,0.165 0.121,0.209 0.186,0.209c0.063,-0 0.108,-0.031 0.149,-0.06c0.066,-0.047 0.189,-0.133 0.444,-0.133c0.032,-0 0.061,0.001 0.089,0.004c-0.251,0.096 -0.556,0.4 -0.556,0.974c-0,0.404 0.168,0.855 0.29,1.184c0.036,0.095 0.078,0.208 0.096,0.274c-0.019,0.016 -0.042,0.034 -0.061,0.049c-0.255,0.195 -0.509,0.404 -0.597,0.61c-0.001,0.005 -0.004,0.009 -0.005,0.012c-0.389,0.062 -0.782,0.107 -0.782,0.107l-0.587,1.056l0.372,-0.121l-0.356,0.786l0.71,-0.293c0,-0 -0.161,0.54 0,0.74c0.023,-0.016 0.254,-0.178 0.254,-0.178c-0,0 0.121,-0.287 0.196,-0.362c0.075,-0.075 0.515,-0.524 0.515,-0.524l0.108,0.27c0.534,-0.265 1.516,-1.523 1.544,-1.744c0,-0.216 -0.386,-0.556 -0.386,-1.058c-0,-0.292 0.116,-0.408 0.116,-0.408c-0,0.354 0.849,1.157 0.926,1.381c-0.194,0.109 -0.563,1.219 -0.61,1.374c-0.154,-0.005 -0.962,0.181 -0.962,0.181c-0,0 -0.468,0.498 -0.597,1.091l0.648,-0.131l-0.111,0.76l0.287,-0.06c-0,-0 0.27,-0.452 0.72,-0.476l0.401,0.664l0.27,-0.301c0,0 0.031,-0.856 0.178,-0.956l0.316,0.124c0.874,-0.638 0.992,-2.935 0.874,-3.005c-0.077,-0.046 -0.106,0.044 -0.333,-0.241c-0.369,-0.47 -0.312,-1.527 -0.663,-1.901c-0,0 0.037,-0.033 0.199,-0.033c0.163,0 0.782,-0.224 0.788,-0.956c0.006,-0.915 -0.747,-1.242 -0.747,-1.242c-0,0 0.082,-0.148 0.082,-0.363c0,-0.68 -0.75,-0.68 -0.763,-0.78c0.362,-0.076 0.741,-0.495 0.772,-0.803c0.084,-0.871 -0.891,-1.363 -1.305,-0.949c0.131,0.116 0.448,0.247 0.448,0.572c-0,0.555 -0.611,0.84 -0.611,0.84c0,0 0.109,-0.216 0.109,-0.485c0,-0.271 -0.153,-0.734 -0.741,-0.734c-0.733,-0 -0.91,0.641 -0.91,0.641c0.184,0 0.764,-0.062 0.764,0.286c-0,0.439 -0.741,0.701 -0.741,1.427c-0,0.725 0.635,1.256 1.35,1.304c0.192,0.013 0.225,0.025 0.363,0.025c0.139,0 0.226,0.168 0.525,0.168c0.371,0 0.455,-0.17 0.579,-0.17c0.123,-0 0.123,0.123 0.123,0.194c0,0.069 0.024,0.254 -0.432,0.254c-0.486,0 -1.358,-0.247 -2.145,-0.247c-0.619,0 -0.702,0.011 -0.737,0.056c0.037,-0.072 0.134,-0.266 0.134,-0.423c-0.146,-0.075 -0.27,-0.482 -0.346,-0.482c0.663,-0.602 0.567,-1.132 0.573,-1.25c-0.044,-0.151 -0.142,-0.178 -0.304,-0.178c-0.162,-0 -0.254,0.07 -0.254,0.07c-0,0 -0.042,-0.574 -0.135,-0.767c-0.215,-0.324 -1.266,-0.542 -1.674,0.075c-0,0 -0.151,0.376 -0.213,0.491c-0.33,-0.129 -0.51,0.037 -0.51,0.037c0,-0 0.012,0.166 0.016,0.288c0.003,0.1 -0.023,0.262 -0.023,0.4c-0,0.14 0.285,0.649 0.285,0.649c-0.162,0.238 -0.717,0.502 -0.717,0.502c0.206,0.203 0.371,0.632 0.371,0.632" style="fill:#fff;fill-rule:nonzero;stroke:#000;stroke-width:1px;"/>
    <path d="M62.36,28.34c-0.371,0.068 -0.864,0.18 -0.864,0.18l-0.421,0.697l0.501,-0.106c0.045,-0.238 0.073,-0.373 0.181,-0.47c0.208,-0.185 0.536,-0.195 0.603,-0.301m-5.268,-6.674c0.081,-0.141 0.393,-0.201 0.383,-0.332c-0.011,-0.131 -0.372,-0.945 -0.383,-1.146l-0.231,0.422c0,0 0.343,0.483 0.343,0.644c-0,0.161 -0.131,0.201 -0.112,0.412m-0.939,1.212c-0.005,0.313 0.402,0.451 0.428,0.606c0.026,0.155 -0.316,-0.099 -0.312,-0.052c0.059,0.434 0.417,0.477 0.544,0.711c0.078,0.142 -0.331,-0.056 -0.322,-0.013c0.086,0.506 0.616,0.314 0.71,0.647c0.052,0.184 -0.331,-0.105 -0.342,0.056c-0.009,0.108 0.2,0.68 0.316,0.706c0.116,0.025 0.492,-0.117 0.659,-0.182c0.168,-0.064 0.49,-0.129 0.53,-0.284c-0.181,-0.284 -0.66,-0.943 -0.724,-1.549c-0.375,-0.402 -0.749,-0.982 -0.749,-1.461c-0,-0.478 0.142,-0.866 0.142,-0.866l-0.53,-0.994l-0.103,0.452c0,-0 0.491,0.466 0.477,0.62c-0.012,0.156 -0.142,0.634 -0.142,0.634c-0.09,0.128 -0.064,-0.622 -0.064,-0.622l-0.568,-0.722c-0,-0 -0.026,0.477 0.005,0.624c0.061,0.279 0.317,0.41 0.317,0.577c0,0.168 -0.219,0.452 -0.335,0.517c-0.027,0.207 0.375,0.413 0.387,0.595c-0.102,0.116 -0.321,-0.083 -0.324,-0m0.613,5.527c0,0 0.347,-0.084 0.619,-0.226c-0.286,0.03 -0.765,0.03 -0.765,0.03l-0.418,0.877l0.413,-0.232c0,-0 -0.005,-0.398 0.151,-0.449m3,-0.809c0.117,-0.104 0.367,-0.146 0.509,-0.288c-0.307,0.077 -0.599,0.147 -0.599,0.147l-0.362,0.559l0.287,-0.121c-0,-0 0.049,-0.193 0.165,-0.297m1.233,0.216c0.09,-0.116 0.232,0.285 0.232,0.285c0.363,-0.324 -0.038,-0.498 0.077,-0.595c0.156,-0.129 0.414,0.078 0.414,0.078c0.194,-0.168 -0.109,-0.343 -0.025,-0.453c0.167,-0.219 0.219,-0.013 0.335,-0.065c0.116,-0.051 0.246,-0.154 0.116,-0.322c-0.128,-0.168 -0.542,-0.904 -0.18,-1.447c-0,0 -0.232,0.078 -0.284,0.271c-0.052,0.194 0.142,1.176 0.142,1.318l-1.06,0.904c-0,0 -0.077,-0.077 0.065,-0.258c0.142,-0.181 0.814,-0.736 0.814,-0.736c-0.168,-0.22 0.077,-0.776 -0.258,-0.982c-0.091,-0.039 -0.345,-0.115 -0.13,-0.271c0.143,-0.104 0.375,-0.052 0.375,-0.518c-0,-0.464 -0.426,-0.503 -0.426,-0.503c0.051,-0.143 0.426,-0.103 0.53,-0.245c-0.194,-0.091 -0.196,-0.104 -0.336,-0.104c-0.143,-0 -0.556,0.206 -0.556,0.84c-0,0.633 0.472,1.453 0.387,1.537c-0.084,0.084 -0.568,0.4 -0.672,0.646c-0.102,0.246 -0.672,0.611 -0.672,0.611l-0.542,0.888l0.362,-0.208c-0,0 0.133,-0.432 0.346,-0.561c0.301,-0.18 0.582,-0.502 0.627,-0.453c0.046,0.048 -0.237,0.434 -0.533,0.588c-0.091,0.182 -0.31,0.84 -0.286,0.982c0,0 0.646,-0.774 0.828,-0.852c0.18,-0.078 0.245,0.154 0.245,0.154c0.246,-0.18 -0.026,-0.412 0.065,-0.529m0.672,-5.919c0.094,0.168 0.857,0.121 0.857,-0.591c-0,-0.373 -0.314,-0.453 -0.314,-0.557c-0,-0.258 1.395,-0.361 1.395,-1.033c-0,-0.348 -0.104,-0.518 -0.104,-0.518c-0,0 0.026,0.53 -0.142,0.53c-0.258,0 -0.025,-0.31 -0.025,-0.464c0,-0.568 -0.608,-0.44 -0.608,-0.44c0,0 0.361,0.014 0.361,0.582c0,0.723 -1.059,1.163 -1.135,1.085c-0.078,-0.077 0.282,-0.323 0.282,-0.723c0,-0.194 -0.076,-0.608 -0.49,-0.608c-0.491,0 -0.814,0.336 -0.62,0.31c0.194,-0.026 0.582,0.104 0.582,0.44c-0,0.568 -0.75,0.711 -0.75,1.433c-0,0.905 0.918,1.125 1.202,1.125c0.284,-0 0.348,-0.039 0.348,-0.039c-0.064,-0.091 -0.052,-0.284 -0.052,-0.284c0,0 -0.154,0.051 -0.336,0.051c-0.697,-0 -0.774,-0.529 -0.774,-0.711c-0,-0.18 0.182,-0.533 0.465,-0.502c0.594,0.063 0.236,0.715 -0.142,0.914m0.923,0.265c0,0.207 0.102,0.506 0.423,0.506c0.368,-0 0.383,-0.173 0.589,-0.173c0.207,-0 0.302,0.167 0.302,0.361c-0,0.194 -0.102,0.422 -0.603,0.422c-0.892,0 -1.126,-0.242 -2.19,-0.242c-1.007,0 -0.924,0.4 -1.57,1.047c-0.645,0.645 -1.155,1.124 -1.155,1.124l0.038,0.102c-0.31,0.324 -0.466,1.913 -0.62,2.468c-0.156,0.556 -1.007,0.788 -1.007,0.788l-0.194,1.073l0.412,-0.362c0,-0 -0.025,-0.077 -0.038,-0.311c-0.013,-0.232 0.633,-0.71 0.944,-0.904c-0.052,0.298 -0.776,0.879 -0.776,0.879c0,-0 0.064,0.194 0.078,0.413c0.012,0.22 0.167,0.621 0.167,0.621l0.039,-0.065c0,0 0.026,-0.248 0.072,-0.338c0.103,-0.208 0.639,-0.928 0.639,-0.928l0.348,0.052c0.182,-0.284 -0.064,-0.556 -0.128,-0.724c0.142,-0.142 0.22,-0.064 0.386,0.09c0.13,-0.31 0.014,-0.336 -0.09,-0.581c-0.102,-0.246 0.09,-0.194 0.362,-0.052c0.103,-0.168 0.078,-0.31 -0.078,-0.658c-0.154,-0.349 0.181,-0.182 0.337,-0.064c0.116,-0.182 0.064,-0.22 -0.078,-0.582c-0.142,-0.362 0.078,-0.31 0.323,-0.13c0.156,-0.413 0.025,-0.335 -0.077,-0.607c-0.104,-0.272 0.154,-0.246 0.349,-0.078c0.181,-0.168 0.029,-0.228 0.029,-0.653c-0,-0.313 0.364,-0.906 0.997,-1.138c0.22,0.219 -0.291,0.254 -0.291,0.5c0,0.142 0.104,-0.155 0.607,-0.155c0.505,-0 0.53,0.246 0.66,0.246c0.128,-0 0.013,-0.363 0.013,-0.363c0.594,0 0.387,0.582 0.387,1.305c0,0.724 0.995,1.409 1.021,1.809c-0.359,0.215 -0.454,1.127 -0.781,1.625c-0.181,0.2 -0.402,0.221 -0.627,0.312l-0.219,0.918c0.18,-0.194 0.644,-0.323 0.644,-0.323c-0.218,-0.439 0.066,-0.555 0.182,-0.659c0.116,-0.104 0.607,-0.736 0.607,-0.736l0.078,0.078c-0,-0 -0.246,0.697 -0.633,0.878c-0.104,0.22 0.258,0.801 0.348,0.943c0.037,-0.053 0.083,-0.095 0.083,-0.095c0,-0 0.041,-0.78 0.162,-0.913c0.142,-0.155 0.182,-0.142 0.454,-0.039c0.116,-0.116 0.051,-0.426 -0.054,-0.62c0.118,-0.22 0.298,0.215 0.356,0.137c0.207,-0.278 -0.186,-0.499 -0.058,-0.77c0,0 0.218,0.204 0.272,0.169c0.053,-0.036 0.026,-0.194 -0.026,-0.337c-0.269,-0.645 0.137,-0.218 0.18,-0.245c0.091,-0.055 -0.012,-0.471 -0.128,-0.574c-0.064,0.181 -0.452,0.884 -0.659,1.374c-0.037,0.087 -0.232,0.118 0.039,-0.723c0.322,-0.999 0.684,-0.839 0.839,-0.788c-0.013,-0.464 -0.477,-0.504 -0.517,-0.813c-0.466,-0.194 -0.076,-1.783 -1.033,-2.171l1.201,-0.09c-0.232,0.232 -0.684,0.154 -0.684,0.154c-0,0 -0,0.143 0.362,0.143c0.362,-0 0.651,-0.336 0.651,-0.789c-0,-0.333 -0.404,-1.057 -0.79,-1.057c-0.32,-0 -0.453,0.49 -0.528,0.452c-0.191,-0.095 -0.057,-0.179 0.012,-0.302c0.245,-0.422 0.65,-0.326 0.652,-0.671c0.003,-0.649 -0.833,-0.673 -0.952,-0.552c-0.099,0.099 0.384,0.006 0.374,0.412c-0.002,0.076 0.241,-0.213 0.241,-0.191c-0,0.299 -0.675,0.528 -0.675,1.165m-4.524,-1.071c-0,-0.232 0.171,-0.252 0.221,-0.252c0.132,0 0.122,0.394 0.183,0.485c0.06,0.091 0.232,0.05 0.263,0.111c-0.052,0.081 -0.223,0.183 -0.223,0.304c0,0.121 0.112,0.162 0.161,0.162c0.072,-0 0.374,-0.082 0.374,-0.264c0,-0.091 -0.069,-0.14 -0.101,-0.202c-0.031,-0.062 -0.025,-0.136 -0.049,-0.151c0.121,-0.01 0.242,-0.051 0.332,-0.051c0.092,0 0.101,0.061 0.101,0.141c0,0.082 -0.171,0.142 -0.171,0.223c-0,0.081 0.222,0.292 0.293,0.292c0.071,0 0.233,-0.06 0.233,-0.171c0,-0.112 -0.067,-0.247 0,-0.313c0.04,-0.041 0.131,0.041 0.131,0.041c0.136,-0.137 0.222,-0.415 0.495,-0.445c0.272,0.475 -0.294,0.656 -0.294,0.656l-0.221,-0.09c0.085,0.274 -0.149,0.368 -0.142,0.474c0.022,0.307 -0.041,0.403 -0.152,0.506c-0.07,-0.02 -0.222,-0.03 -0.232,0.031c0.142,0.252 -0.283,0.525 -0.232,0.636c-0.061,-0.04 -0.203,-0.344 -0.254,-0.404c-0.049,-0.061 0.045,-0.15 -0.01,-0.293c-0.029,-0.081 -0.212,0.01 -0.232,-0.132c-0.021,-0.141 0.026,-0.437 -0.146,-0.538c0,-0.294 -0.328,-0.483 -0.328,-0.756m0.999,-0.556l0.031,0.072c-0.072,0.02 -0.08,0.404 -0.263,0.404c-0.222,-0 -0.051,-0.273 -0.222,-0.324c-0,0 0.323,-0.031 0.454,-0.152m0.254,0.031c0.08,0.111 0.273,0.252 0.413,0.131c0.062,0.02 0.082,0.041 0.01,0.121c-0.07,0.082 -0.07,0.286 -0.212,0.273c-0.242,-0.02 -0.141,-0.374 -0.232,-0.454l0.021,-0.071Zm-1.518,2.277c0.071,-0.057 0.265,-0.357 0.451,-0.357c-0.016,0.109 -0.295,0.341 -0.388,0.528c-0.094,0.186 0.062,0.373 0.139,0.513c-0.015,-0.125 0.28,-0.327 0.373,-0.435c0.092,-0.109 0.169,-0.072 0.109,0.063c-0.078,0.17 -0.322,0.347 -0.327,0.604c-0.002,0.137 0.103,0.235 0.234,0.31c-0,-0 0.046,-0.45 0.232,-0.325c0.076,0.049 -0.295,0.744 0,1.008c0.046,-0.201 0.497,-0.542 0.497,-0.636c-0,-0.093 -0.156,-0.403 -0,-0.403c0.093,0 0.17,0.278 0.232,0.278c0.063,0 0.187,-0.062 0.187,-0.17c-0,-0.109 -0.28,-0.574 -0.109,-0.574c0.079,0 0.263,0.31 0.31,0.31c0.047,0 0.094,-0.03 0.141,-0.279c0.046,-0.248 -0.219,-0.342 -0.125,-0.589c0,-0 0.249,0.123 0.326,0.263c0.077,0.14 0.233,-0.248 0.249,-0.373c-0.048,-0.056 -0.104,-0.253 -0.187,-0.372c-0.078,-0.11 -0.186,-0.141 -0.186,-0.171c-0,-0.061 0.093,-0.077 0.404,-0.418c0.31,-0.341 0.263,-0.733 0.263,-0.792c-0.186,-0.171 -0.341,0.077 -0.497,-0c-0.154,-0.078 -0.077,-0.559 -0.123,-0.729c-0,-0 -0.203,0.326 -0.249,0.279c-0.047,-0.047 0.016,-0.187 0.063,-0.341c0.045,-0.156 -0.219,-0.234 -0.219,-0.234c0,0 -0.061,0.327 -0.17,0.31c-0.109,-0.014 -0.078,-0.324 -0.078,-0.324c0,-0 -0.217,-0.125 -0.263,0.139c-0.056,0.311 -0.201,0.046 -0.279,-0.094c-0.109,0.047 -0.062,0.404 -0.062,0.528c-0,0.125 -0.217,-0.108 -0.326,-0.155c0.031,0.109 -0.093,0.271 -0.093,0.395c0,0.124 -0.404,-0.068 -0.498,0.025c0,0.049 -0.057,0.44 0.02,0.663c0.101,0.286 0.262,0.412 0.262,0.583c-0,0.158 -0.247,0.237 -0.696,0.52c0.205,0.028 0.213,0.592 0.383,0.452" style="fill:#fff;fill-rule:nonzero;"/>
    <path d="M49.602,5.732c-0.134,0.037 -0.853,-0.14 -0.932,-0.441c-0.119,-0.451 0.441,-0.776 0.441,-1.576c-0,-0.725 -0.75,-0.872 -0.959,-0.872c-0.258,0 -0.872,0.11 -0.872,0.701c-0,0.59 0.551,0.646 0.551,0.646c-0.298,0.965 0.029,1.672 0.453,1.962c0.545,0.408 1.185,0.183 1.186,0.399c-0.088,0.025 -0.527,0.655 -0.725,0.882c-0.134,0.171 -0.218,0.283 -0.218,0.373c0,0.176 0.69,0.051 1.133,-0.038c0,0 -0.379,0.42 -0.829,0.461c-0.063,0.004 -0.051,0.002 -0.101,0.001c-0.096,-0.008 -0.217,-0.037 -0.272,-0.091c-0.086,-0.087 -0.265,-0.278 -0.104,-0.706c0.05,-0.131 0.062,-0.162 0.167,-0.309c0.137,-0.192 -1.355,0.095 -1.197,1.387c0.073,0.535 0.365,0.489 0.145,0.593c-0.087,0.091 -0.173,0.314 -0.173,0.314c-0,-0 -0.065,-0.57 -0.133,-1.158c-0.049,-0.422 -0.111,-0.497 -0.134,-0.907c-0.015,-0.239 0.078,-0.408 0.3,-0.418c0.347,-0.017 0.621,0.071 0.525,-0.698c-0.267,-2.126 -2.292,-2.695 -2.34,-2.66c-0,0 -0.006,0.196 0.216,0.471c0.225,0.277 0.354,0.636 0.354,0.858c-0.54,-0.271 -1.361,-0.484 -1.361,-0.484c0,0 -0.007,0.134 0,0.199c0.104,0.235 0.603,1.092 0.67,1.625c-0.262,-0.362 -0.504,-0.504 -0.504,-0.504c0.054,0.218 0.07,0.571 0.076,1.513c0.011,1.493 0.007,3.514 0.592,4.646c0.061,0.119 0.062,1.158 0.529,1.158c0.468,-0 0.455,0.049 0.455,0.049c-0,0 0.222,0.209 0.332,0.197c0,-0 -0.594,1.724 -1.093,3.437c-0.465,0.146 -0.7,-0.251 -0.871,-0.264c-0.172,-0.014 -0.306,1.014 0.202,2.072c0,-0 -0.293,0.145 -0.293,0.538c0,0.469 0.318,1.42 1.058,1.918c-0,-0 0.09,0.046 0.03,-0.136c-0.061,-0.18 0.082,-0.816 0.169,-0.927c0.54,0.467 1.265,0.121 1.265,0.121l-0.136,-0.226c0,0 -0.151,0.095 -0.075,-1.112c0.113,0.036 0.123,0.302 0.136,0.307c0.062,0.011 0.116,0.016 0.136,-0.013c0.1,-0.143 0.407,-0.954 0.407,-0.954c0.03,-0.118 0.198,-0.066 0.46,-0.436c0.106,-0.137 0.161,-0.401 0.161,-0.401c0.422,-0.151 0.437,-0.771 0.437,-0.771c0.136,-0 0.325,-0.538 0.305,-0.969c0.047,-0.187 0.144,-0.21 0.178,-0.345c0.09,0.136 0.907,0.559 0.907,1.828c0,0.921 -0.409,0.923 -0.287,1.298c0.011,0.037 -0.187,0.21 -0.753,0.166c-0.365,-0.029 -0.729,-0.346 -0.864,-0.37c-0.342,-0.06 -0.322,0.122 -0.423,0.382c-0.1,0.261 -0.544,3.158 0.395,5.098c-0.344,-0.074 -1.416,-0.033 -1.552,-0.364c-0.103,-0.251 0.284,-0.588 0.284,-0.588c-0,-0 -0.095,-0.451 -0.927,-0.356c-0.678,0.076 -1.174,0.483 -1.432,1.085l0.209,0.034c0,0 -0.277,0.205 -0.313,0.508c-0.017,0.146 -0.009,0.357 -0.009,0.357l0.218,-0.089c0,0 -0.015,0.143 0.139,0.876c0.119,0.649 0.378,0.802 0.378,0.802c-0,-0 0.015,-0.121 0.027,-0.189l0.122,-0.737c0.027,-0.129 0.634,-0.029 0.634,-0.029c0,-0 -0.214,0.076 -0.364,0.165l0.007,0.005c-0.054,0.049 -0.119,0.289 -0.138,0.461l0.001,0.001c0.125,0.002 0.395,0.019 0.705,0.109c0.172,0.05 0.272,0.182 0.483,0.242c0.065,0.019 0.206,0.011 0.274,0.03c0.213,0.059 0.428,0.116 0.667,0.172c0.058,0.013 0.148,-0.019 0.209,-0.006c0.254,0.056 0.483,0.152 0.845,0.137c0.21,-0.01 0.339,0.105 0.553,0.116c0.602,0.03 0.812,-0.271 1.058,-0.173c-0.014,-0.147 0.244,-0.357 -0.357,-0.835c-0,-0.283 0.357,-0.407 0.357,-0.407c0.064,-0.565 -0.64,-1.411 -0.64,-1.411c-0,0 -0.084,-0.49 -0.135,-0.986c-0.102,-1.015 0.215,-2.094 0.215,-2.094c0,-0 0.121,-0.041 0.203,-0.057c-0,0 0.032,0.042 -0.037,0.209c-0.046,0.111 -0.344,1.045 0.061,2.31c0.36,1.121 1.341,1.698 1.341,2.312l-0.258,-0.025c-0.566,0.566 -0.55,3.341 -0.672,3.612c-0.095,0.007 -0.201,0.046 -0.265,-0c-0.275,-0.194 -0.428,-0.408 -0.58,-0.509c-0.04,-0.026 -0.133,-0.129 -0.176,-0.105c-0.063,-0.004 -0.331,0.22 -0.398,0.257c-0.768,0.411 -0.812,1.58 -0.584,2.251c0.037,0.001 0.236,-0.297 0.291,-0.357c0,-0 0.155,1.616 0.744,1.771l0.069,-0.11c0,-0 0.041,-1.049 0.244,-0.964c0.025,0.01 0.181,0.524 0.348,0.673c0.304,0.272 0.23,0.266 0.523,0.396c0.306,0.069 0.476,0.158 0.476,0.158c-0,-0.023 -0.025,-0.092 -0.054,-0.183c0.031,-0.104 -0.201,-0.325 -0.076,-0.644c-0,0 0.676,-0.983 0.687,-1.181c0.283,0.173 0.627,0.211 0.627,0.211l0.104,-0.199c0,0 -0.18,-0.281 -0.068,-0.417c0.167,-0.198 0.377,-0.614 0.549,-1.156c0.018,-0.061 -0.011,-0.173 0.007,-0.237c0.079,-0.262 0.2,-0.494 0.267,-0.778c0.022,-0.089 0.134,-0.225 0.152,-0.313c0.016,-0.075 -0.018,-0.217 -0.006,-0.29c0.135,-0.72 0.173,-1.315 0.028,-1.394c0.172,-0.037 0.283,-0.135 0.283,-0.135c0,0 -0.208,-0.037 -0.208,-0.258c-0,-0.221 0.355,-0.479 0.035,-1.119c-0.221,0.148 -0.27,0.16 -0.454,0.16c-0.314,0 -0.602,-1.123 -0.695,-1.522l0.068,-0.071c0.114,0.065 0.314,0.154 0.565,0.154c0.394,-0 0.934,-0.159 0.934,-1.376c-0,-0.701 -0.418,-2.263 -0.418,-2.263c0.665,-0.356 0.401,-2.137 0.32,-2.358c-0.081,-0.222 -0.52,-1.749 -0.136,-2.805c-0.539,0.295 -0.921,2.157 -0.921,2.157c-0.205,-0.918 0.688,-1.836 0.737,-3.349c0.029,-0.885 -0.651,-1.586 -0.651,-1.586c0,0 0.124,-0.454 0.356,-0.454c0.234,-0 0.173,0.774 0.173,0.774c0.368,-0.136 0.54,-0.443 0.54,-0.873c-0,-0.43 -0.282,-0.959 -1.045,-0.959c-0.761,0 -1.157,0.794 -1.157,1.422c0,0.627 0.456,1.725 0.456,1.725c0,-0 -0.262,0.938 -0.289,1.396c-0.048,0.803 -0.095,1.763 0.236,2.977c0.421,1.241 1.087,2.929 1.087,4.121c0,0.303 -0.141,0.424 -0.141,0.424c-0.396,-0.113 -0.989,-2.678 -1.21,-4.875c-0.135,-0.838 -0.271,-1.847 -0.29,-2.431l-0.1,-0.832l0.193,0.054c0.01,-0.03 0.021,-0.057 0.032,-0.082c-0.041,-0.255 -0.144,-0.96 -0.144,-1.318c-0,-0.442 0.049,-2.519 0.196,-3.097c0.185,0.307 1.083,0.357 1.083,0.357c-0.542,-1.095 -0.246,-2.349 -0.271,-2.484c0.492,0.11 0.762,-0.233 0.873,-0.27c-0.565,-0.358 -0.505,-1.009 -0.59,-1.046c-0,0 0.272,-0.112 0.417,-0.258c0.091,-0.089 0.271,-0.566 0.271,-0.835c0,-0.271 -0.073,-0.653 -0.258,-0.725c0.148,-0.136 0.246,-0.333 0.233,-0.591c0.259,-0.246 0.307,-1.058 0.357,-1.155c-0.197,0.184 -0.958,0.86 -1.795,0.86c-0.306,-0 -0.417,-0.05 -0.676,-0.05c-0.578,0 -0.909,0.394 -0.909,0.394c-0.603,0 -1.229,0.209 -1.229,0.209c-0,0.225 -0.007,1.452 0.355,2.102" style="fill:#fff;fill-rule:nonzero;stroke:#000;stroke-width:1px;"/>
    <path d="M45.224,19.196c-0,-0 -0.151,-0.027 -0.219,-0.082c-0.013,0.219 0.155,0.877 0.522,1.277c-0.319,-0.701 -0.303,-0.935 -0.303,-1.195m0.007,-2.069l-0.235,-0.182c0,-0 -0.126,0.342 0.07,0.871c0.032,-0.509 -0.015,-0.513 0.165,-0.689m1.046,2.378c-0.066,-0.17 -0.138,-0.312 -0.281,-0.312c-0.142,0 -0.18,0.015 -0.18,0.015c0.174,0.273 0.463,0.63 0.463,0.63c-0,0 0.382,0.04 0.604,0.1c-0.247,-0.142 -0.541,-0.265 -0.606,-0.433m-1.236,3.721c0.426,-0.514 0.82,-0.574 0.82,-0.574c-0.013,-0.031 -0.014,-0.194 -0.278,-0.088c-0.192,0.101 -0.352,0.264 -0.542,0.662m1.575,-0.539c-0.194,0.13 -0.299,-0.173 -0.616,-0.038c0.316,0.084 0.422,0.321 0.63,0.425c-0.052,-0.207 0.193,-0.446 0.193,-0.446c-0,0 -0.102,-0.436 -0.778,-0.211c0.299,0.052 0.521,-0.071 0.571,0.27m1.569,3.309c0.843,0 0.922,-0.351 1.012,-0.351c0.092,0 0.118,0.065 0.118,0.118c-0,0.05 -0.247,0.142 -0.26,0.259c0.649,0.116 0.869,-0.169 1.128,-0.155c0,-0.274 -0.375,-0.377 -0.375,-0.598c-0,-0.364 0.325,-0.545 0.325,-0.545c-0,-1.014 -0.754,-0.429 -0.754,-2.57c0,-0.832 0.117,-1.558 0.285,-1.637c-0.557,0.065 -0.389,1.883 -0.389,1.883c0,-0 -0.038,0.181 -0.116,0.155c-0.078,-0.026 0.026,-0.195 -0.169,-0.195c-0.156,0 0.052,-0.182 0.143,-0.142c0.09,0.039 0.014,-0.234 -0.065,-0.234c-0.144,0 -0.198,-0.207 -0,-0.207c0.155,-0 0.091,-0.169 0.013,-0.221c-0.078,-0.052 -0.273,-0.13 -0.026,-0.22c0,-0 0.078,-0.13 -0.039,-0.17c-0.116,-0.039 -0.013,-0.129 -0.026,-0.259c0.13,0.064 0.227,0.065 0.221,-0.13c-0.01,-0.317 0.766,-0.87 0.998,-0.624c0.118,-0.129 -0.012,-0.194 -0.012,-0.375c-0,-0.182 0.13,-0.519 0.13,-0.519c0.169,-0 -0.091,0.519 0.091,0.519c0.012,-0.182 0.169,-0.519 0.078,-0.637c-0.09,-0.117 -0.048,-0.175 -0.153,-0.409c-0.09,-0.203 -0.275,-0.245 -0.275,-0.245c-0.207,0.065 -0.871,0.303 -1.792,-0.267c-0,-0 -0.105,-0.041 -0.168,0.155c-0.088,0.271 -0.144,0.938 -0.144,2.298c0,2.103 0.818,3.143 0.818,3.298c0,0.156 -0.351,-0.209 -0.674,-0.209c-0.896,0 -1.442,-0.026 -2.025,-0.921l-0.222,0.039l0.511,0.567c-0.196,0 -0.614,-0.477 -0.614,-0.477c-0,0 -0.922,0.493 -0.922,0.806c-0,0.299 0.11,-0.122 0.363,-0.104c0.298,0.021 0.649,-0.299 0.74,-0.247c0.034,0.02 0.193,0.246 0.481,0.363c0.497,0.204 1.321,0.366 1.219,0.391c-0.305,0.074 -1.815,-0.314 -1.993,-0.383l-0.457,0.248c0.125,0.033 1.088,0.283 1.013,0.298c-0.307,0.059 -1.105,-0.236 -1.14,-0.188c-0,0.929 0.17,1.224 0.17,1.224c0.063,-0.457 0.106,-0.83 0.235,-0.817c0.324,0.03 1.017,0.044 1.017,0.306c0,0.22 -0.688,0.233 -0.675,0.415c0.182,0.026 0.767,0.116 0.883,0.052c0.117,-0.065 0.402,-0.182 0.402,-0.078c0,0.208 -0.441,0.22 -0.441,0.22c0,0 0.182,0.156 0.519,0.156c0.338,-0 0.351,-0.182 0.351,-0.182c0.519,0 -0.169,0.247 -0.195,0.313c0.156,0.026 0.688,0.09 0.792,0.012c0.104,-0.078 0.363,-0.233 0.416,-0.156c0.051,0.078 -0.26,0.272 -0.351,0.377m-2.424,-8.358c-0.158,0.503 -0.369,1.03 -0.718,1.308c0,0 0.143,0.013 0.194,0.038c0.105,-0.077 0.403,-0.61 0.508,-0.714c-0.027,0.144 -0.273,0.728 -0.377,0.845c0.013,0.234 0.246,1.052 0.39,1.376c-0,-0.272 0.077,-0.727 0.194,-0.753c-0.194,-0.181 -0.22,-0.545 -0.35,-0.584c0.156,-0.338 0.427,-1.104 0.427,-1.285c0,-0.182 0.15,-0.708 0.209,-0.65c0.058,0.059 -0.209,1.39 -0.351,1.715l0.156,0.078c0,-0 0.156,-0.624 0.337,-1.014c0.053,0.325 -0.181,1.091 -0.181,1.091c0.207,0.442 0.504,0.683 0.724,0.708c-0.323,-0.543 0.211,-1.266 0.042,-1.669c0.065,-0.181 0.294,0.13 0.341,0.328c0.042,0.18 0.036,0.243 0.036,0.243c-0,0 0.168,-0.298 0.168,-0.714c-0,-0.415 -0.13,-0.61 -0.13,-0.753c0.169,0 0.308,0.308 0.308,0.492c-0,0.141 0.42,0.067 0.511,-0.583c0.053,-0.385 -0.39,-0.661 -0.39,-0.661c-0,-0 0.636,0.078 0.622,0.427c0.13,-0.116 0.351,-0.427 0.052,-0.856c-0.298,-0.428 -0.272,-0.467 -0.052,-0.363c0.222,0.104 0.351,0.363 0.351,0.505c0.092,0.066 0.26,-0.285 0.182,-0.662c-0.078,-0.376 -0.35,-0.675 -0.35,-0.675c0.194,-0.219 0.338,0.248 0.493,0.274c-0.026,-0.481 0.649,-0.806 0.649,-0.806c0.111,-0.188 0.185,-0.669 0.351,-0.908c0.197,-0.291 0.48,-0.317 0.48,-0.182c-0.442,0.064 -0.468,0.792 -0.533,0.934c0.091,-0.012 0.326,0.066 0.155,0.156c-0.168,0.091 -0.479,0.117 -0.557,0.377c0.363,-0.064 0.636,-0.208 0.649,0.012c-0.338,0.208 -0.74,0.105 -0.74,0.365c-0,0.103 0.299,0.194 0.299,0.194c-0,-0 0.574,0.725 0.574,1.621c0,1.038 -0.263,1.131 -0.263,1.299c0,0.17 0.467,0.469 0.416,0.82c0.272,-0.546 0.104,-1.43 0.246,-1.534c0.467,1.247 -0.755,3.019 -0.755,3.823c0,2.649 1.573,2.458 1.573,4.187c0,0.274 -0.142,0.481 -0.142,0.481c-0.17,0 0.077,-0.584 -0.235,-0.597c-0.505,0.663 -0.417,2.753 -0.629,3.541c-0.186,0.016 -0.328,0.018 -0.432,0.003c-0.211,-0.146 -0.489,-0.357 -0.62,-0.463c-0.151,0.143 0.349,0.48 0.268,0.48c-0.036,0 -0.418,-0.28 -0.465,-0.256c-0.23,0.119 -0.372,0.244 -0.569,0.569c-0.198,0.326 -0.254,0.648 -0.25,0.992c0.064,-0.006 0.368,-0.971 0.714,-1.196c0,-0 0.036,-0.003 0.105,-0.004l0.004,0.003l0.277,0.015l0.001,-0c0.042,0.006 0.179,0.024 0.321,0.016l0.53,0.023c-0.001,0 -0.006,0.08 -0.006,0.08c-0.248,-0.064 -0.902,0.052 -1.062,0.046c0.04,0.105 0.174,0.262 0.2,0.319c0.16,-0 0.614,-0.104 0.897,-0.167c-0.04,0.22 -0.876,0.316 -0.876,0.316c-0.732,0.425 -0.303,1.97 -0.303,1.97c0,-0 0.085,-0.25 0.121,-0.383c0.029,-0.104 0.048,-0.451 0.178,-0.555c0.13,-0.104 0.234,-0.376 0.195,-0.519c1.09,-0.649 1.052,-1.181 1.194,-1.13c-0,0.481 -1.027,1.259 -1.027,1.259l0.281,0.224c-0,0 0.473,-0.586 0.538,-0.586c0.03,-0 -0.079,0.132 -0.173,0.279c-0.116,0.179 -0.157,0.244 -0.294,0.408c0.058,0.258 0.051,1.003 0.515,1.209c-0.033,-0.076 -0.055,-0.483 -0.013,-0.81c0.172,-0.318 0.354,-0.412 0.432,-0.632c0.144,-0.299 0.365,-0.688 0.365,-0.688c0.168,0.31 0.503,0.452 0.503,0.452c-0,0 -0.166,-0.401 0.107,-0.634c0.272,-0.234 -0.481,-0.845 -0.481,-0.845c0,0 0.272,-0.129 0.428,0.066c0.156,0.194 0.195,0.363 0.261,0.389c0.064,0.026 -0.014,-0.351 0.116,-0.479c0.131,-0.131 -0.078,-0.676 -0.48,-0.742c0.208,-0.232 0.558,0.131 0.701,0.131c0.012,-0.157 0.234,-0.403 0.064,-0.598c-0.168,-0.194 -0.427,-0.467 -0.427,-0.467c0.298,-0.143 0.44,0.195 0.636,0.156c0,-0.195 0.194,-0.377 -0.065,-0.623c-0.26,-0.247 -0.364,-0.299 -0.364,-0.299c0,0 0.324,-0.026 0.597,0.156c-0.065,-0.325 0.014,-0.545 -0.168,-0.74c-0.131,-0.168 -0.338,-0.168 -0.338,-0.168c0.025,-0.287 0.338,-0.04 0.48,-0.092c-0.168,-0.221 0.221,-0.622 0.104,-0.973c-0.974,0.441 -1.117,-1.337 -1.273,-1.429c0.04,-0.7 -0.367,-2.752 -0.401,-3.245c-0.04,-0.545 0.038,-0.805 0.09,-0.416c0.021,0.161 0.173,0.713 0.247,1.338c0.106,0.894 0.13,1.908 0.882,1.908c0.78,0 0.78,-0.804 0.78,-1.181c-0,-0.377 -0.415,-2.037 -0.415,-2.298c0.363,-0.325 0.441,-0.922 0.454,-1.389c-0.079,0.116 -0.507,0.636 -0.507,0.778c-0.156,-0.259 0.442,-0.778 0.428,-1.103c-0.012,-0.324 -0.129,-0.649 -0.129,-0.649c-0.016,0.086 -0.15,0.443 -0.234,0.741c-0.058,0.201 -0.062,0.389 -0.104,0.389c-0.103,-0 -0.039,-0.389 0.013,-0.572c0.029,-0.103 0.27,-0.516 0.273,-0.908c0.006,-1.248 -0.261,-0.859 -0.069,-1.579c-0.298,0.444 -0.559,1.398 -0.559,2.372c-0.046,-0.125 -0.094,0.142 -0.131,0.026c-0.102,-0.322 -0.163,-1.021 -0.163,-1.468c-0,-0.423 0.714,-1.792 0.714,-2.883c0,-1.089 -0.844,-1.545 -0.883,-1.985c-0.037,-0.428 0.325,-0.624 0.325,-0.624c-0.286,0.363 -0.013,0.754 -0.013,0.754c0.182,-0.495 0.869,-0.728 0.857,0.142c0.233,-0.208 0.247,-1.156 -0.701,-1.156c-0.74,0 -0.902,0.874 -0.902,1.225c0,0.973 0.876,2.061 0.876,2.618c0,0.662 -0.351,1.221 -0.337,1.402c-0.014,-0.325 0.22,-1.22 0.207,-1.48c-0.169,0.169 -0.26,0.87 -0.337,1.013c-0.014,-0.285 0.116,-1.272 0.194,-1.442c-0.143,0.235 -0.415,0.975 -0.389,1.183c-0.026,-0.156 0.195,-1.195 0.22,-1.506c-0.116,0.349 -0.382,1.149 -0.382,2.394c-0,1.688 1.434,4.239 1.434,5.965c0,0.559 -0.247,0.715 -0.376,0.715c-1.065,-0 -1.832,-8.542 -1.832,-8.542c-0.565,-0.457 -1.278,-1.634 -1.278,-1.634l-0.118,-0.044c0,0 -0.383,0.696 -0.862,1.106c-0.226,0.195 -0.656,0.395 -0.933,0.575c-0.278,0.178 -0.404,0.334 -0.404,0.334l-0.211,-0.069c-0,0 0.354,-0.37 0.547,-0.509c0.193,-0.139 0.352,-0.537 0.352,-0.876c0,-0.341 -0.132,-0.837 -0.13,-1.195c0.003,-0.472 0.217,-0.837 0.131,-0.864c-0.265,-0.083 -0.648,-0.225 -0.851,-0.317c-0.139,0.354 -0.395,0.313 -0.521,0.575c-0.162,0.332 -0.182,0.788 -0.182,1.208c0,0.624 0.262,0.818 0.372,0.818c0.061,-0.144 0.103,-0.597 0.259,-1.017c0.141,-0.379 0.398,-0.642 0.428,-0.74c0.078,0.13 -0.204,0.435 -0.298,1.038c-0.13,0.832 -0.85,2.483 -1.051,3.208c-0.202,0.724 -0.588,2.231 -0.711,2.508m4.514,13.071c-0.092,-0.066 -0.312,-0.273 -0.312,-0.273c0,-0 0.071,0.947 0.437,1.175c-0.084,-0.167 -0.203,-0.527 -0.125,-0.902m-1.609,-1.562c0.159,-0.188 0.568,-0.597 0.728,-0.741l-0.37,0.154c-0.1,0.127 -0.285,0.324 -0.358,0.587m0.875,0.466c-0.078,-0.09 -0.172,-0.336 -0.224,-0.349c-0.052,-0.013 -0.467,0.644 -0.281,1.457c0.014,0.066 0.027,-0.293 0.046,-0.395c0.083,-0.432 0.188,-0.546 0.459,-0.713m-4.3,-11.235c0.04,-0.025 0.297,-0.779 0.302,-0.816c-0,0 0.038,-0.076 0.101,-0.164c0.052,-0.213 0.054,-0.143 0.122,-0.442c-0.307,0.081 -0.734,-0.191 -0.734,-0.191c-0.101,0.055 0.46,0.348 0.404,0.411c-0.469,0.514 -0.195,1.202 -0.195,1.202m0,-0c0.04,-0.025 0.297,-0.779 0.302,-0.816c-0,0 0.038,-0.076 0.101,-0.164c0.052,-0.213 0.054,-0.143 0.122,-0.442c-0.307,0.081 -0.734,-0.191 -0.734,-0.191c-0.101,0.055 0.46,0.348 0.404,0.411c-0.469,0.514 -0.195,1.202 -0.195,1.202m4.946,-11.596c-0.154,-0.037 -0.232,-0.12 -0.364,-0.115c-0.143,0.005 -0.218,0.113 -0.288,0.127c0.28,0.045 0.406,0.172 0.652,-0.012m-0.236,-2.807c0.017,-0.073 0.116,-0.035 0.145,-0.073c0.039,0.166 -0.212,0.269 -0.257,0.332c-0.046,0.065 -0.037,0.151 -0.121,0.151c-0.084,0 -0.07,-0.052 -0.07,-0.09c0,-0.037 0.044,-0.106 0.044,-0.164c-0,-0.059 -0.05,-0.093 -0.05,-0.093c0.067,-0.048 0.27,-0.054 0.309,-0.063m1.002,-0.147c0.477,-0 0.63,0.721 1.064,0.611c-0.079,0.165 -0.341,0.093 -0.428,0.136c-0.098,0.05 -0.216,0.188 -0.491,0.188c-0.275,0 -0.398,-0.116 -0.658,-0.116c-0.144,0 -0.25,0.082 -0.25,0.082c-0,-0 0.014,-0.194 0.268,-0.194c0.254,-0 0.386,0.058 0.64,0.058c0.254,-0 0.399,-0.154 0.399,-0.154c-0.188,-0.037 -0.341,-0.462 -0.56,-0.462c-0.116,0 -0.233,0.119 -0.233,0.119c0.028,0.03 0.17,-0.054 0.244,-0.054c0.229,-0 0.214,0.372 0.246,0.386c-0.084,0.023 -0.101,0.05 -0.289,0.05c-0.188,-0 -0.381,-0.097 -0.413,-0.088c0.026,-0.026 0.015,-0.078 0.098,-0.078c0.084,0 0.167,0.029 0.167,-0.039c-0,-0.071 -0.141,-0.076 -0.126,-0.114c-0.072,0.047 -0.188,0.237 -0.288,0.237c-0.103,0 -0.111,-0.046 -0.111,-0.046c0.15,0 0.318,-0.522 0.721,-0.522m1.722,0.845c0.066,0.031 0.207,0.006 0.151,0.101c-0.055,0.095 -0.141,0.257 -0.141,0.257c0,0 0.056,0.051 0.081,0.04c0.026,-0.01 0.196,0.031 0.242,-0.005c-0.031,0.081 -0.085,0.429 -0.463,0.429c-0.222,-0 -0.262,-0.202 -0.262,-0.272c-0,-0.228 0.392,-0.489 0.392,-0.55m0.091,-0.407c0.111,0 0.165,0.045 0.206,0.02c-0.041,0.086 -0.332,0.408 -0.554,0.408c-0.055,-0 -0.075,-0.031 -0.075,-0.031c0.046,-0.151 0.313,-0.397 0.423,-0.397m-3.226,0.715c0.103,0.545 1.152,0.021 1.223,1.198c0.034,0.593 -0.488,0.85 -0.917,0.84c-0.367,-0.008 -0.432,-0.09 -0.432,-0.09c-0,0 -0.102,0.185 -0.35,0.414c-0.173,0.158 -0.263,0.306 -0.263,0.306c-0,0 0.073,0.088 0.438,0.012c0.528,-0.112 0.789,-0.465 1.347,-0.465c0.171,-0 0.19,0.277 0.341,0.277c-0.022,-0.083 0.099,-0.257 0.173,-0.347c0.073,-0.092 0.147,-0.285 -0.031,-0.398c0.031,-0.156 0.241,-0.126 0.257,-0.217c0,0 -0.498,-0.378 -0.498,-0.982c0,-0.131 0.12,-0.211 0.166,-0.211c0.044,-0 0.151,0.01 0.151,0.111c-0,0.1 -0.136,0.12 -0.136,0.362c-0,0.473 0.543,0.629 0.543,0.76c0,0.131 -0.25,0.172 -0.25,0.172l-0.017,0.77c-0.247,0.7 -0.73,1.373 -0.931,1.54c0.101,-0.085 0.609,-1.145 0.553,-1.183c-0.053,-0.037 -0.488,0.887 -0.855,1.092c0.061,-0.05 0.74,-1.153 0.665,-1.207c-0.042,-0.031 -0.474,0.731 -1.163,1.293c-0.551,0.449 -1.291,0.702 -1.933,0.816c0.293,0.377 1.057,0.165 1.057,0.306c0,0.192 -0.302,0.398 -0.302,0.866c-0,0.726 0.327,1.446 -0.03,2.065c1.284,-0.761 1.449,-1.868 1.51,-2.029c-0,0 -0.431,0.261 -1.037,0.261c-0.196,-0 -0.307,-0.11 -0.307,-0.156c1.002,-0.648 1.985,-1.856 2.046,-1.992c0.095,-0.03 0.412,-0.579 0.629,-1.031c0.216,-0.454 0.381,-0.635 0.342,-0.555c-0.04,0.082 -0.236,0.977 -1.017,1.989c-0.539,0.7 -1.547,1.514 -1.547,1.514c0,-0 0.728,0.034 1.038,-0.286c0.084,-0.017 0.157,0.02 0.157,0.086c-0,0.065 -0.15,0.08 -0.148,0.306c0.012,1.228 1.318,2.198 1.495,2.235c-0,0 -0.205,-0.548 -0.205,-1.264c-0,-0.637 0.139,-2.169 0.273,-3.054c0.029,-0.198 -0.098,-0.377 -0.061,-0.483c0.036,-0.101 0.038,-0.061 0.08,-0.061c0.126,0 0.1,0.602 0.86,0.745c-0.401,-0.994 -0.137,-2.098 -0.137,-2.152c0,-0.173 -0.143,-0.243 -0.078,-0.405c0,-0 0.213,0.125 0.471,0.125c0.258,-0 0.349,-0.081 0.349,-0.081c-0.423,-0.419 -0.435,-0.842 -0.435,-0.914c-0,-0.072 -0.126,-0.161 -0.126,-0.221c-0,-0.061 0.043,-0.074 0.043,-0.074c0.143,0.089 0.335,-0.081 0.462,-0.073c-0,-0.15 0.243,-0.302 0.272,-0.831c0.028,-0.536 -0.199,-0.608 -0.378,-0.608c-0.139,0 -0.23,0.075 -0.291,-0.025c0.113,-0.094 0.658,-0.168 0.658,-0.617c-0.348,0.304 -0.869,0.187 -1.211,0.332c-0,0 -0.072,-0.026 -0.072,-0.089c0.31,-0.252 1.333,0.099 1.515,-0.898c-0.241,0.182 -0.848,0.546 -1.4,0.546c-0.175,0 -0.448,-0.047 -0.699,-0.047c-0.497,0 -0.745,0.249 -0.79,0.378c0,0 -0.667,0.002 -1.053,0.12c0.076,0.182 -0.091,0.816 -0.014,1.209m-2.096,4.56c0,0.12 0.417,0.278 1.64,-0.39c1.223,-0.669 1.558,-1.654 1.519,-1.691c-0.018,-0.018 -0.221,0.355 -0.473,0.637c-0.254,0.288 -0.557,0.483 -0.579,0.461c-0.024,-0.024 0.257,-0.269 0.466,-0.555c0.187,-0.257 0.307,-0.56 0.271,-0.581c-0.048,-0.028 -0.687,1.053 -1.532,1.053c-0.524,-0 -0.893,-0.635 -0.531,-1.12c-0.069,-0.069 -0.725,0.141 -0.725,1.079c-0,0.586 0.393,0.54 0.393,0.66c-0.222,0.081 -0.449,0.327 -0.449,0.447m-1.832,-2.633c-0.074,-0.175 -0.375,-0.373 -0.381,-0.519c-0.132,0.981 0.451,1.337 0.387,1.435c-0.108,0.165 -0.431,-0.329 -0.431,-0.329c-0.195,0.766 0.493,1.338 0.493,1.338c-0.026,0.26 -0.455,-0.13 -0.455,-0.13c-0.22,0.649 0.559,1.35 0.559,1.35c-0,0.155 -0.559,-0.234 -0.559,-0.234c0,0.74 0.52,1.117 0.52,1.221c0,0.181 -0.273,-0.026 -0.273,-0.026c0,-0 0.026,0.61 0.662,1.077c-0.013,0.144 -0.402,-0.078 -0.402,-0.078c0.065,0.144 0.077,0.753 0.337,0.805c0.259,0.052 0.52,0.013 0.598,0.078c0.078,0.065 0.298,0.337 0.363,0.026c-0.263,-0.283 -0.53,-0.716 -0.53,-1.381c0,-0.745 0.141,-1.147 0.657,-1.528c-0.091,-0.532 -0.184,-1.465 -0.3,-1.92c-0.117,-0.455 -0.102,-0.846 -0.074,-1.857c0.009,-0.305 0.672,-0.727 0.672,-0.727c-0.259,-0.748 -0.862,-1.224 -1.125,-1.375c0.263,0.273 0.558,0.53 0.89,1.12c0,-0 -0.212,0.272 -0.287,0.211c-0.159,-0.158 0.163,-0.217 -0.034,-0.458c-0.178,-0.228 -1.024,-1.049 -1.023,-1.037c0.01,0.136 0.619,0.967 0.417,1.222c-0,-0 0.301,0.301 0.347,0.483c-0.077,0.106 -0.152,1.556 -0.197,1.721c-0.106,-0.527 0.007,-1.825 0.007,-1.825c-0.469,-0.468 -0.428,-0.357 -0.865,-0.583c-0.052,-0.017 0.605,0.535 0.559,0.524c-0.052,-0.011 -0.042,1.132 -0.163,0.814c-0.039,-0.105 -0.136,-0.83 -0.136,-0.83c-0.316,-0.363 -0.82,-0.743 -0.83,-0.771c-0.01,0.291 0.539,1.017 0.707,2.15c-0.005,0.054 -0.037,0.21 -0.11,0.033m4.104,-1.133c0.333,0.035 0.627,0.131 0.64,0.054c-0.068,-0.198 -0.15,-0.244 -0.254,-0.265c-0.241,-0.048 -0.229,0.188 -0.386,0.211m-2.156,0.656c-0.007,0.022 -0.241,0.121 -0.276,0.025c-0.01,-0.029 0.132,-0.106 0.138,-0.151c0.021,-0.144 -0.035,-0.295 -0.045,-0.28c-0.16,0.227 -0.416,0.084 -0.428,0.928c0.128,-0.403 0.627,-0.249 0.703,-0.339c0.075,-0.091 -0.068,-0.81 -0.158,-0.991c-0.012,0.119 0.09,0.739 0.066,0.808m0.373,-2.417c0,0 0.167,-0.179 0.05,-0.179c-0.231,0 -0.302,-0.305 -0.131,-0.284c0.172,0.02 0.165,-0.011 0.031,-0.141c-0.104,-0.101 -0.005,-0.191 0.216,-0.191c0.131,-0 0.308,0.09 0.308,0.291c-0,0.202 -0.717,0.995 -0.446,1.83c0.331,1.029 1.228,0.906 1.684,1c0.285,0.059 0.902,0.238 0.872,0.178c-0.061,-0.123 -0.866,-0.262 -0.725,-0.292c0.036,-0.009 0.799,0.173 0.776,0.141c-0.081,-0.111 -0.608,-0.304 -0.687,-0.337c-0.262,-0.11 -1.039,-0.391 -1.117,-0.359c-0.078,0.032 0.915,0.351 0.9,0.422c-0.011,0.05 -0.159,0.066 -0.525,-0.046c-0.412,-0.127 -0.816,-0.476 -0.816,-0.99c-0,-0.453 0.056,-0.514 0.08,-0.674c0.111,-0.734 0.095,0.563 0.162,0.483c0.049,-0.06 0.079,-0.317 0.141,-0.483c0.079,-0.218 0.2,-0.292 0.2,-0.601c-0,-0.574 -0.543,-0.74 -0.805,-0.74c-0.171,0 -0.619,0.106 -0.58,0.544c0.038,0.453 0.412,0.428 0.412,0.428" style="fill:#fff;fill-rule:nonzero;"/>
    <path d="M20.686,80.5c-0.582,0 -1.047,-0.172 -1.381,-0.51c-0.335,-0.34 -0.504,-0.791 -0.504,-1.345l-0,-2.582c-0,-0.301 -0.041,-0.511 -0.119,-0.625c-0.075,-0.108 -0.225,-0.163 -0.447,-0.163l-0.049,-0l0,-0.247l2.05,-0l0,0.247l-0.048,-0c-0.225,-0 -0.378,0.052 -0.455,0.159c-0.079,0.11 -0.119,0.319 -0.119,0.62l-0,2.658c-0,0.414 0.118,0.745 0.35,0.98c0.233,0.236 0.561,0.356 0.98,0.356c0.618,-0 1.121,-0.283 1.496,-0.84l0,-3.145c0,-0.295 -0.039,-0.503 -0.118,-0.614c-0.076,-0.107 -0.214,-0.167 -0.413,-0.174l-0.046,-0.003l0,-0.244l2.003,-0l0,0.247l-0.047,-0c-0.212,-0 -0.36,0.055 -0.44,0.163c-0.084,0.114 -0.124,0.324 -0.124,0.626l-0,3.273c-0,0.297 0.04,0.506 0.122,0.621c0.077,0.11 0.226,0.165 0.442,0.165l0.047,0l0,0.247l-1.426,0l0,-0.658c-0.496,0.522 -1.086,0.788 -1.754,0.788" style="fill:#fff;fill-rule:nonzero;"/>
    <path d="M31.589,80.37l-0.236,0l-0.013,-0.017l-3.745,-4.463l-0,3.556c-0,0.244 0.051,0.421 0.149,0.524c0.099,0.101 0.272,0.153 0.513,0.153l0.047,-0l0,0.247l-1.736,0l0,-0.247l0.048,-0c0.244,-0 0.409,-0.061 0.491,-0.179c0.086,-0.124 0.13,-0.35 0.13,-0.674l-0,-3.071c-0,-0.318 -0.06,-0.548 -0.175,-0.683c-0.116,-0.135 -0.312,-0.217 -0.584,-0.241l-0.043,-0.004l-0,-0.244l1.458,0l0.013,0.018l3.313,3.983l-0,-2.938c-0,-0.31 -0.045,-0.528 -0.132,-0.644c-0.083,-0.115 -0.245,-0.171 -0.48,-0.171l-0.048,-0l-0,-0.248l1.726,0l0,0.248l-0.047,-0c-0.246,-0 -0.416,0.054 -0.508,0.161c-0.094,0.11 -0.141,0.318 -0.141,0.618l0,4.316Z" style="fill:#fff;fill-rule:nonzero;"/>
    <path d="M36.966,80.37l-2.04,0l0,-0.247l0.048,-0c0.219,-0 0.37,-0.053 0.445,-0.158c0.079,-0.11 0.121,-0.323 0.121,-0.627l0,-3.273c0,-0.311 -0.04,-0.525 -0.118,-0.632c-0.076,-0.105 -0.225,-0.158 -0.448,-0.158l-0.048,-0l0,-0.248l2.04,0l0,0.248l-0.047,-0c-0.214,-0 -0.362,0.055 -0.441,0.163c-0.083,0.113 -0.125,0.323 -0.125,0.627l0,3.273c0,0.302 0.042,0.511 0.125,0.623c0.079,0.108 0.227,0.162 0.441,0.162l0.047,-0l0,0.247Z" style="fill:#fff;fill-rule:nonzero;"/>
    <path d="M42.438,80.441l-0.219,0l-0.011,-0.029l-1.674,-4.259c-0.154,-0.386 -0.285,-0.63 -0.393,-0.728c-0.105,-0.094 -0.259,-0.144 -0.46,-0.151l-0.045,-0.001l-0,-0.246l2.058,0l0,0.247l-0.048,0c-0.381,0 -0.425,0.176 -0.425,0.307c-0,0.07 0.02,0.153 0.057,0.246l1.279,3.273l1.21,-3.156c0.051,-0.133 0.076,-0.25 0.076,-0.346c-0,-0.14 -0.045,-0.324 -0.436,-0.324l-0.049,0l0,-0.247l1.672,0l0,0.256l-0.047,-0c-0.373,-0 -0.689,0.334 -0.939,0.99l-1.595,4.139l-0.011,0.029Z" style="fill:#fff;fill-rule:nonzero;"/>
    <path d="M51.111,80.37l-3.978,0l-0,-0.247l0.047,-0c0.226,-0 0.377,-0.054 0.45,-0.161c0.076,-0.112 0.116,-0.32 0.116,-0.615l-0,-3.282c-0,-0.309 -0.041,-0.52 -0.12,-0.631c-0.077,-0.106 -0.226,-0.159 -0.446,-0.159l-0.047,-0l-0,-0.248l3.988,0l0,0.973l-0.186,-0l-0.008,-0.037c-0.053,-0.24 -0.127,-0.398 -0.221,-0.473c-0.094,-0.075 -0.31,-0.113 -0.641,-0.113l-1.51,0l0,2.15l1.464,-0c0.193,-0 0.324,-0.031 0.389,-0.094c0.067,-0.063 0.118,-0.191 0.15,-0.379l0.006,-0.041l0.25,0l-0,1.371l-0.246,0l-0.01,-0.037c-0.068,-0.262 -0.142,-0.358 -0.193,-0.391c-0.052,-0.036 -0.183,-0.078 -0.516,-0.078l-1.294,-0l0,1.832c0,0.116 0.025,0.198 0.074,0.242c0.051,0.045 0.143,0.068 0.274,0.068l0.946,0c0.331,0 0.563,-0.018 0.688,-0.052c0.118,-0.033 0.221,-0.096 0.305,-0.185c0.085,-0.094 0.178,-0.248 0.277,-0.459l0.012,-0.029l0.253,0l-0.016,0.061l-0.248,0.978l-0.009,0.036Z" style="fill:#fff;fill-rule:nonzero;"/>
    <path d="M55.678,77.627l0.616,-0c0.382,-0 0.685,-0.107 0.9,-0.318c0.215,-0.21 0.325,-0.493 0.325,-0.843c-0,-0.339 -0.121,-0.617 -0.36,-0.825c-0.239,-0.211 -0.563,-0.318 -0.961,-0.318l-0.52,0l-0,2.304Zm3.825,2.743l-1.176,-0l-0.014,-0.017c-0.228,-0.266 -0.506,-0.662 -0.829,-1.176c-0.338,-0.532 -0.607,-0.877 -0.797,-1.022c-0.185,-0.142 -0.394,-0.215 -0.619,-0.215l-0.39,0l-0,1.397c-0,0.299 0.043,0.507 0.127,0.622c0.08,0.109 0.23,0.163 0.442,0.163l0.049,0l-0,0.248l-2.039,-0l-0,-0.248l0.047,0c0.221,0 0.372,-0.053 0.447,-0.161c0.078,-0.114 0.117,-0.324 0.117,-0.623l0,-3.29c0,-0.301 -0.038,-0.507 -0.114,-0.617c-0.073,-0.104 -0.225,-0.156 -0.45,-0.156l-0.047,0l-0,-0.247l2.263,0c0.555,0 1.006,0.134 1.341,0.397c0.337,0.267 0.509,0.61 0.509,1.023c0,0.636 -0.355,1.075 -1.053,1.305c0.137,0.097 0.272,0.221 0.403,0.37c0.158,0.181 0.366,0.481 0.617,0.892c0.279,0.451 0.499,0.75 0.655,0.889c0.149,0.133 0.306,0.207 0.467,0.218l0.044,0.004l0,0.244Z" style="fill:#fff;fill-rule:nonzero;"/>
    <path d="M63.453,80.5c-0.25,0 -0.571,-0.067 -0.954,-0.2c-0.189,-0.063 -0.258,-0.077 -0.284,-0.077c-0.025,0 -0.1,0 -0.163,0.17l-0.011,0.032l-0.241,-0l-0,-1.514l0.254,0l0,0.047c0.004,0.374 0.131,0.68 0.38,0.904c0.248,0.227 0.542,0.341 0.876,0.341c0.315,0 0.57,-0.081 0.757,-0.243c0.187,-0.159 0.28,-0.377 0.28,-0.645c0,-0.199 -0.079,-0.394 -0.232,-0.578c-0.158,-0.189 -0.498,-0.438 -1.007,-0.74c-0.422,-0.254 -0.709,-0.456 -0.854,-0.606c-0.145,-0.15 -0.253,-0.318 -0.323,-0.498c-0.07,-0.179 -0.104,-0.378 -0.104,-0.591c-0,-0.416 0.142,-0.757 0.424,-1.015c0.279,-0.258 0.647,-0.389 1.093,-0.389c0.244,-0 0.513,0.047 0.798,0.141c0.158,0.049 0.23,0.06 0.262,0.06c0.042,0 0.052,-0.011 0.052,-0.011c0.004,-0.005 0.017,-0.024 0.041,-0.102l0.01,-0.035l0.235,0l-0,1.326l-0.251,-0l-0.005,-0.042c-0.036,-0.326 -0.157,-0.585 -0.365,-0.766c-0.206,-0.182 -0.47,-0.276 -0.785,-0.276c-0.28,0 -0.508,0.069 -0.676,0.205c-0.168,0.135 -0.25,0.31 -0.25,0.537c0,0.207 0.071,0.4 0.21,0.573c0.143,0.177 0.462,0.409 0.947,0.692c0.574,0.332 0.966,0.627 1.165,0.878c0.202,0.255 0.305,0.553 0.305,0.88c-0,0.424 -0.157,0.791 -0.466,1.09c-0.308,0.3 -0.684,0.452 -1.118,0.452" style="fill:#fff;fill-rule:nonzero;"/>
    <path d="M69.998,80.37l-2.04,0l-0,-0.247l0.048,-0c0.219,-0 0.369,-0.053 0.446,-0.158c0.079,-0.111 0.119,-0.323 0.119,-0.627l-0,-3.273c-0,-0.311 -0.04,-0.525 -0.118,-0.632c-0.075,-0.105 -0.225,-0.158 -0.447,-0.158l-0.048,-0l-0,-0.248l2.04,0l-0,0.248l-0.047,-0c-0.214,-0 -0.362,0.055 -0.441,0.163c-0.083,0.113 -0.125,0.323 -0.125,0.627l-0,3.273c-0,0.302 0.042,0.511 0.123,0.623c0.081,0.108 0.229,0.162 0.443,0.162l0.047,-0l-0,0.247Z" style="fill:#fff;fill-rule:nonzero;"/>
    <path d="M76.149,80.37l-2.007,0l-0,-0.247l0.047,-0c0.22,-0 0.369,-0.057 0.445,-0.169c0.08,-0.119 0.12,-0.327 0.12,-0.616l-0,-3.961l-0.736,0c-0.363,0 -0.628,0.056 -0.79,0.166c-0.157,0.108 -0.249,0.29 -0.268,0.542l-0.003,0.043l-0.253,0l-0,-1.297l0.227,0l0.014,0.011c0.134,0.122 0.396,0.185 0.778,0.185l2.834,0c0.396,0 0.674,-0.063 0.827,-0.186l0.014,-0.01l0.234,0l0,1.297l-0.191,0l-0.009,-0.037c-0.064,-0.274 -0.178,-0.463 -0.34,-0.562c-0.164,-0.1 -0.42,-0.152 -0.756,-0.152l-0.772,0l0,3.987c0,0.307 0.037,0.512 0.11,0.613c0.07,0.096 0.214,0.146 0.428,0.146l0.047,-0l-0,0.247Z" style="fill:#fff;fill-rule:nonzero;"/>
    <path d="M83.595,80.37l-2.067,0l-0,-0.247l0.048,-0c0.249,-0 0.415,-0.056 0.493,-0.168c0.08,-0.118 0.122,-0.325 0.122,-0.618l0,-1.639l-1.144,-1.729c-0.187,-0.284 -0.34,-0.471 -0.455,-0.556c-0.111,-0.083 -0.269,-0.13 -0.47,-0.138l-0.045,-0.003l0,-0.245l2.209,0l0,0.248l-0.047,-0c-0.338,-0 -0.51,0.066 -0.51,0.197c0,0.066 0.033,0.15 0.103,0.251l1.028,1.531l0.816,-1.257c0.12,-0.187 0.181,-0.349 0.181,-0.479c-0,-0.105 -0.031,-0.243 -0.309,-0.243l-0.048,-0l-0,-0.248l1.579,0l-0,0.244l-0.045,0.004c-0.19,0.009 -0.338,0.05 -0.44,0.119c-0.102,0.07 -0.232,0.222 -0.385,0.454l-1.209,1.85l0,1.639c0,0.308 0.04,0.52 0.118,0.629c0.075,0.105 0.22,0.157 0.43,0.157l0.047,-0l-0,0.247Z" style="fill:#fff;fill-rule:nonzero;"/>
</svg>
