<?xml version="1.0" encoding="UTF-8" standalone="no"?>
<!DOCTYPE svg PUBLIC "-//W3C//DTD SVG 1.1//EN" "http://www.w3.org/Graphics/SVG/1.1/DTD/svg11.dtd">
<svg width="100%" height="100%" viewBox="0 0 100 42" version="1.1" xmlns="http://www.w3.org/2000/svg" xmlns:xlink="http://www.w3.org/1999/xlink" xml:space="preserve" xmlns:serif="http://www.serif.com/" style="fill-rule:evenodd;clip-rule:evenodd;stroke-linejoin:round;stroke-miterlimit:2;">
    <g id="g28358">
        <path id="path11100" d="M25.379,1.869l-0,1.781l0.001,0.054l0.002,0.047l0.002,0.054l0.002,0.047l0.007,0.095l0.005,0.047l0.01,0.081l0.006,0.047l0.008,0.034l0.007,0.04l0.008,0.041l0.008,0.034l0.01,0.04l0.009,0.034l0.011,0.033l0.01,0.027l0.012,0.034l0.012,0.034l0.013,0.027l0.013,0.027l0.013,0.034l0.03,0.054l0.031,0.054l0.035,0.047l0.036,0.047c0.29,0.358 0.766,0.526 1.339,0.526c1.204,0 1.952,-0.836 2.002,-2.084l0.052,-1.235c0.021,-0.425 0.052,-0.648 0.105,-0.783c0.084,-0.222 0.238,-0.31 0.416,-0.357c0.102,-0.02 0.091,-0.135 -0.021,-0.135l-1.578,-0c-0.094,-0 -0.115,0.101 -0.021,0.135c0.312,0.108 0.487,0.189 0.57,0.391c0.053,0.135 0.105,0.351 0.105,0.837l-0,0.769c-0,0.965 -0.157,1.471 -0.426,1.72c-0.259,0.277 -0.623,0.29 -0.861,0.29c-0.458,0 -0.79,-0.195 -0.976,-0.384c-0.22,-0.189 -0.363,-0.607 -0.363,-1.181l-0,-0.776c-0,-0.722 0.03,-1.268 0.164,-1.444c0.063,-0.107 0.168,-0.175 0.385,-0.222c0.104,-0.02 0.094,-0.135 -0.032,-0.135l-1.692,-0c-0.103,-0 -0.103,0.128 -0.011,0.135c0.188,0.054 0.406,0.115 0.479,0.27c0.042,0.094 0.063,0.195 0.063,0.769Z" style="fill:#fff;"/>
        <path id="path11102" d="M35.729,3.717l-0,-1.005l0.006,-0.121l0,-0.115l0.007,-0.115l0.013,-0.216l0.007,-0.101l0.007,-0.047l-0,-0.047l0.007,-0.047l-0,-0.041l0.006,-0.047l0.007,-0.041l-0,-0.047l0.007,-0.034l0.006,-0.04l0,-0.041l0.02,-0.101l0,-0.034l0.007,-0.033l0.007,-0.027c0.074,-0.371 0.268,-0.479 0.516,-0.587c0.107,-0.041 0.107,-0.135 -0.021,-0.135l-1.638,-0c-0.104,-0 -0.126,0.115 -0.021,0.135c0.507,0.135 0.621,0.222 0.675,0.715c0.04,0.385 0.074,0.722 0.074,1.37l-0,1.025c-0,0.088 -0.021,0.101 -0.094,0.027c-1.196,-1.282 -2.057,-2.328 -2.348,-2.739c-0.177,-0.209 -0.238,-0.331 -0.269,-0.452c-0.011,-0.047 -0.042,-0.061 -0.199,-0.047c-0.123,0.013 -0.206,0.013 -0.29,0.013c-0.239,0 -0.487,-0.047 -0.778,-0.047c-0.115,-0 -0.115,0.115 -0.02,0.135c0.217,0.067 0.507,0.162 0.633,0.378c0.073,0.135 0.112,0.243 0.112,0.688l0,1.093c0,0.769 -0.039,1.43 -0.091,1.632c-0.052,0.162 -0.21,0.29 -0.374,0.351l-0.209,0.081c-0.092,0.047 -0.092,0.142 0.041,0.142l1.62,-0c0.136,0.007 0.136,-0.108 0.052,-0.142l-0.301,-0.108c-0.217,-0.088 -0.416,-0.222 -0.416,-1.457l0,-0.891c0,-0.458 0,-0.647 0.01,-0.742c0.011,-0.081 0.032,-0.128 0.063,-0.094c0.665,0.755 1.839,2.186 2.563,3.096c0.02,0.034 0.127,0.135 0.254,0.243c0.067,0.061 0.195,0.135 0.275,0.135c0.067,0 0.127,-0.02 0.107,-0.202c-0.013,-0.081 -0.033,-0.533 -0.033,-1.316Z" style="fill:#fff;"/>
        <path id="path11104" d="M39.567,2.483l-0,1.585l-0.007,0.041l-0,0.162l-0.007,0.074l0,0.067l-0.013,0.135l-0.014,0.122l-0.013,0.06c-0.04,0.196 -0.275,0.297 -0.482,0.324c-0.107,0.02 -0.094,0.142 0.02,0.142l1.715,-0c0.12,-0 0.12,-0.122 0.026,-0.142c-0.247,-0.047 -0.469,-0.128 -0.515,-0.378c-0.067,-0.256 -0.067,-0.634 -0.067,-1.261l-0,-0.931c-0,-0.628 -0,-1.026 0.053,-1.275c0.04,-0.25 0.282,-0.331 0.456,-0.378c0.107,-0.02 0.107,-0.135 -0.02,-0.135l-1.615,-0c-0.127,-0 -0.14,0.115 -0.053,0.135c0.207,0.054 0.435,0.135 0.495,0.411c0.041,0.216 0.041,0.614 0.041,1.242Z" style="fill:#fff;"/>
        <path id="path11106" d="M46.445,2.159l0.101,-0.223l0.033,-0.067l0.034,-0.061l0.027,-0.067l0.033,-0.054l0.081,-0.162l0.026,-0.048l0.027,-0.04l0.02,-0.047l0.027,-0.041l0.027,-0.033l0.02,-0.041l0.027,-0.027l0.02,-0.034l0.027,-0.033l0.02,-0.027l0.026,-0.021l0.021,-0.027l0.026,-0.02l0.02,-0.027l0.027,-0.02l0.02,-0.014l0.027,-0.02l0.027,-0.013l0.02,-0.014l0.054,-0.027l0.033,-0.013l0.228,-0.108c0.094,-0.041 0.1,-0.135 -0.02,-0.135l-1.561,-0c-0.107,-0 -0.114,0.101 -0.033,0.135l0.12,0.047c0.322,0.115 0.395,0.236 0.255,0.695c-0.148,0.472 -0.697,1.855 -1.018,2.523c-0.074,0.155 -0.101,0.149 -0.161,0c-0.315,-0.702 -0.643,-1.525 -0.945,-2.415c-0.147,-0.439 -0.221,-0.614 0.061,-0.742l0.268,-0.108c0.093,-0.034 0.093,-0.135 -0.027,-0.135l-1.695,-0c-0.147,-0 -0.127,0.094 -0.033,0.135l0.174,0.088c0.261,0.134 0.335,0.236 0.609,0.904c0.268,0.654 0.597,1.531 0.804,2.104c0.208,0.594 0.275,0.797 0.462,1.289c0.027,0.081 0.061,0.122 0.107,0.122c0.047,-0 0.181,-0.115 0.335,-0.412c0.074,-0.128 0.154,-0.378 0.342,-0.796c0.388,-0.904 0.636,-1.457 0.877,-1.97Z" style="fill:#fff;"/>
        <path id="path11108" d="M50.283,2.382l0,1.511l-0.006,0.054l-0,0.195l-0.007,0.041l-0,0.108l-0.007,0.034l0,0.06l-0.006,0.027l-0,0.047l-0.007,0.021l-0,0.04l-0.007,0.02l0,0.041l-0.007,0.013l0,0.014l-0.006,0.02c-0.067,0.297 -0.389,0.358 -0.744,0.425c-0.087,0.014 -0.087,0.142 0.034,0.142l3.101,-0c0.281,-0 0.342,-0.014 0.375,-0.149c0.06,-0.317 0.1,-0.708 0.1,-0.816c0,-0.081 -0.1,-0.094 -0.133,-0.013c-0.041,0.128 -0.101,0.283 -0.188,0.391c-0.1,0.101 -0.228,0.175 -0.382,0.196c-0.161,0.033 -0.408,0.04 -0.656,0.04c-0.415,0 -0.643,-0.02 -0.717,-0.135c-0.074,-0.101 -0.094,-0.364 -0.094,-1.093l0,-0.492c0,-0.129 0.034,-0.135 0.188,-0.135l0.315,-0c0.536,-0 0.797,0.06 0.904,0.236c0.06,0.115 0.094,0.209 0.1,0.27c0.014,0.087 0.128,0.081 0.128,-0.007c-0,-0.621 0.026,-0.877 0.047,-1.046c0.013,-0.074 -0.061,-0.094 -0.094,-0.04c-0.027,0.047 -0.114,0.141 -0.235,0.189c-0.093,0.027 -0.335,0.06 -0.917,0.06l-0.215,0c-0.221,-0.02 -0.221,-0.006 -0.221,-0.135l0,-0.566c0,-0.324 0.014,-0.607 0.02,-0.702c0.027,-0.169 0.047,-0.182 0.262,-0.182l0.274,-0c0.369,-0 0.556,0.007 0.764,0.067c0.201,0.054 0.355,0.284 0.395,0.513c0.02,0.128 0.161,0.108 0.147,-0.027c-0.02,-0.263 0,-0.654 0.047,-0.904c0.014,-0.047 -0.013,-0.074 -0.033,-0.074c-0.014,-0 -0.054,0.013 -0.107,0.047c-0.094,0.027 -0.449,0.041 -0.998,0.041l-1.072,-0c-0.322,-0 -0.556,-0.034 -0.904,-0.034c-0.114,-0 -0.121,0.115 -0.007,0.148c0.261,0.061 0.489,0.176 0.529,0.452c0.04,0.257 0.04,0.459 0.04,1.087Z" style="fill:#fff;"/>
        <path id="path11110" d="M55.642,2.105l-0,1.889l-0.007,0.034l0,0.121l-0.007,0.027l0,0.081l-0.006,0.02l-0,0.075l-0.007,0.02l-0,0.06l-0.007,0.021l0,0.054l-0.006,0.013l-0,0.047c-0.041,0.304 -0.134,0.385 -0.53,0.486c-0.113,0.034 -0.093,0.142 0.02,0.142l1.809,-0c0.12,-0 0.12,-0.108 0.007,-0.142c-0.456,-0.121 -0.53,-0.216 -0.59,-0.553c-0.02,-0.122 -0.033,-0.236 -0.033,-0.574l-0,-0.438c-0,-0.196 0.013,-0.216 0.067,-0.216c0.167,0 0.328,-0.027 0.475,-0.034c0.114,-0.013 0.188,0.007 0.282,0.209c0.308,0.601 0.582,1.1 0.964,1.464c0.241,0.21 0.63,0.331 1.018,0.331c0.214,0 0.395,-0.04 0.436,-0.061c0.033,-0.006 0.02,-0.074 -0.021,-0.081c-0.04,-0.013 -0.314,-0.087 -0.656,-0.371c-0.362,-0.29 -0.871,-0.951 -1.226,-1.693c-0.04,-0.088 -0.02,-0.121 0.034,-0.155l0.207,-0.135c0.188,-0.115 0.436,-0.452 0.436,-0.891c-0,-0.303 -0.074,-1.221 -1.628,-1.18c-0.67,-0 -1.507,0.114 -1.654,0.135c-0.121,0.02 -0.134,0.128 -0,0.135c0.201,0.02 0.428,0.053 0.502,0.128c0.034,0.04 0.06,0.094 0.081,0.229c0.006,0.175 0.04,0.425 0.04,0.803Zm0.643,0.661l-0,-1.315l0.006,-0.027l0,-0.169l0.007,-0.02l0,-0.075l0.007,-0.013l-0,-0.027l0.006,-0.014l0,-0.02l0.007,-0.007l0,-0.006c0.02,-0.075 0.04,-0.108 0.188,-0.108c0.723,-0 1.138,0.553 1.138,1.18c0,0.601 -0.442,0.79 -0.783,0.79c-0.221,-0 -0.342,-0 -0.483,-0.014c-0.08,-0.006 -0.093,-0.04 -0.093,-0.155Z" style="fill:#fff;"/>
        <path id="path11114" d="M63.318,0.6l-0.041,0l-0.047,0.007l-0.04,0l-0.04,0.007l-0.04,-0l-0.08,0.013l-0.034,0.014l-0.04,0.007l-0.04,0.013l-0.034,0.007l-0.04,0.013l-0.033,0.014l-0.041,0.013l-0.067,0.027l-0.04,0.021l-0.033,0.013l-0.034,0.02l-0.027,0.014l-0.067,0.04l-0.12,0.081l-0.054,0.047l-0.047,0.048l-0.026,0.02l-0.027,0.027c-0.308,0.297 -0.395,0.621 -0.395,0.897c-0,0.54 0.335,0.877 1.038,1.127c0.556,0.202 0.958,0.459 0.958,1.012c-0,0.54 -0.282,0.809 -0.771,0.809c-0.402,0 -0.85,-0.249 -0.984,-0.533c-0.074,-0.161 -0.074,-0.249 -0.074,-0.317c-0.013,-0.094 -0.1,-0.101 -0.134,-0.033c-0.04,0.101 -0.127,0.324 -0.181,0.411c-0.047,0.074 -0.1,0.189 -0.08,0.263c0.04,0.142 0.154,0.27 0.348,0.398c0.194,0.115 0.462,0.189 0.797,0.189c0.342,0 0.704,-0.114 1.025,-0.357c0.281,-0.209 0.643,-0.607 0.643,-1.194c0,-0.749 -0.529,-0.985 -1.139,-1.201c-0.435,-0.155 -0.864,-0.378 -0.864,-0.952c0,-0.418 0.262,-0.661 0.61,-0.661c0.295,0 0.536,0.108 0.71,0.317c0.134,0.156 0.174,0.277 0.187,0.365c0.007,0.121 0.141,0.121 0.141,0.013c0,-0.189 0.027,-0.324 0.034,-0.411c0.02,-0.081 0.033,-0.135 0.033,-0.189c0,-0.054 -0.013,-0.142 -0.114,-0.223c-0.094,-0.054 -0.295,-0.196 -0.696,-0.196Z" style="fill:#fff;"/>
        <path id="path11116" d="M67.028,2.483l0,1.585l-0.006,0.041l-0,0.162l-0.007,0.074l-0,0.067l-0.014,0.135l-0.013,0.122l-0.013,0.06c-0.034,0.196 -0.275,0.297 -0.483,0.324c-0.107,0.02 -0.093,0.142 0.02,0.142l1.715,-0c0.121,-0 0.121,-0.122 0.027,-0.142c-0.248,-0.047 -0.469,-0.128 -0.516,-0.378c-0.067,-0.256 -0.067,-0.634 -0.067,-1.261l0,-0.931c0,-0.628 0,-1.026 0.054,-1.275c0.04,-0.25 0.281,-0.331 0.455,-0.378c0.107,-0.02 0.107,-0.135 -0.02,-0.135l-1.621,-0c-0.12,-0 -0.134,0.115 -0.047,0.135c0.208,0.054 0.436,0.135 0.496,0.411c0.04,0.216 0.04,0.614 0.04,1.242Z" style="fill:#fff;"/>
        <path id="path11118" d="M73.74,0.729l-1.842,-0l-0.041,-0.007l-0.18,-0l-0.027,-0.007l-0.087,0l-0.02,-0.007l-0.034,0l-0.013,-0.006l-0.034,-0l-0.013,-0.007l-0.02,-0l-0.014,-0.007l-0.006,0c-0.114,-0.034 -0.201,-0.067 -0.262,-0.128c-0.06,-0.061 -0.133,-0.054 -0.133,0.074c-0,0.439 -0.061,0.857 -0.061,0.951c0,0.115 0.107,0.135 0.141,0.034c0.04,-0.142 0.147,-0.351 0.301,-0.445c0.241,-0.122 0.911,-0.108 1.126,-0.108c0.134,-0 0.154,0.027 0.154,0.202c-0,0.088 0.02,0.331 0.02,1.073l-0,1.032c-0,0.783 -0.04,1.107 -0.061,1.255c-0.033,0.283 -0.328,0.324 -0.683,0.425c-0.107,0.034 -0.107,0.142 0.02,0.142l1.99,-0c0.134,-0 0.147,-0.108 0.04,-0.142c-0.402,-0.128 -0.583,-0.175 -0.63,-0.519c-0.033,-0.25 -0.033,-0.513 -0.033,-1.215l-0,-0.991c-0,-0.689 0.02,-1.06 0.04,-1.154c0.013,-0.081 0.02,-0.108 0.161,-0.108c0.482,-0 0.723,0.027 0.897,0.067c0.261,0.075 0.335,0.257 0.409,0.439c0.04,0.094 0.134,0.074 0.14,-0.02c0.027,-0.385 0.027,-0.655 0.141,-0.938c0.02,-0.074 -0.054,-0.108 -0.114,-0.068c-0.134,0.095 -0.335,0.162 -0.522,0.169c-0.148,0 -0.362,0.014 -0.75,0.014Z" style="fill:#fff;"/>
        <path id="path11120" d="M79.192,3.94l-0,-0.614l0.006,-0.027l0,-0.027l0.041,-0.162l0.013,-0.027l0.013,-0.034l0.041,-0.081c0.174,-0.35 0.569,-0.978 0.944,-1.47c0.308,-0.405 0.382,-0.5 0.837,-0.668c0.107,-0.034 0.087,-0.135 -0.02,-0.135l-1.393,-0c-0.134,-0 -0.141,0.115 -0.06,0.135c0.321,0.115 0.415,0.189 0.274,0.526c-0.167,0.425 -0.515,0.992 -0.73,1.336c-0.053,0.088 -0.08,0.108 -0.134,0.034c-0.301,-0.452 -0.623,-1.026 -0.79,-1.37c-0.188,-0.364 -0.114,-0.391 0.268,-0.526c0.094,-0.034 0.094,-0.135 -0.027,-0.135l-1.581,-0c-0.114,-0 -0.107,0.101 0,0.135c0.322,0.108 0.362,0.202 0.717,0.742c0.315,0.486 0.583,0.965 0.844,1.484c0.074,0.149 0.1,0.243 0.1,0.452l0,0.533c0,0.439 -0.04,0.648 -0.1,0.736c-0.107,0.148 -0.375,0.215 -0.576,0.276c-0.094,0.034 -0.08,0.142 0.033,0.142l1.856,-0c0.127,-0 0.127,-0.108 0.033,-0.142c-0.341,-0.101 -0.475,-0.175 -0.536,-0.364c-0.067,-0.115 -0.073,-0.364 -0.073,-0.749Z" style="fill:#fff;"/>
        <path id="path11122" d="M88.857,0.6l-0.228,0.014l-0.228,0.027l-0.107,0.027l-0.114,0.027l-0.113,0.034l-0.108,0.04l-0.114,0.041l-0.107,0.047l-0.107,0.054l-0.047,0.034l-0.053,0.026l-0.107,0.068l-0.047,0.034l-0.054,0.033l-0.047,0.034l-0.141,0.122c-0.529,0.458 -0.756,1.086 -0.756,1.747c-0,1.39 0.911,2.28 2.136,2.28c0.757,0 1.42,-0.324 1.856,-0.816c0.355,-0.398 0.582,-0.931 0.582,-1.646c0,-1.228 -0.797,-2.227 -2.096,-2.227Zm-0.02,4.352l-0.107,-0l-0.201,-0.027l-0.101,-0.02l-0.087,-0.021l-0.094,-0.033l-0.08,-0.034l-0.087,-0.04l-0.074,-0.041l-0.073,-0.054l-0.074,-0.047l-0.134,-0.122l-0.06,-0.06l-0.054,-0.075l-0.054,-0.067l-0.053,-0.074l-0.047,-0.081l-0.04,-0.074l-0.04,-0.088l-0.041,-0.081l-0.033,-0.088l-0.034,-0.094l-0.026,-0.088l-0.061,-0.283l-0.013,-0.101l-0.013,-0.095l-0.007,-0.101l-0,-0.101l-0.007,-0.101c0,-0.878 0.282,-1.923 1.36,-1.923c1.199,-0 1.694,1.005 1.694,2.172c0,0.992 -0.341,1.842 -1.359,1.842Z" style="fill:#fff;"/>
        <path id="path11126" d="M93.82,2.382l0,1.598l-0.007,0.048l0,0.168l-0.006,0.034l-0,0.095l-0.007,0.027l-0,0.053l-0.007,0.027l0,0.021l-0.006,0.027l-0,0.02l-0.027,0.162c-0.054,0.209 -0.302,0.324 -0.543,0.391c-0.073,0.034 -0.08,0.142 0.034,0.142l1.855,-0c0.161,-0 0.147,-0.122 0.067,-0.142c-0.395,-0.101 -0.603,-0.209 -0.643,-0.432c-0.047,-0.168 -0.067,-0.337 -0.067,-1.093l0,-0.303c0,-0.135 0.013,-0.149 0.255,-0.149l0.227,0c0.529,0 0.784,0.054 0.898,0.257c0.074,0.121 0.1,0.229 0.127,0.31c0.013,0.061 0.134,0.054 0.134,-0.02c-0.007,-0.574 0.02,-0.897 0.04,-1.066c0.014,-0.081 -0.067,-0.108 -0.107,-0.02c-0.047,0.081 -0.141,0.128 -0.241,0.155c-0.087,0.02 -0.322,0.04 -0.851,0.04l-0.261,0c-0.221,0 -0.221,-0.006 -0.221,-0.141l0,-0.641c0,-0.304 0.013,-0.607 0.034,-0.742c0.02,-0.108 0.04,-0.142 0.167,-0.142l0.301,-0c0.375,-0 0.556,0.007 0.764,0.067c0.241,0.075 0.368,0.324 0.395,0.513c0.034,0.108 0.161,0.074 0.148,-0.027c-0.007,-0.263 0.033,-0.654 0.073,-0.904c0.014,-0.074 -0.04,-0.081 -0.08,-0.061c-0.141,0.061 -0.449,0.075 -0.744,0.075l-1.306,-0c-0.341,-0 -0.663,-0.034 -1.004,-0.034c-0.108,-0 -0.114,0.128 -0.021,0.135c0.342,0.067 0.55,0.202 0.59,0.567c0.02,0.175 0.04,0.452 0.04,0.985Z" style="fill:#fff;"/>
        <path id="path11128" d="M7.627,14.539l-0,3.953l-0.001,0.128l-0.001,0.237l-0.001,0.229l-0.002,0.223l-0.003,0.209l-0.002,0.195l-0.004,0.189l-0.004,0.176l-0.004,0.168l-0.005,0.162l-0.005,0.155l-0.005,0.142l-0.006,0.135l-0.012,0.243l-0.007,0.115l-0.013,0.202l-0.015,0.175l-0.007,0.081l-0.008,0.075l-0.007,0.067l-0.008,0.061l-0.008,0.06l-0.014,0.108l-0.008,0.048l-0.014,0.081l-0.014,0.074c-0.246,0.998 -1.348,1.214 -2.554,1.464c-0.285,0.034 -0.285,0.465 0.105,0.465l10.615,0c0.957,0 1.172,-0.04 1.279,-0.499c0.212,-1.073 0.353,-2.435 0.353,-2.793c-0,-0.283 -0.353,-0.324 -0.46,-0.034c-0.141,0.432 -0.356,0.965 -0.639,1.323c-0.356,0.357 -0.782,0.607 -1.314,0.681c-0.533,0.101 -1.386,0.142 -2.236,0.142c-1.421,-0 -2.201,-0.075 -2.449,-0.466c-0.249,-0.357 -0.319,-1.248 -0.319,-3.751l-0,-1.687c-0,-0.425 0.104,-0.458 0.638,-0.458l1.065,-0c1.845,-0 2.734,0.209 3.087,0.823c0.214,0.391 0.32,0.708 0.356,0.924c0.034,0.29 0.426,0.256 0.426,-0.034c0,-2.105 0.105,-3.002 0.179,-3.575c0.034,-0.25 -0.215,-0.324 -0.323,-0.142c-0.104,0.175 -0.389,0.499 -0.815,0.641c-0.32,0.108 -1.136,0.216 -3.125,0.216l-0.746,-0c-0.742,-0.068 -0.742,-0.034 -0.742,-0.466l-0,-1.929c-0,-1.107 0.034,-2.071 0.07,-2.395c0.071,-0.574 0.141,-0.648 0.887,-0.648l0.923,0c1.278,0 1.916,0.041 2.627,0.25c0.673,0.182 1.207,0.971 1.348,1.754c0.07,0.432 0.534,0.357 0.497,-0.108c-0.07,-0.891 0,-2.213 0.178,-3.07c0.037,-0.182 -0.071,-0.256 -0.141,-0.256c-0.037,-0 -0.178,0.04 -0.356,0.148c-0.319,0.108 -1.526,0.142 -3.406,0.142l-3.658,-0c-1.102,-0 -1.918,-0.108 -3.088,-0.108c-0.392,-0 -0.426,0.391 -0.036,0.499c0.887,0.216 1.669,0.607 1.81,1.538c0.142,0.898 0.142,1.572 0.142,3.718Z" style="fill:#fff;"/>
        <path id="path11130" d="M9.558,-0l-0.304,-0l-0.296,0.007l-0.288,0.013l-0.282,0.02l-0.274,0.021l-0.268,0.027l-0.262,0.027l-0.256,0.04l-0.25,0.041l-0.244,0.047l-0.239,0.047l-0.234,0.054l-0.228,0.061l-0.224,0.067l-0.219,0.068l-0.215,0.074l-0.211,0.081l-0.208,0.081l-0.204,0.088l-0.201,0.087l-0.391,0.203l-0.382,0.216l-0.373,0.229l-0.366,0.256l-0.361,0.27l-0.358,0.284c-1.225,0.984 -2.007,2.118 -2.3,2.907c-0.293,0.736 0,1.282 0.343,1.525c0.293,0.25 0.685,0.148 0.782,-0.391c0.392,-2.463 1.957,-4.878 6.015,-4.878c4.401,-0 8.655,2.118 13.153,6.8c2.493,2.605 5.573,6.794 7.873,10.14c0.193,0.297 0.193,0.399 -0.196,0.891c-1.272,1.579 -2.447,3.151 -3.766,4.824c-2.786,3.447 -3.032,3.791 -5.622,4.729c-0.44,0.196 -0.49,0.641 0.096,0.641l7.041,0c0.636,0 0.636,-0.445 0.1,-0.641c-1.615,-0.641 -2.201,-0.789 -0.979,-2.86c1.272,-2.112 3.179,-4.777 4.058,-5.904c0.196,-0.249 0.293,-0.202 0.49,0.095c1.514,2.219 2.59,3.845 3.372,4.925c1.271,1.774 2.494,3.643 4.503,6.058c3.711,4.385 9.19,9.756 16.618,9.756c4.106,-0 8.218,-1.68 9.779,-5.91c0.1,-0.398 0.053,-0.695 -0.148,-0.891c-0.194,-0.196 -0.388,-0.243 -0.535,0.101c-0.242,0.688 -0.489,1.478 -1.126,2.314c-1.025,1.377 -2.686,2.557 -6.55,2.557c-5.62,0 -10.657,-3.94 -16.035,-10.484c-2.934,-3.548 -5.235,-7.043 -7.924,-10.841c-0.244,-0.338 -0.244,-0.439 -0.047,-0.736c1.222,-1.525 2.346,-2.955 4.059,-4.878c1.809,-2.064 2.103,-2.314 4.642,-3.197c0.489,-0.149 0.542,-0.641 -0.047,-0.641l-7.532,-0c-0.536,-0 -0.586,0.492 -0.047,0.641c1.712,0.587 2.101,0.883 1.369,2.314c-0.88,1.477 -1.955,3.002 -2.983,4.385c-0.39,0.54 -0.49,0.54 -0.686,0.297c-1.368,-1.977 -2.833,-4.041 -4.301,-5.863c-5.183,-6.504 -10.023,-9.998 -16.331,-10.194Z" style="fill:#fff;"/>
        <path id="path11132" d="M44.463,14.539l-0,4.77l-0.007,0.209l0,0.195l-0.007,0.189l0,0.176l-0.006,0.168l-0.007,0.162l0,0.155l-0.007,0.142l-0.006,0.135l-0.014,0.243l-0.006,0.115l-0.014,0.202l-0.013,0.175l-0.007,0.081l-0.007,0.075l-0.006,0.067l-0.007,0.061l-0.013,0.06l-0.014,0.108l-0.007,0.048l-0.013,0.081l-0.013,0.074c-0.248,0.998 -1.347,1.214 -2.552,1.464c-0.288,0.034 -0.288,0.465 0.1,0.465l10.616,0c0.958,0 1.173,-0.04 1.28,-0.499c0.214,-1.073 0.355,-2.435 0.355,-2.793c-0,-0.283 -0.355,-0.324 -0.462,-0.034c-0.141,0.432 -0.355,0.965 -0.637,1.323c-0.355,0.357 -0.783,0.607 -1.312,0.681c-0.536,0.101 -1.387,0.142 -2.238,0.142c-1.426,-0 -2.203,-0.075 -2.451,-0.466c-0.248,-0.357 -0.322,-1.248 -0.322,-3.751l0,-1.687c0,-0.425 0.108,-0.458 0.643,-0.458l1.065,-0c1.842,-0 2.733,0.209 3.088,0.823c0.215,0.391 0.315,0.708 0.355,0.924c0.034,0.29 0.422,0.256 0.422,-0.034c0,-2.105 0.107,-3.002 0.181,-3.575c0.033,-0.25 -0.214,-0.324 -0.322,-0.142c-0.107,0.175 -0.388,0.499 -0.817,0.641c-0.321,0.108 -1.138,0.216 -3.121,0.216l-0.75,-0c-0.744,-0.068 -0.744,-0.034 -0.744,-0.466l0,-1.929c0,-1.107 0.034,-2.071 0.074,-2.395c0.067,-0.574 0.141,-0.648 0.884,-0.648l0.925,0c1.279,0 1.915,0.041 2.625,0.25c0.677,0.182 1.206,0.971 1.353,1.754c0.067,0.432 0.529,0.357 0.496,-0.108c-0.074,-0.891 -0,-2.213 0.174,-3.07c0.04,-0.182 -0.067,-0.256 -0.141,-0.256c-0.033,-0 -0.174,0.04 -0.355,0.148c-0.321,0.108 -1.527,0.142 -3.402,0.142l-3.664,-0c-1.099,-0 -1.916,-0.108 -3.088,-0.108c-0.388,-0 -0.422,0.391 -0.033,0.499c0.884,0.216 1.667,0.607 1.808,1.538c0.141,0.898 0.141,1.572 0.141,3.718Z" style="fill:#fff;"/>
        <path id="path11134" d="M64.784,8.892l-5.432,-0l-0.167,-0.007l-0.583,0l-0.134,-0.007l-0.241,0l-0.114,-0.006l-0.107,-0l-0.1,-0.007l-0.101,-0l-0.087,-0.007l-0.087,0l-0.087,-0.007l-0.147,-0.013l-0.067,-0l-0.067,-0.007l-0.121,-0.013l-0.054,-0.007l-0.046,-0.007l-0.047,-0.013l-0.047,-0.007l-0.04,-0.007l-0.041,-0.013l-0.033,-0.007l-0.04,-0.007c-0.389,-0.108 -0.67,-0.216 -0.884,-0.432c-0.215,-0.215 -0.463,-0.182 -0.463,0.25c0,1.505 -0.214,2.935 -0.214,3.252c0,0.398 0.395,0.465 0.496,0.108c0.147,-0.466 0.502,-1.181 1.031,-1.498c0.817,-0.432 3.128,-0.398 3.838,-0.398c0.456,0 0.529,0.108 0.529,0.715c0,0.29 0.074,1.113 0.074,3.65l0,3.542c0,2.678 -0.147,3.785 -0.214,4.291c-0.107,0.965 -1.099,1.106 -2.345,1.464c-0.355,0.108 -0.355,0.465 0.074,0.465l6.812,0c0.462,0 0.502,-0.357 0.141,-0.465c-1.38,-0.466 -1.983,-0.607 -2.164,-1.788c-0.107,-0.857 -0.107,-1.754 -0.107,-4.149l-0,-3.394c-0,-2.361 0.074,-3.616 0.141,-3.933c0.04,-0.29 0.073,-0.398 0.535,-0.398c1.668,0 2.485,0.108 3.088,0.25c0.884,0.256 1.139,0.863 1.387,1.504c0.14,0.324 0.462,0.25 0.495,-0.067c0.074,-1.329 0.074,-2.26 0.462,-3.218c0.074,-0.257 -0.18,-0.365 -0.388,-0.216c-0.462,0.317 -1.139,0.533 -1.775,0.573c-0.502,0 -1.246,0.034 -2.559,0.034Z" style="fill:#fff;"/>
        <path id="path11136" d="M73.264,14.539l0,4.77l-0.007,0.209l0,0.195l-0.006,0.189l-0,0.176l-0.007,0.168l-0.007,0.162l0,0.155l-0.006,0.142l-0.007,0.135l-0.014,0.243l-0.006,0.115l-0.014,0.202l-0.013,0.175l-0.007,0.081l-0.006,0.075l-0.007,0.067l-0.007,0.061l-0.013,0.06l-0.014,0.108l-0.006,0.048l-0.014,0.081l-0.013,0.074c-0.248,0.998 -1.346,1.214 -2.552,1.464c-0.288,0.034 -0.288,0.465 0.1,0.465l10.617,0c0.957,0 1.172,-0.04 1.279,-0.499c0.214,-1.073 0.355,-2.435 0.355,-2.793c-0,-0.283 -0.355,-0.324 -0.462,-0.034c-0.141,0.432 -0.355,0.965 -0.636,1.323c-0.355,0.357 -0.784,0.607 -1.32,0.681c-0.529,0.101 -1.38,0.142 -2.23,0.142c-1.42,-0 -2.204,-0.075 -2.452,-0.466c-0.248,-0.357 -0.321,-1.248 -0.321,-3.751l-0,-1.687c-0,-0.425 0.107,-0.458 0.643,-0.458l1.065,-0c1.842,-0 2.732,0.209 3.087,0.823c0.208,0.391 0.315,0.708 0.355,0.924c0.034,0.29 0.422,0.256 0.422,-0.034c0,-2.105 0.108,-3.002 0.181,-3.575c0.034,-0.25 -0.214,-0.324 -0.321,-0.142c-0.107,0.175 -0.389,0.499 -0.817,0.641c-0.322,0.108 -1.139,0.216 -3.128,0.216l-0.744,-0c-0.743,-0.068 -0.743,-0.034 -0.743,-0.466l-0,-1.929c-0,-1.107 0.033,-2.071 0.073,-2.395c0.067,-0.574 0.141,-0.648 0.884,-0.648l0.925,0c1.279,0 1.915,0.041 2.625,0.25c0.677,0.182 1.206,0.971 1.353,1.754c0.067,0.432 0.53,0.357 0.496,-0.108c-0.074,-0.891 0,-2.213 0.174,-3.07c0.04,-0.182 -0.067,-0.256 -0.14,-0.256c-0.034,-0 -0.175,0.04 -0.355,0.148c-0.322,0.108 -1.528,0.142 -3.41,0.142l-3.657,-0c-1.098,-0 -1.915,-0.108 -3.088,-0.108c-0.388,-0 -0.422,0.391 -0.033,0.499c0.884,0.216 1.668,0.607 1.808,1.538c0.141,0.898 0.141,1.572 0.141,3.718Z" style="fill:#fff;"/>
        <path id="path11138" d="M86.66,13.608l-0,6.112l-0.007,0.122l0,0.114l-0.006,0.115l-0,0.108l-0.007,0.108l-0,0.101l-0.007,0.101l-0.007,0.095l-0.006,0.101l-0,0.088l-0.007,0.094l-0.007,0.088l-0.006,0.081l-0.007,0.087l-0.007,0.081l-0.006,0.075l-0,0.074l-0.007,0.074l-0.02,0.202l-0.007,0.061l0,0.061l-0.007,0.054l-0.006,0.06l-0.007,0.048l-0,0.054l-0.007,0.047c-0.14,1.039 -0.455,1.322 -1.808,1.68c-0.389,0.108 -0.322,0.465 0.074,0.465l6.175,0c0.429,0 0.429,-0.357 0.034,-0.465c-1.561,-0.425 -1.809,-0.756 -2.023,-1.896c-0.074,-0.432 -0.107,-0.823 -0.107,-1.963l-0,-1.505c-0,-0.681 0.033,-0.749 0.214,-0.749c0.569,0 1.139,-0.074 1.634,-0.107c0.389,-0.034 0.637,0.033 0.958,0.715c1.065,2.071 1.989,3.751 3.302,5.006c0.811,0.715 2.164,1.146 3.476,1.146c0.744,0 1.347,-0.148 1.494,-0.222c0.1,-0.034 0.067,-0.25 -0.074,-0.284c-0.14,-0.033 -1.065,-0.283 -2.237,-1.248c-1.239,-1.005 -2.98,-3.258 -4.186,-5.795c-0.141,-0.317 -0.074,-0.432 0.107,-0.533l0.71,-0.465c0.636,-0.392 1.487,-1.539 1.487,-3.043c0,-1.032 -0.248,-4.183 -5.573,-4.041c-2.27,-0 -5.144,0.398 -5.646,0.465c-0.422,0.074 -0.455,0.432 -0,0.466c0.676,0.074 1.46,0.182 1.708,0.432c0.107,0.141 0.214,0.317 0.281,0.782c0.04,0.607 0.141,1.471 0.141,2.753Zm2.204,2.253l-0,-3.899l0.006,-0.129l0,-0.465l0.007,-0.101l-0,-0.277l0.007,-0.081l-0,-0.074l0.006,-0.074l0,-0.068l0.007,-0.06l0,-0.061l0.007,-0.054l-0,-0.054l0.006,-0.047l0.007,-0.041l0,-0.047l0.007,-0.034l0.007,-0.04l0.006,-0.034l0,-0.027l0.02,-0.081l0.014,-0.04c0.073,-0.25 0.14,-0.358 0.636,-0.358c2.485,-0 3.905,1.889 3.905,4.034c-0,2.045 -1.52,2.686 -2.693,2.686c-0.75,-0 -1.172,-0 -1.634,-0.034c-0.288,-0.041 -0.321,-0.142 -0.321,-0.54Z" style="fill:#fff;"/>
    </g>
</svg>
