<?xml version="1.0" encoding="UTF-8" standalone="no"?>
<!DOCTYPE svg PUBLIC "-//W3C//DTD SVG 1.1//EN" "http://www.w3.org/Graphics/SVG/1.1/DTD/svg11.dtd">
<svg width="100%" height="100%" viewBox="0 0 169 45" version="1.1" xmlns="http://www.w3.org/2000/svg" xmlns:xlink="http://www.w3.org/1999/xlink" xml:space="preserve" xmlns:serif="http://www.serif.com/" style="fill-rule:evenodd;clip-rule:evenodd;stroke-linejoin:round;stroke-miterlimit:2;">
    <path d="M34.356,24.419c0,6.682 -10.25,14.82 -16.355,18.649c-6.107,-3.827 -16.355,-11.964 -16.355,-18.649l-0,-22.773l32.71,-0l0,22.773Zm1.646,-24.419l-36.002,-0l-0,24.419c-0,9.816 17.675,20.386 18.001,20.581c0.326,-0.195 18.001,-10.765 18.001,-20.581l-0,-24.419Z" style="fill:#fff;fill-rule:nonzero;"/>
    <path d="M11.276,10.556c0.511,-0 0.927,-0.415 0.927,-0.926c-0,-0.511 -0.416,-0.927 -0.927,-0.927c-0.511,0 -0.926,0.416 -0.926,0.927c0,0.511 0.415,0.926 0.926,0.926" style="fill:#fff;fill-rule:nonzero;"/>
    <path d="M24.706,10.556c0.511,-0 0.926,-0.415 0.926,-0.926c0,-0.511 -0.415,-0.927 -0.926,-0.927c-0.511,0 -0.926,0.416 -0.926,0.927c-0,0.511 0.415,0.926 0.926,0.926" style="fill:#fff;fill-rule:nonzero;"/>
    <path d="M19.877,24.753c-0,-0.92 -0.507,-1.325 -0.852,-1.496l0.197,-0.216c0.229,-0.253 0.616,-0.382 1.149,-0.382c0.867,-0 2.248,0.201 3.995,0.585l-0,-0.001c0.067,0.016 0.142,0.031 0.218,0.049c-0,0 0.475,0.119 1.159,0.235c0.341,0.063 0.65,0.109 0.847,0.121c0.458,0.053 0.95,0.089 1.431,0.086l-1.942,-7.559c0.232,0.134 0.534,0.253 0.888,0.256l0.01,0l2.579,7.984l0.103,0.338l-9.782,-0Zm3.033,6.368l-0.002,0.018l-0.001,0.035l-0.007,0.142c-0.011,0.377 -0.058,0.741 -0.112,1.092c-0.11,0.696 -0.283,1.323 -0.459,1.845c-0.177,0.526 -0.353,0.948 -0.489,1.246c-0.071,0.146 -0.127,0.263 -0.166,0.342c-0.043,0.083 -0.066,0.128 -0.066,0.128l-0.188,-0.098l-0.133,-0.066l-0.719,-0.369l-0.129,-0.068l-0.096,-0.048l-0.094,-0.049c-0,-0 0.015,-0.032 0.044,-0.095c0.028,-0.067 0.071,-0.167 0.124,-0.294c0.106,-0.26 0.247,-0.64 0.381,-1.107c0.132,-0.463 0.258,-1.015 0.324,-1.601c0.031,-0.292 0.058,-0.597 0.051,-0.899l0,-0.115l0.002,-0.028l-0,-0.005l-0.003,-0.053l-0.017,-0.256c-0.002,-0.094 -0.013,-0.16 -0.025,-0.218l-0.028,-0.189c-0.064,-0.266 -0.132,-0.534 -0.251,-0.757c-0.106,-0.234 -0.247,-0.432 -0.404,-0.601c0,0 -0.078,-0.089 -0.22,-0.207c-0.02,-0.016 -0.04,-0.033 -0.059,-0.048c-0.048,-0.036 -0.103,-0.072 -0.162,-0.112c-0.025,-0.017 -0.05,-0.036 -0.075,-0.053c-0.008,-0.005 -0.018,-0.008 -0.026,-0.013c-0.062,-0.038 -0.133,-0.073 -0.205,-0.109c-0.017,-0.009 -0.034,-0.017 -0.048,-0.025c-0.004,-0.002 -0.007,-0.003 -0.012,-0.005c-0.392,-0.189 -0.928,-0.351 -1.639,-0.351c-0.711,0 -1.247,0.162 -1.639,0.351c-0.005,0.002 -0.009,0.003 -0.014,0.005c-0.014,0.008 -0.031,0.016 -0.046,0.025c-0.073,0.036 -0.144,0.071 -0.205,0.109c-0.01,0.005 -0.018,0.008 -0.026,0.013c-0.025,0.017 -0.05,0.036 -0.075,0.053c-0.059,0.04 -0.116,0.076 -0.162,0.112c-0.02,0.015 -0.04,0.032 -0.06,0.048c-0.142,0.118 -0.22,0.207 -0.22,0.207c-0.157,0.169 -0.297,0.367 -0.403,0.601c-0.119,0.223 -0.189,0.491 -0.252,0.757l-0.028,0.189c-0.011,0.058 -0.023,0.124 -0.024,0.218l-0.017,0.256l-0.003,0.053l-0,0.148c-0.005,0.302 0.021,0.607 0.053,0.899c0.064,0.586 0.19,1.138 0.324,1.601c0.134,0.467 0.274,0.847 0.38,1.107c0.053,0.127 0.096,0.227 0.124,0.294c0.028,0.063 0.043,0.095 0.043,0.095l-0.092,0.049l-0.096,0.048l-0.129,0.068l-0.721,0.369l-0.131,0.066l-0.19,0.098c-0,-0 -0.022,-0.045 -0.065,-0.128c-0.038,-0.079 -0.094,-0.196 -0.165,-0.342c-0.136,-0.298 -0.313,-0.72 -0.49,-1.246c-0.175,-0.522 -0.349,-1.149 -0.46,-1.845c-0.053,-0.351 -0.101,-0.715 -0.11,-1.092l-0.007,-0.142l-0.002,-0.035l-0.003,-0.018l-0,-0.01l0.002,-0.043l0.001,-0.063l0.004,-0.26c-0,-0.076 0.008,-0.182 0.019,-0.296l0.035,-0.326c0.073,-0.41 0.164,-0.822 0.341,-1.212c0.16,-0.392 0.389,-0.763 0.658,-1.08c0.263,-0.326 0.581,-0.582 0.892,-0.797c0.157,-0.106 0.321,-0.191 0.474,-0.278c0.159,-0.071 0.313,-0.143 0.462,-0.204c0.152,-0.049 0.298,-0.096 0.435,-0.142c0.139,-0.036 0.271,-0.065 0.395,-0.093c0.114,-0.026 0.219,-0.041 0.318,-0.054c0.149,-0.02 0.476,-0.055 0.875,-0.056c0.397,0.001 0.724,0.036 0.873,0.056c0.101,0.013 0.205,0.028 0.319,0.054c0.123,0.028 0.257,0.057 0.396,0.093c0.137,0.046 0.281,0.093 0.433,0.142c0.151,0.061 0.304,0.133 0.463,0.204c0.154,0.087 0.318,0.172 0.475,0.278c0.311,0.215 0.628,0.471 0.891,0.797c0.27,0.317 0.498,0.688 0.659,1.08c0.177,0.39 0.268,0.802 0.34,1.212l0.035,0.326c0.012,0.114 0.02,0.22 0.018,0.296l0.005,0.26l0.002,0.063l0,0.053Zm-1.429,5.709l-0.142,0.278c-0.071,0.139 -0.248,0.192 -0.399,0.115l-1.285,-0.655c-0.151,-0.075 -0.213,-0.247 -0.144,-0.386l0.142,-0.279c0.07,-0.138 0.248,-0.189 0.399,-0.113l1.283,0.653c0.151,0.077 0.215,0.249 0.146,0.387m-5.136,-0.262l-1.283,0.655c-0.151,0.077 -0.33,0.024 -0.399,-0.115l-0.142,-0.278c-0.07,-0.138 -0.005,-0.31 0.144,-0.387l1.285,-0.653c0.15,-0.076 0.329,-0.025 0.398,0.113l0.141,0.279c0.071,0.139 0.007,0.311 -0.144,0.386m-10.002,-11.815l0.103,-0.338l2.577,-7.984l0.011,0c0.354,-0.003 0.657,-0.122 0.887,-0.256l-1.942,7.559c0.481,0.003 0.974,-0.033 1.431,-0.086c0.198,-0.012 0.507,-0.058 0.848,-0.121c0.685,-0.116 1.158,-0.235 1.158,-0.235c0.078,-0.018 0.152,-0.033 0.22,-0.049l0,0.001c1.745,-0.384 3.126,-0.585 3.995,-0.585c0.531,-0 0.918,0.129 1.149,0.382l0.197,0.216c-0.347,0.171 -0.852,0.576 -0.852,1.496l-9.782,-0Zm1.059,-16.779c0.231,-0.285 0.759,-1.057 1.611,-0.779c0.794,0.258 0.521,0.842 1.08,1.004c0.033,0.008 0.084,0.013 0.126,-0.018l-0.002,-0c0.043,-0.03 0.054,-0.08 0.056,-0.116c0.018,-0.581 -0.62,-0.503 -0.62,-1.337c-0,-0.896 0.896,-1.159 1.239,-1.291c0.342,-0.131 0.395,-0.554 0.395,-0.554c0,-0 0.051,0.423 0.395,0.554c0.343,0.132 1.239,0.395 1.239,1.291c0,0.834 -0.642,0.756 -0.622,1.337c0.004,0.035 0.014,0.084 0.055,0.112c0.04,0.032 0.091,0.027 0.124,0.019c0.561,-0.162 0.288,-0.746 1.082,-1.004c0.852,-0.277 1.379,0.493 1.609,0.779c0.232,0.284 0.65,0.205 0.65,0.205c0,-0 -0.385,0.18 -0.405,0.547c-0.018,0.366 0.007,1.3 -0.845,1.577c-0.793,0.258 -0.917,-0.376 -1.464,-0.177c-0.033,0.013 -0.078,0.038 -0.091,0.087l-0.002,0c-0.016,0.047 0.004,0.093 0.023,0.124c0.328,0.482 0.798,0.042 1.287,0.717c0.528,0.724 -0.043,1.463 -0.241,1.773c-0.2,0.307 0.005,0.679 0.005,0.679c-0,0 -0.291,-0.31 -0.645,-0.215c-0.356,0.095 -1.234,0.409 -1.762,-0.317c-0.49,-0.675 0.074,-0.986 -0.283,-1.446c-0.023,-0.028 -0.061,-0.063 -0.111,-0.059c-0.051,-0.004 -0.089,0.031 -0.112,0.059c-0.357,0.46 0.207,0.771 -0.285,1.446c-0.526,0.724 -1.406,0.412 -1.759,0.317c-0.356,-0.095 -0.646,0.215 -0.646,0.215c0,0 0.206,-0.372 0.005,-0.679c-0.2,-0.31 -0.769,-1.049 -0.243,-1.773c0.492,-0.675 0.963,-0.235 1.289,-0.717c0.018,-0.031 0.038,-0.076 0.023,-0.122c-0.015,-0.048 -0.058,-0.073 -0.091,-0.086c-0.548,-0.199 -0.67,0.435 -1.462,0.175c-0.854,-0.276 -0.827,-1.211 -0.847,-1.576c-0.02,-0.366 -0.404,-0.546 -0.404,-0.546c0,0 0.417,0.079 0.649,-0.205m10.132,7.273l0,7.107c-0.335,-0.367 -0.914,-0.714 -1.903,-0.714c-1.168,-0 -2.878,0.314 -4.213,0.607l0.001,-0c0,-0 -1.764,0.393 -2.102,0.384l1.844,-7.182c0.182,0.036 1.274,-0.263 1.934,-0.452c0.658,-0.182 1.838,-0.42 1.922,-0.438c0.399,-0.065 0.767,-0.106 1.068,-0.106c0.813,-0 1.241,0.451 1.449,0.794m0.465,8.555l0.002,-0c0.782,0.001 1.072,0.661 1.12,0.784c-0,0.001 0.008,0.028 0.006,0.053c0,-0 0,0.001 -0.001,0.001c-0,0.007 -0.002,0.012 -0.005,0.018c-0.004,0.012 -0.012,0.025 -0.024,0.038c-0.034,0.038 -0.052,0.057 -0.092,0.057c-0.017,-0 -0.03,-0.01 -0.065,-0.037c-0.101,-0.076 -0.287,-0.216 -0.941,-0.226c-0.652,0.01 -0.838,0.15 -0.939,0.226c-0.035,0.027 -0.05,0.037 -0.065,0.037c-0.04,-0 -0.058,-0.019 -0.092,-0.057c-0.014,-0.013 -0.02,-0.026 -0.025,-0.038c-0.002,-0.006 -0.004,-0.011 -0.005,-0.018l-0,-0.001c-0.002,-0.025 0.006,-0.052 0.006,-0.053c0.047,-0.123 0.336,-0.783 1.12,-0.784Zm0.468,-8.555c0.207,-0.343 0.635,-0.794 1.448,-0.794c0.301,-0 0.671,0.041 1.07,0.106c0.084,0.018 1.263,0.256 1.922,0.438c0.66,0.189 1.75,0.488 1.933,0.452l1.843,7.182c-0.336,0.009 -2.101,-0.384 -2.101,-0.384l0.002,-0c-1.337,-0.293 -3.047,-0.607 -4.213,-0.607c-0.991,-0 -1.57,0.347 -1.904,0.714l0,-7.107Zm2.364,-7.273c0.23,-0.285 0.757,-1.057 1.611,-0.779c0.794,0.258 0.521,0.842 1.08,1.004c0.035,0.008 0.084,0.013 0.126,-0.018l-0.002,-0c0.043,-0.03 0.055,-0.08 0.058,-0.116c0.018,-0.581 -0.622,-0.503 -0.622,-1.337c0,-0.896 0.897,-1.159 1.237,-1.291c0.344,-0.131 0.397,-0.554 0.397,-0.554c0,-0 0.053,0.423 0.396,0.554c0.342,0.132 1.238,0.395 1.238,1.291c0,0.834 -0.64,0.756 -0.62,1.337c0.002,0.035 0.012,0.084 0.053,0.112c0.04,0.032 0.091,0.027 0.124,0.019c0.561,-0.162 0.286,-0.746 1.082,-1.004c0.85,-0.277 1.378,0.493 1.611,0.779c0.23,0.284 0.648,0.205 0.648,0.205c0,-0 -0.385,0.18 -0.405,0.547c-0.02,0.366 0.008,1.3 -0.845,1.577c-0.792,0.258 -0.916,-0.376 -1.464,-0.177c-0.031,0.013 -0.076,0.038 -0.091,0.087c-0.016,0.047 0.003,0.093 0.022,0.124c0.327,0.482 0.797,0.042 1.288,0.717c0.526,0.724 -0.043,1.463 -0.243,1.773c-0.2,0.307 0.005,0.679 0.005,0.679c-0,0 -0.291,-0.31 -0.645,-0.215c-0.356,0.095 -1.234,0.409 -1.762,-0.317c-0.489,-0.675 0.075,-0.986 -0.283,-1.446c-0.023,-0.028 -0.061,-0.063 -0.11,-0.059c-0.052,-0.004 -0.09,0.031 -0.113,0.059c-0.357,0.46 0.207,0.771 -0.284,1.446c-0.526,0.724 -1.406,0.412 -1.76,0.317c-0.356,-0.095 -0.647,0.215 -0.647,0.215c-0,0 0.207,-0.372 0.007,-0.679c-0.201,-0.31 -0.77,-1.049 -0.242,-1.773c0.488,-0.675 0.961,-0.235 1.287,-0.717c0.018,-0.031 0.038,-0.076 0.023,-0.122c-0.016,-0.048 -0.058,-0.073 -0.091,-0.086c-0.546,-0.199 -0.67,0.435 -1.462,0.175c-0.854,-0.276 -0.827,-1.211 -0.847,-1.576c-0.02,-0.366 -0.403,-0.546 -0.403,-0.546c-0,0 0.416,0.079 0.648,-0.205m-17.54,-4.683l0,21.128c0,4.942 7.465,11.978 14.71,16.697c7.245,-4.721 14.709,-11.757 14.709,-16.697l0,-21.128l-29.419,0Z" style="fill:#fff;fill-rule:nonzero;"/>
    <path d="M156.09,12.559c0,-2.493 -1.103,-5.182 -3.989,-5.182c-1.57,-0 -3.611,1.071 -3.611,4.381c-0,2.236 1.088,5.138 4.064,5.138c1.814,-0 3.536,-1.36 3.536,-4.337m-9.11,-0.318c-0,-3.022 2.266,-5.334 5.379,-5.334c3.49,-0 5.243,2.524 5.243,5.184c-0,3.051 -2.327,5.273 -5.243,5.273c-3.355,-0 -5.379,-2.402 -5.379,-5.123" style="fill:#fff;fill-rule:nonzero;"/>
    <path d="M52.361,7.149c-0.054,0.085 -0.063,0.23 0.012,0.318l0.377,0.03c0.379,0.03 0.65,0.135 0.756,0.317c0.256,0.454 0.288,2.192 0.288,3.128l-0,1.737c-0,2.297 -0.832,4.019 -3.024,4.019c-2.311,0 -3.067,-1.601 -3.067,-4.034l0,-3.263c0,-1.572 0.03,-1.828 0.907,-1.904l0.362,-0.03c0.074,-0.05 0.068,-0.228 0.013,-0.318l-3.817,0c-0.055,0.09 -0.061,0.268 0.013,0.318l0.377,0.03c0.877,0.076 0.906,0.332 0.906,1.904l0,3.566c0,1.798 0.378,2.901 1.18,3.566c0.739,0.635 1.783,0.83 2.825,0.83c1.118,0 2.236,-0.392 2.886,-1.103c0.845,-0.906 1.057,-2.296 1.057,-3.611l0,-1.707c0,-0.847 -0.015,-2.583 0.212,-3.083c0.076,-0.195 0.379,-0.332 0.756,-0.362l0.362,-0.03c0.063,-0.076 0.083,-0.227 0.017,-0.318l-3.398,0Z" style="fill:#fff;fill-rule:nonzero;"/>
    <path d="M82.97,7.149c-0.065,0.09 -0.071,0.258 0.017,0.333l0.271,0.03c0.529,0.061 0.68,0.182 0.68,0.287c-0,0.106 -0.015,0.272 -0.136,0.589c-0.256,0.65 -0.951,2.357 -1.404,3.385c-0.333,0.802 -0.983,2.357 -1.451,3.354c-0.756,-1.722 -1.451,-3.46 -2.147,-5.212c-0.468,-1.15 -0.724,-1.965 -0.754,-2.116c0.015,-0.12 0.136,-0.211 0.709,-0.287l0.227,-0.03c0.088,-0.075 0.081,-0.243 0.017,-0.333l-3.495,0c-0.073,0.095 -0.072,0.257 0.018,0.333l0.273,0.03c0.648,0.076 0.875,0.393 1.222,1.239l2.66,6.558c0.271,0.635 0.529,1.374 0.696,2.01c0.075,0.029 0.151,0.044 0.225,0.044c0.061,0 0.122,-0.015 0.167,-0.044c0.257,-0.801 0.966,-2.554 1.571,-3.944l0.816,-1.859c0.68,-1.541 1.27,-2.765 1.692,-3.475c0.197,-0.318 0.423,-0.498 0.786,-0.529l0.455,-0.03c0.061,-0.063 0.071,-0.24 0.011,-0.333l-3.126,0Z" style="fill:#fff;fill-rule:nonzero;"/>
    <path d="M68.304,7.149l-3.443,0c-0.064,0.086 -0.059,0.258 0.027,0.333l0.256,0.03c0.604,0.076 0.846,0.167 0.936,0.302c0.288,0.454 0.303,2.419 0.303,3.128l0,3.234c0,0.317 0,0.559 -0.061,0.635l-0.03,-0c-0.709,-0.726 -1.465,-1.556 -2.492,-2.736l-1.466,-1.647c-0.475,-0.548 -2.215,-2.478 -2.565,-3.279l-2.473,0c-0.066,0.09 -0.055,0.258 0.021,0.333l0.257,0.03c0.362,0.046 0.726,0.152 0.936,0.362c0.318,0.349 0.334,0.665 0.334,1.088l0,4.367c0,0.726 0.015,2.569 -0.197,3.113c-0.076,0.167 -0.317,0.273 -0.665,0.303l-0.408,0.044c-0.076,0.076 -0.078,0.238 -0.012,0.333l3.424,-0c0.065,-0.088 0.063,-0.232 -0.012,-0.333l-0.469,-0.044c-0.377,-0.03 -0.665,-0.121 -0.769,-0.288c-0.244,-0.453 -0.273,-2.417 -0.273,-3.128l-0,-3.293c-0,-0.453 0.015,-0.801 0.076,-0.983l0.03,0c0.317,0.333 1.344,1.572 1.753,2.04l3.505,3.989c1.315,1.496 1.753,2.025 1.933,2.281c0.167,0 0.258,-0.074 0.288,-0.165c-0.046,-0.394 -0.046,-2.192 -0.046,-2.645l-0,-3.611c-0,-0.695 -0.03,-2.569 0.226,-3.113c0.062,-0.12 0.364,-0.241 0.847,-0.317l0.212,-0.03c0.076,-0.076 0.088,-0.238 0.017,-0.333" style="fill:#fff;fill-rule:nonzero;"/>
    <path d="M70.481,7.512c0.891,0.076 0.921,0.332 0.921,1.934l0,5.379c0,1.602 -0.03,1.814 -0.921,1.92l-0.377,0.045c-0.075,0.074 -0.068,0.246 -0.013,0.332l3.862,0c0.054,-0.093 0.063,-0.283 -0.012,-0.332l-0.377,-0.045c-0.891,-0.106 -0.923,-0.318 -0.923,-1.92l0,-5.379c0,-1.602 0.032,-1.858 0.923,-1.934l0.377,-0.03c0.075,-0.049 0.066,-0.24 0.012,-0.332l-3.861,-0c-0.056,0.092 -0.063,0.283 0.012,0.332l0.377,0.03Z" style="fill:#fff;fill-rule:nonzero;"/>
    <path d="M115.924,7.512c0.892,0.076 0.922,0.332 0.922,1.934l-0,5.379c-0,1.602 -0.03,1.814 -0.922,1.92l-0.377,0.045c-0.074,0.074 -0.068,0.246 -0.013,0.332l3.862,0c0.055,-0.093 0.063,-0.283 -0.012,-0.332l-0.377,-0.045c-0.891,-0.106 -0.923,-0.318 -0.923,-1.92l0,-5.379c0,-1.602 0.032,-1.858 0.923,-1.934l0.377,-0.03c0.075,-0.049 0.067,-0.24 0.012,-0.332l-3.86,-0c-0.057,0.092 -0.063,0.283 0.011,0.332l0.377,0.03Z" style="fill:#fff;fill-rule:nonzero;"/>
    <path d="M132.568,7.557c0.453,0.076 0.68,0.151 1.194,1.148l1.783,3.475c0.437,0.847 0.483,1.044 0.483,1.874l0,0.771c0,1.616 -0.03,1.828 -0.906,1.919l-0.468,0.046c-0.075,0.073 -0.068,0.245 -0.014,0.333l4.121,-0c0.054,-0.088 0.061,-0.26 -0.014,-0.333l-0.574,-0.046c-0.815,-0.06 -0.906,-0.303 -0.906,-1.919l0,-0.785c0,-1.163 0.03,-1.315 0.71,-2.448l0.952,-1.648c0.756,-1.298 1.209,-2.266 1.995,-2.387l0.424,-0.076c0.087,-0.076 0.091,-0.238 0.016,-0.332l-2.956,-0c-0.069,0.087 -0.064,0.246 0.023,0.332l0.272,0.032c0.362,0.044 0.635,0.15 0.635,0.241c-0,0.18 -0.559,1.209 -0.983,1.995c-0.453,0.875 -0.952,1.752 -1.42,2.552c-0.589,-1.042 -1.148,-2.236 -1.707,-3.354c-0.076,-0.151 -0.468,-1.013 -0.468,-1.163c-0,-0.121 0.105,-0.182 0.633,-0.271l0.197,-0.032c0.074,-0.073 0.086,-0.245 0.016,-0.332l-3.476,-0c-0.062,0.087 -0.06,0.246 0.014,0.332l0.424,0.076Z" style="fill:#fff;fill-rule:nonzero;"/>
    <path d="M165.818,7.149l-6.615,0c-0.055,0.093 -0.063,0.283 0.012,0.333l0.241,0.03c0.877,0.106 0.906,0.317 0.906,1.903l0,5.441c0,1.586 -0.029,1.783 -0.906,1.889l-0.379,0.044c-0.072,0.075 -0.066,0.247 -0.013,0.333l3.985,-0c0.054,-0.093 0.063,-0.283 -0.012,-0.333l-0.514,-0.044c-0.892,-0.077 -0.922,-0.303 -0.922,-1.889l0,-2.101c0,-0.392 0.045,-0.409 0.5,-0.409l1.027,0c0.574,0 0.951,0.017 1.163,0.077c0.288,0.091 0.423,0.302 0.483,0.574l0.152,0.59c0.083,0.071 0.24,0.084 0.332,0.045l0,-3.08c-0.099,-0.043 -0.272,-0.03 -0.332,0.043l-0.136,0.604c-0.091,0.393 -0.211,0.468 -0.378,0.529c-0.181,0.059 -0.665,0.091 -1.284,0.091l-1.027,-0c-0.455,-0 -0.5,-0 -0.5,-0.409l0,-3.187c0,-0.576 0,-0.605 0.454,-0.605l0.921,-0c0.635,-0 1.135,0.014 1.465,0.091c0.756,0.211 0.938,0.755 1.059,1.435c0.106,0.091 0.318,0.045 0.362,-0.046c-0.03,-0.561 -0.044,-1.267 -0.044,-1.949" style="fill:#fff;fill-rule:nonzero;"/>
    <path d="M102.02,11.773c-0.439,0.332 -1.013,0.392 -1.557,0.392c-0.771,0 -0.997,-0.03 -1.042,-0.074c-0.046,-0.062 -0.046,-0.227 -0.046,-0.5l-0,-3.535c-0,-0.423 0.046,-0.484 0.982,-0.484c1.678,-0 2.419,1.134 2.419,2.327c-0,1.027 -0.348,1.556 -0.756,1.874m4.396,5.228c-0.407,-0.031 -0.786,-0.196 -1.042,-0.423c-1.027,-0.862 -1.829,-2.071 -3.037,-4.019c-0.076,-0.121 -0.15,-0.272 -0.076,-0.363c0.756,-0.302 1.889,-1.088 1.889,-2.524c0,-1.057 -0.529,-1.736 -1.254,-2.115c-0.316,-0.171 -0.671,-0.28 -1.052,-0.348c-0.046,-0.006 -0.216,-0.029 -0.378,-0.046c-0.005,0 -0.227,-0.013 -0.389,-0.013l-2.655,-0c-0.167,-0 -0.447,0.008 -0.514,0.012c-0.328,0.018 -0.629,0.038 -0.905,0.062c-0.121,0.062 -0.121,0.303 -0.015,0.379l0.483,0.06c0.62,0.076 0.665,0.332 0.665,1.768l-0,5.425c-0,1.586 -0.03,1.782 -0.906,1.887l-0.378,0.047c-0.074,0.086 -0.067,0.248 -0.015,0.332l3.775,0c0.055,-0.089 0.061,-0.271 -0.013,-0.332l-0.318,-0.047c-0.875,-0.12 -0.906,-0.301 -0.906,-1.887l-0,-1.905c-0,-0.316 0.031,-0.331 0.711,-0.331c0.604,-0 0.845,0.15 1.072,0.483c0.468,0.68 1.088,1.722 1.482,2.281c1.072,1.526 1.843,1.904 3.128,1.904c0.286,-0 0.527,-0.03 0.663,-0.075c0.076,-0.061 0.061,-0.182 -0.015,-0.212" style="fill:#fff;fill-rule:nonzero;"/>
    <path d="M95.099,14.961c-0.392,0.786 -0.801,1.315 -1.072,1.466c-0.334,0.167 -0.771,0.226 -1.935,0.226c-1.33,0 -1.646,-0.165 -1.828,-0.347c-0.242,-0.256 -0.288,-0.771 -0.288,-1.571l0,-2.131c0,-0.393 0.046,-0.408 0.5,-0.408l0.876,-0c0.589,-0 0.951,0.015 1.163,0.076c0.303,0.076 0.409,0.302 0.468,0.574l0.137,0.588c0.06,0.073 0.232,0.087 0.331,0.037l0,-3.078c-0.099,-0.05 -0.271,-0.037 -0.331,0.034l-0.122,0.621c-0.074,0.377 -0.18,0.468 -0.362,0.529c-0.181,0.06 -0.65,0.091 -1.284,0.091l-0.876,-0c-0.454,-0 -0.5,-0 -0.5,-0.423l0,-3.022c0,-0.574 0,-0.606 0.453,-0.606l1.089,0c0.665,0 1.147,0.015 1.465,0.091c0.786,0.197 0.923,0.726 1.148,1.436c0.076,0.091 0.318,0.061 0.379,-0.03l-0.228,-1.965l-6.719,0c-0.055,0.093 -0.063,0.283 0.011,0.333l0.242,0.029c0.891,0.106 0.921,0.333 0.921,1.904l0,5.44c0,1.587 -0.074,1.813 -0.936,1.889l-0.5,0.045c-0.072,0.074 -0.066,0.246 -0.013,0.332l7.529,0l0.659,-2.054c-0.06,-0.136 -0.272,-0.182 -0.377,-0.106" style="fill:#fff;fill-rule:nonzero;"/>
    <path d="M111.264,11.667l-1.209,-0.756c-0.559,-0.362 -1.284,-0.982 -1.284,-1.857c0,-0.696 0.318,-1.677 1.798,-1.677c1.451,-0 1.858,0.981 2.054,1.707c0.076,0.091 0.318,0.044 0.379,-0.047l-0.273,-1.842c-0.12,-0 -0.332,-0.045 -0.529,-0.091c-0.392,-0.121 -0.936,-0.197 -1.404,-0.197c-1.965,-0 -3.083,1.164 -3.083,2.6c-0,1.239 0.876,2.099 1.632,2.599l1.436,0.936c1.101,0.711 1.239,1.45 1.239,2.115c-0,0.907 -0.621,1.739 -1.889,1.739c-1.754,-0 -2.372,-1.481 -2.599,-2.251c-0.061,-0.091 -0.288,-0.062 -0.364,0.044l0.409,2.116c0.288,0.165 1.088,0.559 2.357,0.559c1.965,-0 3.219,-1.133 3.219,-2.795c-0,-1.436 -0.937,-2.313 -1.889,-2.902" style="fill:#fff;fill-rule:nonzero;"/>
    <path d="M130.626,7.149l-9.15,0l-0.483,1.784c0.059,0.12 0.271,0.196 0.392,0.105c0.167,-0.377 0.317,-0.709 0.679,-1.042c0.379,-0.349 1.209,-0.378 1.86,-0.378l0.831,-0c0.454,-0 0.454,0.014 0.454,0.484l-0,6.754c-0,1.586 -0.076,1.812 -0.938,1.889l-0.543,0.044c-0.099,0.063 -0.097,0.243 -0.043,0.333l4.164,-0c0.054,-0.093 0.062,-0.283 -0.012,-0.333l-0.483,-0.044c-0.877,-0.091 -0.906,-0.303 -0.906,-1.889l-0,-6.724c-0,-0.5 -0.015,-0.514 0.438,-0.514l1.072,-0c0.832,-0 1.406,0.12 1.753,0.378c0.227,0.166 0.332,0.725 0.377,1.102c0.076,0.091 0.333,0.091 0.394,-0.03l0.144,-1.919Z" style="fill:#fff;fill-rule:nonzero;"/>
    <path d="M74.131,35.501l-0.489,0.067c-0.131,0.13 -0.136,0.431 -0.03,0.579l6.11,-0c0.106,-0.148 0.101,-0.449 -0.03,-0.579l-0.489,-0.067c-1.046,-0.134 -1.246,-0.2 -1.246,-2.557l0,-8.275c0,-2.357 0.2,-2.425 1.246,-2.557l0.489,-0.068c0.131,-0.131 0.136,-0.43 0.03,-0.577l-6.11,-0c-0.106,0.147 -0.101,0.446 0.03,0.577l0.489,0.068c1.046,0.132 1.246,0.2 1.246,2.557l-0,8.275c-0,2.357 -0.2,2.423 -1.246,2.557" style="fill:#fff;fill-rule:nonzero;"/>
    <path d="M159.838,28.762c-1.069,-0 -1.069,-0.045 -1.069,-0.756l0,-4.627c0,-1.023 0.023,-1.09 1.18,-1.09c1.935,0 3.07,1.535 3.07,3.292c-0,2.114 -1.001,3.181 -3.181,3.181m8.831,6.985c-0.268,-0.023 -0.913,-0.157 -1.535,-0.69c-1.046,-0.868 -2.159,-2.759 -3.938,-5.761c-0.088,-0.134 -0.133,-0.313 -0,-0.379c1.09,-0.445 2.669,-1.467 2.669,-3.515c0,-1.601 -0.822,-2.646 -1.957,-3.247c-0.655,-0.357 -1.551,-0.573 -2.59,-0.678c-0.035,-0.003 -0.169,-0.011 -0.503,-0.011l-3.938,-0c-0.243,-0 -0.577,0.013 -0.635,0.016c-0.605,0.03 -1.173,0.07 -1.676,0.118c-0.178,0.111 -0.178,0.466 -0.023,0.622l0.579,0.067c1.045,0.111 1.069,0.378 1.069,2.513l-0,8.141c-0,2.359 -0.202,2.425 -1.247,2.559l-0.488,0.066c-0.169,0.131 -0.149,0.432 -0.034,0.579l6.112,0c0.106,-0.147 0.101,-0.448 -0.03,-0.579l-0.489,-0.066c-1.044,-0.134 -1.246,-0.2 -1.246,-2.559l0,-2.846c0,-0.469 0.023,-0.49 0.69,-0.49c0.734,-0 0.979,0.089 1.38,0.756c0.534,0.868 1.156,2.091 1.756,3.025c1.358,2.069 2.514,2.936 4.65,2.936c0.779,0 1.2,-0.066 1.467,-0.132c0.068,-0.113 0.068,-0.358 -0.043,-0.445" style="fill:#fff;fill-rule:nonzero;"/>
    <path d="M56.36,32.854c-1.024,2.291 -1.379,2.402 -3.847,2.402c-1.78,0 -2.136,-0.177 -2.403,-0.488c-0.333,-0.379 -0.378,-1.179 -0.378,-2.292l0,-7.807c0,-2.313 0.201,-2.381 1.246,-2.536l0.489,-0.089c0.149,-0.093 0.158,-0.422 0.037,-0.578l-6.256,0c-0.116,0.156 -0.096,0.485 0.035,0.578l0.624,0.089c1.045,0.155 1.245,0.223 1.245,2.536l0,8.275c0,2.312 -0.2,2.38 -1.245,2.512l-0.669,0.113c-0.168,0.092 -0.147,0.422 -0.029,0.577l10.934,0l0.907,-3.158c-0.111,-0.178 -0.467,-0.244 -0.69,-0.134" style="fill:#fff;fill-rule:nonzero;"/>
    <path d="M70.633,32.854c-0.779,1.802 -1.267,2.447 -4.092,2.402c-1.869,0 -2.248,-0.177 -2.514,-0.488c-0.334,-0.379 -0.377,-1.179 -0.377,-2.314l-0,-2.825c-0,-0.556 0.021,-0.6 0.532,-0.6l1.069,-0c1.935,-0 2.312,0.044 2.468,0.979l0.157,0.89c0.15,0.114 0.481,0.129 0.643,0.034l0,-4.682c-0.162,-0.109 -0.493,-0.091 -0.643,0.043l-0.157,0.756c-0.156,0.956 -0.533,0.979 -2.468,0.979l-1.069,-0c-0.511,-0 -0.532,-0.023 -0.532,-0.6l-0,-3.76c-0,-1.267 -0,-1.312 0.956,-1.312l1.49,0c0.601,0 1.267,0.045 1.78,0.2c0.711,0.177 1.044,0.733 1.401,2.023c0.177,0.134 0.622,0.09 0.711,-0.087l-0.342,-3.026l-10.209,0c-0.106,0.148 -0.099,0.449 0.03,0.578l0.355,0.044c1.047,0.156 1.248,0.224 1.248,2.581l-0,8.275c-0,2.357 -0.201,2.425 -1.248,2.535l-0.822,0.09c-0.13,0.129 -0.135,0.43 -0.029,0.577l11.472,0l0.902,-3.158c-0.133,-0.223 -0.512,-0.289 -0.712,-0.134" style="fill:#fff;fill-rule:nonzero;"/>
    <path d="M95.323,35.73l1.055,-3.343c-0.111,-0.2 -0.466,-0.289 -0.666,-0.089c-0.624,1.447 -1.846,3.314 -4.65,3.314c-2.868,0 -5.827,-2.312 -5.827,-7.051c-0,-4.56 2.846,-6.561 5.672,-6.561c2.936,-0 3.936,1.846 4.315,3.248c0.155,0.156 0.556,0.133 0.711,-0.044l-0.311,-3.471c-0.2,-0.044 -0.355,-0.067 -0.623,-0.134c-1.046,-0.266 -2.579,-0.489 -3.848,-0.489c-2.246,-0 -4.494,0.645 -6.139,1.89c-1.646,1.269 -2.802,3.294 -2.802,5.895c-0,2.915 1.356,4.938 3.159,6.117c1.601,1.045 3.492,1.49 5.693,1.49c1.153,0 2.359,-0.24 3.05,-0.415c0.088,-0.026 1.163,-0.336 1.211,-0.357" style="fill:#fff;fill-rule:nonzero;"/>
    <path d="M110.053,32.854c-0.779,1.802 -1.269,2.447 -4.094,2.402c-1.867,0 -2.246,-0.177 -2.512,-0.488c-0.335,-0.379 -0.379,-1.179 -0.379,-2.314l-0,-2.825c-0,-0.556 0.023,-0.6 0.534,-0.6l1.069,-0c1.935,-0 2.312,0.044 2.467,0.979l0.156,0.89c0.152,0.114 0.483,0.129 0.645,0.034l-0,-4.682c-0.162,-0.109 -0.493,-0.091 -0.645,0.043l-0.156,0.756c-0.155,0.956 -0.532,0.979 -2.467,0.979l-1.069,-0c-0.511,-0 -0.534,-0.023 -0.534,-0.6l-0,-3.76c-0,-1.267 -0,-1.312 0.957,-1.312l1.491,0c0.6,0 1.267,0.045 1.778,0.2c0.713,0.177 1.045,0.733 1.403,2.023c0.177,0.134 0.621,0.09 0.711,-0.087l-0.343,-3.026l-10.208,0c-0.106,0.148 -0.101,0.449 0.029,0.578l0.356,0.044c1.045,0.156 1.247,0.224 1.247,2.581l0,8.275c0,2.357 -0.202,2.425 -1.247,2.535l-0.822,0.09c-0.131,0.129 -0.136,0.43 -0.03,0.577l11.473,0l0.901,-3.158c-0.134,-0.223 -0.511,-0.289 -0.711,-0.134" style="fill:#fff;fill-rule:nonzero;"/>
    <path d="M119.33,27.783l-1.38,-0.734c-1.467,-0.778 -2.112,-1.78 -2.112,-2.713c0,-1.179 0.735,-2.336 2.513,-2.336c1.892,0 2.669,1.491 3.003,2.647c0.201,0.155 0.601,0.134 0.712,-0.066l-0.467,-3.004c-1.045,-0.2 -1.89,-0.466 -3.047,-0.466c-3.248,-0 -4.894,1.867 -4.894,4.07c0,2.002 1.467,3.358 3.136,4.292l0.956,0.535c1.669,0.934 2.27,1.956 2.27,3.225c-0,1.356 -0.956,2.38 -2.647,2.38c-2.18,0 -3.381,-2.38 -3.781,-3.515c-0.179,-0.155 -0.556,-0.134 -0.69,0.09l0.667,3.381c0.445,0.266 1.601,0.933 3.647,0.933c3.227,-0 5.161,-1.802 5.161,-4.337c-0,-2.247 -1.601,-3.626 -3.047,-4.382" style="fill:#fff;fill-rule:nonzero;"/>
    <path d="M138.773,21.466l-13.736,0l-0.745,2.781c0.09,0.221 0.556,0.289 0.713,0.155c0.822,-1.801 1.423,-2.046 3.47,-2.046l1.246,-0c0.577,-0 0.6,0.045 0.6,0.979l0,9.608c0,2.358 -0.2,2.425 -1.245,2.515l-0.935,0.11c-0.131,0.093 -0.135,0.424 -0.028,0.578l6.864,-0c0.106,-0.147 0.101,-0.447 -0.029,-0.578l-0.801,-0.089c-1.045,-0.111 -1.245,-0.178 -1.245,-2.536l-0,-9.608c-0,-0.934 0.021,-0.979 0.6,-0.979l1.267,-0c2.38,-0 2.804,0.422 3.093,2.157c0.2,0.155 0.577,0.112 0.69,-0.066l0.221,-2.981Z" style="fill:#fff;fill-rule:nonzero;"/>
    <path d="M152.08,32.854c-0.779,1.802 -1.268,2.447 -4.094,2.402c-1.867,0 -2.246,-0.177 -2.512,-0.488c-0.334,-0.379 -0.379,-1.179 -0.379,-2.314l0,-2.825c0,-0.556 0.023,-0.6 0.534,-0.6l1.069,-0c1.935,-0 2.312,0.044 2.468,0.979l0.155,0.89c0.152,0.114 0.483,0.129 0.645,0.034l0,-4.682c-0.162,-0.109 -0.493,-0.091 -0.645,0.043l-0.155,0.756c-0.156,0.956 -0.533,0.979 -2.468,0.979l-1.069,-0c-0.511,-0 -0.534,-0.023 -0.534,-0.6l0,-3.76c0,-1.267 0,-1.312 0.958,-1.312l1.49,0c0.601,0 1.267,0.045 1.778,0.2c0.713,0.177 1.046,0.733 1.403,2.023c0.177,0.134 0.622,0.09 0.711,-0.087l-0.342,-3.026l-10.209,0c-0.106,0.148 -0.101,0.449 0.03,0.578l0.355,0.044c1.046,0.156 1.247,0.224 1.247,2.581l0,8.275c0,2.357 -0.201,2.425 -1.247,2.535l-0.822,0.09c-0.13,0.129 -0.135,0.43 -0.03,0.577l11.473,0l0.901,-3.158c-0.134,-0.223 -0.511,-0.289 -0.711,-0.134" style="fill:#fff;fill-rule:nonzero;"/>
</svg>
