<?xml version="1.0" encoding="UTF-8" standalone="no"?>
<!DOCTYPE svg PUBLIC "-//W3C//DTD SVG 1.1//EN" "http://www.w3.org/Graphics/SVG/1.1/DTD/svg11.dtd">
<svg width="100%" height="100%" viewBox="0 0 202 61" version="1.1" xmlns="http://www.w3.org/2000/svg" xmlns:xlink="http://www.w3.org/1999/xlink" xml:space="preserve" xmlns:serif="http://www.serif.com/" style="fill-rule:evenodd;clip-rule:evenodd;stroke-linejoin:round;stroke-miterlimit:2;">
    <g>
        <g transform="matrix(0.875644,0,0,1,-152.539,-2.27374e-13)">
            <g transform="matrix(16.1507,0,0,16.1507,172.751,45.6588)">
                <path d="M0.723,-0l-0.192,-0l-0.311,-0.54l-0.004,-0c0.001,0.022 0.002,0.045 0.003,0.068c0.001,0.023 0.005,0.113 0.006,0.136l0,0.336l-0.135,-0l-0,-0.714l0.191,0l0.31,0.535l0.003,-0c-0,-0.022 -0.001,-0.044 -0.002,-0.066c-0.001,-0.022 -0.002,-0.044 -0.003,-0.066c-0.001,-0.021 -0.001,-0.043 -0.002,-0.065l-0,-0.338l0.136,0l0,0.714Z" style="fill:#fff;fill-rule:nonzero;"/>
            </g>
            <g transform="matrix(16.1507,0,0,16.1507,185.881,45.6588)">
                <path d="M0.574,-0.274c0,0.046 -0.006,0.086 -0.018,0.121c-0.012,0.035 -0.03,0.065 -0.053,0.089c-0.024,0.025 -0.052,0.043 -0.084,0.055c-0.033,0.013 -0.07,0.019 -0.111,0.019c-0.038,-0 -0.074,-0.006 -0.106,-0.019c-0.032,-0.012 -0.06,-0.03 -0.083,-0.055c-0.024,-0.024 -0.042,-0.054 -0.055,-0.089c-0.013,-0.035 -0.019,-0.075 -0.019,-0.121c-0,-0.06 0.011,-0.112 0.032,-0.154c0.022,-0.042 0.052,-0.074 0.092,-0.095c0.04,-0.022 0.087,-0.033 0.142,-0.033c0.051,-0 0.096,0.011 0.136,0.033c0.04,0.021 0.071,0.053 0.093,0.095c0.023,0.042 0.034,0.094 0.034,0.154Zm-0.377,0c-0,0.036 0.004,0.066 0.011,0.09c0.008,0.025 0.021,0.043 0.037,0.056c0.017,0.012 0.038,0.018 0.065,0.018c0.026,0 0.048,-0.006 0.064,-0.018c0.017,-0.013 0.029,-0.031 0.036,-0.056c0.008,-0.024 0.012,-0.054 0.012,-0.09c-0,-0.036 -0.004,-0.066 -0.012,-0.09c-0.007,-0.024 -0.019,-0.042 -0.036,-0.054c-0.017,-0.012 -0.038,-0.018 -0.065,-0.018c-0.039,-0 -0.068,0.013 -0.086,0.04c-0.017,0.028 -0.026,0.068 -0.026,0.122Z" style="fill:#fff;fill-rule:nonzero;"/>
            </g>
            <g transform="matrix(16.1507,0,0,16.1507,195.881,45.6588)">
                <path d="M0.308,-0.109c0.016,0 0.032,-0.002 0.048,-0.005c0.015,-0.003 0.031,-0.007 0.046,-0.012l-0,0.111c-0.016,0.007 -0.036,0.013 -0.059,0.018c-0.024,0.004 -0.05,0.007 -0.078,0.007c-0.032,-0 -0.062,-0.006 -0.088,-0.016c-0.025,-0.011 -0.046,-0.029 -0.061,-0.055c-0.014,-0.026 -0.022,-0.063 -0.022,-0.11l0,-0.263l-0.071,-0l-0,-0.063l0.082,-0.05l0.043,-0.115l0.095,-0l0,0.116l0.153,0l-0,0.112l-0.153,-0l0,0.263c0,0.021 0.006,0.036 0.018,0.047c0.012,0.01 0.028,0.015 0.047,0.015Z" style="fill:#fff;fill-rule:nonzero;"/>
            </g>
            <g transform="matrix(16.1507,0,0,16.1507,202.892,45.6588)">
                <path d="M0.308,-0.109c0.016,0 0.032,-0.002 0.048,-0.005c0.015,-0.003 0.031,-0.007 0.046,-0.012l-0,0.111c-0.016,0.007 -0.036,0.013 -0.059,0.018c-0.024,0.004 -0.05,0.007 -0.078,0.007c-0.032,-0 -0.062,-0.006 -0.088,-0.016c-0.025,-0.011 -0.046,-0.029 -0.061,-0.055c-0.014,-0.026 -0.022,-0.063 -0.022,-0.11l0,-0.263l-0.071,-0l-0,-0.063l0.082,-0.05l0.043,-0.115l0.095,-0l0,0.116l0.153,0l-0,0.112l-0.153,-0l0,0.263c0,0.021 0.006,0.036 0.018,0.047c0.012,0.01 0.028,0.015 0.047,0.015Z" style="fill:#fff;fill-rule:nonzero;"/>
            </g>
            <g transform="matrix(16.1507,0,0,16.1507,209.902,45.6588)">
                <path d="M0.227,-0.546l0,0.546l-0.149,-0l0,-0.546l0.149,0Zm-0.074,-0.214c0.022,0 0.041,0.005 0.057,0.016c0.016,0.01 0.024,0.029 0.024,0.057c-0,0.028 -0.008,0.047 -0.024,0.057c-0.016,0.011 -0.035,0.016 -0.057,0.016c-0.023,0 -0.042,-0.005 -0.058,-0.016c-0.015,-0.01 -0.023,-0.029 -0.023,-0.057c-0,-0.028 0.008,-0.047 0.023,-0.057c0.016,-0.011 0.035,-0.016 0.058,-0.016Z" style="fill:#fff;fill-rule:nonzero;"/>
            </g>
            <g transform="matrix(16.1507,0,0,16.1507,214.831,45.6588)">
                <path d="M0.388,-0.556c0.058,-0 0.105,0.016 0.141,0.047c0.035,0.032 0.053,0.083 0.053,0.153l0,0.356l-0.149,-0l0,-0.319c0,-0.039 -0.007,-0.068 -0.021,-0.088c-0.014,-0.02 -0.037,-0.03 -0.067,-0.03c-0.045,-0 -0.076,0.015 -0.093,0.046c-0.017,0.031 -0.025,0.076 -0.025,0.134l0,0.257l-0.149,0l0,-0.546l0.114,0l0.02,0.07l0.008,-0c0.012,-0.019 0.027,-0.034 0.044,-0.046c0.017,-0.012 0.037,-0.02 0.058,-0.026c0.021,-0.005 0.043,-0.008 0.066,-0.008Z" style="fill:#fff;fill-rule:nonzero;"/>
            </g>
            <g transform="matrix(16.1507,0,0,16.1507,225.446,45.6588)">
                <path d="M0.238,0.24c-0.076,0 -0.135,-0.013 -0.175,-0.04c-0.04,-0.026 -0.06,-0.063 -0.06,-0.111c-0,-0.033 0.01,-0.061 0.031,-0.083c0.02,-0.022 0.05,-0.038 0.09,-0.047c-0.015,-0.007 -0.029,-0.017 -0.04,-0.032c-0.011,-0.015 -0.017,-0.031 -0.017,-0.047c-0,-0.021 0.006,-0.038 0.018,-0.052c0.012,-0.014 0.029,-0.028 0.052,-0.041c-0.028,-0.012 -0.051,-0.032 -0.068,-0.059c-0.017,-0.028 -0.025,-0.06 -0.025,-0.097c-0,-0.04 0.009,-0.074 0.026,-0.101c0.017,-0.028 0.043,-0.05 0.076,-0.064c0.034,-0.015 0.074,-0.022 0.122,-0.022c0.01,-0 0.022,0 0.035,0.002c0.014,0.001 0.026,0.003 0.037,0.004c0.011,0.002 0.019,0.003 0.023,0.004l0.19,0l0,0.076l-0.085,0.022c0.008,0.012 0.013,0.025 0.017,0.038c0.004,0.014 0.006,0.028 0.006,0.044c0,0.058 -0.02,0.104 -0.061,0.137c-0.041,0.032 -0.098,0.049 -0.17,0.049c-0.017,-0.001 -0.034,-0.002 -0.049,-0.004c-0.008,0.006 -0.013,0.012 -0.017,0.018c-0.004,0.007 -0.006,0.014 -0.006,0.021c-0,0.007 0.003,0.013 0.009,0.018c0.006,0.005 0.015,0.008 0.027,0.011c0.013,0.002 0.028,0.003 0.046,0.003l0.093,0c0.06,0 0.105,0.013 0.137,0.039c0.031,0.025 0.047,0.063 0.047,0.113c-0,0.064 -0.027,0.113 -0.08,0.149c-0.053,0.035 -0.13,0.052 -0.229,0.052Zm0.006,-0.097c0.036,0 0.066,-0.003 0.092,-0.01c0.025,-0.007 0.045,-0.016 0.059,-0.028c0.013,-0.012 0.02,-0.027 0.02,-0.044c0,-0.014 -0.004,-0.024 -0.012,-0.032c-0.008,-0.008 -0.02,-0.014 -0.036,-0.017c-0.016,-0.004 -0.037,-0.005 -0.062,-0.005l-0.077,-0c-0.018,-0 -0.035,0.003 -0.049,0.009c-0.015,0.005 -0.026,0.014 -0.034,0.024c-0.009,0.011 -0.013,0.023 -0.013,0.037c-0,0.021 0.01,0.037 0.029,0.048c0.02,0.012 0.048,0.018 0.083,0.018Zm0.024,-0.414c0.028,0 0.049,-0.009 0.062,-0.026c0.013,-0.017 0.019,-0.041 0.019,-0.07c0,-0.033 -0.007,-0.058 -0.02,-0.074c-0.014,-0.017 -0.034,-0.025 -0.061,-0.025c-0.027,0 -0.048,0.008 -0.061,0.025c-0.014,0.016 -0.021,0.041 -0.021,0.074c0,0.029 0.007,0.053 0.02,0.07c0.014,0.017 0.034,0.026 0.062,0.026Z" style="fill:#fff;fill-rule:nonzero;"/>
            </g>
            <g transform="matrix(16.1507,0,0,16.1507,234.57,45.6588)">
                <path d="M0.227,-0.76l0,0.155c0,0.027 -0.001,0.053 -0.003,0.077c-0.001,0.025 -0.003,0.042 -0.004,0.052l0.008,-0c0.012,-0.019 0.026,-0.034 0.042,-0.046c0.016,-0.012 0.034,-0.02 0.053,-0.026c0.02,-0.005 0.041,-0.008 0.063,-0.008c0.04,-0 0.074,0.007 0.103,0.021c0.03,0.013 0.052,0.035 0.069,0.065c0.016,0.029 0.024,0.067 0.024,0.114l0,0.356l-0.149,0l0,-0.319c0,-0.039 -0.007,-0.068 -0.021,-0.088c-0.015,-0.02 -0.037,-0.03 -0.067,-0.03c-0.03,-0 -0.053,0.007 -0.071,0.021c-0.017,0.014 -0.029,0.034 -0.036,0.061c-0.007,0.027 -0.011,0.059 -0.011,0.098l0,0.257l-0.149,-0l0,-0.76l0.149,0Z" style="fill:#fff;fill-rule:nonzero;"/>
            </g>
            <g transform="matrix(16.1507,0,0,16.1507,245.185,45.6588)">
                <path d="M0.302,-0.557c0.073,-0 0.129,0.016 0.168,0.048c0.039,0.032 0.059,0.08 0.059,0.145l-0,0.364l-0.104,-0l-0.029,-0.074l-0.004,-0c-0.016,0.019 -0.031,0.035 -0.048,0.048c-0.016,0.012 -0.035,0.021 -0.056,0.027c-0.021,0.006 -0.047,0.009 -0.077,0.009c-0.032,-0 -0.061,-0.006 -0.087,-0.019c-0.025,-0.012 -0.045,-0.031 -0.06,-0.057c-0.015,-0.025 -0.022,-0.058 -0.022,-0.097c-0,-0.058 0.02,-0.101 0.061,-0.128c0.041,-0.028 0.102,-0.043 0.183,-0.046l0.095,-0.003l-0,-0.024c-0,-0.028 -0.008,-0.049 -0.023,-0.063c-0.015,-0.013 -0.035,-0.02 -0.062,-0.02c-0.026,0 -0.052,0.004 -0.078,0.011c-0.025,0.008 -0.051,0.017 -0.076,0.029l-0.049,-0.101c0.029,-0.015 0.061,-0.027 0.097,-0.036c0.036,-0.009 0.073,-0.013 0.112,-0.013Zm0.079,0.304l-0.058,0.002c-0.048,0.001 -0.081,0.01 -0.1,0.026c-0.019,0.016 -0.028,0.037 -0.028,0.063c-0,0.023 0.006,0.039 0.02,0.048c0.013,0.01 0.031,0.015 0.052,0.015c0.032,-0 0.059,-0.01 0.081,-0.028c0.022,-0.019 0.033,-0.046 0.033,-0.081l-0,-0.045Z" style="fill:#fff;fill-rule:nonzero;"/>
            </g>
            <g transform="matrix(16.1507,0,0,16.1507,254.94,45.6588)">
                <path d="M0.719,-0.556c0.062,-0 0.109,0.016 0.141,0.047c0.031,0.032 0.047,0.083 0.047,0.153l0,0.356l-0.149,-0l-0,-0.319c-0,-0.039 -0.007,-0.068 -0.02,-0.088c-0.014,-0.02 -0.034,-0.03 -0.062,-0.03c-0.04,-0 -0.068,0.014 -0.084,0.042c-0.017,0.028 -0.025,0.069 -0.025,0.121l-0,0.274l-0.149,0l-0,-0.319c-0,-0.026 -0.003,-0.048 -0.009,-0.065c-0.006,-0.018 -0.015,-0.031 -0.027,-0.04c-0.012,-0.009 -0.027,-0.013 -0.046,-0.013c-0.028,-0 -0.049,0.007 -0.065,0.021c-0.016,0.014 -0.027,0.034 -0.034,0.061c-0.007,0.027 -0.01,0.059 -0.01,0.098l0,0.257l-0.149,-0l0,-0.546l0.114,0l0.02,0.07l0.008,-0c0.011,-0.019 0.025,-0.034 0.042,-0.046c0.017,-0.012 0.035,-0.02 0.055,-0.026c0.021,-0.005 0.041,-0.008 0.062,-0.008c0.04,-0 0.074,0.006 0.102,0.019c0.028,0.013 0.049,0.034 0.064,0.061l0.013,-0c0.016,-0.028 0.039,-0.048 0.069,-0.061c0.03,-0.013 0.061,-0.019 0.092,-0.019Z" style="fill:#fff;fill-rule:nonzero;"/>
            </g>
            <g transform="matrix(16.1507,0,0,16.1507,270.799,45.6588)">
                <path d="M0.459,-0.162c-0,0.037 -0.009,0.068 -0.026,0.094c-0.018,0.025 -0.044,0.045 -0.078,0.058c-0.035,0.013 -0.077,0.02 -0.129,0.02c-0.038,-0 -0.071,-0.003 -0.098,-0.008c-0.027,-0.004 -0.054,-0.013 -0.082,-0.024l-0,-0.123c0.03,0.013 0.061,0.024 0.095,0.033c0.034,0.009 0.064,0.013 0.09,0.013c0.029,-0 0.05,-0.004 0.062,-0.013c0.013,-0.009 0.019,-0.02 0.019,-0.034c0,-0.009 -0.003,-0.017 -0.008,-0.025c-0.005,-0.007 -0.015,-0.015 -0.032,-0.025c-0.017,-0.009 -0.043,-0.021 -0.078,-0.036c-0.034,-0.014 -0.062,-0.029 -0.084,-0.043c-0.022,-0.015 -0.039,-0.032 -0.049,-0.052c-0.011,-0.02 -0.016,-0.046 -0.016,-0.077c-0,-0.05 0.02,-0.088 0.059,-0.114c0.039,-0.025 0.091,-0.038 0.157,-0.038c0.034,-0 0.066,0.003 0.097,0.01c0.031,0.007 0.063,0.018 0.095,0.033l-0.045,0.107c-0.027,-0.011 -0.052,-0.021 -0.076,-0.029c-0.024,-0.007 -0.048,-0.011 -0.073,-0.011c-0.022,0 -0.038,0.003 -0.05,0.009c-0.011,0.006 -0.016,0.015 -0.016,0.027c-0,0.009 0.003,0.016 0.008,0.023c0.006,0.007 0.017,0.015 0.034,0.023c0.016,0.008 0.04,0.019 0.072,0.032c0.031,0.013 0.058,0.026 0.081,0.04c0.022,0.014 0.04,0.031 0.052,0.051c0.013,0.02 0.019,0.047 0.019,0.079Z" style="fill:#fff;fill-rule:nonzero;"/>
            </g>
            <g transform="matrix(16.1507,0,0,16.1507,278.827,45.6588)">
                <path d="M0.227,-0.76l0,0.155c0,0.027 -0.001,0.053 -0.003,0.077c-0.001,0.025 -0.003,0.042 -0.004,0.052l0.008,-0c0.012,-0.019 0.026,-0.034 0.042,-0.046c0.016,-0.012 0.034,-0.02 0.053,-0.026c0.02,-0.005 0.041,-0.008 0.063,-0.008c0.04,-0 0.074,0.007 0.103,0.021c0.03,0.013 0.052,0.035 0.069,0.065c0.016,0.029 0.024,0.067 0.024,0.114l0,0.356l-0.149,0l0,-0.319c0,-0.039 -0.007,-0.068 -0.021,-0.088c-0.015,-0.02 -0.037,-0.03 -0.067,-0.03c-0.03,-0 -0.053,0.007 -0.071,0.021c-0.017,0.014 -0.029,0.034 -0.036,0.061c-0.007,0.027 -0.011,0.059 -0.011,0.098l0,0.257l-0.149,-0l0,-0.76l0.149,0Z" style="fill:#fff;fill-rule:nonzero;"/>
            </g>
            <g transform="matrix(16.1507,0,0,16.1507,289.442,45.6588)">
                <path d="M0.227,-0.546l0,0.546l-0.149,-0l0,-0.546l0.149,0Zm-0.074,-0.214c0.022,0 0.041,0.005 0.057,0.016c0.016,0.01 0.024,0.029 0.024,0.057c-0,0.028 -0.008,0.047 -0.024,0.057c-0.016,0.011 -0.035,0.016 -0.057,0.016c-0.023,0 -0.042,-0.005 -0.058,-0.016c-0.015,-0.01 -0.023,-0.029 -0.023,-0.057c-0,-0.028 0.008,-0.047 0.023,-0.057c0.016,-0.011 0.035,-0.016 0.058,-0.016Z" style="fill:#fff;fill-rule:nonzero;"/>
            </g>
            <g transform="matrix(16.1507,0,0,16.1507,294.37,45.6588)">
                <path d="M0.383,-0.556c0.007,-0 0.016,0 0.026,0.001c0.01,0.001 0.018,0.002 0.024,0.003l-0.011,0.14c-0.005,-0.002 -0.012,-0.003 -0.021,-0.004c-0.009,-0.001 -0.017,-0.001 -0.023,-0.001c-0.019,0 -0.038,0.002 -0.056,0.007c-0.018,0.005 -0.034,0.013 -0.049,0.024c-0.014,0.011 -0.025,0.025 -0.033,0.043c-0.009,0.018 -0.013,0.039 -0.013,0.065l0,0.278l-0.149,-0l0,-0.546l0.113,0l0.022,0.092l0.007,-0c0.011,-0.019 0.024,-0.036 0.04,-0.051c0.017,-0.016 0.035,-0.028 0.056,-0.037c0.02,-0.01 0.043,-0.014 0.067,-0.014Z" style="fill:#fff;fill-rule:nonzero;"/>
            </g>
            <g transform="matrix(16.1507,0,0,16.1507,301.705,45.6588)">
                <path d="M0.303,-0.556c0.051,-0 0.094,0.01 0.131,0.029c0.036,0.019 0.064,0.047 0.084,0.084c0.02,0.037 0.03,0.082 0.03,0.135l-0,0.072l-0.352,0c0.001,0.042 0.014,0.075 0.038,0.099c0.023,0.024 0.056,0.036 0.098,0.036c0.035,-0 0.067,-0.004 0.096,-0.011c0.029,-0.007 0.058,-0.018 0.089,-0.032l0,0.115c-0.027,0.014 -0.055,0.023 -0.085,0.029c-0.029,0.007 -0.065,0.01 -0.107,0.01c-0.054,-0 -0.103,-0.01 -0.145,-0.031c-0.042,-0.02 -0.075,-0.05 -0.099,-0.092c-0.024,-0.041 -0.036,-0.093 -0.036,-0.156c-0,-0.064 0.011,-0.117 0.032,-0.159c0.022,-0.043 0.052,-0.075 0.091,-0.096c0.039,-0.021 0.084,-0.032 0.135,-0.032Zm0.001,0.106c-0.029,-0 -0.053,0.009 -0.072,0.028c-0.019,0.018 -0.03,0.047 -0.033,0.087l0.209,0c-0,-0.022 -0.004,-0.042 -0.012,-0.059c-0.007,-0.017 -0.019,-0.031 -0.034,-0.041c-0.015,-0.01 -0.034,-0.015 -0.058,-0.015Z" style="fill:#fff;fill-rule:nonzero;"/>
            </g>
            <g transform="matrix(16.1507,0,0,16.1507,311.247,45.6588)">
            </g>
            <g transform="matrix(16.1507,0,0,16.1507,315.442,45.6588)">
                <path d="M0.675,-0l-0.151,-0l-0,-0.308l-0.283,-0l0,0.308l-0.151,-0l-0,-0.714l0.151,0l0,0.28l0.283,-0l-0,-0.28l0.151,0l-0,0.714Z" style="fill:#fff;fill-rule:nonzero;"/>
            </g>
            <g transform="matrix(16.1507,0,0,16.1507,327.8,45.6588)">
                <path d="M0.303,-0.556c0.051,-0 0.094,0.01 0.131,0.029c0.036,0.019 0.064,0.047 0.084,0.084c0.02,0.037 0.03,0.082 0.03,0.135l-0,0.072l-0.352,0c0.001,0.042 0.014,0.075 0.038,0.099c0.023,0.024 0.056,0.036 0.098,0.036c0.035,-0 0.067,-0.004 0.096,-0.011c0.029,-0.007 0.058,-0.018 0.089,-0.032l0,0.115c-0.027,0.014 -0.055,0.023 -0.085,0.029c-0.029,0.007 -0.065,0.01 -0.107,0.01c-0.054,-0 -0.103,-0.01 -0.145,-0.031c-0.042,-0.02 -0.075,-0.05 -0.099,-0.092c-0.024,-0.041 -0.036,-0.093 -0.036,-0.156c-0,-0.064 0.011,-0.117 0.032,-0.159c0.022,-0.043 0.052,-0.075 0.091,-0.096c0.039,-0.021 0.084,-0.032 0.135,-0.032Zm0.001,0.106c-0.029,-0 -0.053,0.009 -0.072,0.028c-0.019,0.018 -0.03,0.047 -0.033,0.087l0.209,0c-0,-0.022 -0.004,-0.042 -0.012,-0.059c-0.007,-0.017 -0.019,-0.031 -0.034,-0.041c-0.015,-0.01 -0.034,-0.015 -0.058,-0.015Z" style="fill:#fff;fill-rule:nonzero;"/>
            </g>
            <g transform="matrix(16.1507,0,0,16.1507,337.342,45.6588)">
                <path d="M0.302,-0.557c0.073,-0 0.129,0.016 0.168,0.048c0.039,0.032 0.059,0.08 0.059,0.145l-0,0.364l-0.104,-0l-0.029,-0.074l-0.004,-0c-0.016,0.019 -0.031,0.035 -0.048,0.048c-0.016,0.012 -0.035,0.021 -0.056,0.027c-0.021,0.006 -0.047,0.009 -0.077,0.009c-0.032,-0 -0.061,-0.006 -0.087,-0.019c-0.025,-0.012 -0.045,-0.031 -0.06,-0.057c-0.015,-0.025 -0.022,-0.058 -0.022,-0.097c-0,-0.058 0.02,-0.101 0.061,-0.128c0.041,-0.028 0.102,-0.043 0.183,-0.046l0.095,-0.003l-0,-0.024c-0,-0.028 -0.008,-0.049 -0.023,-0.063c-0.015,-0.013 -0.035,-0.02 -0.062,-0.02c-0.026,0 -0.052,0.004 -0.078,0.011c-0.025,0.008 -0.051,0.017 -0.076,0.029l-0.049,-0.101c0.029,-0.015 0.061,-0.027 0.097,-0.036c0.036,-0.009 0.073,-0.013 0.112,-0.013Zm0.079,0.304l-0.058,0.002c-0.048,0.001 -0.081,0.01 -0.1,0.026c-0.019,0.016 -0.028,0.037 -0.028,0.063c-0,0.023 0.006,0.039 0.02,0.048c0.013,0.01 0.031,0.015 0.052,0.015c0.032,-0 0.059,-0.01 0.081,-0.028c0.022,-0.019 0.033,-0.046 0.033,-0.081l-0,-0.045Z" style="fill:#fff;fill-rule:nonzero;"/>
            </g>
            <g transform="matrix(16.1507,0,0,16.1507,347.097,45.6588)">
                <rect x="0.078" y="-0.76" width="0.149" height="0.76" style="fill:#fff;fill-rule:nonzero;"/>
            </g>
            <g transform="matrix(16.1507,0,0,16.1507,352.026,45.6588)">
                <path d="M0.308,-0.109c0.016,0 0.032,-0.002 0.048,-0.005c0.015,-0.003 0.031,-0.007 0.046,-0.012l-0,0.111c-0.016,0.007 -0.036,0.013 -0.059,0.018c-0.024,0.004 -0.05,0.007 -0.078,0.007c-0.032,-0 -0.062,-0.006 -0.088,-0.016c-0.025,-0.011 -0.046,-0.029 -0.061,-0.055c-0.014,-0.026 -0.022,-0.063 -0.022,-0.11l0,-0.263l-0.071,-0l-0,-0.063l0.082,-0.05l0.043,-0.115l0.095,-0l0,0.116l0.153,0l-0,0.112l-0.153,-0l0,0.263c0,0.021 0.006,0.036 0.018,0.047c0.012,0.01 0.028,0.015 0.047,0.015Z" style="fill:#fff;fill-rule:nonzero;"/>
            </g>
            <g transform="matrix(16.1507,0,0,16.1507,359.037,45.6588)">
                <path d="M0.227,-0.76l0,0.155c0,0.027 -0.001,0.053 -0.003,0.077c-0.001,0.025 -0.003,0.042 -0.004,0.052l0.008,-0c0.012,-0.019 0.026,-0.034 0.042,-0.046c0.016,-0.012 0.034,-0.02 0.053,-0.026c0.02,-0.005 0.041,-0.008 0.063,-0.008c0.04,-0 0.074,0.007 0.103,0.021c0.03,0.013 0.052,0.035 0.069,0.065c0.016,0.029 0.024,0.067 0.024,0.114l0,0.356l-0.149,0l0,-0.319c0,-0.039 -0.007,-0.068 -0.021,-0.088c-0.015,-0.02 -0.037,-0.03 -0.067,-0.03c-0.03,-0 -0.053,0.007 -0.071,0.021c-0.017,0.014 -0.029,0.034 -0.036,0.061c-0.007,0.027 -0.011,0.059 -0.011,0.098l0,0.257l-0.149,-0l0,-0.76l0.149,0Z" style="fill:#fff;fill-rule:nonzero;"/>
            </g>
            <g transform="matrix(16.1507,0,0,16.1507,369.651,45.6588)">
                <path d="M0.3,0.01c-0.054,-0 -0.1,-0.01 -0.138,-0.03c-0.038,-0.019 -0.067,-0.05 -0.087,-0.091c-0.02,-0.042 -0.03,-0.095 -0.03,-0.159c-0,-0.067 0.011,-0.121 0.034,-0.163c0.022,-0.043 0.054,-0.074 0.094,-0.093c0.04,-0.02 0.087,-0.03 0.14,-0.03c0.038,-0 0.07,0.004 0.098,0.011c0.027,0.007 0.051,0.016 0.072,0.026l-0.044,0.115c-0.023,-0.009 -0.045,-0.017 -0.065,-0.023c-0.021,-0.006 -0.041,-0.009 -0.061,-0.009c-0.026,-0 -0.048,0.006 -0.065,0.018c-0.017,0.012 -0.03,0.031 -0.039,0.055c-0.008,0.025 -0.012,0.055 -0.012,0.092c-0,0.036 0.004,0.066 0.013,0.09c0.01,0.024 0.023,0.041 0.04,0.053c0.017,0.011 0.038,0.017 0.063,0.017c0.031,0 0.058,-0.004 0.083,-0.012c0.024,-0.009 0.047,-0.02 0.07,-0.035l-0,0.127c-0.023,0.015 -0.047,0.025 -0.072,0.031c-0.025,0.007 -0.056,0.01 -0.094,0.01Z" style="fill:#fff;fill-rule:nonzero;"/>
            </g>
            <g transform="matrix(16.1507,0,0,16.1507,377.955,45.6588)">
                <path d="M0.302,-0.557c0.073,-0 0.129,0.016 0.168,0.048c0.039,0.032 0.059,0.08 0.059,0.145l-0,0.364l-0.104,-0l-0.029,-0.074l-0.004,-0c-0.016,0.019 -0.031,0.035 -0.048,0.048c-0.016,0.012 -0.035,0.021 -0.056,0.027c-0.021,0.006 -0.047,0.009 -0.077,0.009c-0.032,-0 -0.061,-0.006 -0.087,-0.019c-0.025,-0.012 -0.045,-0.031 -0.06,-0.057c-0.015,-0.025 -0.022,-0.058 -0.022,-0.097c-0,-0.058 0.02,-0.101 0.061,-0.128c0.041,-0.028 0.102,-0.043 0.183,-0.046l0.095,-0.003l-0,-0.024c-0,-0.028 -0.008,-0.049 -0.023,-0.063c-0.015,-0.013 -0.035,-0.02 -0.062,-0.02c-0.026,0 -0.052,0.004 -0.078,0.011c-0.025,0.008 -0.051,0.017 -0.076,0.029l-0.049,-0.101c0.029,-0.015 0.061,-0.027 0.097,-0.036c0.036,-0.009 0.073,-0.013 0.112,-0.013Zm0.079,0.304l-0.058,0.002c-0.048,0.001 -0.081,0.01 -0.1,0.026c-0.019,0.016 -0.028,0.037 -0.028,0.063c-0,0.023 0.006,0.039 0.02,0.048c0.013,0.01 0.031,0.015 0.052,0.015c0.032,-0 0.059,-0.01 0.081,-0.028c0.022,-0.019 0.033,-0.046 0.033,-0.081l-0,-0.045Z" style="fill:#fff;fill-rule:nonzero;"/>
            </g>
            <g transform="matrix(16.1507,0,0,16.1507,387.71,45.6588)">
                <path d="M0.383,-0.556c0.007,-0 0.016,0 0.026,0.001c0.01,0.001 0.018,0.002 0.024,0.003l-0.011,0.14c-0.005,-0.002 -0.012,-0.003 -0.021,-0.004c-0.009,-0.001 -0.017,-0.001 -0.023,-0.001c-0.019,0 -0.038,0.002 -0.056,0.007c-0.018,0.005 -0.034,0.013 -0.049,0.024c-0.014,0.011 -0.025,0.025 -0.033,0.043c-0.009,0.018 -0.013,0.039 -0.013,0.065l0,0.278l-0.149,-0l0,-0.546l0.113,0l0.022,0.092l0.007,-0c0.011,-0.019 0.024,-0.036 0.04,-0.051c0.017,-0.016 0.035,-0.028 0.056,-0.037c0.02,-0.01 0.043,-0.014 0.067,-0.014Z" style="fill:#fff;fill-rule:nonzero;"/>
            </g>
            <g transform="matrix(16.1507,0,0,16.1507,395.045,45.6588)">
                <path d="M0.303,-0.556c0.051,-0 0.094,0.01 0.131,0.029c0.036,0.019 0.064,0.047 0.084,0.084c0.02,0.037 0.03,0.082 0.03,0.135l-0,0.072l-0.352,0c0.001,0.042 0.014,0.075 0.038,0.099c0.023,0.024 0.056,0.036 0.098,0.036c0.035,-0 0.067,-0.004 0.096,-0.011c0.029,-0.007 0.058,-0.018 0.089,-0.032l0,0.115c-0.027,0.014 -0.055,0.023 -0.085,0.029c-0.029,0.007 -0.065,0.01 -0.107,0.01c-0.054,-0 -0.103,-0.01 -0.145,-0.031c-0.042,-0.02 -0.075,-0.05 -0.099,-0.092c-0.024,-0.041 -0.036,-0.093 -0.036,-0.156c-0,-0.064 0.011,-0.117 0.032,-0.159c0.022,-0.043 0.052,-0.075 0.091,-0.096c0.039,-0.021 0.084,-0.032 0.135,-0.032Zm0.001,0.106c-0.029,-0 -0.053,0.009 -0.072,0.028c-0.019,0.018 -0.03,0.047 -0.033,0.087l0.209,0c-0,-0.022 -0.004,-0.042 -0.012,-0.059c-0.007,-0.017 -0.019,-0.031 -0.034,-0.041c-0.015,-0.01 -0.034,-0.015 -0.058,-0.015Z" style="fill:#fff;fill-rule:nonzero;"/>
            </g>
            <g transform="matrix(16.1507,0,0,16.1507,404.587,45.6588)">
            </g>
        </g>
        <g transform="matrix(0.875644,0,0,1,-166.269,-2.27374e-13)">
            <g transform="matrix(10.9446,0,0,10.9446,298.636,59.9998)">
                <path d="M0.723,-0l-0.192,-0l-0.311,-0.54l-0.004,-0c0.001,0.022 0.002,0.045 0.003,0.068c0.001,0.023 0.005,0.113 0.006,0.136l0,0.336l-0.135,-0l-0,-0.714l0.191,0l0.31,0.535l0.003,-0c-0,-0.022 -0.001,-0.044 -0.002,-0.066c-0.001,-0.022 -0.002,-0.044 -0.003,-0.066c-0.001,-0.021 -0.001,-0.043 -0.002,-0.065l-0,-0.338l0.136,0l0,0.714Z" style="fill:#fff;fill-rule:nonzero;"/>
            </g>
            <g transform="matrix(10.9446,0,0,10.9446,307.533,59.9998)">
                <path d="M0.675,-0l-0.151,-0l-0,-0.308l-0.283,-0l0,0.308l-0.151,-0l-0,-0.714l0.151,0l0,0.28l0.283,-0l-0,-0.28l0.151,0l-0,0.714Z" style="fill:#fff;fill-rule:nonzero;"/>
            </g>
            <g transform="matrix(10.9446,0,0,10.9446,315.908,59.9998)">
                <path d="M0.511,-0.198c0,0.042 -0.01,0.079 -0.031,0.11c-0.02,0.031 -0.05,0.055 -0.089,0.072c-0.039,0.017 -0.087,0.026 -0.143,0.026c-0.025,-0 -0.049,-0.002 -0.072,-0.005c-0.024,-0.003 -0.047,-0.008 -0.068,-0.015c-0.022,-0.006 -0.043,-0.014 -0.062,-0.023l-0,-0.141c0.034,0.015 0.069,0.029 0.105,0.041c0.037,0.012 0.073,0.018 0.109,0.018c0.025,-0 0.044,-0.003 0.06,-0.01c0.015,-0.007 0.026,-0.015 0.033,-0.027c0.006,-0.011 0.01,-0.024 0.01,-0.039c-0,-0.018 -0.006,-0.033 -0.018,-0.046c-0.012,-0.013 -0.029,-0.024 -0.05,-0.035c-0.021,-0.012 -0.045,-0.023 -0.071,-0.036c-0.016,-0.008 -0.035,-0.017 -0.054,-0.029c-0.02,-0.011 -0.038,-0.025 -0.056,-0.041c-0.017,-0.016 -0.032,-0.036 -0.043,-0.059c-0.011,-0.024 -0.017,-0.051 -0.017,-0.084c0,-0.043 0.01,-0.079 0.029,-0.109c0.02,-0.031 0.048,-0.054 0.084,-0.07c0.037,-0.016 0.079,-0.024 0.129,-0.024c0.037,-0 0.072,0.004 0.106,0.013c0.034,0.008 0.069,0.021 0.106,0.037l-0.049,0.118c-0.033,-0.013 -0.062,-0.024 -0.088,-0.031c-0.026,-0.007 -0.053,-0.011 -0.08,-0.011c-0.019,-0 -0.035,0.003 -0.048,0.009c-0.014,0.006 -0.024,0.014 -0.031,0.025c-0.006,0.011 -0.01,0.024 -0.01,0.038c0,0.017 0.005,0.031 0.015,0.043c0.01,0.011 0.025,0.023 0.045,0.033c0.02,0.011 0.045,0.024 0.075,0.038c0.036,0.017 0.068,0.035 0.093,0.054c0.026,0.019 0.046,0.041 0.06,0.066c0.014,0.025 0.021,0.056 0.021,0.094Z" style="fill:#fff;fill-rule:nonzero;"/>
            </g>
            <g transform="matrix(10.9446,0,0,10.9446,321.936,59.9998)">
            </g>
            <g transform="matrix(10.9446,0,0,10.9446,324.779,59.9998)">
                <path d="M0.239,-0l-0.149,-0l-0,-0.714l0.409,0l0,0.124l-0.26,0l-0,0.184l0.242,0l-0,0.124l-0.242,-0l-0,0.282Z" style="fill:#fff;fill-rule:nonzero;"/>
            </g>
            <g transform="matrix(10.9446,0,0,10.9446,330.785,59.9998)">
                <path d="M0.574,-0.274c0,0.046 -0.006,0.086 -0.018,0.121c-0.012,0.035 -0.03,0.065 -0.053,0.089c-0.024,0.025 -0.052,0.043 -0.084,0.055c-0.033,0.013 -0.07,0.019 -0.111,0.019c-0.038,-0 -0.074,-0.006 -0.106,-0.019c-0.032,-0.012 -0.06,-0.03 -0.083,-0.055c-0.024,-0.024 -0.042,-0.054 -0.055,-0.089c-0.013,-0.035 -0.019,-0.075 -0.019,-0.121c-0,-0.06 0.011,-0.112 0.032,-0.154c0.022,-0.042 0.052,-0.074 0.092,-0.095c0.04,-0.022 0.087,-0.033 0.142,-0.033c0.051,-0 0.096,0.011 0.136,0.033c0.04,0.021 0.071,0.053 0.093,0.095c0.023,0.042 0.034,0.094 0.034,0.154Zm-0.377,0c-0,0.036 0.004,0.066 0.011,0.09c0.008,0.025 0.021,0.043 0.037,0.056c0.017,0.012 0.038,0.018 0.065,0.018c0.026,0 0.048,-0.006 0.064,-0.018c0.017,-0.013 0.029,-0.031 0.036,-0.056c0.008,-0.024 0.012,-0.054 0.012,-0.09c-0,-0.036 -0.004,-0.066 -0.012,-0.09c-0.007,-0.024 -0.019,-0.042 -0.036,-0.054c-0.017,-0.012 -0.038,-0.018 -0.065,-0.018c-0.039,-0 -0.068,0.013 -0.086,0.04c-0.017,0.028 -0.026,0.068 -0.026,0.122Z" style="fill:#fff;fill-rule:nonzero;"/>
            </g>
            <g transform="matrix(10.9446,0,0,10.9446,337.562,59.9998)">
                <path d="M0.579,-0.546l0,0.546l-0.114,-0l-0.02,-0.07l-0.008,0c-0.012,0.019 -0.026,0.034 -0.044,0.046c-0.018,0.011 -0.037,0.02 -0.058,0.025c-0.021,0.006 -0.043,0.009 -0.066,0.009c-0.039,-0 -0.073,-0.007 -0.102,-0.021c-0.029,-0.014 -0.052,-0.035 -0.068,-0.065c-0.016,-0.029 -0.024,-0.067 -0.024,-0.114l0,-0.356l0.149,0l0,0.319c0,0.039 0.007,0.068 0.021,0.088c0.014,0.02 0.036,0.03 0.067,0.03c0.03,0 0.054,-0.007 0.071,-0.021c0.018,-0.013 0.03,-0.034 0.037,-0.061c0.007,-0.027 0.01,-0.059 0.01,-0.098l0,-0.257l0.149,0Z" style="fill:#fff;fill-rule:nonzero;"/>
            </g>
            <g transform="matrix(10.9446,0,0,10.9446,344.755,59.9998)">
                <path d="M0.388,-0.556c0.058,-0 0.105,0.016 0.141,0.047c0.035,0.032 0.053,0.083 0.053,0.153l0,0.356l-0.149,-0l0,-0.319c0,-0.039 -0.007,-0.068 -0.021,-0.088c-0.014,-0.02 -0.037,-0.03 -0.067,-0.03c-0.045,-0 -0.076,0.015 -0.093,0.046c-0.017,0.031 -0.025,0.076 -0.025,0.134l0,0.257l-0.149,0l0,-0.546l0.114,0l0.02,0.07l0.008,-0c0.012,-0.019 0.027,-0.034 0.044,-0.046c0.017,-0.012 0.037,-0.02 0.058,-0.026c0.021,-0.005 0.043,-0.008 0.066,-0.008Z" style="fill:#fff;fill-rule:nonzero;"/>
            </g>
            <g transform="matrix(10.9446,0,0,10.9446,351.948,59.9998)">
                <path d="M0.251,0.01c-0.061,-0 -0.11,-0.024 -0.149,-0.072c-0.038,-0.047 -0.057,-0.118 -0.057,-0.21c-0,-0.093 0.019,-0.164 0.058,-0.212c0.039,-0.048 0.089,-0.072 0.152,-0.072c0.026,-0 0.049,0.003 0.069,0.011c0.02,0.007 0.037,0.016 0.051,0.028c0.015,0.012 0.027,0.026 0.037,0.041l0.005,-0c-0.002,-0.01 -0.004,-0.026 -0.007,-0.046c-0.003,-0.021 -0.004,-0.041 -0.004,-0.063l-0,-0.175l0.149,0l0,0.76l-0.114,-0l-0.029,-0.071l-0.006,0c-0.01,0.015 -0.021,0.029 -0.036,0.041c-0.014,0.012 -0.031,0.022 -0.05,0.029c-0.02,0.007 -0.043,0.011 -0.069,0.011Zm0.052,-0.119c0.041,0 0.07,-0.012 0.086,-0.036c0.017,-0.025 0.026,-0.061 0.027,-0.11l0,-0.016c0,-0.053 -0.008,-0.094 -0.024,-0.122c-0.017,-0.028 -0.047,-0.042 -0.091,-0.042c-0.033,-0 -0.059,0.014 -0.077,0.042c-0.019,0.029 -0.028,0.07 -0.028,0.123c-0,0.053 0.009,0.094 0.028,0.121c0.019,0.027 0.045,0.04 0.079,0.04Z" style="fill:#fff;fill-rule:nonzero;"/>
            </g>
            <g transform="matrix(10.9446,0,0,10.9446,358.874,59.9998)">
                <path d="M0.302,-0.557c0.073,-0 0.129,0.016 0.168,0.048c0.039,0.032 0.059,0.08 0.059,0.145l-0,0.364l-0.104,-0l-0.029,-0.074l-0.004,-0c-0.016,0.019 -0.031,0.035 -0.048,0.048c-0.016,0.012 -0.035,0.021 -0.056,0.027c-0.021,0.006 -0.047,0.009 -0.077,0.009c-0.032,-0 -0.061,-0.006 -0.087,-0.019c-0.025,-0.012 -0.045,-0.031 -0.06,-0.057c-0.015,-0.025 -0.022,-0.058 -0.022,-0.097c-0,-0.058 0.02,-0.101 0.061,-0.128c0.041,-0.028 0.102,-0.043 0.183,-0.046l0.095,-0.003l-0,-0.024c-0,-0.028 -0.008,-0.049 -0.023,-0.063c-0.015,-0.013 -0.035,-0.02 -0.062,-0.02c-0.026,0 -0.052,0.004 -0.078,0.011c-0.025,0.008 -0.051,0.017 -0.076,0.029l-0.049,-0.101c0.029,-0.015 0.061,-0.027 0.097,-0.036c0.036,-0.009 0.073,-0.013 0.112,-0.013Zm0.079,0.304l-0.058,0.002c-0.048,0.001 -0.081,0.01 -0.1,0.026c-0.019,0.016 -0.028,0.037 -0.028,0.063c-0,0.023 0.006,0.039 0.02,0.048c0.013,0.01 0.031,0.015 0.052,0.015c0.032,-0 0.059,-0.01 0.081,-0.028c0.022,-0.019 0.033,-0.046 0.033,-0.081l-0,-0.045Z" style="fill:#fff;fill-rule:nonzero;"/>
            </g>
            <g transform="matrix(10.9446,0,0,10.9446,365.484,59.9998)">
                <path d="M0.308,-0.109c0.016,0 0.032,-0.002 0.048,-0.005c0.015,-0.003 0.031,-0.007 0.046,-0.012l-0,0.111c-0.016,0.007 -0.036,0.013 -0.059,0.018c-0.024,0.004 -0.05,0.007 -0.078,0.007c-0.032,-0 -0.062,-0.006 -0.088,-0.016c-0.025,-0.011 -0.046,-0.029 -0.061,-0.055c-0.014,-0.026 -0.022,-0.063 -0.022,-0.11l0,-0.263l-0.071,-0l-0,-0.063l0.082,-0.05l0.043,-0.115l0.095,-0l0,0.116l0.153,0l-0,0.112l-0.153,-0l0,0.263c0,0.021 0.006,0.036 0.018,0.047c0.012,0.01 0.028,0.015 0.047,0.015Z" style="fill:#fff;fill-rule:nonzero;"/>
            </g>
            <g transform="matrix(10.9446,0,0,10.9446,370.235,59.9998)">
                <path d="M0.227,-0.546l0,0.546l-0.149,-0l0,-0.546l0.149,0Zm-0.074,-0.214c0.022,0 0.041,0.005 0.057,0.016c0.016,0.01 0.024,0.029 0.024,0.057c-0,0.028 -0.008,0.047 -0.024,0.057c-0.016,0.011 -0.035,0.016 -0.057,0.016c-0.023,0 -0.042,-0.005 -0.058,-0.016c-0.015,-0.01 -0.023,-0.029 -0.023,-0.057c-0,-0.028 0.008,-0.047 0.023,-0.057c0.016,-0.011 0.035,-0.016 0.058,-0.016Z" style="fill:#fff;fill-rule:nonzero;"/>
            </g>
            <g transform="matrix(10.9446,0,0,10.9446,373.575,59.9998)">
                <path d="M0.574,-0.274c0,0.046 -0.006,0.086 -0.018,0.121c-0.012,0.035 -0.03,0.065 -0.053,0.089c-0.024,0.025 -0.052,0.043 -0.084,0.055c-0.033,0.013 -0.07,0.019 -0.111,0.019c-0.038,-0 -0.074,-0.006 -0.106,-0.019c-0.032,-0.012 -0.06,-0.03 -0.083,-0.055c-0.024,-0.024 -0.042,-0.054 -0.055,-0.089c-0.013,-0.035 -0.019,-0.075 -0.019,-0.121c-0,-0.06 0.011,-0.112 0.032,-0.154c0.022,-0.042 0.052,-0.074 0.092,-0.095c0.04,-0.022 0.087,-0.033 0.142,-0.033c0.051,-0 0.096,0.011 0.136,0.033c0.04,0.021 0.071,0.053 0.093,0.095c0.023,0.042 0.034,0.094 0.034,0.154Zm-0.377,0c-0,0.036 0.004,0.066 0.011,0.09c0.008,0.025 0.021,0.043 0.037,0.056c0.017,0.012 0.038,0.018 0.065,0.018c0.026,0 0.048,-0.006 0.064,-0.018c0.017,-0.013 0.029,-0.031 0.036,-0.056c0.008,-0.024 0.012,-0.054 0.012,-0.09c-0,-0.036 -0.004,-0.066 -0.012,-0.09c-0.007,-0.024 -0.019,-0.042 -0.036,-0.054c-0.017,-0.012 -0.038,-0.018 -0.065,-0.018c-0.039,-0 -0.068,0.013 -0.086,0.04c-0.017,0.028 -0.026,0.068 -0.026,0.122Z" style="fill:#fff;fill-rule:nonzero;"/>
            </g>
            <g transform="matrix(10.9446,0,0,10.9446,380.352,59.9998)">
                <path d="M0.388,-0.556c0.058,-0 0.105,0.016 0.141,0.047c0.035,0.032 0.053,0.083 0.053,0.153l0,0.356l-0.149,-0l0,-0.319c0,-0.039 -0.007,-0.068 -0.021,-0.088c-0.014,-0.02 -0.037,-0.03 -0.067,-0.03c-0.045,-0 -0.076,0.015 -0.093,0.046c-0.017,0.031 -0.025,0.076 -0.025,0.134l0,0.257l-0.149,0l0,-0.546l0.114,0l0.02,0.07l0.008,-0c0.012,-0.019 0.027,-0.034 0.044,-0.046c0.017,-0.012 0.037,-0.02 0.058,-0.026c0.021,-0.005 0.043,-0.008 0.066,-0.008Z" style="fill:#fff;fill-rule:nonzero;"/>
            </g>
            <g transform="matrix(10.9446,0,0,10.9446,387.545,59.9998)">
            </g>
            <g transform="matrix(10.9446,0,0,10.9446,390.388,59.9998)">
                <path d="M0.365,-0l-0.151,-0l-0,-0.588l-0.194,0l0,-0.126l0.539,0l0,0.126l-0.194,0l0,0.588Z" style="fill:#fff;fill-rule:nonzero;"/>
            </g>
            <g transform="matrix(10.9446,0,0,10.9446,396.726,59.9998)">
                <path d="M0.383,-0.556c0.007,-0 0.016,0 0.026,0.001c0.01,0.001 0.018,0.002 0.024,0.003l-0.011,0.14c-0.005,-0.002 -0.012,-0.003 -0.021,-0.004c-0.009,-0.001 -0.017,-0.001 -0.023,-0.001c-0.019,0 -0.038,0.002 -0.056,0.007c-0.018,0.005 -0.034,0.013 -0.049,0.024c-0.014,0.011 -0.025,0.025 -0.033,0.043c-0.009,0.018 -0.013,0.039 -0.013,0.065l0,0.278l-0.149,-0l0,-0.546l0.113,0l0.022,0.092l0.007,-0c0.011,-0.019 0.024,-0.036 0.04,-0.051c0.017,-0.016 0.035,-0.028 0.056,-0.037c0.02,-0.01 0.043,-0.014 0.067,-0.014Z" style="fill:#fff;fill-rule:nonzero;"/>
            </g>
            <g transform="matrix(10.9446,0,0,10.9446,401.696,59.9998)">
                <path d="M0.579,-0.546l0,0.546l-0.114,-0l-0.02,-0.07l-0.008,0c-0.012,0.019 -0.026,0.034 -0.044,0.046c-0.018,0.011 -0.037,0.02 -0.058,0.025c-0.021,0.006 -0.043,0.009 -0.066,0.009c-0.039,-0 -0.073,-0.007 -0.102,-0.021c-0.029,-0.014 -0.052,-0.035 -0.068,-0.065c-0.016,-0.029 -0.024,-0.067 -0.024,-0.114l0,-0.356l0.149,0l0,0.319c0,0.039 0.007,0.068 0.021,0.088c0.014,0.02 0.036,0.03 0.067,0.03c0.03,0 0.054,-0.007 0.071,-0.021c0.018,-0.013 0.03,-0.034 0.037,-0.061c0.007,-0.027 0.01,-0.059 0.01,-0.098l0,-0.257l0.149,0Z" style="fill:#fff;fill-rule:nonzero;"/>
            </g>
            <g transform="matrix(10.9446,0,0,10.9446,408.889,59.9998)">
                <path d="M0.459,-0.162c-0,0.037 -0.009,0.068 -0.026,0.094c-0.018,0.025 -0.044,0.045 -0.078,0.058c-0.035,0.013 -0.077,0.02 -0.129,0.02c-0.038,-0 -0.071,-0.003 -0.098,-0.008c-0.027,-0.004 -0.054,-0.013 -0.082,-0.024l-0,-0.123c0.03,0.013 0.061,0.024 0.095,0.033c0.034,0.009 0.064,0.013 0.09,0.013c0.029,-0 0.05,-0.004 0.062,-0.013c0.013,-0.009 0.019,-0.02 0.019,-0.034c0,-0.009 -0.003,-0.017 -0.008,-0.025c-0.005,-0.007 -0.015,-0.015 -0.032,-0.025c-0.017,-0.009 -0.043,-0.021 -0.078,-0.036c-0.034,-0.014 -0.062,-0.029 -0.084,-0.043c-0.022,-0.015 -0.039,-0.032 -0.049,-0.052c-0.011,-0.02 -0.016,-0.046 -0.016,-0.077c-0,-0.05 0.02,-0.088 0.059,-0.114c0.039,-0.025 0.091,-0.038 0.157,-0.038c0.034,-0 0.066,0.003 0.097,0.01c0.031,0.007 0.063,0.018 0.095,0.033l-0.045,0.107c-0.027,-0.011 -0.052,-0.021 -0.076,-0.029c-0.024,-0.007 -0.048,-0.011 -0.073,-0.011c-0.022,0 -0.038,0.003 -0.05,0.009c-0.011,0.006 -0.016,0.015 -0.016,0.027c-0,0.009 0.003,0.016 0.008,0.023c0.006,0.007 0.017,0.015 0.034,0.023c0.016,0.008 0.04,0.019 0.072,0.032c0.031,0.013 0.058,0.026 0.081,0.04c0.022,0.014 0.04,0.031 0.052,0.051c0.013,0.02 0.019,0.047 0.019,0.079Z" style="fill:#fff;fill-rule:nonzero;"/>
            </g>
            <g transform="matrix(10.9446,0,0,10.9446,414.329,59.9998)">
                <path d="M0.308,-0.109c0.016,0 0.032,-0.002 0.048,-0.005c0.015,-0.003 0.031,-0.007 0.046,-0.012l-0,0.111c-0.016,0.007 -0.036,0.013 -0.059,0.018c-0.024,0.004 -0.05,0.007 -0.078,0.007c-0.032,-0 -0.062,-0.006 -0.088,-0.016c-0.025,-0.011 -0.046,-0.029 -0.061,-0.055c-0.014,-0.026 -0.022,-0.063 -0.022,-0.11l0,-0.263l-0.071,-0l-0,-0.063l0.082,-0.05l0.043,-0.115l0.095,-0l0,0.116l0.153,0l-0,0.112l-0.153,-0l0,0.263c0,0.021 0.006,0.036 0.018,0.047c0.012,0.01 0.028,0.015 0.047,0.015Z" style="fill:#fff;fill-rule:nonzero;"/>
            </g>
            <g transform="matrix(10.9446,0,0,10.9446,419.08,59.9998)">
            </g>
        </g>
        <g>
            <rect x="146.075" y="0.5" width="54.147" height="25.028" style="fill:#fff;stroke:#000;stroke-width:1px;"/>
            <path d="M151.368,2.915l5.89,0l3.61,13.972l0.055,-0l2.476,-13.972l4.449,0l-3.742,20.147l-5.862,0l-3.693,-13.94l-0.049,-0l-2.449,13.94l-4.449,0l3.764,-20.147Z" style="fill-rule:nonzero;stroke:#fff;stroke-width:1px;"/>
            <path d="M169.585,2.915l4.728,0l-1.391,7.709l5.588,-0l1.392,-7.709l4.728,0l-3.666,20.147l-4.755,0l1.567,-8.628l-5.561,0l-1.567,8.628l-4.723,0l3.66,-20.147Z" style="fill-rule:nonzero;stroke:#fff;stroke-width:1px;"/>
            <path d="M197.061,7.476c-1.212,-0.637 -2.534,-0.953 -3.868,-0.926c-1.868,0 -3.386,0.32 -3.386,1.934c0,2.859 6.849,1.789 6.849,7.908c-0,5.569 -4.526,7.014 -8.618,7.014c-1.86,-0.049 -3.705,-0.399 -5.479,-1.038l1.096,-4.098c0.936,0.694 2.805,1.157 4.344,1.157c1.54,0 3.764,-0.319 3.764,-2.396c0,-3.235 -6.848,-2.021 -6.848,-7.709c-0,-5.193 3.994,-6.757 7.862,-6.757c2.191,-0 4.218,0.263 5.407,0.895l-1.123,4.016Z" style="fill-rule:nonzero;stroke:#fff;stroke-width:1px;"/>
        </g>
    </g>
</svg>
