<?xml version="1.0" encoding="UTF-8" standalone="no"?>
<!DOCTYPE svg PUBLIC "-//W3C//DTD SVG 1.1//EN" "http://www.w3.org/Graphics/SVG/1.1/DTD/svg11.dtd">
<svg width="100%" height="100%" viewBox="0 0 100 31" version="1.1" xmlns="http://www.w3.org/2000/svg" xmlns:xlink="http://www.w3.org/1999/xlink" xml:space="preserve" xmlns:serif="http://www.serif.com/" style="fill-rule:evenodd;clip-rule:evenodd;stroke-linejoin:round;stroke-miterlimit:2;">
    <g>
        <path d="M91.034,5.783c-0.537,-0 -0.651,0.257 -0.651,0.654l0,0.201l0.765,0l0,0.798l-0.765,-0l0,3.617l-1.159,0l0,-3.617l-0.48,-0l0,-0.798l0.48,0l0,-0.313c0,-0.884 0.566,-1.369 1.528,-1.369c0.198,0 0.339,0 0.508,0.03l-0,0.797l-0.226,0l-0,-0Zm7.243,18.631l-0,-5.443c-0,-0.683 -0.369,-1.253 -1.273,-1.253c-0.508,0 -0.877,0.144 -1.188,0.456c0.086,0.256 0.115,0.514 0.115,1.054l-0,5.186l-1.726,0l-0,-5.443c-0,-0.625 -0.17,-1.281 -1.274,-1.281c-0.563,0 -0.763,0.087 -1.072,0.23l-0,6.494l-1.725,0l0,-7.179c0.652,-0.286 1.583,-0.627 2.883,-0.627c1.075,0 1.782,0.256 2.206,0.627c0.508,-0.371 1.187,-0.627 2.178,-0.627c1.808,0 2.599,1.055 2.599,2.363l0,5.443l-1.723,0Zm-18.075,-11.594c-0.652,0 -1.16,-0.143 -1.499,-0.315l0.254,-0.683c0.337,0.155 0.704,0.233 1.075,0.229c0.734,0 0.96,-0.344 0.96,-0.912l0,-0.286c-0.139,0.086 -0.421,0.2 -0.903,0.2c-1.075,-0 -1.556,-0.542 -1.556,-1.425l0,-2.991l1.16,0l0,2.934c0,0.399 0.14,0.713 0.707,0.713c0.281,-0 0.453,-0.086 0.592,-0.144l0,-3.503l1.162,0l-0,4.245c-0,1.396 -0.822,1.938 -1.952,1.938Zm-3.096,-1.709c-0.849,0 -1.271,-0.457 -1.271,-1.198l-0,-2.477l-0.483,-0l0,-0.798l0.483,0l-0,-0.913l1.159,-0.311l-0,1.225l0.707,-0l-0,0.797l-0.707,0l-0,2.365c-0,0.399 0.197,0.512 0.479,0.512c0.143,0 0.253,0 0.395,-0.027l0,0.739c-0.112,0.028 -0.339,0.086 -0.762,0.086Zm-3.691,-0.058l-0,-4.416l1.16,0l0,4.416l-1.16,0Zm-2.395,0.086c-0.566,0 -1.018,-0.143 -1.358,-0.313l0.283,-0.742c0.228,0.115 0.538,0.259 0.906,0.259c0.422,-0 0.678,-0.143 0.678,-0.485c-0,-0.314 -0.197,-0.457 -0.708,-0.655c-0.848,-0.342 -1.016,-0.855 -1.016,-1.34c0,-0.712 0.537,-1.31 1.498,-1.31c0.537,0 0.932,0.143 1.244,0.313l-0.312,0.684c-0.24,-0.143 -0.513,-0.222 -0.792,-0.228c-0.396,-0 -0.592,0.171 -0.592,0.456c0,0.315 0.31,0.427 0.706,0.597c0.875,0.342 1.074,0.855 1.074,1.396c0,0.799 -0.649,1.368 -1.611,1.368Zm-1.725,-3.703c-0.085,-0.029 -0.34,-0.058 -0.537,-0.058c-0.197,0 -0.368,0.029 -0.482,0.058l0,3.617l-1.158,0l0,-4.16c0.169,-0.085 0.849,-0.312 1.612,-0.312c0.451,-0 0.565,0.028 0.736,0.057l-0.171,0.798Zm10.97,16.978l0,-5.328c0,-0.74 -0.311,-1.281 -1.272,-1.281c-0.538,-0 -0.906,0.141 -1.273,0.37l0,6.24l-1.724,-0l-0,-10.257l1.724,0l0,2.85c0.454,-0.2 1.103,-0.343 1.697,-0.343c1.895,-0 2.572,1.14 2.572,2.306l0,5.443l-1.724,0Zm-23.122,-18.318c-0.425,0 -0.623,-0.257 -0.623,-0.57c-0,-0.313 0.198,-0.57 0.623,-0.57c0.397,-0 0.622,0.257 0.622,0.57c-0.001,0.313 -0.225,0.57 -0.622,0.57Zm3.732,4.957l-1.103,0l-1.499,-4.415l1.245,0l0.566,2.079c0.056,0.199 0.198,0.713 0.253,0.969l0.028,-0c0.028,-0.256 0.17,-0.77 0.225,-0.969l0.595,-2.079l1.16,0l-1.47,4.415Zm-4.336,0l-0,-4.416l1.159,0l-0,4.416l-1.159,0Zm17.482,-4.957c-0.426,0 -0.621,-0.257 -0.621,-0.57c-0,-0.313 0.195,-0.57 0.621,-0.57c0.395,-0 0.621,0.257 0.621,0.57c0,0.313 -0.226,0.57 -0.621,0.57Zm-19.485,4.957l0,-3.105c0,-0.314 -0.14,-0.627 -0.706,-0.627c-0.283,0 -0.45,0.057 -0.594,0.115l0,3.617l-1.159,0l0,-4.16c0.481,-0.198 1.075,-0.341 1.811,-0.341c1.329,0 1.81,0.655 1.81,1.396l0,3.105l-1.162,0Zm4.822,4.728c-0.65,0 -0.989,-0.427 -0.989,-0.911c0,-0.483 0.339,-0.912 0.989,-0.912c0.621,0 0.988,0.429 0.988,0.912c0,0.484 -0.367,0.911 -0.988,0.911Zm6.319,8.633l0,-5.443c0,-0.625 -0.255,-1.281 -1.359,-1.281c-0.565,0 -0.848,0.087 -1.159,0.23l-0,6.494l-1.725,0l0,-7.179c0.936,-0.413 1.948,-0.627 2.97,-0.627c2.26,0 2.996,1.111 2.996,2.337l0,5.469l-1.723,0Zm-16.392,-13.275c-1.132,0 -1.98,-0.598 -1.98,-1.766l-0,-3.933l1.217,0l0,3.933c0,0.54 0.282,0.825 0.763,0.825c0.479,0 0.763,-0.285 0.763,-0.825l-0,-3.933l1.215,0l-0,3.933c0,1.167 -0.847,1.766 -1.978,1.766Zm9.211,13.275l-0,-7.663l1.727,-0l-0,7.663l-1.727,0Zm-2.163,0.085c-1.498,-0 -2.09,-0.854 -2.09,-2.08l-0,-4.556l-0.848,-0l-0,-1.111l0.848,-0l-0,-1.541l1.723,-0.483l0,2.024l1.216,-0l0,1.111l-1.216,-0l0,4.556c0,0.684 0.367,0.885 0.849,0.885c0.141,-0 0.339,-0 0.509,-0.029l0,1.139c-0.17,0.028 -0.621,0.085 -0.991,0.085Zm-4.495,-0c-1.498,-0 -2.092,-0.854 -2.092,-2.08l-0,-4.556l-0.848,-0l0,-1.111l0.848,-0l-0,-1.541l1.726,-0.483l0,2.024l1.215,-0l0,1.111l-1.215,-0l0,4.556c0,0.684 0.366,0.885 0.849,0.885c0.14,-0 0.339,-0 0.508,-0.029l0,1.139c-0.169,0.028 -0.623,0.085 -0.991,0.085Zm-12.452,-13.446l-0,-3.105c-0,-0.342 -0.168,-0.627 -0.678,-0.627c-0.283,0 -0.452,0.086 -0.621,0.172l-0,3.56l-1.159,0l-0,-6.011l1.159,-0l-0,1.709c0.168,-0.086 0.508,-0.199 0.875,-0.199c1.159,0 1.583,0.685 1.583,1.367l0,3.134l-1.159,-0l-0,0Zm-4.212,-4.701l0,4.701l-1.216,0l0,-4.701l-1.131,0l0,-0.912l3.506,0l0,0.912l-1.159,0Zm-19.793,-1.254l0,-2.62c1.272,0.314 2.205,0.741 3.195,1.284l-0,2.448c-0.989,-0.455 -2.064,-0.855 -3.195,-1.112Zm24.09,19.316l-3.619,-6.153c-0.226,-0.371 -0.396,-0.742 -0.593,-1.197l-0.028,0c0.056,0.483 0.085,0.882 0.085,1.253l0,6.098l-1.669,-0l-0,-9.773l1.782,0l3.364,5.755c0.198,0.341 0.367,0.655 0.538,1.11l0.027,-0c-0.057,-0.484 -0.057,-0.825 -0.057,-1.166l-0,-5.698l1.669,-0l-0,9.772l-1.499,-0l0,-0.001Zm-25.957,-6.126l0.17,-5.355c0,-0.342 0.254,-0.598 0.566,-0.598c0.34,0 0.564,0.256 0.564,0.598l0.2,5.355l-1.5,0Zm0.736,10.228c-1.837,0 -3.111,-0.541 -4.581,-1.31c-1.3,-0.682 -2.573,-1.111 -4.241,-1.111c-1.554,-0 -3.421,0.398 -5.428,1.654c1.668,-2.508 3.874,-3.249 5.937,-3.249c2.205,-0 3.93,0.683 5.486,1.482c1.441,0.739 2.572,1.11 4.156,1.11c1.329,-0 2.798,-0.371 4.184,-1.538c-1.724,2.279 -3.732,2.962 -5.513,2.962Zm72.058,-21.964c-1.3,0 -1.923,0.969 -1.923,2.279c0,1.34 0.623,2.308 1.923,2.308c1.3,0 1.924,-0.968 1.924,-2.308c-0.001,-1.31 -0.624,-2.279 -1.924,-2.279Zm-0,3.817c-0.595,-0 -0.735,-0.683 -0.735,-1.539c0,-0.825 0.14,-1.509 0.735,-1.509c0.594,-0 0.735,0.684 0.735,1.509c-0,0.856 -0.141,1.539 -0.735,1.539Zm-0.304,6.239c-1.189,0 -2.094,0.341 -2.602,0.569l0.395,1.055c0.454,-0.229 1.16,-0.485 1.895,-0.485c0.905,-0 1.498,0.255 1.498,1.254l-0,0.427c-0.141,-0.028 -0.651,-0.114 -1.102,-0.114c-1.755,0 -3.167,0.913 -3.167,2.735c0,1.481 0.989,2.592 3.138,2.592c1.188,-0 2.15,-0.227 2.8,-0.541l0,-4.813c0,-1.996 -1.273,-2.679 -2.855,-2.679Zm1.186,6.837c-0.325,0.127 -0.669,0.194 -1.017,0.2c-0.906,0 -1.528,-0.598 -1.528,-1.655c-0,-0.994 0.538,-1.679 1.585,-1.679c0.479,-0 0.791,0.086 0.96,0.114l-0,3.02Zm-20.81,-14.701c0,-1.394 -0.705,-2.192 -1.894,-2.192c-1.215,0 -1.95,0.855 -1.95,2.279c0,1.481 0.819,2.308 2.119,2.308c0.68,0 1.189,-0.143 1.554,-0.341l-0.282,-0.771c-0.361,0.175 -0.757,0.263 -1.157,0.257c-0.537,0 -1.019,-0.227 -1.104,-1.082l2.714,-0l0,-0.458Zm-1.103,-0.283l-1.638,-0c0,-0.855 0.338,-1.169 0.819,-1.169c0.452,0 0.819,0.286 0.819,1.113l-0,0.056l0,-0Zm6.872,8.147c-2.459,0 -3.675,1.566 -3.675,4.046c0,2.393 1.216,3.816 3.053,3.816c0.678,-0 1.188,-0.113 1.497,-0.285l0,0.485c0,1.024 -0.535,1.68 -1.808,1.68c-0.848,0 -1.385,-0.227 -1.838,-0.425l-0.48,1.082c0.566,0.314 1.47,0.568 2.629,0.568c1.895,-0 3.195,-1.051 3.195,-3.075l-0,-7.352c-0.51,-0.284 -1.412,-0.54 -2.573,-0.54Zm0.875,6.467c-0.303,0.168 -0.642,0.256 -0.988,0.256c-1.215,-0 -1.753,-0.912 -1.753,-2.677c-0,-1.825 0.567,-2.964 1.837,-2.964c0.369,-0 0.651,0.028 0.905,0.172l-0,5.213l-0.001,0Zm-28.078,-14.331c0,-1.394 -0.706,-2.192 -1.894,-2.192c-1.216,0 -1.951,0.855 -1.951,2.279c0,1.481 0.82,2.308 2.121,2.308c0.678,0 1.187,-0.143 1.556,-0.341l-0.284,-0.771c-0.361,0.175 -0.758,0.263 -1.159,0.257c-0.538,0 -1.018,-0.227 -1.103,-1.082l2.714,-0l0,-0.458Zm-1.102,-0.283l-1.641,-0c0,-0.855 0.341,-1.169 0.821,-1.169c0.453,0 0.82,0.286 0.82,1.113l0,0.056Zm1.377,8.147c-2.148,0 -3.221,1.653 -3.221,3.987c0,2.308 1.073,3.961 3.221,3.961c2.15,-0 3.224,-1.653 3.224,-3.961c-0,-2.334 -1.074,-3.987 -3.224,-3.987Zm0.112,6.894c-1.187,-0 -1.385,-1.538 -1.385,-2.906c-0,-1.396 0.198,-2.933 1.385,-2.933c1.187,0 1.386,1.538 1.386,2.933c-0,1.368 -0.199,2.906 -1.386,2.906Z" style="fill:#fff;"/>
        <path d="M15.381,5.669c-0.679,-0.172 -1.413,-0.285 -2.148,-0.37l-0,-3.276c-0.815,-0.116 -1.637,-0.173 -2.46,-0.172c-0.793,0 -1.584,0.058 -2.347,0.144l0,3.104c-0.735,0.086 -1.443,0.229 -2.121,0.399l0,-3.076c-1.193,0.333 -2.342,0.812 -3.421,1.424l0,6.382l1.441,1.396l-0.423,7.177l-1.159,1.169l-0,4.159l0.396,0.428c0.961,-0.512 2.176,-0.94 3.646,-0.94c1.414,0 3.054,0.397 4.892,1.425l-0,-5.298l-0.763,-0.971l-0,-7.349l1.499,-2.337l-0.623,2.25c0.431,-0.056 0.866,-0.084 1.301,-0.084c1.47,0 2.826,0.255 3.986,0.713l1.498,-1.396l0,-3.789c-0.988,-0.457 -2.063,-0.828 -3.194,-1.112Zm-8.992,12.619l0.17,-5.355c0,-0.342 0.254,-0.598 0.567,-0.598c0.312,0 0.565,0.256 0.565,0.598l0.198,5.355l-1.5,0Zm20.411,-18.288l-1.074,0l0,30.405l1.074,0l-0,-30.405Z" style="fill:#fff;"/>
    </g>
</svg>
