<?xml version="1.0" encoding="UTF-8" standalone="no"?>
<!DOCTYPE svg PUBLIC "-//W3C//DTD SVG 1.1//EN" "http://www.w3.org/Graphics/SVG/1.1/DTD/svg11.dtd">
<svg width="100%" height="100%" viewBox="0 0 155 41" version="1.1" xmlns="http://www.w3.org/2000/svg" xmlns:xlink="http://www.w3.org/1999/xlink" xml:space="preserve" xmlns:serif="http://www.serif.com/" style="fill-rule:evenodd;clip-rule:evenodd;stroke-linejoin:round;stroke-miterlimit:2;">
    <path d="M36.424,3.091l3.054,-0l-0,0.37c-0.9,0.062 -0.953,0.088 -0.98,0.327c-0.035,0.3 -0.035,0.997 -0.035,3.203c-0,0.689 0.203,1.783 1.571,1.783c1.544,0 1.756,-0.759 1.756,-2.559c0,-1.43 0,-2.127 -0.035,-2.427c-0.027,-0.239 -0.08,-0.265 -1.033,-0.327l-0,-0.37l2.542,-0l-0,0.37c-0.901,0.062 -0.953,0.088 -0.98,0.327c-0.035,0.3 -0.035,0.997 -0.035,2.895c-0,1.358 -0.194,2.638 -2.427,2.638c-1.386,0 -2.383,-0.732 -2.383,-2.356c0,-2.18 0,-2.877 -0.035,-3.177c-0.027,-0.239 -0.08,-0.265 -0.98,-0.327l0,-0.37Z" style="fill:#fff;fill-rule:nonzero;"/>
    <path d="M43.634,8.809c0.847,-0.061 0.9,-0.088 0.927,-0.326c0.035,-0.3 0.035,-0.997 0.035,-2.347c0,-1.351 0,-2.048 -0.035,-2.348c-0.027,-0.238 -0.08,-0.264 -0.927,-0.326l0,-0.372l1.818,0c0.053,0.107 0.151,0.23 0.265,0.398l2.753,4.006l0.018,0l-0,-1.358c-0,-1.351 -0,-2.048 -0.035,-2.348c-0.026,-0.238 -0.079,-0.264 -1.033,-0.326l0,-0.372l2.497,0l0,0.372c-0.82,-0 -0.9,0.043 -0.926,0.529c-0.027,0.459 -0.044,1.006 -0.044,1.474c0,1.703 0.008,3.124 0.07,3.821l-0.635,0c-0.37,-0.688 -0.688,-1.2 -1.156,-1.854l-2.153,-3.062l-0.018,0l-0,1.766c-0,1.35 -0,2.047 0.035,2.347c0.027,0.238 0.079,0.265 1.148,0.326l-0,0.372l-2.604,-0l0,-0.372Z" style="fill:#fff;fill-rule:nonzero;"/>
    <path d="M50.341,8.809c0.953,-0.061 1.007,-0.088 1.033,-0.326c0.035,-0.3 0.035,-0.997 0.035,-2.347c-0,-1.351 -0,-2.048 -0.035,-2.348c-0.026,-0.238 -0.08,-0.264 -1.033,-0.326l0,-0.372l3.16,0l-0,0.372c-0.954,0.062 -1.007,0.088 -1.033,0.326c-0.036,0.3 -0.036,0.997 -0.036,2.348c0,1.35 0,2.047 0.036,2.347c0.026,0.238 0.079,0.265 1.033,0.326l-0,0.372l-3.16,-0l0,-0.372Z" style="fill:#fff;fill-rule:nonzero;"/>
    <path d="M54.034,3.091l3.027,-0l0,0.37l-0.423,0c-0.415,0 -0.486,0.133 -0.486,0.265c0,0.176 0.432,1.324 0.883,2.489l0.635,1.659l0.697,-1.756c0.398,-0.998 0.865,-2.163 0.865,-2.409c-0,-0.23 -0.141,-0.248 -0.927,-0.248l0,-0.37l2.384,-0l-0,0.37l-0.257,0c-0.406,0 -0.564,0.168 -0.988,1.21c-1.412,3.485 -1.562,3.891 -1.712,4.65l-0.583,0c-0.07,-0.609 -1.562,-4.139 -2.003,-5.083c-0.353,-0.75 -0.415,-0.759 -1.112,-0.777l0,-0.37Z" style="fill:#fff;fill-rule:nonzero;"/>
    <path d="M61.189,8.809c0.9,-0.061 0.945,-0.088 0.98,-0.326c0.035,-0.3 0.035,-0.997 0.035,-2.347c-0,-1.351 -0,-2.048 -0.035,-2.348c-0.035,-0.238 -0.08,-0.264 -0.98,-0.326l0,-0.372l3.645,0c0.556,0 1.12,-0.052 1.509,-0.105c0.009,0.423 0.114,1.421 0.176,1.659l-0.406,0.062c-0.282,-1.13 -0.485,-1.244 -1.835,-1.244l-0.874,-0c-0.124,-0 -0.176,0.053 -0.176,0.176l-0,1.985c-0,0.115 0.026,0.159 0.309,0.159l0.273,0c1.059,0 1.121,-0.15 1.218,-0.768l0.424,0c-0.009,0.292 -0.027,0.566 -0.027,0.989c0,0.353 0.018,0.741 0.027,0.989l-0.433,-0c-0.061,-0.636 -0.185,-0.786 -0.944,-0.786l-0.671,-0c-0.115,-0 -0.176,0.035 -0.176,0.159l-0,2.215c-0,0.124 0.052,0.177 0.176,0.177l1.659,-0c0.777,-0 0.98,-0.194 1.174,-0.768l0.203,-0.6l0.451,0.114c-0.116,0.477 -0.239,1.297 -0.257,1.678l-5.445,-0l0,-0.372Z" style="fill:#fff;fill-rule:nonzero;"/>
    <path d="M69.246,5.703c0,0.159 0.018,0.203 0.591,0.203c1.368,-0 1.633,-0.733 1.633,-1.227c-0,-0.714 -0.565,-1.218 -1.536,-1.218c-0.644,0 -0.688,0.027 -0.688,0.248l0,1.994Zm-2.038,3.106c0.9,-0.062 0.953,-0.087 0.979,-0.326c0.036,-0.3 0.036,-0.997 0.036,-2.348c-0,-1.349 -0,-2.047 -0.036,-2.347c-0.026,-0.238 -0.079,-0.265 -0.979,-0.327l-0,-0.37l3.406,-0c0.706,-0 1.068,0.097 1.43,0.335c0.361,0.238 0.573,0.618 0.573,1.148c0,1.279 -1.465,1.508 -1.465,1.588c0,0.044 0.027,0.097 0.115,0.212l1.465,1.88c0.37,0.476 0.46,0.555 0.9,0.555l0,0.371l-1.509,0l-1.977,-2.744c-0.071,-0.089 -0.132,-0.106 -0.503,-0.106c-0.361,-0 -0.397,0.008 -0.397,0.096c0,1.571 0.009,1.819 0.036,2.057c0.026,0.239 0.079,0.264 0.979,0.326l0,0.371l-3.053,0l-0,-0.371Z" style="fill:#fff;fill-rule:nonzero;"/>
    <path d="M74.373,7.15c0.274,1.041 0.751,1.748 1.695,1.748c0.971,-0 1.465,-0.556 1.465,-1.112c-0,-0.574 -0.451,-0.768 -1.077,-0.98l-0.689,-0.221c-1.579,-0.52 -1.747,-1.058 -1.747,-1.747c-0,-1.13 0.945,-1.889 2.303,-1.889c0.671,0 1.254,0.098 1.721,0.212c0,0.106 -0.009,0.265 -0.009,0.388c0,0.424 0.027,0.839 0.062,1.272l-0.414,-0c-0.15,-1.077 -0.68,-1.448 -1.518,-1.448c-0.768,0 -1.351,0.468 -1.351,1.033c0,0.388 0.203,0.653 0.848,0.873l1.465,0.513c0.945,0.334 1.314,0.802 1.314,1.64c0,1.174 -0.97,1.889 -2.4,1.889c-0.653,-0 -1.324,-0.264 -1.95,-0.264c-0.008,-0.451 -0.071,-1.245 -0.141,-1.827l0.423,-0.08Z" style="fill:#fff;fill-rule:nonzero;"/>
    <path d="M78.552,8.809c0.953,-0.061 1.006,-0.088 1.033,-0.326c0.035,-0.3 0.035,-0.997 0.035,-2.347c0,-1.351 0,-2.048 -0.035,-2.348c-0.027,-0.238 -0.08,-0.264 -1.033,-0.326l-0,-0.372l3.159,0l0,0.372c-0.953,0.062 -1.005,0.088 -1.032,0.326c-0.035,0.3 -0.035,0.997 -0.035,2.348c-0,1.35 -0,2.047 0.035,2.347c0.027,0.238 0.079,0.265 1.032,0.326l0,0.372l-3.159,-0l-0,-0.372Z" style="fill:#fff;fill-rule:nonzero;"/>
    <path d="M83.331,8.809c0.953,-0.061 0.996,-0.088 1.032,-0.326c0.018,-0.177 0.035,-0.485 0.035,-0.997l0,-4.024l-1.015,-0c-0.3,-0 -0.424,0.255 -0.785,1.27l-0.406,-0.088c0.079,-0.344 0.132,-0.838 0.168,-1.642c0.176,0.027 0.344,0.045 0.52,0.062c0.168,0.018 0.344,0.026 0.513,0.026l3.035,0c0.371,0 0.714,-0.034 1.033,-0.088c0.035,0.804 0.088,1.298 0.167,1.642l-0.406,0.088c-0.362,-1.015 -0.486,-1.27 -0.785,-1.27l-1.015,-0l0,4.024c0,0.512 0.017,0.82 0.035,0.997c0.035,0.238 0.08,0.265 1.033,0.326l-0,0.372l-3.159,-0l-0,-0.372Z" style="fill:#fff;fill-rule:nonzero;"/>
    <path d="M90.778,6.789l-1.438,-2.189c-0.751,-1.13 -0.847,-1.139 -1.35,-1.139l-0,-0.37l2.921,-0l0,0.37c-0.865,0 -0.909,0.036 -0.909,0.194c-0,0.071 0.062,0.212 0.282,0.565l1.139,1.819c0.061,0.105 0.114,0.193 0.168,0.193c0.052,0 0.105,-0.097 0.167,-0.193l0.998,-1.58c0.308,-0.494 0.387,-0.654 0.387,-0.759c0,-0.186 -0.158,-0.212 -0.749,-0.239l-0,-0.37l2.197,-0l0,0.37c-0.442,0.018 -0.732,0.168 -1.165,0.839l-1.624,2.506l0,1.571c0,0.353 0.045,0.379 1.156,0.432l-0,0.371l-3.336,0l0,-0.371c1.112,-0.053 1.156,-0.079 1.156,-0.432l0,-1.588Z" style="fill:#fff;fill-rule:nonzero;"/>
    <path d="M100.609,8.898c0.945,-0 1.748,-0.891 1.748,-2.762c-0,-1.871 -0.803,-2.763 -1.748,-2.763c-0.944,-0 -1.747,0.892 -1.747,2.763c-0,1.871 0.803,2.762 1.747,2.762m0,-5.949c1.633,0 2.895,1.289 2.895,3.187c0,1.897 -1.262,3.185 -2.895,3.185c-1.633,-0 -2.895,-1.288 -2.895,-3.185c0,-1.898 1.262,-3.187 2.895,-3.187" style="fill:#fff;fill-rule:nonzero;"/>
    <path d="M103.733,8.809c0.9,-0.061 0.944,-0.088 0.98,-0.326c0.044,-0.3 0.035,-0.997 0.035,-2.347c-0,-1.351 -0,-2.048 -0.035,-2.348c-0.036,-0.238 -0.08,-0.264 -0.98,-0.326l0,-0.372l3.646,0c0.555,0 1.12,-0.052 1.508,-0.105c0.009,0.423 0.115,1.421 0.177,1.659l-0.406,0.062c-0.283,-1.13 -0.485,-1.244 -1.835,-1.244l-0.875,-0c-0.123,-0 -0.176,0.053 -0.176,0.176l-0,1.985c-0,0.115 0.026,0.159 0.308,0.159l0.274,0c1.06,0 1.121,-0.15 1.219,-0.768l0.423,0c-0.008,0.292 -0.026,0.566 -0.026,0.989c-0,0.353 0.018,0.741 0.026,0.989l-0.432,-0c-0.062,-0.636 -0.185,-0.786 -0.945,-0.786l-0.671,-0c-0.114,-0 -0.176,0.035 -0.176,0.159l-0,2.118c-0,0.238 0.08,0.265 1.165,0.326l-0,0.372l-3.204,-0l0,-0.372Z" style="fill:#fff;fill-rule:nonzero;"/>
    <path d="M36.439,12.789l4.872,0l0,0.669c-1.034,0.048 -1.448,0.064 -1.448,0.749c-0,0.286 0.382,1.799 0.827,3.311l1.116,3.886l0.031,0l2.118,-8.615l1.561,0c0.222,1.099 0.429,2.182 0.684,3.281l1.226,5.334l0.032,0l1.179,-4.3c0.397,-1.449 0.716,-2.786 0.716,-3.025c-0,-0.461 -0.367,-0.589 -1.37,-0.621l0,-0.669l3.838,0l0,0.669c-1.035,-0 -1.322,0.287 -1.799,1.8c-1.243,3.948 -2.181,7.436 -2.421,8.774l-1.305,-0c-0.049,-0.351 -0.431,-2.102 -0.845,-3.95l-1.178,-5.238l-0.031,-0l-1.322,5.302c-0.462,1.831 -0.876,3.455 -0.892,3.886l-1.306,-0c-0.143,-1.052 -1.528,-5.622 -2.499,-8.743c-0.526,-1.671 -0.589,-1.831 -1.784,-1.831l-0,-0.669Z" style="fill:#fff;fill-rule:nonzero;"/>
    <path d="M52.49,23.108c1.624,-0.112 1.703,-0.16 1.768,-0.589c0.063,-0.542 0.063,-1.8 0.063,-4.237c0,-2.435 0,-3.693 -0.063,-4.234c-0.065,-0.43 -0.144,-0.478 -1.768,-0.59l-0,-0.669l6.576,0c1.003,0 2.022,-0.095 2.723,-0.191c0.016,0.765 0.207,2.564 0.319,2.994l-0.733,0.111c-0.51,-2.038 -0.876,-2.245 -3.312,-2.245l-1.577,-0c-0.223,-0 -0.318,0.095 -0.318,0.319l-0,3.582c-0,0.207 0.047,0.287 0.557,0.287l0.494,0c1.911,0 2.023,-0.27 2.197,-1.386l0.765,0c-0.016,0.526 -0.048,1.02 -0.048,1.784c-0,0.637 0.032,1.337 0.048,1.784l-0.78,-0c-0.112,-1.147 -0.335,-1.418 -1.705,-1.418l-1.21,0c-0.206,0 -0.318,0.064 -0.318,0.286l-0,3.998c-0,0.222 0.095,0.318 0.318,0.318l2.994,0c1.402,0 1.768,-0.351 2.118,-1.385l0.366,-1.083l0.812,0.207c-0.206,0.86 -0.43,2.341 -0.461,3.025l-9.825,-0l-0,-0.668Z" style="fill:#fff;fill-rule:nonzero;"/>
    <path d="M64.527,20.114c0.494,1.879 1.353,3.153 3.057,3.153c1.752,0 2.643,-1.003 2.643,-2.006c0,-1.036 -0.811,-1.385 -1.942,-1.768l-1.242,-0.398c-2.851,-0.939 -3.152,-1.911 -3.152,-3.153c-0,-2.038 1.703,-3.407 4.155,-3.407c1.21,-0 2.261,0.175 3.105,0.382c0,0.191 -0.015,0.477 -0.015,0.7c-0,0.765 0.047,1.513 0.111,2.293l-0.748,-0c-0.272,-1.942 -1.227,-2.611 -2.739,-2.611c-1.385,-0 -2.436,0.844 -2.436,1.863c-0,0.701 0.366,1.179 1.528,1.576l2.644,0.924c1.703,0.605 2.372,1.449 2.372,2.962c0,2.118 -1.752,3.407 -4.331,3.407c-1.178,0 -2.389,-0.477 -3.519,-0.477c-0.016,-0.812 -0.127,-2.246 -0.255,-3.296l0.764,-0.144Z" style="fill:#fff;fill-rule:nonzero;"/>
    <path d="M74.511,23.108c1.72,-0.112 1.8,-0.16 1.863,-0.589c0.031,-0.319 0.064,-0.876 0.064,-1.8l-0,-7.261l-1.831,-0c-0.542,-0 -0.765,0.462 -1.417,2.293l-0.733,-0.159c0.144,-0.621 0.239,-1.513 0.303,-2.962c0.318,0.048 0.621,0.079 0.939,0.112c0.302,0.032 0.621,0.047 0.924,0.047l5.478,0c0.668,0 1.289,-0.063 1.862,-0.159c0.064,1.449 0.16,2.341 0.302,2.962l-0.732,0.159c-0.653,-1.831 -0.875,-2.293 -1.417,-2.293l-1.831,-0l-0,7.261c-0,0.924 0.032,1.481 0.063,1.8c0.064,0.429 0.144,0.477 1.864,0.589l0,0.668l-5.701,-0l0,-0.668Z" style="fill:#fff;fill-rule:nonzero;"/>
    <path d="M86.867,23.108c1.625,-0.112 1.72,-0.16 1.768,-0.589c0.064,-0.542 0.064,-1.8 0.064,-4.237c-0,-2.435 -0,-3.693 -0.064,-4.234c-0.048,-0.43 -0.143,-0.478 -1.768,-0.59l0,-0.669l5.51,0l-0,0.669c-1.625,0.112 -1.72,0.16 -1.768,0.59c-0.031,0.334 -0.063,1.273 -0.063,2.022l-0,6.273c-0,0.542 0.159,0.669 0.685,0.669l1.958,0c1.656,0 1.927,-0.478 2.882,-2.659l0.765,0.223c-0.192,0.557 -0.447,2.42 -0.478,3.2l-9.491,-0l0,-0.668Z" style="fill:#fff;fill-rule:nonzero;"/>
    <path d="M102.647,23.267c1.704,-0 3.153,-1.609 3.153,-4.984c0,-3.376 -1.449,-4.984 -3.153,-4.984c-1.703,0 -3.152,1.608 -3.152,4.984c-0,3.375 1.449,4.984 3.152,4.984m0,-10.733c2.946,0 5.223,2.325 5.223,5.749c0,3.423 -2.277,5.749 -5.223,5.749c-2.945,-0 -5.222,-2.326 -5.222,-5.749c-0,-3.424 2.277,-5.749 5.222,-5.749" style="fill:#fff;fill-rule:nonzero;"/>
    <path d="M108.093,23.108c1.529,-0.112 1.624,-0.16 1.672,-0.589c0.063,-0.542 0.063,-1.8 0.063,-4.237c0,-2.435 0,-3.693 -0.063,-4.234c-0.048,-0.43 -0.143,-0.478 -1.672,-0.59l0,-0.669l3.281,0c0.095,0.191 0.27,0.415 0.477,0.717l4.968,7.229l0.033,0l-0,-2.453c-0,-2.435 -0,-3.693 -0.064,-4.234c-0.048,-0.43 -0.144,-0.478 -1.864,-0.59l0,-0.669l4.506,0l0,0.669c-1.48,-0 -1.624,0.08 -1.672,0.955c-0.047,0.828 -0.079,1.816 -0.079,2.66c-0,3.073 0.016,5.636 0.127,6.894l-1.146,0c-0.669,-1.241 -1.242,-2.165 -2.085,-3.343l-3.886,-5.525l-0.032,-0l-0,3.183c-0,2.437 -0,3.695 0.063,4.237c0.048,0.429 0.144,0.477 2.07,0.589l0,0.668l-4.697,-0l0,-0.668Z" style="fill:#fff;fill-rule:nonzero;"/>
    <path d="M124.032,22.327c0,0.621 0.112,0.685 1.146,0.685c3.059,-0 4.316,-1.385 4.316,-4.777c-0,-3.472 -1.257,-4.777 -4.316,-4.777c-1.034,0 -1.146,0.064 -1.146,0.367l0,8.502Zm-3.773,0.781c1.719,-0.112 1.799,-0.16 1.863,-0.59c0.063,-0.541 0.063,-1.799 0.063,-4.235c0,-2.436 0,-3.694 -0.063,-4.236c-0.064,-0.429 -0.144,-0.477 -1.863,-0.589l-0,-0.669l5.446,0c2.229,0 3.263,0.478 4.299,1.449c0.923,0.86 1.56,2.229 1.56,3.997c-0,2.787 -1.752,5.542 -6.099,5.542l-5.206,-0l-0,-0.669Z" style="fill:#fff;fill-rule:nonzero;"/>
    <path d="M137.902,23.267c1.703,-0 3.152,-1.609 3.152,-4.984c0,-3.376 -1.449,-4.984 -3.152,-4.984c-1.704,0 -3.153,1.608 -3.153,4.984c-0,3.375 1.449,4.984 3.153,4.984m-0,-10.733c2.945,0 5.222,2.325 5.222,5.749c0,3.423 -2.277,5.749 -5.222,5.749c-2.946,-0 -5.223,-2.326 -5.223,-5.749c-0,-3.424 2.277,-5.749 5.223,-5.749" style="fill:#fff;fill-rule:nonzero;"/>
    <path d="M143.075,23.108c1.529,-0.112 1.624,-0.16 1.672,-0.589c0.064,-0.542 0.064,-1.8 0.064,-4.237c-0,-2.435 -0,-3.693 -0.064,-4.234c-0.048,-0.43 -0.143,-0.478 -1.672,-0.59l-0,-0.669l3.28,0c0.096,0.191 0.271,0.415 0.478,0.717l4.968,7.229l0.032,0l0,-2.453c0,-2.435 0,-3.693 -0.064,-4.234c-0.047,-0.43 -0.143,-0.478 -1.863,-0.59l-0,-0.669l4.506,0l-0,0.669c-1.481,-0 -1.624,0.08 -1.671,0.955c-0.048,0.828 -0.08,1.816 -0.08,2.66c0,3.073 0.016,5.636 0.127,6.894l-1.146,0c-0.669,-1.241 -1.242,-2.165 -2.086,-3.343l-3.885,-5.525l-0.033,-0l0,3.183c0,2.437 0,3.695 0.064,4.237c0.048,0.429 0.143,0.477 2.07,0.589l0,0.668l-4.697,-0l-0,-0.668Z" style="fill:#fff;fill-rule:nonzero;"/>
    <path d="M17.598,32.8c0,-0 13.489,-2.086 13.489,-11.049l0,-18.736l-13.493,-0l0.004,29.785Z" style="fill:#fff;fill-rule:nonzero;"/>
    <path d="M16.741,25.926c-0.276,-0.189 -5.383,-3.717 -9.75,-6.374c-4.56,-2.777 -6.5,-5.067 -6.818,-7.47c-0.333,-2.506 -0.081,-11.81 -0.087,-11.903c0.001,-0.204 0.228,-0.238 0.315,-0.08c-0,0 16.517,25.519 16.589,25.636c0.073,0.117 0.028,0.381 -0.249,0.191" style="fill:#fff;fill-rule:nonzero;"/>
    <path d="M0.082,16.293c-0.008,0.068 0.058,3.865 0.806,6.087c0.037,0.11 0.826,3.148 4.861,3.535c4.364,0.421 10.962,0.66 11.007,0.66l0.005,0c0.065,-0.002 0.123,-0.046 0.141,-0.109c0.019,-0.066 -0.009,-0.135 -0.066,-0.171l-16.53,-10.174c-0.016,-0.01 -0.041,-0.018 -0.069,-0.018c-0.065,0 -0.145,0.042 -0.155,0.19Z" style="fill:#fff;fill-rule:nonzero;"/>
    <path d="M2.385,26.37c-0.077,-0 -0.264,0.051 -0.091,0.267c0.023,0.019 1.866,2.749 4.211,3.866c1.403,0.633 2.35,0.624 3.689,-0.031c1.666,-0.843 6.667,-3.234 6.695,-3.247c0.062,-0.029 0.097,-0.098 0.082,-0.166c-0.014,-0.07 -0.073,-0.118 -0.142,-0.121l-14.434,-0.568l-0.01,-0Z" style="fill:#fff;fill-rule:nonzero;"/>
    <path d="M16.881,27.653l-7.925,4.056c-0.201,0.107 -0.014,0.24 -0.014,0.24c0.142,0.149 7.085,2.216 7.677,-0.328c0.417,-1.796 0.459,-3.768 0.459,-3.768c0.008,-0.153 -0.027,-0.233 -0.1,-0.233c-0.027,-0 -0.06,0.011 -0.097,0.033Z" style="fill:#fff;fill-rule:nonzero;"/>
    <path d="M42.008,33.639c-0.016,0.137 -0.104,0.168 -0.248,0.168l-1.448,0l-0,4.522c-0,0.153 -0.033,0.184 -0.169,0.184l-0.703,0c-0.145,0 -0.17,-0.031 -0.17,-0.176l0,-4.53l-1.496,0c-0.136,0 -0.183,-0.056 -0.183,-0.191l-0,-0.473c-0,-0.119 0.056,-0.168 0.176,-0.168l4.049,0c0.208,0 0.264,0.064 0.248,0.201l-0.056,0.463Z" style="fill:#fff;fill-rule:nonzero;"/>
    <path d="M46.087,38.353c0,0.121 -0.024,0.16 -0.128,0.16l-0.704,0c-0.112,0 -0.136,-0.031 -0.136,-0.16l-0,-2.223c-0,-0.433 -0.121,-0.754 -0.601,-0.754c-0.312,-0 -0.712,0.168 -0.959,0.384l-0,2.593c-0,0.121 -0.033,0.16 -0.153,0.16l-0.688,0c-0.096,0 -0.128,-0.039 -0.128,-0.143l0,-5.29c0,-0.144 0.064,-0.184 0.176,-0.2c0.584,-0.08 0.624,-0.08 0.656,-0.08c0.089,0 0.137,0.04 0.137,0.152l-0,2.008c0.335,-0.279 0.839,-0.432 1.263,-0.432c0.896,-0 1.265,0.568 1.265,1.433l0,2.392Z" style="fill:#fff;fill-rule:nonzero;"/>
    <path d="M49.534,36.16l0,-0.087c-0.016,-0.416 -0.256,-0.8 -0.744,-0.8c-0.52,-0 -0.832,0.415 -0.896,0.887l1.64,0Zm0.472,1.482c0.089,-0.033 0.169,-0.049 0.2,0.072l0.113,0.408c0.007,0.04 0.016,0.071 0.016,0.094c-0,0.057 -0.032,0.097 -0.129,0.137c-0.392,0.177 -0.928,0.257 -1.344,0.257c-1.256,-0 -2.001,-0.801 -2.001,-2.049c0,-1.2 0.792,-2.033 1.985,-2.033c0.488,-0 0.888,0.184 1.168,0.481c0.369,0.383 0.473,0.888 0.473,1.433l-0,0.119c-0,0.192 -0.065,0.233 -0.264,0.233l-2.345,-0c0.063,0.615 0.512,1.039 1.144,1.039c0.336,0 0.672,-0.071 0.984,-0.191" style="fill:#fff;fill-rule:nonzero;"/>
    <path d="M89.914,36.009c-0,1.649 -0.776,2.554 -2.337,2.554c-1.688,-0 -2.305,-0.929 -2.305,-2.57l0,-2.873c0,-0.136 0.081,-0.192 0.209,-0.192l0.632,-0c0.136,-0 0.192,0.056 0.192,0.192l0,2.786c0,1.175 0.304,1.783 1.313,1.783c0.967,-0 1.271,-0.639 1.271,-1.783l-0,-2.786c-0,-0.136 0.073,-0.192 0.201,-0.192l0.632,-0c0.136,-0 0.192,0.056 0.192,0.192l-0,2.889Z" style="fill:#fff;fill-rule:nonzero;"/>
    <path d="M94.458,38.258c-0,0.136 -0.049,0.207 -0.194,0.207l-0.575,0c-0.145,0 -0.192,-0.071 -0.192,-0.207l0,-2.176c0,-0.441 -0.12,-0.753 -0.609,-0.753c-0.311,-0 -0.696,0.168 -0.944,0.384l-0,2.553c-0,0.136 -0.056,0.199 -0.192,0.199l-0.585,0c-0.119,0 -0.191,-0.063 -0.191,-0.191l0,-3.49c0,-0.128 0.056,-0.199 0.2,-0.199l0.52,0c0.112,0 0.184,0.031 0.192,0.151l0.008,0.209c0.368,-0.296 0.832,-0.464 1.297,-0.464c0.896,-0 1.265,0.56 1.265,1.433l-0,2.344Z" style="fill:#fff;fill-rule:nonzero;"/>
    <path d="M96.495,38.266c0,0.144 -0.063,0.2 -0.2,0.2l-0.56,-0c-0.144,-0 -0.208,-0.056 -0.208,-0.2l-0,-3.497c-0,-0.135 0.081,-0.184 0.208,-0.184l0.56,-0c0.128,-0 0.2,0.039 0.2,0.184l0,3.497Zm-0.487,-4.194c-0.265,-0 -0.546,-0.175 -0.546,-0.496c0,-0.319 0.266,-0.512 0.546,-0.512c0.271,0 0.535,0.185 0.535,0.504c0,0.312 -0.271,0.504 -0.535,0.504" style="fill:#fff;fill-rule:nonzero;"/>
    <path d="M100.816,34.777l-1.4,3.537c-0.047,0.121 -0.112,0.151 -0.232,0.151l-0.416,0c-0.12,0 -0.2,-0.03 -0.24,-0.142l-1.377,-3.57c-0.008,-0.024 -0.016,-0.048 -0.016,-0.072c0,-0.065 0.04,-0.096 0.144,-0.096l0.704,0c0.136,0 0.2,0.056 0.233,0.16l0.608,1.865c0.079,0.24 0.151,0.504 0.2,0.68l0.007,0c0.041,-0.153 0.12,-0.433 0.192,-0.656l0.625,-1.881c0.04,-0.137 0.104,-0.168 0.248,-0.168l0.576,0c0.104,0 0.16,0.04 0.16,0.112c0,0.024 -0.008,0.048 -0.016,0.08" style="fill:#fff;fill-rule:nonzero;"/>
    <path d="M103.664,36.113l-0,-0.088c-0.017,-0.415 -0.257,-0.8 -0.744,-0.8c-0.521,0 -0.834,0.416 -0.897,0.888l1.641,-0Zm0.471,1.481c0.09,-0.033 0.169,-0.048 0.2,0.072l0.113,0.409c0.008,0.039 0.017,0.071 0.017,0.094c-0,0.057 -0.033,0.097 -0.13,0.137c-0.391,0.176 -0.928,0.256 -1.344,0.256c-1.257,0 -2,-0.801 -2,-2.048c-0,-1.201 0.792,-2.034 1.985,-2.034c0.487,0 0.888,0.185 1.167,0.481c0.369,0.384 0.473,0.889 0.473,1.433l-0,0.12c-0,0.191 -0.064,0.232 -0.263,0.232l-2.346,0c0.065,0.616 0.513,1.04 1.145,1.04c0.335,-0 0.672,-0.072 0.983,-0.192" style="fill:#fff;fill-rule:nonzero;"/>
    <path d="M107.455,34.514c0.056,0.014 0.08,0.038 0.08,0.102c0,0.025 -0.024,0.176 -0.096,0.641c-0.016,0.096 -0.065,0.12 -0.144,0.105c-0.063,-0.017 -0.144,-0.026 -0.217,-0.026c-0.27,0 -0.566,0.145 -0.767,0.386l0,2.544c0,0.127 -0.056,0.199 -0.193,0.199l-0.583,0c-0.128,0 -0.193,-0.063 -0.193,-0.199l-0,-3.482c-0,-0.159 0.081,-0.199 0.201,-0.199l0.511,0c0.128,0 0.201,0.04 0.201,0.151l0.009,0.257c0.248,-0.312 0.518,-0.512 0.968,-0.512c0.063,-0 0.151,0.007 0.223,0.033" style="fill:#fff;fill-rule:nonzero;"/>
    <path d="M109.143,38.562c-0.417,0 -0.873,-0.12 -1.233,-0.28c-0.072,-0.031 -0.095,-0.08 -0.095,-0.128c-0,-0.023 0.007,-0.049 0.015,-0.072l0.127,-0.409c0.025,-0.079 0.065,-0.112 0.121,-0.112c0.024,-0 0.048,-0 0.08,0.016c0.353,0.145 0.729,0.249 1.008,0.249c0.352,-0 0.592,-0.16 0.592,-0.424c0,-0.224 -0.151,-0.344 -0.48,-0.472l-0.631,-0.24c-0.457,-0.169 -0.825,-0.521 -0.825,-1.065c0,-0.784 0.736,-1.145 1.449,-1.145c0.384,0 0.76,0.065 1.16,0.24c0.063,0.033 0.096,0.065 0.096,0.113c0,0.023 -0.007,0.048 -0.016,0.08l-0.136,0.432c-0.016,0.056 -0.056,0.088 -0.112,0.088c-0.024,0 -0.056,-0.007 -0.081,-0.015c-0.263,-0.105 -0.608,-0.193 -0.863,-0.193c-0.337,0 -0.504,0.183 -0.504,0.367c-0,0.177 0.088,0.288 0.391,0.408l0.722,0.297c0.423,0.176 0.759,0.504 0.759,1.024c0,0.84 -0.728,1.241 -1.544,1.241" style="fill:#fff;fill-rule:nonzero;"/>
    <path d="M112.422,38.266c0,0.144 -0.064,0.2 -0.2,0.2l-0.56,-0c-0.144,-0 -0.208,-0.056 -0.208,-0.2l-0,-3.497c-0,-0.135 0.08,-0.184 0.208,-0.184l0.56,-0c0.128,-0 0.2,0.039 0.2,0.184l0,3.497Zm-0.487,-4.194c-0.265,-0 -0.546,-0.175 -0.546,-0.496c0,-0.319 0.265,-0.512 0.546,-0.512c0.271,0 0.534,0.185 0.534,0.504c0,0.312 -0.271,0.504 -0.534,0.504" style="fill:#fff;fill-rule:nonzero;"/>
    <path d="M115.622,37.698c0.032,-0.009 0.065,-0.017 0.088,-0.017c0.048,0 0.08,0.026 0.097,0.097l0.079,0.4c0.017,0.095 -0.016,0.16 -0.112,0.2c-0.248,0.104 -0.576,0.184 -0.895,0.184c-0.41,0 -0.762,-0.105 -0.961,-0.336c-0.248,-0.28 -0.255,-0.608 -0.255,-1.193l-0,-1.784l-0.377,-0c-0.152,-0 -0.176,-0.033 -0.176,-0.2l-0,-0.304c-0,-0.096 0.047,-0.16 0.143,-0.16l0.41,-0l-0,-0.874c-0,-0.135 0.071,-0.175 0.198,-0.191l0.617,-0.072c0.104,0 0.152,0.056 0.152,0.177l-0,0.96l0.905,-0c0.096,-0 0.152,0.031 0.152,0.135l0,0.376c0,0.097 -0.065,0.153 -0.161,0.153l-0.896,-0l-0,1.832c-0,0.24 0.016,0.416 0.104,0.544c0.072,0.105 0.184,0.168 0.376,0.168c0.2,0 0.368,-0.048 0.512,-0.095" style="fill:#fff;fill-rule:nonzero;"/>
    <path d="M120.007,34.777l-1.578,4.145c-0.359,0.952 -0.808,1.288 -1.768,1.288c-0.152,0 -0.288,-0.007 -0.425,-0.039c-0.135,-0.024 -0.127,-0.104 -0.11,-0.209l0.056,-0.416c0.015,-0.103 0.054,-0.144 0.143,-0.144c0.104,0 0.224,0.024 0.32,0.024c0.496,0 0.704,-0.176 0.865,-0.552l0.152,-0.36l-1.457,-3.753c-0.008,-0.025 -0.016,-0.04 -0.016,-0.064c0,-0.064 0.047,-0.112 0.121,-0.112l0.767,0c0.112,0 0.168,0.056 0.201,0.136l0.887,2.649l0.841,-2.601c0.04,-0.128 0.105,-0.184 0.24,-0.184l0.648,0c0.08,0 0.128,0.048 0.128,0.112c0,0.024 -0.007,0.048 -0.015,0.08" style="fill:#fff;fill-rule:nonzero;"/>
    <path d="M60.024,30.335c0,0 -0.02,0.021 -0.02,0.042c-0,0 0.02,-0.021 0.041,-0.021c-0,-0.021 -0.021,-0.021 -0.021,-0.021m-0.083,0.146l0,0.083c0.063,-0.041 0.063,-0.125 0.063,-0.187c-0.063,0.021 -0.063,0.062 -0.063,0.104m-0.083,0.23c0.02,-0.021 0.041,-0.042 0.041,-0.104c-0.041,0.042 -0.041,0.083 -0.041,0.104m-0.147,0.313c0.126,-0.083 0.147,-0.209 0.147,-0.313c-0.105,0.062 -0.126,0.167 -0.147,0.313m-0,-0c-0.041,0.021 -0.062,0.063 -0.062,0.125c0.062,-0.021 0.062,-0.083 0.062,-0.125m-0.145,0.251c0.062,-0.021 0.083,-0.042 0.083,-0.126c-0.063,0.021 -0.063,0.084 -0.083,0.126m-0.063,-0.042c-0.021,0.021 -0.042,0.042 -0.063,0.042l0.063,-0l-0,-0.042Zm-0.084,0.814c-0,-0.021 0.021,-0.063 0.021,-0.105c-0.021,0.022 -0.021,0.064 -0.021,0.105m0.021,-0.772c-0.042,0.042 -0.042,0.042 -0.042,0.062c0,0.021 0,0.042 0.042,0.063c-0.042,0.041 -0.062,0.104 -0.084,0.167l0,-0.021l-0.124,0.25c-0.022,0.084 -0.043,0.168 -0.043,0.23c0,-0.02 0.043,-0.062 0.084,-0.084l0.271,-0.48c0.022,-0.062 0.022,-0.125 0.022,-0.187c-0.022,-0 -0.042,-0 -0.063,0.02c-0.021,0.042 -0.021,0.084 -0.063,0.126l0,-0.146Zm-0.251,0.793c-0.062,0.021 -0.125,0.062 -0.125,0.146c0.105,-0.021 0.125,-0.104 0.125,-0.146m-0.125,0.146c-0.063,0.021 -0.063,0.062 -0.063,0.104c0.042,-0.042 0.042,-0.062 0.063,-0.104m-0.063,0.104c-0.041,0.021 -0.062,0.063 -0.062,0.126l0.062,-0.126Zm-0.208,0.314c0.062,-0.022 0.083,-0.063 0.104,-0.105l-0.104,0.105Zm-1.4,-4.865l0.043,-0.063c0.062,-0.02 0.146,-0.104 0.188,-0.188c-0.104,0 -0.168,0.084 -0.209,0.188c-0,0.022 -0.022,0.042 -0.022,0.063m-0.125,-0.272l0.042,-0.042c0,0 0.022,-0.02 0.022,-0.061l-0.043,0.061c0,0.022 0,0.022 -0.021,0.042m0,0.335c-0.104,0.062 -0.187,0.167 -0.271,0.334c-0.084,0.062 -0.167,0.125 -0.167,0.251c0.083,-0.043 0.167,-0.126 0.209,-0.251c0.104,-0.063 0.208,-0.188 0.25,-0.334l-0.021,-0Zm-0.438,0.585c-0.125,0.061 -0.209,0.146 -0.229,0.25c0.146,-0.042 0.188,-0.104 0.229,-0.25m-0.25,-0.251c-0.021,-0 -0.042,-0.021 -0.042,-0.021c-0.021,0 -0.021,0.021 -0.021,0.021l0.063,-0Zm0.021,0.501c-0.084,0.062 -0.105,0.125 -0.126,0.208c0.105,-0.062 0.126,-0.083 0.126,-0.208m-0.126,0.208c-0.042,0.022 -0.042,0.063 -0.062,0.168c0.062,-0.105 0.062,-0.126 0.062,-0.168m-0.062,0.168c-0.104,0.02 -0.126,0.083 -0.126,0.146c0.063,-0.021 0.126,-0.084 0.126,-0.146m-0.126,0.146c-0.083,0.02 -0.104,0.083 -0.125,0.146c0.084,-0.042 0.125,-0.084 0.125,-0.146m-0.125,0.146c-0.063,0.042 -0.063,0.084 -0.084,0.208c0.063,-0.083 0.084,-0.124 0.084,-0.208m-0.084,0.208c-0.041,0.022 -0.041,0.063 -0.062,0.126c0.062,-0.021 0.062,-0.083 0.062,-0.126m-0.062,0.126c-0.084,0.02 -0.104,0.063 -0.104,0.125c0.02,-0.062 0.041,-0.105 0.104,-0.125m-0.104,0.125c-0.063,0.021 -0.063,0.063 -0.063,0.105c0.041,-0.042 0.041,-0.084 0.063,-0.105m-0.146,0.334l-0,-0.02c-0,0.02 -0.022,0.041 -0.022,0.062c0,-0.021 0.022,-0.021 0.022,-0.042m-0.126,-0.709c0.042,-0 0.042,-0.042 0.042,-0.084c-0.021,0.042 -0.021,0.084 -0.042,0.084m-0.042,0.897c0.063,-0.062 0.084,-0.125 0.146,-0.146c-0.083,0.021 -0.125,0.084 -0.146,0.146m0,0c-0.042,0.021 -0.042,0.063 -0.042,0.104c0.022,-0.041 0.022,-0.083 0.042,-0.104m0.021,-0.73l-0.083,0.125c-0,-0.022 -0,-0.063 0.02,-0.125l0.063,-0Zm-0.564,0.877l0.063,-0c0,-0 -0.021,-0.022 -0.021,-0.043l-0.042,0.043Zm-0.02,0.083c-0,-0.021 -0,-0.063 0.02,-0.083c-0.02,0.02 -0.02,0.041 -0.02,0.083m-0,-0c-0,0.02 -0.022,0.063 -0.022,0.083c0,0 0,-0.041 0.022,-0.083m-0.063,0.188c0,-0.021 0.021,-0.063 0.041,-0.105c-0.041,0.042 -0.041,0.063 -0.041,0.105m-0.105,0.041l0,0.021c0.022,-0 0.022,-0.021 0.042,-0.021l-0.042,0Zm-0.083,0.272c-0,0 0.021,0 0.021,-0.062l-0,-0.022c-0,0.022 -0.021,0.022 -0.021,0.022l-0,0.062Zm-0.063,0.146c0.042,-0.042 0.042,-0.084 0.063,-0.146c-0.042,0.042 -0.063,0.083 -0.063,0.146m0,-0c-0.062,0.042 -0.062,0.104 -0.062,0.167c0.042,-0.021 0.042,-0.104 0.062,-0.167m-0.104,0.209l0,0.021c0,-0 0,-0.021 0.021,-0.021l-0.021,0Zm-0.188,0.501c0.063,-0.042 0.063,-0.146 0.063,-0.209c-0.042,0.042 -0.042,0.126 -0.063,0.209m-0.063,0.167c0.063,-0.042 0.063,-0.126 0.063,-0.167c-0.063,0.021 -0.063,0.063 -0.063,0.105l0,0.062Zm-0.02,0.104l-0,-0.083c-0.022,0.021 -0.022,0.021 -0.022,0.063c0,-0 0,0.02 0.022,0.02m1.169,-2.463l0.021,-0c-0.104,0.271 -0.209,0.543 -0.418,0.752c-0.042,0.146 -0.042,0.229 -0.083,0.292c-0.272,0.542 -0.543,1.148 -0.711,1.754c-0.041,0.103 -0.062,0.166 -0.062,0.292c0.104,-0.104 0.104,-0.189 0.146,-0.335c0.376,-1.043 0.814,-2.025 1.399,-2.923c0.292,-0.458 0.606,-0.939 0.918,-1.377c0.064,-0.042 0.084,-0.126 0.147,-0.188c0.104,-0.126 0.229,-0.188 0.292,-0.292c0.042,-0.063 0.042,-0.126 0.083,-0.168c-0.166,0.105 -0.312,0.251 -0.417,0.439l-0.25,0.209c-0.084,0.167 -0.188,0.312 -0.356,0.459c-0.02,0.126 -0.062,0.167 -0.125,0.167c-0.021,0.125 -0.083,0.293 -0.209,0.334l0,-0.083l-0.062,0.083l0.062,0c-0.062,0.167 -0.104,0.334 -0.271,0.46l-0,-0.167c-0.063,0.041 -0.063,0.124 -0.063,0.167c-0.02,0.02 -0.041,0.083 -0.041,0.125m-1.253,2.609c-0,0.021 -0.042,0.021 -0.042,0.063l0,0.063c0.021,-0.021 0.042,-0.041 0.042,-0.063l-0,-0.063Zm-0.084,0.189c-0.02,0.02 -0.042,0.02 -0.042,0.02l0.042,-0.02Zm-0.187,0.563l0.041,-0l-0.041,-0.041l0,0.041Zm0,0.439c-0.021,0.083 -0.021,0.209 -0.063,0.313c0.042,-0.021 0.063,-0.043 0.063,-0.063c0.062,-0.25 0.125,-0.501 0.229,-0.793c0,-0.042 0,-0.125 0.042,-0.167c-0.042,0.02 -0.084,0.062 -0.126,0.125c-0.041,0.188 -0.104,0.355 -0.145,0.585m-0.126,0.48c-0,0.041 -0,0.041 0.021,0.041c0,-0.02 0.042,-0.146 0.042,-0.208c-0.042,0.042 -0.063,0.062 -0.063,0.104l-0,0.063Zm-0,-0.48l-0.021,-0l0,0.083l0.021,0l-0,-0.083Zm-0.062,0.835c0,-0 0.021,-0 0.021,-0.021c-0,0 -0.021,-0.021 -0.021,-0.042l0,0.063Zm8.539,1.586c-0.418,0.648 -0.918,1.274 -1.503,1.838c-0.355,0.376 -0.689,0.688 -1.065,0.939l-1.044,0.773c-0.438,0.292 -0.794,0.522 -1.232,0.73c-0.417,0.188 -0.814,0.334 -1.232,0.46c-0.167,0.042 -0.334,0.063 -0.5,0.063c-0.293,-0 -0.585,-0.063 -0.877,-0.146c-0.168,-0.085 -0.397,-0.168 -0.523,-0.272c-0.396,-0.251 -0.709,-0.626 -0.939,-1.044c-0.209,-0.48 -0.292,-0.939 -0.376,-1.461c0,-0.23 -0.021,-0.418 -0.021,-0.627c-0.021,-0.208 -0.021,-0.417 -0.021,-0.626l0,-0.271c0.021,-0.272 0.042,-0.543 0.084,-0.794c0.146,-0.814 0.334,-1.608 0.585,-2.38c0.187,-0.605 0.417,-1.211 0.688,-1.817c0.167,-0.459 0.397,-0.918 0.669,-1.336c0.312,-0.564 0.647,-1.169 1.064,-1.67c0.147,-0.188 0.314,-0.439 0.46,-0.605c0.062,-0.063 0.104,-0.126 0.166,-0.168c0.356,-0.313 0.627,-0.689 1.045,-0.939c0.375,-0.313 0.751,-0.522 1.127,-0.71c0.23,-0.083 0.438,-0.125 0.669,-0.125c0.25,-0 0.521,0.062 0.751,0.167c0.459,0.229 0.73,0.606 0.856,1.106c0.062,0.146 0.083,0.251 0.083,0.377l0,0.312c0,0.627 -0.209,1.232 -0.375,1.859c-0.293,0.772 -0.648,1.524 -1.065,2.213l-0.627,1.023c-0.146,0.104 -0.25,0.23 -0.292,0.354c-0.062,0.063 -0.125,0.084 -0.167,0.084c-0.041,0 -0.063,-0.021 -0.104,-0.062c-0.021,-0.042 -0.105,-0.063 -0.125,-0.126c-0.042,-0.02 -0.146,0 -0.146,-0.083c-0,-0.063 0.041,-0.105 0.104,-0.147c0.438,-0.855 0.856,-1.691 1.231,-2.589c0.272,-0.667 0.522,-1.398 0.668,-2.087c0.043,-0.293 0.104,-0.585 0.104,-0.877c0,-0.188 -0.02,-0.376 -0.083,-0.564c0,-0.062 -0.021,-0.104 -0.021,-0.125c0,-0.105 -0.083,-0.147 -0.146,-0.147c-0.083,0 -0.167,-0.02 -0.25,-0.02c-0.167,-0 -0.334,0.042 -0.48,0.105c-0.313,0.166 -0.627,0.312 -0.898,0.5c-0.229,0.209 -0.48,0.334 -0.668,0.543l-0.648,0.71c-0.459,0.543 -0.876,1.253 -1.21,1.9c-0.334,0.564 -0.606,1.127 -0.877,1.733c-0.146,0.355 -0.272,0.731 -0.376,1.106c-0.063,0.126 -0.126,0.251 -0.146,0.397c-0.167,0.48 -0.293,1.002 -0.376,1.524c-0.021,0.251 -0.084,0.543 -0.105,0.773c-0.02,0.188 -0.083,0.397 -0.083,0.543c-0.021,0.166 -0.042,0.355 -0.042,0.522c-0,0.292 0.042,0.584 0.063,0.898c-0,0.376 0.083,0.792 0.188,1.127c0.062,0.334 0.188,0.605 0.397,0.877c0.125,0.188 0.312,0.313 0.5,0.355c0.105,0 0.189,0.021 0.272,0.041c0.209,-0.02 0.439,-0.083 0.605,-0.166c0.689,-0.251 1.315,-0.627 1.984,-0.982c0.354,-0.251 0.773,-0.46 1.127,-0.814c0.209,-0.125 0.355,-0.292 0.564,-0.459c0.648,-0.543 1.378,-1.211 1.859,-1.817c0.792,-0.877 1.023,-1.211 1.231,-1.211c0.042,0 0.084,-0.021 0.126,-0.021c0.041,-0 0.083,0.021 0.124,0.126c-0.229,0.417 -0.438,0.835 -0.751,1.21" style="fill:#fff;fill-rule:nonzero;"/>
    <path d="M67.416,34.741l-0,0.042c-0,-0.022 0.021,-0.022 0.021,-0.042l-0.021,-0Zm-0.105,0.334c0,0.02 -0.02,0.041 -0.041,0.041c0.021,-0 0.021,-0 0.041,-0.021l0,-0.02Zm-0.124,0.124c0.041,-0.02 0.062,-0.02 0.062,-0.041c-0.021,0 -0.042,0.021 -0.042,0.021l-0.02,0.02Zm-0.231,0.439c-0.041,0.021 -0.041,0.042 -0.062,0.063c0.021,-0.021 0.042,-0.021 0.042,-0.042l0.02,-0.021Zm-0.396,0.564c-0.021,0.021 -0.042,0.062 -0.042,0.084l0.042,-0.084Zm-4.927,-2.423c-0.084,0.022 -0.126,0.063 -0.126,0.147c0.063,-0.02 0.126,-0.062 0.126,-0.147m-0.272,-0.166c-0.042,0.021 -0.083,0.083 -0.083,0.146l-0,0.042c0.041,-0.042 0.083,-0.083 0.083,-0.188m-0.125,0.751c0.083,-0.041 0.105,-0.061 0.105,-0.124l-0,-0.064c0.083,-0.02 0.124,-0.083 0.124,-0.166c-0.083,0.02 -0.104,0.083 -0.124,0.146c-0.063,0.042 -0.105,0.125 -0.105,0.208m-0,0c-0.083,0.042 -0.126,0.126 -0.126,0.231l0,0.062c0.084,-0.062 0.126,-0.147 0.126,-0.293m-0.126,0.293c-0.041,0.021 -0.041,0.063 -0.041,0.126c0.041,-0.022 0.041,-0.084 0.041,-0.126m-0.041,0.126c-0.105,0.02 -0.125,0.082 -0.125,0.166c0.083,-0.042 0.104,-0.084 0.125,-0.166m-0.125,0.229l-0,-0.063c-0.042,0.042 -0.042,0.084 -0.042,0.126c0.042,-0.021 0.042,-0.042 0.042,-0.063m-0.042,0.063c-0.021,0.041 -0.042,0.083 -0.042,0.124c0.042,-0.02 0.042,-0.062 0.042,-0.124m-0.146,0.292c0.02,-0 0.02,-0.042 0.042,-0.063l-0.042,0.063Zm-0.439,-0.168c-0,-0.02 0.021,-0.041 0.021,-0.062c-0.021,0 -0.042,0.021 -0.042,0.042l0.021,0.02Zm-0.084,0.314c0,0.02 -0.02,0.02 -0.02,0.042c-0,-0 0.02,-0.022 0.02,-0.042m0.857,-1.483l-0.083,0.063c-0.335,0.502 -0.585,1.128 -0.752,1.733c-0.022,0.063 -0.042,0.126 -0.042,0.188c-0,0.042 -0,0.062 0.02,0.104c-0.062,0.021 -0.083,0.084 -0.083,0.126c0,0.02 0.021,0.042 0.021,0.062c-0,0.021 -0.021,0.021 -0.021,0.042c-0.02,-0 0,0.021 0,0.021c0,-0.021 0.021,-0.042 0.021,-0.063c0.062,-0.042 0.062,-0.125 0.062,-0.208c0.063,-0.022 0.063,-0.084 0.105,-0.188c0.167,-0.564 0.376,-1.107 0.669,-1.607c0.041,-0.063 0.062,-0.189 0.103,-0.273c0.084,-0.02 0.126,-0.124 0.168,-0.229c-0.125,0.041 -0.188,0.105 -0.188,0.229m6.472,0.627c0.063,0 0.083,0.084 0.146,0.104c0.021,0 0.021,0.042 0.021,0.063c-0.042,0.125 -0.062,0.251 -0.125,0.355c-0.417,0.689 -0.814,1.336 -1.274,1.983c-0.167,0.251 -0.397,0.522 -0.584,0.815l-0.564,0.501c-0.25,0.146 -0.438,0.229 -0.647,0.229c-0.147,0 -0.293,-0.041 -0.459,-0.125c-0.314,-0.146 -0.606,-0.376 -0.794,-0.689c-0.126,-0.209 -0.187,-0.438 -0.209,-0.668c0,-0.104 -0.02,-0.23 -0.02,-0.334c-0.022,-0.062 -0.022,-0.125 -0.022,-0.167c0.064,-0.689 0.188,-1.399 0.376,-2.067c0.042,-0.125 0.126,-0.271 0.126,-0.417l-0,-0.042c-0.146,0.042 -0.126,0.166 -0.168,0.292l-0.793,1.399c-0.23,0.417 -0.459,0.814 -0.731,1.19c-0.146,0.208 -0.334,0.396 -0.522,0.605c-0.104,0.146 -0.292,0.23 -0.438,0.293c-0.042,0.021 -0.083,0.021 -0.125,0.021c-0.063,-0 -0.146,-0.021 -0.23,-0.042c-0.23,-0.084 -0.396,-0.292 -0.605,-0.481c-0.146,-0.103 -0.23,-0.292 -0.23,-0.459c-0,-0.041 0.021,-0.063 0.021,-0.104c0,-0.083 -0.021,-0.188 -0.021,-0.271c-0,-0.418 0.084,-0.794 0.208,-1.149c0.085,-0.334 0.231,-0.668 0.356,-0.982c0.209,-0.396 0.438,-0.751 0.709,-1.106c0.043,-0.063 0.063,-0.125 0.105,-0.146c0.146,-0.209 0.313,-0.292 0.48,-0.417c0.063,-0.042 0.104,-0.063 0.167,-0.063c0.042,-0 0.105,-0.021 0.167,-0.021c0.313,0 0.71,0.146 0.981,0.418c0.084,0.083 0.126,0.208 0.167,0.312c0,0.022 0.022,0.063 0.022,0.105c-0,0.063 -0.022,0.104 -0.063,0.146c-0.022,0.021 -0.042,0.041 -0.063,0.041c-0.021,0 -0.063,-0.02 -0.105,-0.041l-0.334,-0.251c-0.041,-0.041 -0.062,-0.041 -0.083,-0.041c-0.021,0 -0.041,0 -0.063,0.021l-0.25,0.229c-0.188,0.21 -0.334,0.439 -0.501,0.668c-0.292,0.543 -0.501,1.107 -0.689,1.692c-0.104,0.208 -0.146,0.459 -0.188,0.668c-0.021,0.063 -0.021,0.167 -0.021,0.229c0,0.022 0.021,0.063 0.042,0.084l0.021,0c0.02,0 0.042,0 0.062,-0.021c0.355,-0.334 0.689,-0.73 0.961,-1.19c0.439,-0.627 0.877,-1.253 1.294,-1.9c0.251,-0.417 0.606,-0.877 0.898,-1.294l0.397,-0.564c0.062,-0.084 0.083,-0.125 0.125,-0.125c0.021,0 0.083,0.021 0.146,0.041c0.083,0.042 0.209,0.084 0.271,0.126c0.084,0.083 0.146,0.166 0.146,0.271c0,0.042 -0.02,0.083 -0.02,0.126l-0.23,0.709c-0.23,0.752 -0.459,1.525 -0.647,2.297c-0.063,0.334 -0.146,0.668 -0.188,1.044c-0.021,0.23 -0.042,0.438 -0.042,0.668c0,0.167 0.021,0.313 0.021,0.481c0,0.166 0.042,0.271 0.105,0.396c0.062,0.104 0.167,0.146 0.271,0.146l0.062,-0c0.063,-0.021 0.147,-0.021 0.21,-0.063c0.146,-0.145 0.312,-0.25 0.438,-0.417c0.376,-0.418 0.793,-0.856 1.106,-1.378c0.314,-0.418 0.585,-0.835 0.877,-1.274c0.083,-0.104 0.126,-0.251 0.168,-0.375l0.146,-0.126c0.02,-0.02 0.041,-0.02 0.062,-0.02c0.021,-0 0.042,-0 0.063,0.02c0.041,0.021 0.021,0.042 0.041,0.063c0.022,-0.021 0.042,-0.021 0.063,-0.021" style="fill:#fff;fill-rule:nonzero;"/>
    <path d="M68.732,33.864c-0.021,0.02 -0.042,0.042 -0.042,0.062c0.021,-0.02 0.042,-0.042 0.042,-0.062m-0.146,0.166c-0.021,0.022 -0.021,0.022 -0.021,0.042c0,-0.02 0,-0.02 0.021,-0.02l-0,-0.022Zm-0.042,0.105c-0.021,0.021 -0.042,0.041 -0.042,0.063c0.021,-0.022 0.042,-0.042 0.042,-0.063m-0.042,-0.376c0.021,-0 0.042,-0.021 0.042,-0.041c-0.021,-0 -0.042,0.02 -0.042,0.041m-0.084,0.522c-0.02,0.021 -0.041,0.021 -0.041,0.021l0.041,-0.021Zm-1.274,1.441c0,0 0.022,0 0.042,-0.021c0,-0 0.021,-0.021 0.043,-0.021c0.166,-0.313 0.396,-0.626 0.605,-0.919l0.063,-0.167c0.166,-0.188 0.334,-0.376 0.48,-0.605l0.063,-0.105c-0.209,0.146 -0.377,0.397 -0.543,0.626c-0.022,0.022 -0.022,0.043 -0.022,0.063c-0.229,0.23 -0.375,0.481 -0.543,0.731c-0.083,0.105 -0.146,0.209 -0.229,0.355c0,0.021 0,0.042 0.041,0.063m1.17,-1.358c-0.125,0.146 -0.251,0.272 -0.355,0.481c-0.021,0.02 -0.021,0.042 -0.021,0.062c-0.104,0.042 -0.188,0.188 -0.25,0.314c-0.063,0.083 -0.167,0.188 -0.21,0.312c-0.103,0.085 -0.146,0.189 -0.146,0.272c-0.166,0.209 -0.208,0.439 -0.312,0.647l-0,0.063l0.062,0c0.104,-0.188 0.188,-0.417 0.25,-0.668c0.063,-0.063 0.146,-0.146 0.189,-0.251c0.083,-0.104 0.167,-0.187 0.208,-0.355c0.084,-0.083 0.188,-0.166 0.209,-0.313c0,-0.021 0.021,-0.041 0.042,-0.063c0.125,-0.104 0.229,-0.25 0.314,-0.355c0.02,-0.02 0.02,-0.062 0.02,-0.146m1.963,-1.273c-0,0.021 -0,0.042 -0.022,0.062c-0.041,0.022 -0.083,0.042 -0.146,0.042c-0.229,0.063 -0.458,0.146 -0.667,0.335c-0.252,0.188 -0.502,0.438 -0.731,0.71c-0.48,0.625 -0.94,1.273 -1.379,1.983l-0.5,0.96c-0.126,0.209 -0.188,0.439 -0.23,0.689c-0.062,0.272 -0.167,0.523 -0.23,0.752c-0.02,0.083 -0.063,0.146 -0.146,0.229c-0.02,0.022 -0.063,0.042 -0.083,0.042c-0.042,0 -0.084,-0.02 -0.105,-0.062c0,-0.021 0,-0.063 -0.021,-0.104c-0.021,-0.042 -0.042,-0.042 -0.083,-0.042c-0.105,-0.022 -0.146,-0.042 -0.146,-0.126l0,-0.063c0,-0.042 0.021,-0.083 0.021,-0.125l-0,-0.041l-0.042,-0c-0.021,0.063 -0.063,0.083 -0.084,0.124l0,-0.061c0,-0.043 0,-0.085 -0.083,-0.085c-0.083,-0.02 -0.105,-0.041 -0.105,-0.104c0,-0.042 0.022,-0.104 0.042,-0.188c0.021,-0.229 0.042,-0.501 0.105,-0.751c0.083,-0.46 0.187,-0.877 0.25,-1.295c0.083,-0.396 0.188,-0.751 0.251,-1.085c-0,-0.104 0.02,-0.251 0.083,-0.355c0.042,-0.209 0.083,-0.376 0.146,-0.564c0.168,-0.522 0.314,-1.002 0.355,-1.565c0.063,-0.064 0.105,-0.127 0.188,-0.168c0.042,-0.021 0.021,-0.042 0.042,-0.042l0.041,0l0.272,0.083c0.042,0.042 0.062,0.105 0.062,0.147l0.043,0c0.042,0 0.103,0.021 0.146,0.063c0.02,0.083 0.062,0.187 0.104,0.209c0.042,0.02 0.063,0.083 0.063,0.124c0,0.126 -0.021,0.188 -0.021,0.251c-0.084,0.376 -0.438,1.357 -0.564,1.795c0,0.063 0,0.126 -0.021,0.168c0,0.021 0.021,0.021 0.021,0.042l0.063,-0l0.125,-0.105l1.003,-1.44c0.271,-0.272 0.604,-0.543 0.918,-0.731c0.146,-0.063 0.271,-0.104 0.417,-0.104c0.105,-0 0.209,0.02 0.314,0.041c0.166,0.021 0.271,0.146 0.334,0.334l-0,0.021Z" style="fill:#fff;fill-rule:nonzero;"/>
    <path d="M74.661,35.388c0,-0.021 -0.021,-0.021 -0.042,-0.042l0,-0.021l-0.021,0l0.021,0.021c0,0.042 0,0.063 -0.041,0.105c0.062,-0.021 0.083,-0.042 0.083,-0.063m-0.251,0.313l0,0.042c0.084,-0.084 0.168,-0.168 0.168,-0.292c-0.084,0.083 -0.146,0.146 -0.168,0.25m-0.083,0.146c0.063,-0.021 0.083,-0.042 0.083,-0.104l-0.062,-0l-0.021,0.104Zm-0.063,0.104c0.042,-0.02 0.042,-0.062 0.063,-0.104l-0.042,0l-0.021,0.021l0,0.083Zm-0.083,0.335c0.021,-0.021 0.062,-0.063 0.062,-0.105l-0.062,0.105Zm-0.021,0.02c-0.021,0.022 -0.062,0.063 -0.062,0.105l0.062,-0.105Zm0.104,-0.355c-0.104,0.084 -0.166,0.188 -0.251,0.314c0.126,-0.042 0.189,-0.167 0.251,-0.314m-0.251,0.335c-0.062,0.02 -0.103,0.062 -0.124,0.146c0.062,-0.021 0.124,-0.084 0.124,-0.146m-0.146,0.376c-0.02,0.02 -0.041,0.041 -0.062,0.104l0.062,-0.104Zm0.022,-0.23c-0.084,0.042 -0.126,0.104 -0.168,0.188c0.084,-0.021 0.126,-0.084 0.168,-0.188m-0.105,0.354c-0.063,0.042 -0.125,0.084 -0.146,0.168c0.083,-0.042 0.104,-0.084 0.146,-0.168m-0.063,-0.166c-0.083,0.062 -0.125,0.083 -0.146,0.187c0.084,-0.021 0.104,-0.083 0.146,-0.187m-0.083,0.334c-0.021,0.02 -0.063,0.042 -0.083,0.083c0.041,-0.021 0.062,-0.041 0.083,-0.083m-0.083,0.083c-0.042,0.021 -0.063,0.042 -0.063,0.104c0.042,-0.021 0.063,-0.041 0.063,-0.104m-0.084,-0.146c-0.021,0.021 -0.042,0.063 -0.042,0.105l0.042,-0.105Zm-0.063,0.314l-0.062,0.062c0.021,-0.021 0.062,-0.042 0.083,-0.042c0,-0.02 -0.021,-0.02 -0.021,-0.02m-0.25,-0.022c0.021,-0.021 0.146,-0.083 0.167,-0.125l-0.188,0.125l0,0.022l0.021,-0.022Zm-0.585,-2.881c0.021,0 0.021,-0.02 0.042,-0.02c0,-0.022 0,-0.022 0.021,-0.042c-0.042,0.02 -0.042,0.042 -0.063,0.062m-0.188,0.292c0.084,-0.042 0.167,-0.166 0.188,-0.271c-0.104,0.042 -0.167,0.146 -0.188,0.271m-0.041,0.042c-0.022,0 -0.042,0.021 -0.042,0.021c-0,-0 0.02,-0 0.042,-0.021m-0.022,-0.543c-0.02,0.042 -0.041,0.062 -0.041,0.104l0.041,0c-0.041,0.063 -0.062,0.147 -0.083,0.209c-0.021,0.042 -0.083,0.063 -0.104,0.105l-0,0.021c0.021,-0 0.021,0.02 0.021,-0c0.042,-0.021 0.062,-0.063 0.104,-0.104c0.104,-0.084 0.167,-0.21 0.23,-0.314c0.042,-0.063 0.042,-0.125 0.062,-0.188c-0.083,0 -0.062,0.105 -0.125,0.125c-0.021,0.022 -0.042,0.022 -0.042,0.042c-0.021,0 -0.021,0 -0.021,-0.02l0,-0.042c0,0.02 -0.02,0.042 -0.042,0.062m-0.626,-0.688c-0.021,-0 -0.041,-0 -0.063,0.02c-0.208,0.209 -0.417,0.438 -0.521,0.73c0.041,-0.02 0.063,-0.041 0.083,-0.082c0.167,-0.21 0.355,-0.418 0.501,-0.627l0,-0.041Zm0.46,-0c-0.146,0.083 -0.251,0.208 -0.376,0.312c-0.271,0.334 -0.459,0.689 -0.647,1.065c-0.021,0.021 -0.021,0.042 -0.021,0.063l-0,0.021c-0,0.02 0.021,0.042 0.063,0.042c0.104,-0.063 0.187,-0.084 0.271,-0.146c0.313,-0.251 0.584,-0.522 0.752,-0.877c0.083,-0.146 0.146,-0.293 0.166,-0.46l0,-0.02c0,-0.042 -0.042,-0.063 -0.083,-0.063l-0.042,-0l-0.083,0.063Zm-1.044,0.75c-0.022,0.022 -0.042,0.042 -0.063,0.105c0.063,-0.02 0.063,-0.063 0.063,-0.105m-0.105,0.168c0.021,-0.021 0.021,-0.041 0.021,-0.063c-0,0.022 -0.021,0.022 -0.021,0.042l0,0.021Zm-0.041,-0.731c0.021,-0.021 0.041,-0.063 0.041,-0.104l-0.041,0.104Zm-0.063,0.063c-0.062,0.021 -0.062,0.062 -0.062,0.104l0.062,-0.104Zm-0.209,0.271c0.084,-0.021 0.125,-0.083 0.125,-0.167c-0.063,0.042 -0.104,0.084 -0.125,0.167m-0.25,0.439c0.083,-0.083 0.166,-0.21 0.208,-0.334c0.021,-0.021 0.042,-0.063 0.042,-0.105c-0.042,0.021 -0.062,0.063 -0.062,0.105c-0.126,0.083 -0.168,0.187 -0.188,0.334m-0.084,0.104c0.063,-0.021 0.084,-0.063 0.084,-0.104c-0.063,0.021 -0.063,0.063 -0.084,0.104m1.023,-1.086l0,-0.083l-0.062,0.042c-0.063,0.063 -0.146,0.124 -0.209,0.209c-0.251,0.292 -0.46,0.646 -0.648,1.001c-0.062,0.126 -0.104,0.251 -0.146,0.418l0.105,-0.146c0.041,-0.062 0.083,-0.167 0.146,-0.23c0.229,-0.417 0.48,-0.835 0.814,-1.211m-1.023,1.086c-0.062,0.063 -0.104,0.147 -0.125,0.271c0.083,-0.062 0.125,-0.166 0.125,-0.271m-0.167,0.334c0.021,-0 0.021,-0.021 0.042,-0.041c-0.021,-0 -0.021,0.02 -0.042,0.02l-0,0.021Zm4.656,0.251c0,0.918 -0.982,1.628 -0.982,1.753c0,0.021 0.022,0.021 0.043,0.021l0.02,0c-0.292,0.397 -0.709,0.857 -1.002,1.169c-0.376,0.377 -0.835,0.689 -1.357,0.835c-0.188,0.042 -0.355,0.084 -0.543,0.084c-0.272,0 -0.522,-0.062 -0.752,-0.23c-0.292,-0.208 -0.584,-0.417 -0.751,-0.73c-0.084,-0.147 -0.126,-0.293 -0.146,-0.459c-0.021,-0.105 -0.021,-0.23 -0.021,-0.356c-0,-0.125 -0,-0.229 0.021,-0.355l-0,-0.5c0.042,-0.251 0.104,-0.481 0.167,-0.711l0,-0.124c0,-0.021 0.021,-0.042 0.021,-0.063c-0,-0.021 -0.021,-0.063 -0.021,-0.084c0,-0.021 -0.021,-0.021 -0.021,-0.041l0.062,-0.084c0.063,-0.042 0.105,-0.105 0.146,-0.167c0.126,-0.25 0.231,-0.523 0.377,-0.772c0.188,-0.314 0.396,-0.606 0.646,-0.877c0.168,-0.209 0.356,-0.377 0.585,-0.523c0.105,-0.083 0.23,-0.146 0.376,-0.166c0.104,-0.021 0.208,-0.021 0.293,-0.021c0.229,0 0.459,0.041 0.688,0.167c0.251,0.146 0.397,0.354 0.397,0.646l0,0.063c-0.021,0.23 -0.083,0.418 -0.188,0.626c-0.167,0.334 -0.355,0.648 -0.668,0.878c-0.355,0.271 -0.73,0.48 -1.127,0.584l-0.23,0.063c-0.104,0.021 -0.167,0.084 -0.209,0.188l-0.209,1.607l0,0.084c0,0.146 0.042,0.292 0.084,0.438c0.021,0.126 0.104,0.188 0.25,0.188l0.168,0c0.375,-0.083 0.772,-0.208 1.106,-0.438c0.334,-0.23 0.647,-0.48 0.94,-0.793c0.167,-0.168 0.543,-0.439 0.73,-0.648c0.251,-0.313 0.481,-0.584 0.69,-0.897c0.124,-0.209 0.271,-0.46 0.375,-0.669c0.021,0.105 0.042,0.209 0.042,0.314" style="fill:#fff;fill-rule:nonzero;"/>
    <path d="M79.233,35.388c0,-0.021 -0.02,-0.021 -0.042,-0.042l0,-0.021l-0.02,0l0.02,0.021c0,0.042 0,0.063 -0.041,0.105c0.063,-0.021 0.083,-0.042 0.083,-0.063m-0.25,0.313l-0,0.042c0.084,-0.084 0.167,-0.168 0.167,-0.292c-0.083,0.083 -0.146,0.146 -0.167,0.25m-0.084,0.146c0.063,-0.021 0.084,-0.042 0.084,-0.104l-0.063,-0l-0.021,0.104Zm-0.062,0.104c0.042,-0.02 0.042,-0.062 0.062,-0.104l-0.042,0l-0.02,0.021l-0,0.083Zm-0.084,0.335c0.022,-0.021 0.063,-0.063 0.063,-0.105l-0.063,0.105Zm-0.02,0.02c-0.021,0.022 -0.063,0.063 -0.063,0.105l0.063,-0.105Zm0.104,-0.355c-0.104,0.084 -0.167,0.188 -0.251,0.314c0.126,-0.042 0.189,-0.167 0.251,-0.314m-0.251,0.335c-0.063,0.02 -0.104,0.062 -0.125,0.146c0.062,-0.021 0.125,-0.084 0.125,-0.146m-0.145,0.376c-0.022,0.02 -0.043,0.041 -0.063,0.104l0.063,-0.104Zm0.02,-0.23c-0.083,0.042 -0.125,0.104 -0.167,0.188c0.084,-0.021 0.125,-0.084 0.167,-0.188m-0.105,0.354c-0.062,0.042 -0.125,0.084 -0.146,0.168c0.084,-0.042 0.104,-0.084 0.146,-0.168m-0.062,-0.166c-0.084,0.062 -0.126,0.083 -0.146,0.187c0.083,-0.021 0.104,-0.083 0.146,-0.187m-0.084,0.334c-0.02,0.02 -0.062,0.042 -0.083,0.083c0.041,-0.021 0.063,-0.041 0.083,-0.083m-0.083,0.083c-0.042,0.021 -0.063,0.042 -0.063,0.104c0.042,-0.021 0.063,-0.041 0.063,-0.104m-0.083,-0.146c-0.022,0.021 -0.042,0.063 -0.042,0.105l0.042,-0.105Zm-0.063,0.314l-0.063,0.062c0.021,-0.021 0.063,-0.042 0.084,-0.042c-0,-0.02 -0.021,-0.02 -0.021,-0.02m-0.251,-0.022c0.021,-0.021 0.146,-0.083 0.167,-0.125l-0.187,0.125l-0,0.022l0.02,-0.022Zm-0.585,-2.881c0.021,0 0.021,-0.02 0.042,-0.02c0,-0.022 0,-0.022 0.021,-0.042c-0.042,0.02 -0.042,0.042 -0.063,0.062m-0.187,0.292c0.083,-0.042 0.167,-0.166 0.187,-0.271c-0.104,0.042 -0.166,0.146 -0.187,0.271m-0.042,0.042c-0.021,0 -0.042,0.021 -0.042,0.021c-0,-0 0.021,-0 0.042,-0.021m-0.021,-0.543c-0.021,0.042 -0.042,0.062 -0.042,0.104l0.042,0c-0.042,0.063 -0.063,0.147 -0.084,0.209c-0.02,0.042 -0.083,0.063 -0.104,0.105l0,0.021c0.021,-0 0.021,0.02 0.021,-0c0.042,-0.021 0.063,-0.063 0.104,-0.104c0.105,-0.084 0.167,-0.21 0.23,-0.314c0.042,-0.063 0.042,-0.125 0.063,-0.188c-0.084,0 -0.063,0.105 -0.126,0.125c-0.02,0.022 -0.041,0.022 -0.041,0.042c-0.021,0 -0.021,0 -0.021,-0.02l-0,-0.042c-0,0.02 -0.021,0.042 -0.042,0.062m-0.627,-0.688c-0.02,-0 -0.041,-0 -0.062,0.02c-0.209,0.209 -0.417,0.438 -0.522,0.73c0.041,-0.02 0.063,-0.041 0.084,-0.082c0.166,-0.21 0.355,-0.418 0.5,-0.627l0,-0.041Zm0.46,-0c-0.146,0.083 -0.25,0.208 -0.376,0.312c-0.271,0.334 -0.459,0.689 -0.647,1.065c-0.021,0.021 -0.021,0.042 -0.021,0.063l0,0.021c0,0.02 0.021,0.042 0.063,0.042c0.104,-0.063 0.187,-0.084 0.271,-0.146c0.313,-0.251 0.584,-0.522 0.752,-0.877c0.083,-0.146 0.146,-0.293 0.167,-0.46l-0,-0.02c-0,-0.042 -0.042,-0.063 -0.084,-0.063l-0.042,-0l-0.083,0.063Zm-1.044,0.75c-0.021,0.022 -0.042,0.042 -0.063,0.105c0.063,-0.02 0.063,-0.063 0.063,-0.105m-0.105,0.168c0.021,-0.021 0.021,-0.041 0.021,-0.063c0,0.022 -0.021,0.022 -0.021,0.042l0,0.021Zm-0.041,-0.731c0.021,-0.021 0.041,-0.063 0.041,-0.104l-0.041,0.104Zm-0.063,0.063c-0.062,0.021 -0.062,0.062 -0.062,0.104l0.062,-0.104Zm-0.208,0.271c0.083,-0.021 0.125,-0.083 0.125,-0.167c-0.063,0.042 -0.105,0.084 -0.125,0.167m-0.251,0.439c0.083,-0.083 0.167,-0.21 0.209,-0.334c0.02,-0.021 0.042,-0.063 0.042,-0.105c-0.042,0.021 -0.063,0.063 -0.063,0.105c-0.125,0.083 -0.167,0.187 -0.188,0.334m-0.083,0.104c0.062,-0.021 0.083,-0.063 0.083,-0.104c-0.063,0.021 -0.063,0.063 -0.083,0.104m1.023,-1.086l-0,-0.083l-0.063,0.042c-0.063,0.063 -0.146,0.124 -0.209,0.209c-0.251,0.292 -0.459,0.646 -0.647,1.001c-0.063,0.126 -0.104,0.251 -0.146,0.418l0.104,-0.146c0.042,-0.062 0.084,-0.167 0.146,-0.23c0.23,-0.417 0.48,-0.835 0.815,-1.211m-1.023,1.086c-0.063,0.063 -0.105,0.147 -0.126,0.271c0.084,-0.062 0.126,-0.166 0.126,-0.271m-0.168,0.334c0.022,-0 0.022,-0.021 0.042,-0.041c-0.02,-0 -0.02,0.02 -0.042,0.02l0,0.021Zm4.656,0.251c0,0.918 -0.98,1.628 -0.98,1.753c-0,0.021 0.02,0.021 0.041,0.021l0.02,0c-0.292,0.397 -0.709,0.857 -1.002,1.169c-0.375,0.377 -0.835,0.689 -1.356,0.835c-0.188,0.042 -0.355,0.084 -0.544,0.084c-0.271,0 -0.521,-0.062 -0.752,-0.23c-0.292,-0.208 -0.584,-0.417 -0.75,-0.73c-0.084,-0.147 -0.126,-0.293 -0.147,-0.459c-0.021,-0.105 -0.021,-0.23 -0.021,-0.356c0,-0.125 0,-0.229 0.021,-0.355l-0,-0.5c0.042,-0.251 0.105,-0.481 0.167,-0.711l0,-0.124c0,-0.021 0.021,-0.042 0.021,-0.063c-0,-0.021 -0.021,-0.063 -0.021,-0.084c0,-0.021 -0.02,-0.021 -0.02,-0.041l0.062,-0.084c0.062,-0.042 0.104,-0.105 0.146,-0.167c0.125,-0.25 0.23,-0.523 0.376,-0.772c0.188,-0.314 0.397,-0.606 0.647,-0.877c0.167,-0.209 0.355,-0.377 0.585,-0.523c0.104,-0.083 0.23,-0.146 0.376,-0.166c0.104,-0.021 0.208,-0.021 0.292,-0.021c0.229,0 0.459,0.041 0.689,0.167c0.25,0.146 0.396,0.354 0.396,0.646l0,0.063c-0.02,0.23 -0.083,0.418 -0.188,0.626c-0.166,0.334 -0.354,0.648 -0.668,0.878c-0.355,0.271 -0.73,0.48 -1.127,0.584l-0.229,0.063c-0.105,0.021 -0.168,0.084 -0.21,0.188l-0.208,1.607l-0,0.084c-0,0.146 0.042,0.292 0.084,0.438c0.02,0.126 0.104,0.188 0.25,0.188l0.167,0c0.376,-0.083 0.772,-0.208 1.106,-0.438c0.335,-0.23 0.648,-0.48 0.94,-0.793c0.167,-0.168 0.543,-0.439 0.73,-0.648c0.251,-0.313 0.481,-0.584 0.69,-0.897c0.125,-0.209 0.271,-0.46 0.375,-0.669c0.021,0.105 0.042,0.209 0.042,0.314" style="fill:#fff;fill-rule:nonzero;"/>
    <path d="M81.217,33.864c-0.021,0.02 -0.042,0.042 -0.042,0.062c0.021,-0.02 0.042,-0.042 0.042,-0.062m-0.146,0.166c-0.021,0.022 -0.021,0.022 -0.021,0.042c-0,-0.02 -0,-0.02 0.021,-0.02l-0,-0.022Zm-0.042,0.105c-0.021,0.021 -0.042,0.041 -0.042,0.063c0.021,-0.022 0.042,-0.042 0.042,-0.063m-0.042,-0.376c0.021,-0 0.042,-0.021 0.042,-0.041c-0.021,-0 -0.042,0.02 -0.042,0.041m-0.084,0.522c-0.02,0.021 -0.041,0.021 -0.041,0.021l0.041,-0.021Zm-1.273,1.441c0,0 0.021,0 0.041,-0.021c0,-0 0.022,-0.021 0.042,-0.021c0.168,-0.313 0.397,-0.626 0.606,-0.919l0.063,-0.167c0.166,-0.188 0.334,-0.376 0.48,-0.605l0.063,-0.105c-0.209,0.146 -0.377,0.397 -0.543,0.626c-0.021,0.022 -0.021,0.043 -0.021,0.063c-0.23,0.23 -0.376,0.481 -0.544,0.731c-0.083,0.105 -0.146,0.209 -0.229,0.355c0,0.021 0,0.042 0.042,0.063m1.169,-1.358c-0.125,0.146 -0.251,0.272 -0.355,0.481c-0.021,0.02 -0.021,0.042 -0.021,0.062c-0.104,0.042 -0.187,0.188 -0.25,0.314c-0.063,0.083 -0.167,0.188 -0.209,0.312c-0.104,0.085 -0.147,0.189 -0.147,0.272c-0.166,0.209 -0.208,0.439 -0.312,0.647l-0,0.063l0.062,0c0.104,-0.188 0.188,-0.417 0.25,-0.668c0.064,-0.063 0.147,-0.146 0.189,-0.251c0.083,-0.104 0.167,-0.187 0.208,-0.355c0.084,-0.083 0.188,-0.166 0.209,-0.313c-0,-0.021 0.021,-0.041 0.042,-0.063c0.125,-0.104 0.23,-0.25 0.314,-0.355c0.02,-0.02 0.02,-0.062 0.02,-0.146m1.963,-1.273c-0,0.021 -0,0.042 -0.021,0.062c-0.042,0.022 -0.084,0.042 -0.147,0.042c-0.229,0.063 -0.458,0.146 -0.667,0.335c-0.251,0.188 -0.502,0.438 -0.731,0.71c-0.48,0.625 -0.94,1.273 -1.379,1.983l-0.5,0.96c-0.126,0.209 -0.188,0.439 -0.23,0.689c-0.062,0.272 -0.167,0.523 -0.23,0.752c-0.02,0.083 -0.063,0.146 -0.145,0.229c-0.022,0.022 -0.064,0.042 -0.084,0.042c-0.042,0 -0.084,-0.02 -0.105,-0.062c0,-0.021 0,-0.063 -0.021,-0.104c-0.02,-0.042 -0.042,-0.042 -0.083,-0.042c-0.105,-0.022 -0.146,-0.042 -0.146,-0.126l0,-0.063c0,-0.042 0.021,-0.083 0.021,-0.125l-0,-0.041l-0.042,-0c-0.021,0.063 -0.063,0.083 -0.084,0.124l0,-0.061c0,-0.043 0,-0.085 -0.083,-0.085c-0.083,-0.02 -0.104,-0.041 -0.104,-0.104c-0,-0.042 0.021,-0.104 0.041,-0.188c0.022,-0.229 0.042,-0.501 0.105,-0.751c0.083,-0.46 0.187,-0.877 0.251,-1.295c0.082,-0.396 0.187,-0.751 0.25,-1.085c-0,-0.104 0.02,-0.251 0.084,-0.355c0.041,-0.209 0.082,-0.376 0.145,-0.564c0.168,-0.522 0.314,-1.002 0.356,-1.565c0.062,-0.064 0.104,-0.127 0.187,-0.168c0.042,-0.021 0.021,-0.042 0.042,-0.042l0.042,0l0.271,0.083c0.042,0.042 0.062,0.105 0.062,0.147l0.043,0c0.042,0 0.104,0.021 0.146,0.063c0.021,0.083 0.062,0.187 0.104,0.209c0.042,0.02 0.063,0.083 0.063,0.124c0,0.126 -0.021,0.188 -0.021,0.251c-0.084,0.376 -0.439,1.357 -0.564,1.795c0,0.063 0,0.126 -0.021,0.168c0,0.021 0.021,0.021 0.021,0.042l0.063,-0l0.125,-0.105l1.003,-1.44c0.271,-0.272 0.605,-0.543 0.918,-0.731c0.146,-0.063 0.271,-0.104 0.417,-0.104c0.105,-0 0.209,0.02 0.314,0.041c0.166,0.021 0.271,0.146 0.334,0.334l-0,0.021Z" style="fill:#fff;fill-rule:nonzero;"/>
</svg>
