<?xml version="1.0" encoding="UTF-8" standalone="no"?>
<!DOCTYPE svg PUBLIC "-//W3C//DTD SVG 1.1//EN" "http://www.w3.org/Graphics/SVG/1.1/DTD/svg11.dtd">
<svg width="100%" height="100%" viewBox="0 0 1280 400" version="1.1" xmlns="http://www.w3.org/2000/svg" xmlns:xlink="http://www.w3.org/1999/xlink" xml:space="preserve" xmlns:serif="http://www.serif.com/" style="fill-rule:evenodd;clip-rule:evenodd;stroke-linejoin:round;stroke-miterlimit:2;">
    <rect x="-0" y="0" width="1280" height="399.599" style="fill:#b7c4cf;"/>
    <clipPath id="_clip1">
        <rect x="-0" y="0" width="1280" height="399.599"/>
    </clipPath>
    <g clip-path="url(#_clip1)">
        <g>
            <ellipse cx="688.907" cy="187.379" rx="749.428" ry="496.746" style="fill:#fff;fill-opacity:0.35;"/>
            <g>
                <path d="M118.204,-266.232c-5.338,-23.203 -13.532,-48.596 -25.043,-65.461c-75.305,636.169 -67.184,1090.96 -69.49,1579.01c0.362,0.029 2.887,0.238 4.521,1.955c4.623,-466.132 -6.784,-862.564 90.012,-1515.51Z" style="fill:#f39e53;"/>
                <path d="M94.543,-329.604c-8.906,-13.879 -19.389,-21.727 -30.237,-20.873c-53.606,606.428 -47.37,1102.94 -46.228,1598.18c0.468,-0.071 3.813,-0.578 5.85,-0.362c2.462,-487.314 -5.776,-939.625 70.615,-1576.95Z" style="fill:#ffe47a;"/>
                <path d="M65.814,-350.541c-10.833,0.07 -21.318,8.789 -30.237,23.424c-32.179,562.882 -28.088,1087.32 -23.767,1575.71c2.034,-0.186 5.402,-0.761 6.574,-0.935c-0.96,-495.2 -7.287,-989.926 47.43,-1598.2Z" style="fill:#8bc662;"/>
                <path d="M36.959,-329.321c-11.479,17.77 -19.681,43.744 -25.043,67.434c-12.423,503.186 -12.285,1040.24 -6.473,1510.21c2.795,0.63 6.158,0.293 6.694,0.239c-4.189,-489.086 -8.418,-1012.45 24.822,-1577.89Z" style="fill:#76a8d7;"/>
                <path d="M12.921,-266.217c-2.888,12.134 -11.248,49.059 -14.656,111.152c4.064,431.67 -2.779,968.632 1.285,1400.3c2.633,2.437 5.713,3.06 6.21,3.16c-5.941,-482.678 -5.998,-1015.73 7.161,-1514.61Z" style="fill:#987fb6;"/>
                <path d="M131.855,-160.152c-3.406,-62.058 -11.759,-98.377 -14.656,-110.338c-95.81,652.464 -84.617,1052.06 -89.184,1519.59c0.212,0.206 1.947,1.885 2.587,6.021c4.068,-432.024 -13.227,-759.641 101.253,-1415.27Z" style="fill:#e9463f;"/>
            </g>
        </g>
    </g>
    <path d="M0,400l0,-53.068c3.141,-0.086 6.243,-0.164 9.301,-0.234c444.178,19.554 765.816,31.252 997.661,36.425c110.89,2.474 199.857,3.427 273.038,3.169l0,13.708l-1280,-0Z" style="fill:#b7c4cf;"/>
    <path d="M1164.99,386.843c-0.205,-8.153 -1.138,-14.4 -2.211,-19.004l-7.628,-0c-1.073,4.604 -2.006,10.851 -2.211,19.004l12.05,0Z" style="fill:#0b1605;"/>
    <path d="M1192.87,387.189c-0.265,-8.153 -1.473,-14.4 -2.862,-19.004l-9.875,-0c-1.389,4.604 -2.596,10.851 -2.862,19.004l15.599,0Z" style="fill:#0b1605;"/>
    <path d="M1234.41,387.622c-0.127,-5.914 -0.705,-10.445 -1.37,-13.785l-4.729,0c-0.665,3.34 -1.244,7.871 -1.371,13.785l7.47,-0Z" style="fill:#0b1605;"/>
    <g>
        <path d="M1160.57,245.401c-0,0 -19.991,73.795 -19.991,105.421c-0,11.033 8.957,19.991 19.991,19.991c11.033,-0 19.99,-8.958 19.99,-19.991c0,-31.626 -19.99,-105.421 -19.99,-105.421Z" style="fill:#967e76;"/>
    </g>
    <g>
        <path d="M1231.36,283.759c-0,0 -14.443,53.316 -14.443,76.165c-0,7.971 6.471,14.443 14.443,14.443c7.971,0 14.443,-6.472 14.443,-14.443c-0,-22.849 -14.443,-76.165 -14.443,-76.165Z" style="fill:#d7c0ae;"/>
    </g>
    <g>
        <path d="M1186,221.389c0,-0 -23.818,87.924 -23.818,125.605c-0,13.146 10.672,23.819 23.818,23.819c13.146,-0 23.819,-10.673 23.819,-23.819c-0,-37.681 -23.819,-125.605 -23.819,-125.605Z" style="fill:#eee3cb;"/>
    </g>
    <path d="M1172.67,367.553c-6.327,-3.42 -10.488,-9.205 -10.488,-15.76c-0,-15.785 3.878,-40.064 8.504,-63.411c4.957,23.133 9.873,50.184 9.873,66.468c0,5.179 -3.096,9.786 -7.889,12.703Z" style="fill-opacity:0.19;"/>
</svg>
