<?xml version="1.0" encoding="UTF-8" standalone="no"?>
<!DOCTYPE svg PUBLIC "-//W3C//DTD SVG 1.1//EN" "http://www.w3.org/Graphics/SVG/1.1/DTD/svg11.dtd">
<svg width="100%" height="100%" viewBox="0 0 425 480" version="1.1" xmlns="http://www.w3.org/2000/svg" xmlns:xlink="http://www.w3.org/1999/xlink" xml:space="preserve" xmlns:serif="http://www.serif.com/" style="fill-rule:evenodd;clip-rule:evenodd;stroke-linejoin:round;stroke-miterlimit:2;">
    <path d="M0,478.672l0,-57.236c0.951,-0.093 271.112,33.454 341.319,39.033c33.58,2.669 61.52,3.696 83.681,3.419l0,14.784l-425,0Z" style="fill:#505050;"/>
    <path d="M423.775,478.075l0,-341.439c-184.783,1.046 -334.45,139.78 -334.45,310.513c-0,10.436 0.559,20.753 1.651,30.926l332.799,0Z" style="fill:#5b85c2;fill-opacity:0.08;"/>
    <path d="M58.442,449.308c-0.16,-6.109 -0.889,-10.79 -1.727,-14.24l-5.959,0c-0.838,3.45 -1.567,8.131 -1.727,14.24l9.413,0Z" style="fill:#0b1605;"/>
    <g>
        <path d="M53.765,346.882c0,0 -15.617,54.846 -15.617,78.351c0,8.619 6.998,15.617 15.617,15.617c8.619,-0 15.617,-6.998 15.617,-15.617c0,-23.505 -15.617,-78.351 -15.617,-78.351Z" style="fill:#d7c0ae;"/>
    </g>
    <rect x="-0" y="0" width="425" height="480" style="fill:none;"/>
</svg>
