<?xml version="1.0" encoding="UTF-8" standalone="no"?>
<!DOCTYPE svg PUBLIC "-//W3C//DTD SVG 1.1//EN" "http://www.w3.org/Graphics/SVG/1.1/DTD/svg11.dtd">
<svg width="100%" height="100%" viewBox="0 0 850 486" version="1.1" xmlns="http://www.w3.org/2000/svg" xmlns:xlink="http://www.w3.org/1999/xlink" xml:space="preserve" xmlns:serif="http://www.serif.com/" style="fill-rule:evenodd;clip-rule:evenodd;stroke-linejoin:round;stroke-miterlimit:2;">
    <rect x="-0" y="0" width="850" height="485.248" style="fill:none;"/>
    <path d="M850,485.248l-0,-57.236c-1.907,-0.093 -3.79,-0.177 -5.646,-0.252c-269.645,21.089 -537.857,33.706 -678.602,39.285c-67.318,2.669 -121.326,3.697 -165.752,3.419l-0,14.784l850,0Z" style="fill:#b7c4cf;"/>
    <g>
        <path d="M641.138,484.098c-0.203,-8.187 -1.125,-14.46 -2.186,-19.083l-7.542,-0c-1.061,4.623 -1.984,10.896 -2.186,19.083l11.914,0Z" style="fill:#0b1605;"/>
        <path d="M668.702,484.446c-0.263,-8.187 -1.457,-14.46 -2.83,-19.084l-9.764,0c-1.373,4.624 -2.567,10.897 -2.829,19.084l15.423,-0Z" style="fill:#0b1605;"/>
        <g>
            <path d="M636.763,347.016c0,-0 -19.765,74.314 -19.765,106.164c-0,10.908 8.857,19.765 19.765,19.765c10.909,-0 19.766,-8.857 19.766,-19.765c-0,-31.85 -19.766,-106.164 -19.766,-106.164Z" style="fill:#d7c0ae;"/>
        </g>
        <g>
            <path d="M661.908,322.904c0,-0 -23.55,88.544 -23.55,126.491c0,12.998 10.553,23.55 23.55,23.55c12.998,-0 23.55,-10.552 23.55,-23.55c0,-37.947 -23.55,-126.491 -23.55,-126.491Z" style="fill:#967e76;"/>
        </g>
        <path d="M648.728,469.672c-6.255,-3.435 -10.37,-9.243 -10.37,-15.825c0,-15.851 3.835,-40.23 8.409,-63.674c4.901,23.23 9.762,50.392 9.762,66.743c-0,5.201 -3.061,9.827 -7.801,12.756Z" style="fill-opacity:0.19;"/>
    </g>
</svg>
