<?xml version="1.0" encoding="UTF-8" standalone="no"?>
<!DOCTYPE svg PUBLIC "-//W3C//DTD SVG 1.1//EN" "http://www.w3.org/Graphics/SVG/1.1/DTD/svg11.dtd">
<svg width="100%" height="100%" viewBox="0 0 69 162" version="1.1" xmlns="http://www.w3.org/2000/svg" xmlns:xlink="http://www.w3.org/1999/xlink" xml:space="preserve" xmlns:serif="http://www.serif.com/" style="fill-rule:evenodd;clip-rule:evenodd;stroke-linejoin:round;stroke-miterlimit:2;">
    <g transform="matrix(1,0,0,1,-2163.17,-3542.41)">
        <g transform="matrix(1.84459,0,0,4.3903,1437.7,2014.28)">
            <g transform="matrix(-0.483356,-1.72244e-17,-1.04417e-16,0.39246,712.278,-370.948)">
                <path d="M632.854,1925.63C633.081,1920.88 634.116,1917.24 635.305,1914.56L643.765,1914.56C644.954,1917.24 645.989,1920.88 646.216,1925.63L632.854,1925.63Z" style="fill:rgb(11,22,5);"/>
            </g>
            <g transform="matrix(-0.625719,-1.82908e-17,-1.41336e-16,0.39246,817.316,-370.869)">
                <path d="M632.854,1925.63C633.081,1920.88 634.116,1917.24 635.305,1914.56L643.765,1914.56C644.954,1917.24 645.989,1920.88 646.216,1925.63L632.854,1925.63Z" style="fill:rgb(11,22,5);"/>
            </g>
            <g transform="matrix(-0.388423,-2.90957e-18,7.68617e-18,0.144111,2470.66,-760.18)">
                <path d="M5320.61,7728.34C5320.61,7728.34 5348.19,7845.8 5348.19,7896.14C5348.19,7913.38 5335.83,7927.38 5320.61,7927.38C5305.38,7927.38 5293.02,7913.38 5293.02,7896.14C5293.02,7845.8 5320.61,7728.34 5320.61,7728.34Z" style="fill:rgb(215,192,174);"/>
            </g>
            <g transform="matrix(-0.462795,-3.46667e-18,9.15785e-18,0.171705,2879.99,-978.922)">
                <path d="M5320.61,7728.34C5320.61,7728.34 5348.19,7845.8 5348.19,7896.14C5348.19,7913.38 5335.83,7927.38 5320.61,7927.38C5305.38,7927.38 5293.02,7913.38 5293.02,7896.14C5293.02,7845.8 5320.61,7728.34 5320.61,7728.34Z" style="fill:rgb(150,126,118);"/>
            </g>
            <g transform="matrix(-0.0864777,-6.4778e-19,3.32628e-18,0.0623659,487.105,340.41)">
                <path d="M885.847,658.844C925.061,646.3 950.855,625.085 950.855,601.047C950.855,543.156 926.817,454.119 898.141,368.496C867.418,453.335 836.943,552.539 836.943,612.256C836.943,631.251 856.134,648.146 885.847,658.844Z" style="fill-opacity:0.19;"/>
            </g>
        </g>
    </g>
</svg>
